<svg xmlns="http://www.w3.org/2000/svg" viewBox="0 0 272.35 302.25"><defs><style>.cls-1{isolation:isolate;}.cls-2{fill:#2bb673;}.cls-3{opacity:0.54;mix-blend-mode:multiply;}.cls-4{fill:#231f20;stroke:#231f20;}.cls-4,.cls-5,.cls-6{stroke-miterlimit:10;}.cls-4,.cls-5{stroke-width:0.75px;}.cls-5{fill:#fff;}.cls-5,.cls-6{stroke:#fff;}.cls-6{fill:none;stroke-width:11px;}</style></defs><title>No ShadeAmin Logo</title><g class="cls-1"><g id="Layer_1" data-name="Layer 1"><path class="cls-2" d="M426.69,133.33V244.88a34.07,34.07,0,0,1-17,29.51l-96.6,55.77a34,34,0,0,1-10.54,3.95c-.62.12-1.25.22-1.88.31s-1.27.14-1.91.19c-.3,0-.59.05-.89.06a28.64,28.64,0,0,1-3.34,0c-.45,0-.9,0-1.35-.09h0l-.41,0c-.93-.09-1.87-.22-2.8-.39l-.41-.07L289,334a33.64,33.64,0,0,1-10-3.83l-96.61-55.77a34.08,34.08,0,0,1-17-29.51V133.33a33.81,33.81,0,0,1,1-8.18c0-.17.08-.34.13-.51s0-.1,0-.15c.24-.9.52-1.78.84-2.65a27.48,27.48,0,0,1,1.12-2.76c.18-.41.37-.81.58-1.21.32-.64.67-1.28,1-1.9a31.58,31.58,0,0,1,2.11-3.16,34.08,34.08,0,0,1,10.16-9L279,48.05a34.05,34.05,0,0,1,34.07,0l96.6,55.77a34.1,34.1,0,0,1,9.71,8.41c.33.42.65.84,1,1.27s.56.81.83,1.22c.42.64.81,1.28,1.18,2s.75,1.39,1.09,2.1c.22.46.42.92.62,1.39.28.67.55,1.36.78,2a31.53,31.53,0,0,1,1.24,4.6A33.67,33.67,0,0,1,426.69,133.33Z" transform="translate(-160.34 -38.58)"/><g class="cls-3"><path class="cls-4" d="M426.74,125.36a5.41,5.41,0,0,1-1.75,1.5h0l-37.07,19.88a17.13,17.13,0,0,0,3.75.12,70.87,70.87,0,0,1,7.29.34c1.26.14,2.67.68,2.63,2.17s-1.55,3.1-2.64,4.06a20.34,20.34,0,0,1-9.38,4.46,24.14,24.14,0,0,1-10.53-.24,11.65,11.65,0,0,1-4.49-2.17c-.39-.31-.76-.64-1.14-1l-43.24,23.19c4.12,1.52,8.57.5,12.85-.22,1.49-.25,3.08-.05,3.78,1.48.63,1.37.14,3-.41,4.28a19.62,19.62,0,0,1-6.95,8.9c-3.32,2.12-6.76,1.48-9.79-.8a43.92,43.92,0,0,1-8.3-8.38.83.83,0,0,1-.18-.43l-12.86,6.9a7.19,7.19,0,0,0-3.84,6.23l-.59,48a3,3,0,0,0,.45-.13,3.9,3.9,0,0,0,2.19-2.48,18.09,18.09,0,0,0,.74-3.64l.6-4.39c.19-1.36.37-2.73.56-4.09a4.8,4.8,0,0,1,1.1-2.79,2.31,2.31,0,0,1,2.57-.6,3.18,3.18,0,0,1,1.49,1.86,20.81,20.81,0,0,1,.84,3.12,5,5,0,0,1,.31,1.59c.15.81.29,1.63.39,2.45a31.08,31.08,0,0,1,.22,3.21c3.85-1.28,5.71-6.14,7.35-9.48,1-2,1.89-4.12,3-6.06.86-1.49,2.49-3,4.35-2.37a3.74,3.74,0,0,1,2.2,3.31,17.08,17.08,0,0,1-.29,5.24,12.34,12.34,0,0,1-2.11,5.18,14.35,14.35,0,0,1-4.63,3.77,29,29,0,0,1-9.59,3.28l-.23.14a.88.88,0,0,1-.15.05c0,.45-.08.89-.14,1.34a23.35,23.35,0,0,1-11.41,16.71l-.3,25a9.51,9.51,0,0,0,3.21-.07,14.77,14.77,0,0,0,7.56-4c1.65-1.59,3.1-3.42,5.05-4.66,1.62-1,4-1.77,5.74-.62,2.05,1.32,1.46,3.92.58,5.76a29.35,29.35,0,0,1-1.59,2.84c3.18,1.33,7,1.28,10.32.75a23.47,23.47,0,0,0,9.48-3.64,18.68,18.68,0,0,0,1.66-1.27,12.21,12.21,0,0,1-4.41-4.72,28.54,28.54,0,0,1-2.87-7.28,20.44,20.44,0,0,1,.89-13.43,11,11,0,0,1,4-5,4.7,4.7,0,0,1,5.46.19,4.94,4.94,0,0,1,1.5,3.92c2.73.65,5.57-.43,7.9-1.86a18.42,18.42,0,0,0,6.13-6.22c.13-.23.25-.47.38-.71a36.77,36.77,0,0,1-11.89,0,15.22,15.22,0,0,1-5.45-1.83,10.7,10.7,0,0,1-3.9-4.45,9.37,9.37,0,0,1-1.27-5.86c.31-1.73,1.61-3.67,3.57-3.54,2.11.14,3.28,2.14,4.32,3.73a19.23,19.23,0,0,0,3,3.75c1.62-.83,2.43-2.82,2.93-4.49a40.63,40.63,0,0,0,1.15-6.67,39,39,0,0,1,1-5.78,12.21,12.21,0,0,1,2.47-5c1.16-1.27,3.13-1.94,4.63-.82s1.84,3.22,2.09,4.88a11.3,11.3,0,0,1-.08,3.72,6.47,6.47,0,0,0,4.52-1.79,15.49,15.49,0,0,0,3.63-6.17c.43-1.14.84-2.29,1.21-3.45s.66-2.32,1.08-3.45c.64-1.72,2-3.49,4-3.4a4.5,4.5,0,0,1,3.89,3.22,10.52,10.52,0,0,1-.22,6.11c-1.24,4.24-4.33,7.27-8,9.56-3.38,2.12-7.34,3.78-11.36,3.21a35.43,35.43,0,0,1-2.27,4.16c-2,3.29-4.68,6.36-8.36,7.78a20.61,20.61,0,0,0,5.11,1.87c1.16.28,2.33.5,3.49.71a8.5,8.5,0,0,0,2.56.24c.46-1.08.89-2.17,1.33-3.25s.83-2.65,1.85-3.47a4.08,4.08,0,0,1,3.13-.68c4.76.64,4.12,5.68,2.73,9.61a14.13,14.13,0,0,0,14.29-4,13.85,13.85,0,0,0,2-2.77c.54-1,.92-2.09,1.54-3.05a5.37,5.37,0,0,1,2.51-2A4.6,4.6,0,0,1,399,230a5.21,5.21,0,0,1,2.28,2.13,10.9,10.9,0,0,1,1.71,3.23c.65,2.39-.65,4.66-2.23,6.37a20.06,20.06,0,0,1-12,5.77c-5.15.72-10.34-.08-15.42-1.05-2.47,4.07-6.77,6.91-11.09,8.7a29.58,29.58,0,0,1-13.07,2.24c-.43,1.68-.91,3.34-1.27,5-.79,3.8-.88,8.45,1.71,11.52l.54-.87c1.58-2.53,3.72-5.48,7-5.79s4.37,3.48,4.17,6.11a13.19,13.19,0,0,1-4,8.15,22.67,22.67,0,0,1-8.58,5,64.22,64.22,0,0,1-10.74,2.79,53.63,53.63,0,0,1-18.48-.42,35.69,35.69,0,0,1-8.8,6.69c-2.25,1.22-4.65,2.31-6.46,4.17a9.76,9.76,0,0,0-1,1.22l-.43,35.33a5.26,5.26,0,0,1-.18,1.27c-.63.08-1.27.14-1.91.19-.3,0-.59.05-.89.06a28.64,28.64,0,0,1-3.34,0c-.45,0-.9,0-1.35-.09h0l-.41,0a2.86,2.86,0,0,1-.41-1.48v0l.38-30.78a10.76,10.76,0,0,0-2.45-4.19.69.69,0,0,0-.11-.13c-1.81-1.86-4.21-2.95-6.46-4.16a36,36,0,0,1-8.81-6.7,53.57,53.57,0,0,1-18.47.42,65.17,65.17,0,0,1-10.74-2.78,22.75,22.75,0,0,1-8.58-5,13.19,13.19,0,0,1-4-8.15c-.2-2.63.83-6.43,4.17-6.11s5.39,3.26,7,5.79l.54.87c2.59-3.07,2.5-7.72,1.7-11.52-.35-1.69-.83-3.35-1.26-5A29.71,29.71,0,0,1,234,256.49c-4.32-1.8-8.62-4.64-11.09-8.71-5.08,1-10.27,1.77-15.42,1.06a20.07,20.07,0,0,1-12-5.78c-1.58-1.71-2.88-4-2.23-6.37a11.11,11.11,0,0,1,1.7-3.23,5.29,5.29,0,0,1,2.29-2.13,4.65,4.65,0,0,1,3.45.5,5.37,5.37,0,0,1,2.51,2c.62,1,1,2.05,1.54,3.05a13.85,13.85,0,0,0,2,2.77,14.13,14.13,0,0,0,14.29,4c-1.39-3.93-2-9,2.73-9.6a4,4,0,0,1,3.13.67c1,.82,1.39,2.3,1.85,3.47s.87,2.17,1.33,3.25a8.53,8.53,0,0,0,2.56-.24c1.16-.21,2.33-.43,3.49-.7a21,21,0,0,0,5.11-1.88c-3.69-1.42-6.32-4.49-8.36-7.78a35.43,35.43,0,0,1-2.27-4.16c-4,.58-8-1.09-11.36-3.21-3.66-2.29-6.75-5.32-8-9.56a10.52,10.52,0,0,1-.22-6.11,4.5,4.5,0,0,1,3.89-3.22c2-.09,3.35,1.69,4,3.4.42,1.13.71,2.31,1.08,3.45s.77,2.31,1.2,3.45a15.63,15.63,0,0,0,3.64,6.17,6.47,6.47,0,0,0,4.52,1.79,11.3,11.3,0,0,1-.08-3.72c.25-1.66.66-3.8,2.09-4.88s3.47-.45,4.63.82a12.21,12.21,0,0,1,2.47,5,39.09,39.09,0,0,1,1,5.79,40.69,40.69,0,0,0,1.15,6.66c.5,1.67,1.3,3.66,2.93,4.49a19.61,19.61,0,0,0,3-3.75c1-1.58,2.21-3.59,4.32-3.73s3.26,1.82,3.57,3.54a9.4,9.4,0,0,1-1.27,5.87,10.68,10.68,0,0,1-3.9,4.44,15.22,15.22,0,0,1-5.45,1.83,36.77,36.77,0,0,1-11.89,0c.13.24.25.48.38.71a18.42,18.42,0,0,0,6.13,6.22c2.32,1.43,5.17,2.51,7.9,1.86a4.94,4.94,0,0,1,1.5-3.92,4.7,4.7,0,0,1,5.46-.19,11,11,0,0,1,4,5,20.44,20.44,0,0,1,.89,13.43,28.91,28.91,0,0,1-2.87,7.28,12.21,12.21,0,0,1-4.41,4.72,18.68,18.68,0,0,0,1.66,1.27,23.33,23.33,0,0,0,9.48,3.64c3.33.53,7.14.59,10.32-.75a28.21,28.21,0,0,1-1.59-2.84c-.89-1.84-1.47-4.44.58-5.76,1.77-1.15,4.12-.42,5.74.62,2,1.24,3.4,3.08,5.05,4.67a14.75,14.75,0,0,0,7.56,4,9.33,9.33,0,0,0,2.73.13l.3-25a23.35,23.35,0,0,1-11.53-16.78c-.06-.44-.1-.89-.14-1.34a.66.66,0,0,1-.15,0l-.23-.14A28.72,28.72,0,0,1,271,238.7a14.49,14.49,0,0,1-4.64-3.77,12.46,12.46,0,0,1-2.1-5.18,17.08,17.08,0,0,1-.29-5.24,3.73,3.73,0,0,1,2.2-3.31c1.86-.62,3.49.88,4.34,2.37,1.12,1.94,2,4,3,6.06,1.64,3.35,3.49,8.2,7.35,9.48a31.27,31.27,0,0,1,.22-3.21c.1-.82.24-1.63.39-2.44a5,5,0,0,1,.31-1.6,21.13,21.13,0,0,1,.84-3.12,3.16,3.16,0,0,1,1.49-1.85,2.27,2.27,0,0,1,2.57.6,4.84,4.84,0,0,1,1.1,2.78c.19,1.36.37,2.73.56,4.1l.6,4.38a18.09,18.09,0,0,0,.74,3.64,3.91,3.91,0,0,0,2.19,2.49,3.43,3.43,0,0,0,1,.2l.61-49.61a6.29,6.29,0,0,0-3.55-5.72l-13.85-6.88a.78.78,0,0,1-.18.44,43.92,43.92,0,0,1-8.3,8.38c-3,2.28-6.47,2.92-9.79.8a19.57,19.57,0,0,1-7-8.9c-.56-1.31-1-2.91-.41-4.28.7-1.53,2.28-1.73,3.78-1.48,4.14.7,8.44,1.67,12.45.36l-44.25-22-.73.61a11.65,11.65,0,0,1-4.49,2.17,24.3,24.3,0,0,1-10.53.25,20.35,20.35,0,0,1-9.38-4.47c-1.09-1-2.59-2.52-2.64-4.06s1.37-2,2.62-2.17a71.2,71.2,0,0,1,7.3-.34c.54,0,1.18,0,1.84.05l-35.35-17.57a5.37,5.37,0,0,1-2.66-2.89c0-.05,0-.1,0-.15.24-.9.52-1.78.84-2.65a27.48,27.48,0,0,1,1.12-2.76c.18-.41.37-.81.58-1.21a5.51,5.51,0,0,1,5,0l29.15,14.49a50.48,50.48,0,0,0-3.37-4,35.58,35.58,0,0,1-3.58-4.45,9.85,9.85,0,0,1-1.91-5,3.13,3.13,0,0,1,3-3.14c1.71-.16,3.14.88,4.36,2a29.9,29.9,0,0,1,6.75,8.54,31.09,31.09,0,0,1,3.31,10.26h0L244,154.79a18,18,0,0,0-1.27-3.68c-1-2.24-2.15-4.42-3.18-6.65a42.13,42.13,0,0,1-2.66-6.58c-.43-1.61-1-4.21.31-5.55,2.58-2.56,7.27,2.06,8.85,3.88a23.27,23.27,0,0,1,5.17,11c.25,1.37,1.31,8.44.07,11.15l24.35,12.1a7.15,7.15,0,0,0-.12-1.3c-.24-.71-.46-1.42-.66-2.14s-.67-1.5-1-2.25c-1-2.26-1.59-5.13.34-7.08a3.37,3.37,0,0,1,2.82-1.05,4.24,4.24,0,0,1,2.68,1.78,10.77,10.77,0,0,1,1.76,7.27,12.71,12.71,0,0,1-2.07,6.64l15.64,7.77a8.48,8.48,0,0,0,7.75-.12l14.94-8a3.44,3.44,0,0,1-.27-.27,2,2,0,0,1-.3-.28l-.05-.06c-1.64-1.87-2.2-4.62-2.38-7a10.7,10.7,0,0,1,1.76-7.26,4.16,4.16,0,0,1,2.68-1.78A3.37,3.37,0,0,1,322,156.4c1.93,1.95,1.3,4.82.34,7.08-.33.75-.69,1.49-1,2.25s-.42,1.43-.66,2.14a7.22,7.22,0,0,0,0,2.58l24.39-13.09c-1.48-2.46-.34-10-.08-11.44a23.27,23.27,0,0,1,5.17-11c1.58-1.82,6.27-6.44,8.84-3.88,1.35,1.34.75,3.93.32,5.55a42.53,42.53,0,0,1-2.66,6.58c-1,2.23-2.17,4.41-3.18,6.65a16.94,16.94,0,0,0-1.28,3.77L379.39,139v0a30.84,30.84,0,0,1,3.48-11.81,29.63,29.63,0,0,1,6.75-8.54c1.22-1.07,2.65-2.11,4.36-2a3.12,3.12,0,0,1,2.95,3.14,9.88,9.88,0,0,1-1.91,5,36.42,36.42,0,0,1-3.58,4.46,32.71,32.71,0,0,0-4.51,5.74l32.8-17.59a5.53,5.53,0,0,1,2.51-.66c.29.4.56.81.83,1.22.42.64.81,1.28,1.18,1.95a2.9,2.9,0,0,1,.73.86,2.85,2.85,0,0,1,.36,1.24c.22.46.42.92.62,1.39C426.24,124,426.51,124.67,426.74,125.36Z" transform="translate(-160.34 -38.58)"/></g><path class="cls-5" d="M425.32,122.81a5.41,5.41,0,0,1-1.75,1.5h0l-37.07,19.88a17.13,17.13,0,0,0,3.75.12,70.87,70.87,0,0,1,7.29.34c1.26.14,2.67.68,2.63,2.17s-1.55,3.1-2.64,4.06a20.34,20.34,0,0,1-9.38,4.46,24.14,24.14,0,0,1-10.53-.24,11.65,11.65,0,0,1-4.49-2.17c-.39-.31-.76-.64-1.14-1l-43.24,23.19c4.12,1.52,8.57.5,12.85-.22,1.49-.25,3.08-.05,3.78,1.48.63,1.37.14,3-.41,4.28a19.62,19.62,0,0,1-6.95,8.9c-3.32,2.12-6.76,1.48-9.79-.8a43.92,43.92,0,0,1-8.3-8.38.83.83,0,0,1-.18-.43l-12.86,6.9a7.19,7.19,0,0,0-3.84,6.23l-.59,48a3,3,0,0,0,.45-.13,3.9,3.9,0,0,0,2.19-2.48,18.09,18.09,0,0,0,.74-3.64l.6-4.39c.19-1.36.37-2.73.56-4.09a4.8,4.8,0,0,1,1.1-2.79,2.31,2.31,0,0,1,2.57-.6,3.18,3.18,0,0,1,1.49,1.86A20.81,20.81,0,0,1,313,228a5,5,0,0,1,.31,1.59c.15.81.29,1.63.39,2.45a31.08,31.08,0,0,1,.22,3.21c3.85-1.28,5.71-6.14,7.35-9.48,1-2,1.89-4.12,3-6.06.86-1.49,2.49-3,4.35-2.37a3.74,3.74,0,0,1,2.2,3.31,17.08,17.08,0,0,1-.29,5.24,12.34,12.34,0,0,1-2.11,5.18,14.35,14.35,0,0,1-4.63,3.77,29,29,0,0,1-9.59,3.28l-.23.14a.88.88,0,0,1-.15.05c0,.45-.08.89-.14,1.34a23.35,23.35,0,0,1-11.41,16.71l-.3,25a9.51,9.51,0,0,0,3.21-.07,14.77,14.77,0,0,0,7.56-4c1.65-1.59,3.1-3.42,5-4.66,1.62-1.05,4-1.77,5.74-.62,2.05,1.32,1.46,3.92.58,5.76a29.35,29.35,0,0,1-1.59,2.84c3.18,1.33,7,1.28,10.32.75a23.47,23.47,0,0,0,9.48-3.64,18.68,18.68,0,0,0,1.66-1.27,12.21,12.21,0,0,1-4.41-4.72,28.54,28.54,0,0,1-2.87-7.28,20.44,20.44,0,0,1,.89-13.43,11,11,0,0,1,4-5,4.7,4.7,0,0,1,5.46.19,4.94,4.94,0,0,1,1.5,3.92c2.73.65,5.57-.43,7.9-1.86a18.42,18.42,0,0,0,6.13-6.22c.13-.23.25-.47.38-.71a36.77,36.77,0,0,1-11.89,0,15.22,15.22,0,0,1-5.45-1.83,10.7,10.7,0,0,1-3.9-4.45,9.37,9.37,0,0,1-1.27-5.86c.31-1.73,1.61-3.67,3.57-3.54s3.28,2.14,4.32,3.73a19.23,19.23,0,0,0,3,3.75c1.62-.83,2.43-2.82,2.93-4.49a40.63,40.63,0,0,0,1.15-6.67,39,39,0,0,1,1-5.78,12.21,12.21,0,0,1,2.47-5c1.16-1.27,3.13-1.94,4.63-.82s1.84,3.22,2.09,4.88a11.3,11.3,0,0,1-.08,3.72,6.47,6.47,0,0,0,4.52-1.79,15.49,15.49,0,0,0,3.63-6.17c.43-1.14.84-2.29,1.21-3.45s.66-2.32,1.08-3.45c.64-1.72,2-3.49,4-3.4a4.5,4.5,0,0,1,3.89,3.22,10.52,10.52,0,0,1-.22,6.11c-1.24,4.24-4.33,7.27-8,9.56-3.38,2.12-7.34,3.78-11.36,3.21a35.43,35.43,0,0,1-2.27,4.16c-2,3.29-4.68,6.36-8.36,7.78a20.61,20.61,0,0,0,5.11,1.87c1.16.28,2.33.5,3.49.71a8.5,8.5,0,0,0,2.56.24c.46-1.08.89-2.17,1.33-3.25s.83-2.65,1.85-3.47a4.08,4.08,0,0,1,3.13-.68c4.76.64,4.12,5.68,2.73,9.61a14.13,14.13,0,0,0,14.29-4,13.85,13.85,0,0,0,2-2.77c.54-1,.92-2.09,1.54-3a5.37,5.37,0,0,1,2.51-2.05,4.6,4.6,0,0,1,3.45-.5,5.21,5.21,0,0,1,2.28,2.13,10.9,10.9,0,0,1,1.71,3.23c.65,2.39-.65,4.66-2.23,6.37a20.06,20.06,0,0,1-12,5.77c-5.15.72-10.34-.08-15.42-1.05-2.47,4.07-6.77,6.91-11.09,8.7a29.58,29.58,0,0,1-13.07,2.24c-.43,1.68-.91,3.34-1.27,5-.79,3.8-.88,8.45,1.71,11.52l.54-.87c1.58-2.53,3.72-5.48,7-5.79s4.37,3.48,4.17,6.11a13.19,13.19,0,0,1-4,8.15,22.67,22.67,0,0,1-8.58,5,64.22,64.22,0,0,1-10.74,2.79,53.63,53.63,0,0,1-18.48-.42,35.69,35.69,0,0,1-8.8,6.69c-2.25,1.22-4.65,2.31-6.46,4.17a9.76,9.76,0,0,0-1,1.22l-.43,35.33a5.26,5.26,0,0,1-.18,1.27c-.63.08-1.27.14-1.91.19-.3,0-.59.05-.89.06a28.64,28.64,0,0,1-3.34,0c-.45,0-.9,0-1.35-.09h0l-.41,0a2.86,2.86,0,0,1-.41-1.48v0l.38-30.78a10.76,10.76,0,0,0-2.45-4.19.69.69,0,0,0-.11-.13c-1.81-1.86-4.21-3-6.46-4.16a36,36,0,0,1-8.81-6.7,53.57,53.57,0,0,1-18.47.42,65.17,65.17,0,0,1-10.74-2.78,22.75,22.75,0,0,1-8.58-5,13.19,13.19,0,0,1-4-8.15c-.2-2.63.83-6.43,4.17-6.11s5.39,3.26,7,5.79l.54.87c2.59-3.07,2.5-7.72,1.7-11.52-.35-1.69-.83-3.35-1.26-5a29.71,29.71,0,0,1-13.07-2.23c-4.32-1.8-8.62-4.64-11.09-8.71-5.08,1-10.27,1.77-15.42,1.06a20.07,20.07,0,0,1-12-5.78c-1.58-1.71-2.88-4-2.23-6.37a11.11,11.11,0,0,1,1.7-3.23,5.29,5.29,0,0,1,2.29-2.13,4.65,4.65,0,0,1,3.45.5,5.37,5.37,0,0,1,2.51,2.05c.62,1,1,2,1.54,3a13.85,13.85,0,0,0,2,2.77,14.13,14.13,0,0,0,14.29,4c-1.39-3.93-2-9,2.73-9.6a4,4,0,0,1,3.13.67c1,.82,1.39,2.3,1.85,3.47s.87,2.17,1.33,3.25a8.53,8.53,0,0,0,2.56-.24c1.16-.21,2.33-.43,3.49-.7a21,21,0,0,0,5.11-1.88c-3.69-1.42-6.32-4.49-8.36-7.78a35.43,35.43,0,0,1-2.27-4.16c-4,.58-8-1.09-11.36-3.21-3.66-2.29-6.75-5.32-8-9.56a10.52,10.52,0,0,1-.22-6.11,4.5,4.5,0,0,1,3.89-3.22c2-.09,3.35,1.69,4,3.4.42,1.13.71,2.31,1.08,3.45s.77,2.31,1.2,3.45a15.63,15.63,0,0,0,3.64,6.17,6.47,6.47,0,0,0,4.52,1.79,11.3,11.3,0,0,1-.08-3.72c.25-1.66.66-3.8,2.09-4.88s3.47-.45,4.63.82a12.21,12.21,0,0,1,2.47,5,39.09,39.09,0,0,1,1,5.79,40.69,40.69,0,0,0,1.15,6.66c.5,1.67,1.3,3.66,2.93,4.49a19.61,19.61,0,0,0,3-3.75c1-1.58,2.21-3.59,4.32-3.73,2-.13,3.26,1.82,3.57,3.54a9.4,9.4,0,0,1-1.27,5.87,10.68,10.68,0,0,1-3.9,4.44,15.22,15.22,0,0,1-5.45,1.83,36.77,36.77,0,0,1-11.89,0c.13.24.25.48.38.71a18.42,18.42,0,0,0,6.13,6.22c2.32,1.43,5.17,2.51,7.9,1.86a4.94,4.94,0,0,1,1.5-3.92,4.7,4.7,0,0,1,5.46-.19,11,11,0,0,1,4,5,20.44,20.44,0,0,1,.89,13.43,28.91,28.91,0,0,1-2.87,7.28,12.21,12.21,0,0,1-4.41,4.72,18.68,18.68,0,0,0,1.66,1.27,23.33,23.33,0,0,0,9.48,3.64c3.33.53,7.14.59,10.32-.75a28.21,28.21,0,0,1-1.59-2.84c-.89-1.84-1.47-4.44.58-5.76,1.77-1.15,4.12-.42,5.74.62,1.95,1.24,3.4,3.08,5,4.67a14.75,14.75,0,0,0,7.56,4,9.33,9.33,0,0,0,2.73.13l.3-25A23.35,23.35,0,0,1,279.71,241c-.06-.44-.1-.89-.14-1.34a.66.66,0,0,1-.15-.05l-.23-.14a28.72,28.72,0,0,1-9.59-3.28,14.49,14.49,0,0,1-4.64-3.77,12.46,12.46,0,0,1-2.1-5.18,17.08,17.08,0,0,1-.29-5.24,3.73,3.73,0,0,1,2.2-3.31c1.86-.62,3.49.88,4.34,2.37,1.12,1.94,2,4,3,6.06,1.64,3.35,3.49,8.2,7.35,9.48a31.27,31.27,0,0,1,.22-3.21c.1-.82.24-1.63.39-2.44a5,5,0,0,1,.31-1.6,21.13,21.13,0,0,1,.84-3.12,3.16,3.16,0,0,1,1.49-1.85,2.27,2.27,0,0,1,2.57.6,4.84,4.84,0,0,1,1.1,2.78c.19,1.36.37,2.73.56,4.1l.6,4.38a18.09,18.09,0,0,0,.74,3.64,3.91,3.91,0,0,0,2.19,2.49,3.43,3.43,0,0,0,.95.2l.61-49.61a6.29,6.29,0,0,0-3.55-5.72l-13.85-6.88a.78.78,0,0,1-.18.44,43.92,43.92,0,0,1-8.3,8.38c-3,2.28-6.47,2.92-9.79.8a19.57,19.57,0,0,1-7-8.9c-.56-1.31-1-2.91-.41-4.28.7-1.53,2.28-1.73,3.78-1.48,4.14.7,8.44,1.67,12.45.36l-44.25-22-.73.61a11.65,11.65,0,0,1-4.49,2.17,24.3,24.3,0,0,1-10.53.25,20.35,20.35,0,0,1-9.38-4.47c-1.09-1-2.59-2.52-2.64-4.06s1.37-2,2.62-2.17a71.2,71.2,0,0,1,7.3-.34c.54,0,1.18,0,1.84,0l-35.35-17.57a5.37,5.37,0,0,1-2.66-2.89s0-.1,0-.15c.24-.9.52-1.78.84-2.65a27.48,27.48,0,0,1,1.12-2.76c.18-.41.37-.81.58-1.21a5.51,5.51,0,0,1,5,0l29.15,14.49a50.48,50.48,0,0,0-3.37-4,35.58,35.58,0,0,1-3.58-4.45,9.85,9.85,0,0,1-1.91-5,3.13,3.13,0,0,1,2.95-3.14c1.71-.16,3.14.88,4.36,1.95a29.9,29.9,0,0,1,6.75,8.54,31.09,31.09,0,0,1,3.31,10.26h0l30.36,15.08a18,18,0,0,0-1.27-3.68c-1-2.24-2.15-4.42-3.18-6.65a42.13,42.13,0,0,1-2.66-6.58c-.43-1.61-1-4.21.31-5.55,2.58-2.56,7.27,2.06,8.85,3.88a23.27,23.27,0,0,1,5.17,11.05c.25,1.37,1.31,8.44.07,11.15L274.24,168a7.15,7.15,0,0,0-.12-1.3c-.24-.71-.46-1.42-.66-2.14s-.67-1.5-1-2.25c-1-2.26-1.59-5.13.34-7.08a3.37,3.37,0,0,1,2.82-1.05,4.24,4.24,0,0,1,2.68,1.78,10.77,10.77,0,0,1,1.76,7.27,12.71,12.71,0,0,1-2.07,6.64l15.64,7.77a8.48,8.48,0,0,0,7.75-.12l14.94-8a3.44,3.44,0,0,1-.27-.27,2,2,0,0,1-.3-.28l-.05-.06c-1.64-1.87-2.2-4.62-2.38-7a10.7,10.7,0,0,1,1.76-7.26,4.16,4.16,0,0,1,2.68-1.78,3.37,3.37,0,0,1,2.82,1c1.93,2,1.3,4.82.34,7.08-.33.75-.69,1.49-1,2.25s-.42,1.43-.66,2.14a7.22,7.22,0,0,0,0,2.58l24.39-13.09c-1.48-2.46-.34-10-.08-11.44a23.27,23.27,0,0,1,5.17-11.05c1.58-1.82,6.27-6.44,8.84-3.88,1.35,1.34.75,3.93.32,5.55a42.53,42.53,0,0,1-2.66,6.58c-1,2.23-2.17,4.41-3.18,6.65a16.94,16.94,0,0,0-1.28,3.77L378,136.4v0a30.84,30.84,0,0,1,3.48-11.81A29.63,29.63,0,0,1,388.2,116c1.22-1.07,2.65-2.11,4.36-2a3.12,3.12,0,0,1,2.95,3.14,9.88,9.88,0,0,1-1.91,5,36.42,36.42,0,0,1-3.58,4.46,32.71,32.71,0,0,0-4.51,5.74l32.8-17.59a5.53,5.53,0,0,1,2.51-.66c.29.4.56.81.83,1.22.42.64.81,1.28,1.18,2a2.9,2.9,0,0,1,.73.86,2.85,2.85,0,0,1,.36,1.24c.22.46.42.92.62,1.39C424.82,121.43,425.09,122.12,425.32,122.81Z" transform="translate(-160.34 -38.58)"/><path class="cls-6" d="M427.19,133.93V245.48a34.07,34.07,0,0,1-17,29.51l-96.6,55.77A34,34,0,0,1,303,334.71c-.62.12-1.25.22-1.88.31s-1.27.14-1.91.19c-.3,0-.59.05-.89.06a28.64,28.64,0,0,1-3.34,0c-.45,0-.9,0-1.35-.09h0l-.41,0c-.93-.09-1.87-.22-2.8-.39l-.41-.07-.51-.11a33.64,33.64,0,0,1-10-3.83L182.87,275a34.08,34.08,0,0,1-17-29.51V133.93a33.81,33.81,0,0,1,1-8.18c0-.17.08-.34.13-.51s0-.1,0-.15c.24-.9.52-1.78.84-2.65a27.48,27.48,0,0,1,1.12-2.76c.18-.41.37-.81.58-1.21.32-.64.67-1.28,1-1.9a31.58,31.58,0,0,1,2.11-3.16,34.08,34.08,0,0,1,10.16-9l96.61-55.77a34.05,34.05,0,0,1,34.07,0l96.6,55.77a34.1,34.1,0,0,1,9.71,8.41c.33.42.65.84,1,1.27s.56.81.83,1.22c.42.64.81,1.28,1.18,2s.75,1.39,1.09,2.1c.22.46.42.92.62,1.39.28.67.55,1.36.78,2a31.53,31.53,0,0,1,1.24,4.6A33.67,33.67,0,0,1,427.19,133.93Z" transform="translate(-160.34 -38.58)"/></g></g></svg>