<svg xmlns="http://www.w3.org/2000/svg" width="18" height="18" fill="none" viewBox="0 0 128 128"><path fill="#257CFF" fill-rule="evenodd" d="M47.084 14.398a5.248 5.248 0 0 1 5.24-5.255H73.41a5.24 5.24 0 0 1 4.842 3.244 5.264 5.264 0 0 1-1.136 5.726L30.33 65.022a13.728 13.728 0 0 0-1.082 1.379c-.699 1.017-1.483 2.425-1.955 4.072-.462 1.614-.617 3.423-.13 5.387.484 1.954 1.686 4.391 4.438 7.151 2.753 2.76 5.184 3.965 7.133 4.45 1.958.488 3.763.333 5.372-.13 1.643-.473 3.048-1.26 4.062-1.96a13.5 13.5 0 0 0 1.113-.851 7.789 7.789 0 0 0 .262-.234L83.807 49.93a5.231 5.231 0 0 1 7.412 0 5.265 5.265 0 0 1 0 7.431L56.93 91.742l-3.706-3.716c3.706 3.715 3.704 3.717 3.702 3.72l-.004.004-.01.01-.012.011-.011.011a12.712 12.712 0 0 1-.236.226c-.142.132-.332.304-.569.506-.472.404-1.137.937-1.974 1.514-1.655 1.142-4.087 2.533-7.112 3.404-3.059.88-6.755 1.235-10.794.228-4.048-1.009-8.112-3.303-12.016-7.217-3.903-3.914-6.192-7.989-7.199-12.048-1.004-4.049-.65-7.755.228-10.822.869-3.033 2.256-5.471 3.395-7.13a24.185 24.185 0 0 1 1.51-1.98 18.116 18.116 0 0 1 .753-.83l.01-.01.004-.004c.002-.002.004-.004 3.7 3.7l-3.696-3.704 37.863-37.963h-8.431a5.248 5.248 0 0 1-5.241-5.254Zm44.82 15.942c4.05 1.009 8.113 3.303 12.016 7.217 3.904 3.914 6.193 7.988 7.199 12.047 1.004 4.05.651 7.756-.227 10.823-.869 3.033-2.256 5.471-3.395 7.13a24.228 24.228 0 0 1-1.51 1.98 18.643 18.643 0 0 1-.672.746l-.058.06-.023.024-.01.01-.004.004c-.002.002-.004.004-3.71-3.712l3.706 3.716-37.864 37.963h8.432a5.247 5.247 0 0 1 5.24 5.254c0 2.902-2.346 5.255-5.24 5.255H54.699a5.24 5.24 0 0 1-4.842-3.244 5.264 5.264 0 0 1 1.136-5.726l46.787-46.91a5.482 5.482 0 0 0 .233-.262c.203-.238.506-.617.85-1.116.697-1.017 1.482-2.425 1.954-4.072.462-1.614.617-3.423.13-5.387-.485-1.954-1.686-4.391-4.439-7.151-2.752-2.76-5.183-3.964-7.132-4.45-1.959-.489-3.763-.333-5.373.13-1.642.473-3.047 1.26-4.061 1.96-.498.343-.876.648-1.113.85a7.708 7.708 0 0 0-.263.235L44.301 78.07a5.231 5.231 0 0 1-7.412 0 5.265 5.265 0 0 1 0-7.431l34.29-34.38 3.615 3.625c-3.616-3.624-3.614-3.626-3.611-3.629l.004-.004.01-.01.023-.023a7.387 7.387 0 0 1 .236-.225 16.6 16.6 0 0 1 .569-.506 24.117 24.117 0 0 1 1.974-1.514c1.654-1.142 4.086-2.533 7.112-3.404 3.059-.88 6.755-1.235 10.794-.228Z" clip-rule="evenodd"/></svg>