<svg width="6" height="8" viewBox="0 0 6 8" fill="none" xmlns="http://www.w3.org/2000/svg">
<path fillRule="evenodd" clipRule="evenodd" d="M2.91667 5.08333C3.97521 5.08333 4.83333 4.22521 4.83333 3.16667C4.83333 2.10812 3.97521 1.25 2.91667 1.25C1.85812 1.25 1 2.10812 1 3.16667C1 4.22521 1.85812 5.08333 2.91667 5.08333ZM2.91667 6.08333C4.5275 6.08333 5.83333 4.7775 5.83333 3.16667C5.83333 1.55584 4.5275 0.25 2.91667 0.25C1.30584 0.25 0 1.55584 0 3.16667C0 4.7775 1.30584 6.08333 2.91667 6.08333Z" fill="white"/>
<path d="M0 6.91669H5.83333V7.75002H0V6.91669Z" fill="white"/>
</svg>
