<svg width="512" height="512" viewBox="0 0 512 512" fill="none" xmlns="http://www.w3.org/2000/svg">
<path fill-rule="evenodd" clip-rule="evenodd" d="M256 56C366.457 56 456 145.543 456 256C456 287.082 448.91 316.509 436.258 342.75C416.819 383.068 384.252 415.867 344.103 435.599C317.522 448.663 287.618 456 256 456C145.543 456 56 366.457 56 256C56 210.155 71.425 167.913 97.3683 134.181C132.462 88.55 186.802 58.4905 248.244 56.1476C250.817 56.0495 253.403 56 256 56Z" fill="#100F14"/>
<path d="M265.121 177.45C252.693 189.655 237.381 198.981 220.833 203.746C219.048 204.261 218.156 205.735 218.156 207.209C218.156 208.683 219.048 210.158 220.833 210.672C254.306 220.306 282.835 248.591 292.517 281.847C293.547 285.413 298.559 285.413 299.589 281.847C303.949 266.899 312.12 252.945 322.866 241.254C308.069 215.506 288.466 194.181 265.121 177.45Z" fill="url(#paint0_linear_2898_56691)"/>
<path fill-rule="evenodd" clip-rule="evenodd" d="M256 56C366.457 56 456 145.543 456 256C456 287.082 448.91 316.509 436.258 342.75C416.819 383.068 384.252 415.867 344.103 435.599C317.522 448.663 287.618 456 256 456C145.543 456 56 366.457 56 256C56 210.155 71.425 167.913 97.3683 134.181C132.462 88.55 186.802 58.4905 248.244 56.1476C250.817 56.0495 253.403 56 256 56ZM67.5274 256C67.5274 360.091 151.909 444.473 256 444.473C288.126 444.473 318.376 436.435 344.846 422.26C346.639 421.299 347.899 419.579 348.285 417.581C351.516 400.86 353.218 383.027 353.218 364.097C353.218 316.029 342.164 274.956 322.869 241.322V241.254C335.984 226.957 352.875 215.952 371.311 210.672C374.881 209.643 374.881 204.672 371.311 203.643C337.838 194.043 309.308 165.724 299.627 132.468C298.597 128.902 293.585 128.902 292.555 132.468C287.645 149.302 277.861 164.901 265.09 177.415C224.888 148.582 173.803 133.496 117.878 133.496V133.496C114.604 133.496 111.496 134.951 109.436 137.496C83.2269 169.87 67.5274 211.102 67.5274 256Z" fill="url(#paint1_linear_2898_56691)"/>
<defs>
<linearGradient id="paint0_linear_2898_56691" x1="89.1034" y1="56" x2="458.435" y2="223.839" gradientUnits="userSpaceOnUse">
<stop stop-color="#F85C04"/>
<stop offset="1" stop-color="#EC9D08"/>
</linearGradient>
<linearGradient id="paint1_linear_2898_56691" x1="89.1034" y1="56" x2="458.435" y2="223.839" gradientUnits="userSpaceOnUse">
<stop stop-color="#F85C04"/>
<stop offset="1" stop-color="#EC9D08"/>
</linearGradient>
</defs>
</svg>
