<svg width="470" height="350" viewBox="0 0 470 350" fill="none" xmlns="http://www.w3.org/2000/svg">
<path d="M219.543 166C231.394 166 241 156.352 241 144.451C241 135.044 234.154 127.044 225.375 124.13C221.192 122.741 217.324 119.977 215.107 116.168C211.329 109.675 205.372 104.567 198.282 101.802C191.809 99.2776 186.038 93.9974 184.382 87.2501C177.582 59.5455 152.675 39 122.989 39C105.261 39 89.237 46.3274 77.756 58.1311C68.5536 67.5922 57.5838 76.0658 47.4748 84.5513C37.4054 93.0037 31 105.712 31 119.922C31 144.985 50.9237 165.374 75.7322 165.986C75.736 165.986 75.7391 165.989 75.7391 165.993C75.7391 165.997 75.7423 166 75.7462 166H219.543Z" fill="#212027"/>
<path d="M252.596 160.195C280.765 148.296 295.657 116.112 286.957 85.8096C281.124 65.49 266.505 50.5446 248.883 43.7055C247.933 43.3364 247.068 44.3726 247.578 45.2835C249.879 49.3276 251.883 53.6601 253.57 58.2469C259.142 73.4028 260.24 88.7144 256.615 102.414C261.199 104.658 266.302 105.792 271.245 105.485C272.292 105.417 272.791 106.775 271.95 107.401C264.115 113.26 259.463 123.747 260.258 133.752C260.342 134.819 259.026 135.303 258.398 134.436C255.164 129.953 250.569 126.446 245.48 124.283C245.48 124.283 245.47 124.286 245.461 124.29C238.484 132.79 228.717 139.782 215.997 144.458C207.46 147.597 199.275 149.086 191.544 149.15C190.526 149.155 190.107 150.481 190.92 151.122C207.891 164.791 231.277 169.184 252.589 160.176L252.596 160.195Z" fill="url(#paint0_linear_995_5065)"/>
<path d="M256.61 102.426C252.142 100.245 248.149 97.003 245.239 92.9821C244.925 92.5484 244.446 92.4499 244.056 92.5933C243.666 92.7367 243.365 93.1221 243.406 93.6559C244.192 103.664 239.55 114.147 231.714 120.006C230.874 120.632 231.373 121.991 232.419 121.923C236.809 121.65 241.315 122.507 245.48 124.282C250.819 117.767 254.509 110.38 256.61 102.426Z" fill="url(#paint1_linear_995_5065)"/>
<g filter="url(#filter0_f_995_5065)">
<path d="M248.715 164.7C268.391 156.389 278.793 133.908 272.716 112.742C268.642 98.5484 258.431 88.1089 246.121 83.3317C245.458 83.0738 244.854 83.7976 245.21 84.4339C246.817 87.2588 248.217 90.285 249.395 93.489C253.287 104.076 254.054 114.771 251.523 124.34C254.724 125.907 258.289 126.7 261.742 126.485C262.473 126.438 262.821 127.386 262.234 127.824C256.761 131.916 253.512 139.241 254.067 146.23C254.125 146.976 253.207 147.313 252.768 146.707C250.509 143.576 247.299 141.127 243.744 139.616C243.744 139.616 243.738 139.618 243.731 139.621C238.858 145.558 232.035 150.442 223.151 153.708C217.187 155.901 211.47 156.941 206.069 156.986C205.358 156.989 205.066 157.915 205.633 158.363C217.488 167.911 233.823 170.979 248.71 164.687L248.715 164.7Z" fill="url(#paint2_linear_995_5065)"/>
<path d="M251.519 124.349C248.398 122.825 245.609 120.561 243.576 117.752C243.357 117.449 243.022 117.38 242.75 117.48C242.477 117.581 242.267 117.85 242.296 118.223C242.845 125.214 239.602 132.536 234.129 136.629C233.542 137.066 233.891 138.015 234.622 137.968C237.688 137.777 240.836 138.376 243.745 139.615C247.474 135.065 250.051 129.905 251.519 124.349Z" fill="url(#paint3_linear_995_5065)"/>
</g>
<path d="M223 229.16C223 244.536 235.516 257 250.955 257H393.272C417.975 257 438 237.057 438 212.457C438 187.856 417.975 167.914 393.272 167.914C389.216 167.914 385.286 168.451 381.551 169.459C375.615 171.06 368.963 169.334 363.652 166.236C363.544 166.173 363.434 166.11 363.324 166.048C359.38 163.828 355.881 160.591 353.942 156.501C347.638 143.202 334.049 134 318.301 134C302.746 134 289.297 142.979 282.894 156.016C281.169 159.53 277.487 161.84 273.573 161.84C251.818 161.84 234.182 179.403 234.182 201.068C234.182 204.482 232.74 207.77 230.418 210.272C225.814 215.235 223 221.871 223 229.16Z" fill="#3A393E"/>
<path d="M207.515 320.24C206.688 320.24 205.941 320.099 205.275 319.816C204.608 319.528 204.059 319.117 203.627 318.584C203.2 318.045 202.925 317.416 202.803 316.696L204.547 316.432C204.664 316.896 204.867 317.296 205.155 317.632C205.448 317.968 205.805 318.224 206.227 318.4C206.648 318.576 207.109 318.664 207.611 318.664C208.075 318.664 208.504 318.589 208.899 318.44C209.293 318.291 209.605 318.077 209.835 317.8C210.069 317.523 210.187 317.197 210.187 316.824C210.187 316.429 210.059 316.115 209.803 315.88C209.552 315.64 209.197 315.451 208.739 315.312L205.787 314.44C205.056 314.227 204.451 313.901 203.971 313.464C203.491 313.027 203.251 312.389 203.251 311.552C203.251 310.864 203.429 310.272 203.787 309.776C204.144 309.275 204.632 308.896 205.251 308.64C205.875 308.379 206.576 308.248 207.355 308.248C208.128 308.248 208.824 308.381 209.443 308.648C210.067 308.915 210.584 309.301 210.995 309.808C211.411 310.315 211.696 310.92 211.851 311.624L210.059 311.928C209.973 311.496 209.797 311.123 209.531 310.808C209.269 310.488 208.944 310.245 208.555 310.08C208.165 309.915 207.744 309.832 207.291 309.832C206.875 309.832 206.493 309.901 206.147 310.04C205.8 310.179 205.525 310.373 205.323 310.624C205.12 310.875 205.019 311.157 205.019 311.472C205.019 311.899 205.181 312.224 205.507 312.448C205.837 312.667 206.272 312.851 206.811 313L208.939 313.6C209.461 313.744 209.928 313.915 210.339 314.112C210.755 314.309 211.123 314.621 211.443 315.048C211.768 315.469 211.931 316.024 211.931 316.712C211.931 317.459 211.731 318.099 211.331 318.632C210.936 319.16 210.403 319.56 209.731 319.832C209.064 320.104 208.325 320.24 207.515 320.24ZM219.548 311.36H221.236V320H219.748V318.968C219.422 319.373 219.02 319.685 218.54 319.904C218.06 320.123 217.51 320.232 216.892 320.232C215.985 320.232 215.276 320.005 214.764 319.552C214.257 319.093 213.916 318.56 213.74 317.952C213.564 317.344 213.476 316.747 213.476 316.16V311.36H215.172V315.608C215.172 316.456 215.329 317.176 215.644 317.768C215.958 318.355 216.529 318.648 217.356 318.648C218.012 318.648 218.54 318.424 218.94 317.976C219.345 317.528 219.548 316.821 219.548 315.856V311.36ZM227.175 320.24C226.311 320.24 225.565 320.045 224.935 319.656C224.311 319.267 223.834 318.728 223.503 318.04C223.173 317.352 223.005 316.565 222.999 315.68C223.005 314.789 223.175 314 223.511 313.312C223.853 312.619 224.338 312.08 224.967 311.696C225.602 311.312 226.346 311.12 227.199 311.12C227.823 311.12 228.391 311.227 228.903 311.44C229.421 311.653 229.853 311.957 230.199 312.352C230.551 312.747 230.799 313.213 230.943 313.752L229.279 314.232C229.114 313.752 228.842 313.376 228.463 313.104C228.09 312.832 227.661 312.696 227.175 312.696C226.386 312.696 225.789 312.968 225.383 313.512C224.983 314.051 224.781 314.773 224.775 315.68C224.781 316.597 224.989 317.325 225.399 317.864C225.81 318.397 226.402 318.664 227.175 318.664C227.698 318.664 228.127 318.544 228.463 318.304C228.805 318.059 229.066 317.699 229.247 317.224L230.943 317.624C230.661 318.472 230.194 319.12 229.543 319.568C228.893 320.016 228.103 320.24 227.175 320.24ZM236.035 320.24C235.171 320.24 234.424 320.045 233.795 319.656C233.171 319.267 232.693 318.728 232.363 318.04C232.032 317.352 231.864 316.565 231.859 315.68C231.864 314.789 232.035 314 232.371 313.312C232.712 312.619 233.197 312.08 233.827 311.696C234.461 311.312 235.205 311.12 236.059 311.12C236.683 311.12 237.251 311.227 237.763 311.44C238.28 311.653 238.712 311.957 239.059 312.352C239.411 312.747 239.659 313.213 239.803 313.752L238.139 314.232C237.973 313.752 237.701 313.376 237.323 313.104C236.949 312.832 236.52 312.696 236.035 312.696C235.245 312.696 234.648 312.968 234.243 313.512C233.843 314.051 233.64 314.773 233.635 315.68C233.64 316.597 233.848 317.325 234.259 317.864C234.669 318.397 235.261 318.664 236.035 318.664C236.557 318.664 236.987 318.544 237.323 318.304C237.664 318.059 237.925 317.699 238.107 317.224L239.803 317.624C239.52 318.472 239.053 319.12 238.403 319.568C237.752 320.016 236.963 320.24 236.035 320.24ZM242.51 316.152C242.579 316.957 242.822 317.579 243.238 318.016C243.654 318.448 244.225 318.664 244.95 318.664C245.467 318.664 245.918 318.547 246.302 318.312C246.686 318.077 246.985 317.736 247.198 317.288L248.838 317.808C248.507 318.571 248.001 319.168 247.318 319.6C246.635 320.027 245.873 320.24 245.03 320.24C244.177 320.24 243.425 320.053 242.774 319.68C242.123 319.301 241.617 318.773 241.254 318.096C240.897 317.413 240.718 316.632 240.718 315.752C240.718 314.819 240.894 314.003 241.246 313.304C241.598 312.605 242.094 312.067 242.734 311.688C243.374 311.309 244.113 311.12 244.95 311.12C245.777 311.12 246.491 311.304 247.094 311.672C247.697 312.04 248.158 312.568 248.478 313.256C248.803 313.939 248.966 314.747 248.966 315.68C248.966 315.781 248.961 315.939 248.95 316.152H242.51ZM245.014 312.6C244.305 312.6 243.742 312.792 243.326 313.176C242.915 313.555 242.657 314.112 242.55 314.848H247.238C247.147 314.085 246.918 313.52 246.55 313.152C246.187 312.784 245.675 312.6 245.014 312.6ZM254.049 320.232C252.998 320.232 252.142 320 251.481 319.536C250.82 319.072 250.414 318.419 250.265 317.576L251.977 317.312C252.084 317.765 252.329 318.12 252.713 318.376C253.102 318.632 253.585 318.76 254.161 318.76C254.684 318.76 255.092 318.653 255.385 318.44C255.684 318.227 255.833 317.933 255.833 317.56C255.833 317.331 255.78 317.152 255.673 317.024C255.566 316.891 255.356 316.765 255.041 316.648C254.732 316.531 254.222 316.376 253.513 316.184C252.756 315.987 252.164 315.779 251.737 315.56C251.316 315.341 251.012 315.088 250.825 314.8C250.638 314.507 250.545 314.144 250.545 313.712C250.545 313.195 250.684 312.741 250.961 312.352C251.238 311.957 251.63 311.653 252.137 311.44C252.644 311.227 253.233 311.12 253.905 311.12C254.561 311.12 255.15 311.224 255.673 311.432C256.196 311.64 256.614 311.936 256.929 312.32C257.249 312.704 257.441 313.149 257.505 313.656L255.793 313.968C255.729 313.541 255.518 313.205 255.161 312.96C254.809 312.715 254.35 312.592 253.785 312.592C253.316 312.592 252.937 312.688 252.649 312.88C252.361 313.067 252.217 313.315 252.217 313.624C252.217 313.821 252.278 313.984 252.401 314.112C252.524 314.24 252.753 314.365 253.089 314.488C253.425 314.611 253.94 314.76 254.633 314.936C255.369 315.123 255.945 315.331 256.361 315.56C256.782 315.784 257.086 316.051 257.273 316.36C257.46 316.664 257.553 317.043 257.553 317.496C257.553 318.061 257.412 318.549 257.129 318.96C256.852 319.371 256.449 319.685 255.921 319.904C255.398 320.123 254.774 320.232 254.049 320.232ZM262.627 320.232C261.576 320.232 260.72 320 260.059 319.536C259.398 319.072 258.992 318.419 258.843 317.576L260.555 317.312C260.662 317.765 260.907 318.12 261.291 318.376C261.68 318.632 262.163 318.76 262.739 318.76C263.262 318.76 263.67 318.653 263.963 318.44C264.262 318.227 264.411 317.933 264.411 317.56C264.411 317.331 264.358 317.152 264.251 317.024C264.144 316.891 263.934 316.765 263.619 316.648C263.31 316.531 262.8 316.376 262.091 316.184C261.334 315.987 260.742 315.779 260.315 315.56C259.894 315.341 259.59 315.088 259.403 314.8C259.216 314.507 259.123 314.144 259.123 313.712C259.123 313.195 259.262 312.741 259.539 312.352C259.816 311.957 260.208 311.653 260.715 311.44C261.222 311.227 261.811 311.12 262.483 311.12C263.139 311.12 263.728 311.224 264.251 311.432C264.774 311.64 265.192 311.936 265.507 312.32C265.827 312.704 266.019 313.149 266.083 313.656L264.371 313.968C264.307 313.541 264.096 313.205 263.739 312.96C263.387 312.715 262.928 312.592 262.363 312.592C261.894 312.592 261.515 312.688 261.227 312.88C260.939 313.067 260.795 313.315 260.795 313.624C260.795 313.821 260.856 313.984 260.979 314.112C261.102 314.24 261.331 314.365 261.667 314.488C262.003 314.611 262.518 314.76 263.211 314.936C263.947 315.123 264.523 315.331 264.939 315.56C265.36 315.784 265.664 316.051 265.851 316.36C266.038 316.664 266.131 317.043 266.131 317.496C266.131 318.061 265.99 318.549 265.707 318.96C265.43 319.371 265.027 319.685 264.499 319.904C263.976 320.123 263.352 320.232 262.627 320.232Z" fill="#BDBDBD"/>
<defs>
<filter id="filter0_f_995_5065" x="108.835" y="0.856148" width="255.125" height="254.259" filterUnits="userSpaceOnUse" color-interpolation-filters="sRGB">
<feFlood flood-opacity="0" result="BackgroundImageFix"/>
<feBlend mode="normal" in="SourceGraphic" in2="BackgroundImageFix" result="shape"/>
<feGaussianBlur stdDeviation="38.5719" result="effect1_foregroundBlur_995_5065"/>
</filter>
<linearGradient id="paint0_linear_995_5065" x1="272.028" y1="44.6892" x2="264.443" y2="157.298" gradientUnits="userSpaceOnUse">
<stop stop-color="#F85C04"/>
<stop offset="1" stop-color="#EC9D08"/>
</linearGradient>
<linearGradient id="paint1_linear_995_5065" x1="252.794" y1="92.0466" x2="250.503" y2="122.616" gradientUnits="userSpaceOnUse">
<stop stop-color="#F85C04"/>
<stop offset="1" stop-color="#EC9D08"/>
</linearGradient>
<linearGradient id="paint2_linear_995_5065" x1="262.289" y1="84.0188" x2="256.99" y2="162.677" gradientUnits="userSpaceOnUse">
<stop stop-color="#F85C04"/>
<stop offset="1" stop-color="#EC9D08"/>
</linearGradient>
<linearGradient id="paint3_linear_995_5065" x1="248.854" y1="117.099" x2="247.253" y2="138.451" gradientUnits="userSpaceOnUse">
<stop stop-color="#F85C04"/>
<stop offset="1" stop-color="#EC9D08"/>
</linearGradient>
</defs>
</svg>
