<?xml version="1.0" encoding="UTF-8"?>
<svg id="Layer_1" data-name="Layer 1" xmlns="http://www.w3.org/2000/svg" xmlns:xlink="http://www.w3.org/1999/xlink" viewBox="0 0 12.02 17.43">
  <defs>
    <style>
      .cls-1 {
        fill: url(#linear-gradient);
      }

      .cls-2 {
        fill: url(#linear-gradient-2);
      }
    </style>
    <linearGradient id="linear-gradient" x1="3.59" y1="11.34" x2="6.65" y2="-4.21" gradientTransform="translate(0 11.35) scale(1 -1)" gradientUnits="userSpaceOnUse">
      <stop offset="0" stop-color="#f85c04"/>
      <stop offset="1" stop-color="#ec9d08"/>
    </linearGradient>
    <linearGradient id="linear-gradient-2" x1="5.33" y1="4.74" x2="6.13" y2=".51" gradientTransform="translate(0 11.35) scale(1 -1)" gradientUnits="userSpaceOnUse">
      <stop offset="0" stop-color="#f85c04"/>
      <stop offset="1" stop-color="#ec9d08"/>
    </linearGradient>
  </defs>
  <path class="cls-1" d="m8.79,15.67c3.39-2.64,4.24-7.54,1.96-11.34C9.22,1.78,6.69.29,4.05,0c-.14-.02-.22.16-.12.26.46.46.89.98,1.28,1.54,1.31,1.85,2.01,3.89,2.02,5.88.7.14,1.44.11,2.1-.12.14-.05.26.12.17.23-.85,1.08-1.1,2.67-.63,4,.05.14-.11.26-.23.16-.6-.49-1.35-.8-2.12-.91,0,0,0,0,0,0-.64,1.41-1.71,2.71-3.26,3.81-1.04.74-2.1,1.24-3.15,1.52-.14.04-.15.23-.01.29,2.8,1.24,6.13.98,8.69-1.01h0Z"/>
  <path class="cls-2" d="m7.24,7.68c-.69-.13-1.34-.43-1.89-.87-.06-.05-.13-.04-.17,0-.05.03-.07.1-.05.17.47,1.33.22,2.92-.63,4-.09.12.03.28.17.23.59-.2,1.23-.24,1.86-.15.49-1.08.72-2.21.72-3.37Z"/>
</svg>