<?xml version="1.0" encoding="UTF-8"?><svg id="body_1" xmlns="http://www.w3.org/2000/svg" xmlns:xlink="http://www.w3.org/1999/xlink" viewBox="0 0 30 30"><defs><style>.cls-1{fill:url(#linear-gradient);}.cls-2{fill:#17161c;}.cls-3{fill:url(#linear-gradient-2);}</style><linearGradient id="linear-gradient" x1="15.52" y1="27.65" x2="19.27" y2="8.62" gradientTransform="translate(0 32) scale(1 -1)" gradientUnits="userSpaceOnUse"><stop offset="0" stop-color="#f85c04"/><stop offset="1" stop-color="#ec9d08"/></linearGradient><linearGradient id="linear-gradient-2" x1="17.64" y1="19.58" x2="18.62" y2="14.4" xlink:href="#linear-gradient"/></defs><path class="cls-2" d="m30,15c0,4.14-1.46,7.68-4.39,10.61s-6.46,4.39-10.61,4.39-7.68-1.46-10.61-4.39C1.46,22.68,0,19.14,0,15S1.46,7.32,4.39,4.39C7.32,1.46,10.86,0,15,0s7.68,1.46,10.61,4.39c2.93,2.93,4.39,6.46,4.39,10.61,0,.17,0,.35,0,.52"/><path class="cls-1" d="m21.88,23.51c4.15-3.23,5.19-9.23,2.4-13.88-1.87-3.11-4.96-4.94-8.19-5.3-.17-.02-.27.19-.15.32.56.57,1.09,1.2,1.57,1.89,1.6,2.27,2.46,4.76,2.47,7.2.86.17,1.76.13,2.57-.14.17-.06.31.15.2.29-1.04,1.32-1.35,3.27-.77,4.89.06.17-.14.31-.28.2-.74-.6-1.65-.98-2.6-1.11,0,0,0,0,0,0-.78,1.72-2.09,3.32-3.99,4.66-1.28.9-2.57,1.51-3.85,1.87-.17.05-.18.28-.02.36,3.43,1.51,7.5,1.2,10.64-1.24h0Z"/><path class="cls-3" d="m19.98,13.74c-.84-.16-1.65-.52-2.31-1.06-.07-.06-.16-.05-.21-.01-.06.04-.09.12-.06.21.58,1.63.27,3.57-.77,4.89-.11.14.03.34.2.29.72-.24,1.5-.3,2.27-.19.6-1.32.88-2.71.88-4.12Z"/></svg>