<?xml version="1.0" encoding="utf-8"?><svg version="1.1" id="Layer_1" xmlns="http://www.w3.org/2000/svg" xmlns:xlink="http://www.w3.org/1999/xlink" x="0px" y="0px"
	 viewBox="0 0 1150 155" style="enable-background:new 0 0 1150 155;" xml:space="preserve">
<style type="text/css">
	.st0{fill:#FFFFFF;}
	.st1{fill:url(#SVGID_1_);}
	.st2{enable-background:new    ;}
</style>
<g>
	<path class="st0" d="M2.88,121.36V97.07c0-11.02-1.13-23.91-2.88-31.68l31.05,0.25l30.92,45.95h1.75v-14.9
		c0-10.52-1.38-25.17-2.75-31.3h34.3c-1.88,7.76-2.88,20.66-2.88,31.68v55.96H65.47l-32.18-48.2h-1.88v14.52
		c0,11.39,1.38,27.17,2.88,33.68H0c1.75-7.76,2.88-20.66,2.88-31.68V121.36z"/>
	<path class="st0" d="M107.81,121.36V97.07c0-11.02-1-23.91-2.75-31.68h34.3c-1.88,7.76-2.88,20.66-2.88,31.68v24.29
		c0,11.02,1,23.91,2.88,31.68h-34.3C106.81,145.28,107.81,132.38,107.81,121.36z"/>
	<path class="st0" d="M144.59,109.34c0-27.92,21.91-45.7,49.95-45.7c15.15,0,26.29,3,32.43,5.63l-0.25,28.3
		c-5.51-4.51-16.53-6.39-25.04-6.39c-17.9,0-28.67,7.01-28.67,18.53c0,10.39,8.64,16.9,21.91,16.9c6.01,0,11.39-1.38,14.4-3.63
		v-7.89h-7.26c-2.38,0-7.76,0.5-10.14,1l0.25-12.02h45.57v37.18c-10.64,9.14-27.79,13.52-44.32,13.52
		c-28.04,0-48.83-17.4-48.83-45.45L144.59,109.34z"/>
	<path class="st0" d="M248.23,121.36V97.07c0-11.02-1.13-23.91-2.88-31.68h34.3c-1.88,7.76-2.88,20.66-2.88,31.68v5.63h27.29v-5.63
		c0-11.02-1-23.91-2.75-31.68h34.3c-1.88,7.76-2.88,20.66-2.88,31.68v24.29c0,11.02,1,23.91,2.88,31.68h-34.3
		c1.75-7.76,2.75-20.66,2.75-31.68v-6.13h-27.29v6.13c0,11.02,1,23.91,2.88,31.68h-34.3C247.1,145.28,248.23,132.38,248.23,121.36z"
		/>
	<path class="st0" d="M367.66,121.36V94.19h-11.64c-6.39,0-11.64,1-16.9,4.13l4.76-32.93h75.37l4.76,32.93
		c-4.76-2.75-10.89-4.13-16.9-4.13h-10.89v27.17c0,11.02,1.13,23.91,2.88,31.68h-34.3c1.75-7.76,2.88-20.66,2.88-31.68H367.66z"/>
	<path class="st0" d="M467.94,121.36V97.07c0-11.02-1-23.91-2.75-31.68h39.19l14.02,34.56c2.5,6.01,4.01,9.64,6.01,17.78h1.38
		c1.63-7.76,3-11.02,5.76-17.78l14.15-34.56h38.56c-1.75,7.76-2.88,20.66-2.88,31.68v24.29c0,11.02,1.13,23.91,2.88,31.68h-34.3
		c1.75-7.76,2.88-20.66,2.88-31.68v-20.78h-1.5l-22.66,52.46h-8.26l-22.66-52.46h-1.13v20.78c0,11.02,1,23.91,2.88,31.68h-34.3
		c1.75-7.76,2.75-20.66,2.75-31.68H467.94z"/>
	<path class="st0" d="M598.56,121.36l8.64-24.29c3-10.89,4.88-23.91,5.13-31.68h51.08c0.38,8.01,2.25,21.16,5.13,31.68l8.64,24.29
		c3,10.89,7.64,23.91,11.27,31.68h-34.3c-0.12-4.88-1.38-11.64-3-18.91l-1-2.63h-24.66l-0.88,2.75c-1.75,7.26-3,14.02-3,18.78
		h-34.43c3.76-7.76,8.26-20.66,11.39-31.68L598.56,121.36z M647.26,118.98L642,105.33c-1.75-5.26-2.5-9.64-3.38-15.15h-1.63
		c-1,5.88-1.5,9.52-3.26,15.15l-5.26,13.65h18.78H647.26z"/>
	<path class="st0" d="M728.03,115.6c-1.5,0-4.38,0.25-5.38,0.63v5.13c0,11.02,1.13,23.91,2.88,31.68h-34.3
		c1.75-7.76,2.88-20.66,2.88-31.68V97.07c0-11.02-1.13-23.91-2.88-31.68h53.21c19.16,0,34.18,7.51,34.18,22.41
		s-14.65,22.91-33.43,22.91h-1.13v0.75h0.25c10.77,0,13.4,10.14,22.54,10.14s14.15-5.88,16.9-12.77l0.38,37.56
		c-2.38,4.63-9.01,8.51-15.4,8.51c-29.8,0-18.4-39.31-40.69-39.31L728.03,115.6z M738.8,106.84c6.51,0,10.77-2.5,10.77-7.26
		c0-4.38-4.26-7.14-10.14-7.14h-16.78v14.4H738.8z"/>
	<path class="st0" d="M828.4,109.21c-2.13,0-5.13,0.5-6.26,1v11.14c0,11.02,1,23.91,2.88,31.68h-34.3
		c1.75-7.76,2.88-20.66,2.88-31.68V97.06c0-11.02-1.13-23.91-2.88-31.68h34.3c-1.75,7.26-2.88,18.91-2.88,29.67v4.88h7.14
		c10.27,0,15.9-6.51,15.9-18.78c0-5.76-1.63-11.02-4.63-15.78h32.18c2.38,4.76,3.63,9.14,3.63,16.4c0,18.4-10.27,22.16-34.93,22.16
		h-7.51v1.38h1.5c16.03,0,18.78,13.02,30.67,13.02c8.26,0,12.02-3.26,14.9-9.64l0.25,37.06c-2.13,4.88-8.89,9.01-15.15,9.01
		c-33.93,0-14.27-45.57-37.68-45.57L828.4,109.21z"/>
	<path class="st0" d="M891.26,121.36V97.07c0-11.02-1.25-23.91-2.88-31.68H962l4.26,31.93c-3.13-2.75-8.76-3.76-21.03-3.76h-25.54
		v10.27h20.16c5.88,0,11.52-0.13,15.4-0.5v12.9c-3.88-0.5-9.52-0.75-15.4-0.75h-20.16V125h22.04c19.78,0,25.17-2.5,28.3-4.63
		l-4.51,32.68H888.4c1.63-7.76,2.88-20.66,2.88-31.68L891.26,121.36z"/>
	<path class="st0" d="M1000.42,121.36V94.19h-11.64c-6.39,0-11.64,1-16.9,4.13l4.76-32.93h75.37l4.76,32.93
		c-4.76-2.75-10.89-4.13-16.9-4.13h-10.89v27.17c0,11.02,1.13,23.91,2.88,31.68h-34.3c1.75-7.76,2.88-20.66,2.88-31.68H1000.42z"/>
</g>
<g>
	<path class="st0" d="M1149.94,71.94c-1.3-28.21-23.74-51.37-51.9-53.49c-18.88-1.42-35.96,6.49-47.15,19.58
		c-0.6,0.71,0,1.79,0.92,1.63c4.11-0.7,8.37-1.06,12.75-1.06c14.46,0,27.67,3.93,38.06,11.43c3.3-3.26,5.83-7.32,7.1-11.71
		c0.27-0.93,1.56-0.93,1.83,0c2.51,8.66,9.88,16.03,18.54,18.54c0.93,0.27,0.93,1.56,0,1.83c-4.76,1.38-9.13,4.24-12.52,7.97
		c0,0,0,0.01,0,0.02c4.99,8.76,7.85,19.46,7.85,31.96c0,8.4-1.28,15.97-3.61,22.69c-0.31,0.89,0.67,1.67,1.47,1.17
		C1140.02,112.14,1150.93,93.27,1149.94,71.94L1149.94,71.94z"/>
	<path class="st0" d="M1102.63,50.05c-3.22,3.18-7.18,5.61-11.45,6.84c-0.46,0.13-0.69,0.52-0.69,0.9c0,0.39,0.24,0.77,0.69,0.9
		c8.66,2.51,16.03,9.88,18.54,18.54c0.27,0.93,1.56,0.93,1.83,0c1.13-3.89,3.24-7.52,6.01-10.57
		C1113.74,59.96,1108.66,54.4,1102.63,50.05z"/>
</g>
<g>
	
		<linearGradient id="SVGID_1_" gradientUnits="userSpaceOnUse" x1="0" y1="-46.8056" x2="120" y2="-46.8056" gradientTransform="matrix(1 0 0 -1 0 -23.42)">
		<stop  offset="0" style="stop-color:#F85C04"/>
		<stop  offset="1" style="stop-color:#7C1E05"/>
	</linearGradient>
	<path class="st1" d="M96.62,46.77H23.39C10.47,46.77,0,36.3,0,23.39l0,0C0,10.47,10.47,0,23.39,0h73.23
		C109.53,0,120,10.47,120,23.39l0,0C120.01,36.3,109.54,46.77,96.62,46.77z"/>
	<g class="st2">
		<path class="st0" d="M44.39,27.39c0,3.34-1.94,5.59-5.66,5.59h-8.22V14.17h7.46c3.8,0,5.54,2.64,5.54,5.18
			c0,1.71-0.7,3.02-1.89,3.72C43.43,23.83,44.39,25.49,44.39,27.39z M33.71,17.11v4.57h4.24c1.34,0,2.38-0.78,2.38-2.29
			c0-1.3-0.89-2.29-2.38-2.29C37.95,17.11,33.71,17.11,33.71,17.11z M38.35,30.01c1.65,0,2.87-1.05,2.87-2.72
			c0-1.52-1.02-2.68-2.78-2.68h-4.73V30L38.35,30.01L38.35,30.01z"/>
		<path class="st0" d="M59.15,30.03v2.95H47V14.16h12.15v2.95h-9v4.64h7.44v2.95h-7.44v5.31L59.15,30.03L59.15,30.03z"/>
		<path class="st0" d="M66.8,32.99V17.11h-6.09v-2.95h15.33v2.95h-6.09v15.87L66.8,32.99C66.8,32.98,66.8,32.99,66.8,32.99z"/>
		<path class="st0" d="M82.23,14.17h4.61l5.94,18.82h-3.24l-1.3-4.07h-7.39l-1.29,4.07h-3.24L82.23,14.17z M81.75,25.96h5.55
			l-2.8-8.77L81.75,25.96z"/>
	</g>
</g>
</svg>
