<?xml version="1.0" encoding="UTF-8"?><svg id="Layer_1" xmlns="http://www.w3.org/2000/svg" viewBox="0 0 1150 136.71"><defs><style>.cls-1{fill:#fff;}</style></defs><g><path class="cls-1" d="M2.88,103.07v-24.29c0-11.02-1.13-23.91-2.88-31.68l31.05,.25,30.92,45.95h1.75v-14.9c0-10.52-1.38-25.17-2.75-31.3h34.3c-1.88,7.76-2.88,20.66-2.88,31.68v55.96h-26.92l-32.18-48.2h-1.88v14.52c0,11.39,1.38,27.17,2.88,33.68H0c1.75-7.76,2.88-20.66,2.88-31.68Z"/><path class="cls-1" d="M107.81,103.07v-24.29c0-11.02-1-23.91-2.75-31.68h34.3c-1.88,7.76-2.88,20.66-2.88,31.68v24.29c0,11.02,1,23.91,2.88,31.68h-34.3c1.75-7.76,2.75-20.66,2.75-31.68Z"/><path class="cls-1" d="M144.59,91.05c0-27.92,21.91-45.7,49.95-45.7,15.15,0,26.29,3,32.43,5.63l-.25,28.3c-5.51-4.51-16.53-6.39-25.04-6.39-17.9,0-28.67,7.01-28.67,18.53,0,10.39,8.64,16.9,21.91,16.9,6.01,0,11.39-1.38,14.4-3.63v-7.89h-7.26c-2.38,0-7.76,.5-10.14,1l.25-12.02h45.57v37.18c-10.64,9.14-27.79,13.52-44.32,13.52-28.04,0-48.83-17.4-48.83-45.45Z"/><path class="cls-1" d="M248.23,103.07v-24.29c0-11.02-1.13-23.91-2.88-31.68h34.3c-1.88,7.76-2.88,20.66-2.88,31.68v5.63h27.29v-5.63c0-11.02-1-23.91-2.75-31.68h34.3c-1.88,7.76-2.88,20.66-2.88,31.68v24.29c0,11.02,1,23.91,2.88,31.68h-34.3c1.75-7.76,2.75-20.66,2.75-31.68v-6.13h-27.29v6.13c0,11.02,1,23.91,2.88,31.68h-34.3c1.75-7.76,2.88-20.66,2.88-31.68Z"/><path class="cls-1" d="M367.66,103.07v-27.17h-11.64c-6.39,0-11.64,1-16.9,4.13l4.76-32.93h75.37l4.76,32.93c-4.76-2.75-10.89-4.13-16.9-4.13h-10.89v27.17c0,11.02,1.13,23.91,2.88,31.68h-34.3c1.75-7.76,2.88-20.66,2.88-31.68Z"/><path class="cls-1" d="M467.94,103.07v-24.29c0-11.02-1-23.91-2.75-31.68h39.19l14.02,34.56c2.5,6.01,4.01,9.64,6.01,17.78h1.38c1.63-7.76,3-11.02,5.76-17.78l14.15-34.56h38.56c-1.75,7.76-2.88,20.66-2.88,31.68v24.29c0,11.02,1.13,23.91,2.88,31.68h-34.3c1.75-7.76,2.88-20.66,2.88-31.68v-20.78h-1.5l-22.66,52.46h-8.26l-22.66-52.46h-1.13v20.78c0,11.02,1,23.91,2.88,31.68h-34.3c1.75-7.76,2.75-20.66,2.75-31.68Z"/><path class="cls-1" d="M598.56,103.07l8.64-24.29c3-10.89,4.88-23.91,5.13-31.68h51.08c.38,8.01,2.25,21.16,5.13,31.68l8.64,24.29c3,10.89,7.64,23.91,11.27,31.68h-34.3c-.12-4.88-1.38-11.64-3-18.91l-1-2.63h-24.66l-.88,2.75c-1.75,7.26-3,14.02-3,18.78h-34.43c3.76-7.76,8.26-20.66,11.39-31.68Zm48.7-2.38l-5.26-13.65c-1.75-5.26-2.5-9.64-3.38-15.15h-1.63c-1,5.88-1.5,9.52-3.26,15.15l-5.26,13.65h18.78Z"/><path class="cls-1" d="M728.03,97.31c-1.5,0-4.38,.25-5.38,.63v5.13c0,11.02,1.13,23.91,2.88,31.68h-34.3c1.75-7.76,2.88-20.66,2.88-31.68v-24.29c0-11.02-1.13-23.91-2.88-31.68h53.21c19.16,0,34.18,7.51,34.18,22.41s-14.65,22.91-33.43,22.91h-1.13v.75h.25c10.77,0,13.4,10.14,22.54,10.14s14.15-5.88,16.9-12.77l.38,37.56c-2.38,4.63-9.01,8.51-15.4,8.51-29.8,0-18.4-39.31-40.69-39.31Zm10.77-8.76c6.51,0,10.77-2.5,10.77-7.26,0-4.38-4.26-7.14-10.14-7.14h-16.78v14.4h16.15Z"/><path class="cls-1" d="M828.4,90.92c-2.13,0-5.13,.5-6.26,1v11.14c0,11.02,1,23.91,2.88,31.68h-34.3c1.75-7.76,2.88-20.66,2.88-31.68v-24.29c0-11.02-1.13-23.91-2.88-31.68h34.3c-1.75,7.26-2.88,18.91-2.88,29.67v4.88h7.14c10.27,0,15.9-6.51,15.9-18.78,0-5.76-1.63-11.02-4.63-15.78h32.18c2.38,4.76,3.63,9.14,3.63,16.4,0,18.4-10.27,22.16-34.93,22.16h-7.51v1.38h1.5c16.03,0,18.78,13.02,30.67,13.02,8.26,0,12.02-3.26,14.9-9.64l.25,37.06c-2.13,4.88-8.89,9.01-15.15,9.01-33.93,0-14.27-45.57-37.68-45.57Z"/><path class="cls-1" d="M891.26,103.07v-24.29c0-11.02-1.25-23.91-2.88-31.68h73.62l4.26,31.93c-3.13-2.75-8.76-3.76-21.03-3.76h-25.54v10.27h20.16c5.88,0,11.52-.13,15.4-.5v12.9c-3.88-.5-9.52-.75-15.4-.75h-20.16v9.52h22.04c19.78,0,25.17-2.5,28.3-4.63l-4.51,32.68h-77.12c1.63-7.76,2.88-20.66,2.88-31.68Z"/><path class="cls-1" d="M1000.42,103.07v-27.17h-11.64c-6.39,0-11.64,1-16.9,4.13l4.76-32.93h75.37l4.76,32.93c-4.76-2.75-10.89-4.13-16.9-4.13h-10.89v27.17c0,11.02,1.13,23.91,2.88,31.68h-34.3c1.75-7.76,2.88-20.66,2.88-31.68Z"/></g><g><path class="cls-1" d="M1149.94,53.65c-1.3-28.21-23.74-51.37-51.9-53.49-18.88-1.42-35.96,6.49-47.15,19.58-.6,.71,0,1.79,.92,1.63,4.11-.7,8.37-1.06,12.75-1.06,14.46,0,27.67,3.93,38.06,11.43,3.3-3.26,5.83-7.32,7.1-11.71,.27-.93,1.56-.93,1.83,0,2.51,8.66,9.88,16.03,18.54,18.54,.93,.27,.93,1.56,0,1.83-4.76,1.38-9.13,4.24-12.52,7.97,0,0,0,.01,0,.02,4.99,8.76,7.85,19.46,7.85,31.96,0,8.4-1.28,15.97-3.61,22.69-.31,.89,.67,1.67,1.47,1.17,16.74-10.36,27.65-29.23,26.66-50.57Z"/><path class="cls-1" d="M1102.63,31.76c-3.22,3.18-7.18,5.61-11.45,6.84-.46,.13-.69,.52-.69,.9,0,.39,.24,.77,.69,.9,8.66,2.51,16.03,9.88,18.54,18.54,.27,.93,1.56,.93,1.83,0,1.13-3.89,3.24-7.52,6.01-10.57-3.82-6.7-8.9-12.26-14.93-16.61Z"/></g></svg>