<?xml version="1.0" encoding="UTF-8"?><svg id="Layer_1" xmlns="http://www.w3.org/2000/svg" viewBox="0 0 700 282.44"><defs><style>.cls-1{fill:#fff;}</style></defs><g><path class="cls-1" d="M3.41,122.36v-28.58c0-12.96-1.33-28.14-3.41-37.27l36.74,.29,36.59,54.06h2.07v-17.53c0-12.37-1.63-29.61-3.26-36.83h40.59c-2.22,9.13-3.41,24.31-3.41,37.27v65.85h-31.85l-38.07-56.71h-2.22v17.09c0,13.41,1.63,31.97,3.41,39.63H0c2.07-9.13,3.41-24.31,3.41-37.27Z"/><path class="cls-1" d="M127.57,122.36v-28.58c0-12.96-1.19-28.14-3.26-37.27h40.59c-2.22,9.13-3.41,24.31-3.41,37.27v28.58c0,12.96,1.18,28.14,3.41,37.27h-40.59c2.07-9.13,3.26-24.31,3.26-37.27Z"/><path class="cls-1" d="M171.09,108.22c0-32.85,25.93-53.77,59.11-53.77,17.92,0,31.11,3.54,38.37,6.63l-.3,33.29c-6.52-5.3-19.56-7.51-29.63-7.51-21.18,0-33.93,8.25-33.93,21.8,0,12.23,10.22,19.89,25.93,19.89,7.11,0,13.48-1.62,17.04-4.27v-9.28h-8.59c-2.81,0-9.18,.59-12,1.18l.3-14.14h53.92v43.75c-12.59,10.75-32.89,15.91-52.44,15.91-33.18,0-57.78-20.48-57.78-53.47Z"/><path class="cls-1" d="M293.73,122.36v-28.58c0-12.96-1.33-28.14-3.41-37.27h40.59c-2.22,9.13-3.41,24.31-3.41,37.27v6.63h32.3v-6.63c0-12.96-1.18-28.14-3.26-37.27h40.59c-2.22,9.13-3.41,24.31-3.41,37.27v28.58c0,12.96,1.19,28.14,3.41,37.27h-40.59c2.07-9.13,3.26-24.31,3.26-37.27v-7.22h-32.3v7.22c0,12.96,1.18,28.14,3.41,37.27h-40.59c2.07-9.13,3.41-24.31,3.41-37.27Z"/><path class="cls-1" d="M435.04,122.36v-31.97h-13.78c-7.56,0-13.78,1.18-20,4.86l5.63-38.74h89.18l5.63,38.74c-5.63-3.24-12.89-4.86-20-4.86h-12.89v31.97c0,12.96,1.33,28.14,3.41,37.27h-40.59c2.07-9.13,3.41-24.31,3.41-37.27Z"/><g><path class="cls-1" d="M3.26,242.72v-28.58c0-12.96-1.19-28.14-3.26-37.27H46.37l16.59,40.66c2.96,7.07,4.74,11.34,7.11,20.92h1.63c1.93-9.13,3.56-12.96,6.81-20.92l16.74-40.66h45.63c-2.07,9.13-3.41,24.31-3.41,37.27v28.58c0,12.96,1.33,28.14,3.41,37.27h-40.59c2.07-9.13,3.41-24.31,3.41-37.27v-24.45h-1.78l-26.81,61.72h-9.78l-26.81-61.72h-1.33v24.45c0,12.96,1.18,28.14,3.41,37.27H0c2.07-9.13,3.26-24.31,3.26-37.27Z"/><path class="cls-1" d="M157.82,242.72l10.22-28.58c3.56-12.82,5.78-28.14,6.07-37.27h60.44c.44,9.43,2.67,24.89,6.07,37.27l10.22,28.58c3.56,12.82,9.04,28.14,13.33,37.27h-40.59c-.15-5.75-1.63-13.7-3.55-22.24l-1.19-3.09h-29.19l-1.04,3.24c-2.07,8.54-3.56,16.5-3.56,22.1h-40.74c4.44-9.13,9.78-24.31,13.48-37.27Zm57.63-2.8l-6.22-16.06c-2.07-6.19-2.96-11.34-4-17.82h-1.93c-1.19,6.92-1.78,11.2-3.85,17.82l-6.22,16.06h22.22Z"/><path class="cls-1" d="M311.02,235.95c-1.78,0-5.19,.29-6.37,.74v6.04c0,12.96,1.33,28.14,3.41,37.27h-40.59c2.07-9.13,3.41-24.31,3.41-37.27v-28.58c0-12.96-1.33-28.14-3.41-37.27h62.96c22.67,0,40.44,8.84,40.44,26.37s-17.33,26.96-39.55,26.96h-1.33v.88h.3c12.74,0,15.85,11.93,26.67,11.93s16.74-6.92,20-15.03l.44,44.19c-2.81,5.45-10.67,10.02-18.22,10.02-35.26,0-21.78-46.25-48.15-46.25Zm12.74-10.31c7.7,0,12.74-2.95,12.74-8.54,0-5.16-5.04-8.4-12-8.4h-19.85v16.94h19.11Z"/><path class="cls-1" d="M429.78,228.43c-2.52,0-6.07,.59-7.41,1.18v13.11c0,12.96,1.18,28.14,3.41,37.27h-40.59c2.07-9.13,3.41-24.31,3.41-37.27v-28.58c0-12.96-1.33-28.14-3.41-37.27h40.59c-2.07,8.54-3.41,22.24-3.41,34.91v5.75h8.44c12.15,0,18.81-7.66,18.81-22.1,0-6.78-1.93-12.96-5.48-18.56h38.07c2.82,5.6,4.3,10.75,4.3,19.3,0,21.65-12.15,26.07-41.33,26.07h-8.89v1.62h1.78c18.96,0,22.22,15.32,36.3,15.32,9.78,0,14.22-3.83,17.63-11.34l.3,43.6c-2.52,5.75-10.52,10.61-17.93,10.61-40.15,0-16.89-53.62-44.59-53.62Z"/><path class="cls-1" d="M504.17,242.72v-28.58c0-12.96-1.48-28.14-3.41-37.27h87.11l5.04,37.56c-3.7-3.24-10.37-4.42-24.89-4.42h-30.22v12.08h23.85c6.96,0,13.63-.15,18.22-.59v15.17c-4.59-.59-11.26-.88-18.22-.88h-23.85v11.2h26.07c23.41,0,29.78-2.95,33.48-5.45l-5.33,38.45h-91.26c1.93-9.13,3.41-24.31,3.41-37.27Z"/><path class="cls-1" d="M633.33,242.72v-31.97h-13.78c-7.56,0-13.78,1.18-20,4.86l5.63-38.74h89.18l5.63,38.74c-5.63-3.24-12.89-4.86-20-4.86h-12.89v31.97c0,12.96,1.33,28.14,3.41,37.27h-40.59c2.07-9.13,3.41-24.31,3.41-37.27Z"/></g></g><g><path class="cls-1" d="M594.79,60.1c-1.46-31.6-26.75-57.55-58.47-59.92-21.27-1.59-40.51,7.27-53.12,21.94-.68,.79,0,2,1.04,1.83,4.63-.79,9.43-1.19,14.36-1.19,16.29,0,31.17,4.4,42.88,12.81,3.72-3.65,6.57-8.2,8-13.11,.3-1.04,1.76-1.04,2.06,0,2.82,9.7,11.13,17.96,20.88,20.76,1.04,.3,1.04,1.75,0,2.05-5.37,1.54-10.29,4.75-14.11,8.92,0,0,0,.01,0,.02,5.62,9.81,8.84,21.79,8.84,35.81,0,9.41-1.44,17.89-4.07,25.42-.35,.99,.76,1.87,1.65,1.31,18.85-11.6,31.15-32.74,30.04-56.65Z"/><path class="cls-1" d="M541.49,35.58c-3.62,3.56-8.08,6.28-12.9,7.67-.52,.15-.78,.58-.78,1.01,0,.43,.26,.86,.78,1.01,9.75,2.81,18.06,11.06,20.88,20.76,.3,1.04,1.76,1.04,2.06,0,1.27-4.36,3.65-8.43,6.78-11.84-4.31-7.51-10.02-13.73-16.82-18.61Z"/></g></svg>