<?xml version="1.0" encoding="utf-8"?>
<svg version="1.1" id="Layer_1" xmlns="http://www.w3.org/2000/svg" xmlns:xlink="http://www.w3.org/1999/xlink" x="0px" y="0px"
	 viewBox="0 0 700 300" style="enable-background:new 0 0 700 300;" xml:space="preserve">
<style type="text/css">
	.st0{fill:#FFFFFF;}
	.st1{fill:url(#SVGID_1_);}
	.st2{enable-background:new    ;}
</style>
<g>
	<g>
		<path class="st0" d="M3.41,139.92v-28.58C3.41,98.38,2.07,83.2,0,74.07l36.74,0.29l36.59,54.06h2.07V110.9
			c0-12.37-1.63-29.61-3.26-36.83h40.59c-2.22,9.13-3.41,24.31-3.41,37.27v65.85H77.48l-38.07-56.71h-2.22v17.09
			c0,13.41,1.63,31.97,3.41,39.63H0C2.07,168.05,3.41,152.88,3.41,139.92z"/>
		<path class="st0" d="M127.57,139.92v-28.58c0-12.96-1.19-28.14-3.26-37.27h40.59c-2.22,9.13-3.41,24.31-3.41,37.27v28.58
			c0,12.96,1.18,28.14,3.41,37.27h-40.59C126.38,168.05,127.57,152.88,127.57,139.92z"/>
		<path class="st0" d="M171.09,125.78c0-32.85,25.93-53.77,59.11-53.77c17.93,0,31.11,3.54,38.37,6.63l-0.3,33.29
			c-6.52-5.3-19.56-7.51-29.63-7.51c-21.18,0-33.93,8.25-33.93,21.8c0,12.23,10.22,19.89,25.93,19.89c7.11,0,13.48-1.62,17.04-4.27
			v-9.28h-8.59c-2.81,0-9.18,0.59-12,1.18l0.3-14.14h53.92v43.75c-12.59,10.75-32.89,15.91-52.44,15.91
			C195.68,179.25,171.09,158.77,171.09,125.78z"/>
		<path class="st0" d="M293.73,139.92v-28.58c0-12.96-1.33-28.14-3.41-37.27h40.59c-2.22,9.13-3.41,24.31-3.41,37.27v6.63h32.3
			v-6.63c0-12.96-1.18-28.14-3.26-37.27h40.59c-2.22,9.13-3.41,24.31-3.41,37.27v28.58c0,12.96,1.19,28.14,3.41,37.27h-40.59
			c2.07-9.13,3.26-24.31,3.26-37.27v-7.22h-32.3v7.22c0,12.96,1.18,28.14,3.41,37.27h-40.59
			C292.39,168.05,293.73,152.88,293.73,139.92z"/>
		<path class="st0" d="M435.04,139.92v-31.97h-13.78c-7.56,0-13.78,1.18-20,4.86l5.63-38.74h89.18l5.63,38.74
			c-5.63-3.24-12.89-4.86-20-4.86h-12.89v31.97c0,12.96,1.33,28.14,3.41,37.27h-40.59C433.71,168.05,435.04,152.88,435.04,139.92z"
			/>
		<g>
			<path class="st0" d="M3.26,260.28V231.7c0-12.96-1.19-28.14-3.26-37.27h46.37l16.59,40.66c2.96,7.07,4.74,11.34,7.11,20.92h1.63
				c1.93-9.13,3.56-12.96,6.81-20.92l16.74-40.66h45.63c-2.07,9.13-3.41,24.31-3.41,37.27v28.58c0,12.96,1.33,28.14,3.41,37.27
				h-40.59c2.07-9.13,3.41-24.31,3.41-37.27v-24.45h-1.78l-26.81,61.72h-9.78l-26.81-61.72h-1.33v24.45
				c0,12.96,1.18,28.14,3.41,37.27H0C2.07,288.42,3.26,273.25,3.26,260.28z"/>
			<path class="st0" d="M157.82,260.28l10.22-28.58c3.56-12.82,5.78-28.14,6.07-37.27h60.44c0.44,9.43,2.67,24.89,6.07,37.27
				l10.22,28.58c3.56,12.82,9.04,28.14,13.33,37.27H223.6c-0.15-5.74-1.63-13.7-3.55-22.24l-1.19-3.09h-29.19l-1.04,3.24
				c-2.07,8.54-3.56,16.5-3.56,22.1h-40.74C148.78,288.42,154.12,273.25,157.82,260.28z M215.45,257.48l-6.22-16.06
				c-2.07-6.19-2.96-11.34-4-17.82h-1.93c-1.19,6.92-1.78,11.2-3.85,17.82l-6.22,16.06H215.45z"/>
			<path class="st0" d="M311.02,253.51c-1.78,0-5.19,0.29-6.37,0.74v6.04c0,12.96,1.33,28.14,3.41,37.27h-40.59
				c2.07-9.13,3.41-24.31,3.41-37.27v-28.58c0-12.96-1.33-28.14-3.41-37.27h62.96c22.67,0,40.44,8.84,40.44,26.37
				c0,17.97-17.33,26.96-39.55,26.96h-1.33v0.88h0.3c12.74,0,15.85,11.93,26.67,11.93s16.74-6.92,20-15.03l0.44,44.19
				c-2.81,5.45-10.67,10.02-18.22,10.02C323.9,299.76,337.39,253.51,311.02,253.51z M323.76,243.19c7.7,0,12.74-2.95,12.74-8.54
				c0-5.16-5.04-8.4-12-8.4h-19.85v16.94L323.76,243.19L323.76,243.19z"/>
			<path class="st0" d="M429.78,245.99c-2.52,0-6.07,0.59-7.41,1.18v13.11c0,12.96,1.18,28.14,3.41,37.27h-40.59
				c2.07-9.13,3.41-24.31,3.41-37.27V231.7c0-12.96-1.33-28.14-3.41-37.27h40.59c-2.07,8.54-3.41,22.24-3.41,34.91v5.74h8.44
				c12.15,0,18.81-7.66,18.81-22.1c0-6.78-1.93-12.96-5.48-18.56h38.07c2.82,5.6,4.3,10.75,4.3,19.3
				c0,21.65-12.15,26.07-41.33,26.07h-8.89v1.62h1.78c18.96,0,22.22,15.32,36.3,15.32c9.78,0,14.22-3.83,17.63-11.34l0.3,43.6
				c-2.52,5.74-10.52,10.61-17.93,10.61C434.23,299.61,457.49,245.99,429.78,245.99z"/>
			<path class="st0" d="M504.17,260.28V231.7c0-12.96-1.48-28.14-3.41-37.27h87.11l5.04,37.56c-3.7-3.24-10.37-4.42-24.89-4.42
				H537.8v12.08h23.85c6.96,0,13.63-0.15,18.22-0.59v15.17c-4.59-0.59-11.26-0.88-18.22-0.88H537.8v11.2h26.07
				c23.41,0,29.78-2.95,33.48-5.45l-5.33,38.45h-91.26C502.69,288.42,504.17,273.25,504.17,260.28z"/>
			<path class="st0" d="M633.33,260.28v-31.97h-13.78c-7.56,0-13.78,1.18-20,4.86l5.63-38.74h89.18l5.63,38.74
				c-5.63-3.24-12.89-4.86-20-4.86H667.1v31.97c0,12.96,1.33,28.14,3.41,37.27h-40.59C632,288.42,633.33,273.25,633.33,260.28z"/>
		</g>
	</g>
	<g>
		<path class="st0" d="M594.79,77.66c-1.46-31.6-26.75-57.55-58.47-59.92c-21.27-1.59-40.51,7.27-53.12,21.94
			c-0.68,0.79,0.01,2,1.04,1.83c4.63-0.79,9.43-1.19,14.36-1.19c16.29,0,31.17,4.4,42.88,12.81c3.72-3.65,6.57-8.2,8-13.11
			c0.3-1.04,1.76-1.04,2.06,0c2.82,9.7,11.13,17.96,20.88,20.76c1.04,0.3,1.04,1.75,0,2.05c-5.37,1.54-10.29,4.75-14.11,8.92
			c0,0.01,0.01,0.01,0.01,0.02c5.62,9.81,8.84,21.79,8.84,35.81c0,9.41-1.44,17.89-4.07,25.42c-0.35,0.99,0.76,1.87,1.65,1.31
			C583.6,122.71,595.89,101.57,594.79,77.66z"/>
		<path class="st0" d="M541.49,53.14c-3.62,3.56-8.08,6.28-12.9,7.67c-0.52,0.15-0.78,0.58-0.78,1.01c0.01,0.43,0.26,0.86,0.78,1.01
			c9.75,2.81,18.06,11.06,20.88,20.76c0.3,1.04,1.76,1.04,2.06,0c1.27-4.36,3.65-8.43,6.78-11.84
			C554.01,64.24,548.29,58.02,541.49,53.14z"/>
	</g>
</g>
<linearGradient id="SVGID_1_" gradientUnits="userSpaceOnUse" x1="0" y1="273.35" x2="147.01" y2="273.35" gradientTransform="matrix(1 0 0 -1 0 302)">
	<stop  offset="0" style="stop-color:#F85C04"/>
	<stop  offset="1" style="stop-color:#7C1E05"/>
</linearGradient>
<path class="st1" d="M118.36,57.3H28.65C12.83,57.3,0,44.47,0,28.65l0,0C0,12.83,12.83,0,28.65,0h89.71
	c15.82,0,28.65,12.83,28.65,28.65l0,0C147.01,44.47,134.18,57.3,118.36,57.3z"/>
<g class="st2">
	<path class="st0" d="M54.38,33.56c0,4.1-2.38,6.85-6.93,6.85H37.38V17.36h9.14c4.66,0,6.79,3.23,6.79,6.34
		c0,2.1-0.86,3.7-2.31,4.56C53.21,29.19,54.38,31.23,54.38,33.56z M41.29,20.96v5.6h5.19c1.65,0,2.91-0.96,2.91-2.8
		c0-1.6-1.09-2.8-2.91-2.8H41.29z M46.97,36.77c2.02,0,3.52-1.28,3.52-3.33c0-1.86-1.25-3.28-3.41-3.28h-5.79v6.61H46.97z"/>
	<path class="st0" d="M72.46,36.79v3.62H57.57V17.36h14.89v3.62H61.43v5.68h9.11v3.62h-9.11v6.51H72.46z"/>
	<path class="st0" d="M81.83,40.41V20.97h-7.46v-3.62h18.78v3.62h-7.46v19.43H81.83z"/>
	<path class="st0" d="M100.73,17.36h5.65l7.27,23.05h-3.97l-1.6-4.99h-9.06l-1.58,4.99h-3.97L100.73,17.36z M100.14,31.81h6.8
		l-3.43-10.74L100.14,31.81z"/>
</g>
</svg>
