<svg width="97" height="12" viewBox="0 0 97 12" fill="none" xmlns="http://www.w3.org/2000/svg">
<path d="M6.33333 9V3.66667C6.33333 3.29848 6.03486 3 5.66667 3H2.33333C1.96514 3 1.66667 3.29848 1.66667 3.66667V9M6.33333 9L7 8.99999M6.33333 9H4.66667M1.66667 9L1 8.99999M1.66667 9H3.33333M3 4.33333H3.33333M3 5.66666H3.33333M4.66667 4.33333H5M4.66667 5.66666H5M3.33333 9V7.33333C3.33333 7.14923 3.48257 6.99999 3.66667 6.99999H4.33333C4.51743 6.99999 4.66667 7.14923 4.66667 7.33333V9M3.33333 9H4.66667" stroke="#A8A8A8" stroke-width="0.5" stroke-linecap="round" stroke-linejoin="round"/>
<path d="M15.5955 3.18182H16.4762V7.00852C16.4762 7.41572 16.3806 7.77652 16.1893 8.09091C15.998 8.40341 15.729 8.64962 15.3825 8.82955C15.0359 9.00758 14.6296 9.09659 14.1637 9.09659C13.6997 9.09659 13.2944 9.00758 12.9478 8.82955C12.6012 8.64962 12.3323 8.40341 12.141 8.09091C11.9497 7.77652 11.854 7.41572 11.854 7.00852V3.18182H12.7319V6.9375C12.7319 7.20076 12.7897 7.43466 12.9052 7.6392C13.0226 7.84375 13.1883 8.00473 13.4023 8.12216C13.6164 8.23769 13.8701 8.29545 14.1637 8.29545C14.4592 8.29545 14.7139 8.23769 14.9279 8.12216C15.1438 8.00473 15.3086 7.84375 15.4222 7.6392C15.5378 7.43466 15.5955 7.20076 15.5955 6.9375V3.18182ZM18.5337 6.40909V9H17.6843V4.63636H18.4996V5.34659H18.5536C18.654 5.11553 18.8112 4.92992 19.0252 4.78977C19.2411 4.64962 19.5129 4.57955 19.8406 4.57955C20.1379 4.57955 20.3983 4.64205 20.6218 4.76705C20.8453 4.89015 21.0186 5.07386 21.1417 5.31818C21.2648 5.5625 21.3263 5.86458 21.3263 6.22443V9H20.4769V6.3267C20.4769 6.01042 20.3945 5.76326 20.2298 5.58523C20.065 5.4053 19.8387 5.31534 19.5508 5.31534C19.3538 5.31534 19.1786 5.35795 19.0252 5.44318C18.8737 5.52841 18.7534 5.65341 18.6644 5.81818C18.5773 5.98106 18.5337 6.17803 18.5337 6.40909ZM23.2468 7.51989L23.2411 6.48295H23.3888L25.1275 4.63636H26.1445L24.1616 6.73864H24.0281L23.2468 7.51989ZM22.4656 9V3.18182H23.315V9H22.4656ZM25.2212 9L23.6587 6.92614L24.244 6.33239L26.2638 9H25.2212ZM27.7681 6.40909V9H26.9187V4.63636H27.734V5.34659H27.788C27.8884 5.11553 28.0456 4.92992 28.2596 4.78977C28.4755 4.64962 28.7473 4.57955 29.0749 4.57955C29.3723 4.57955 29.6327 4.64205 29.8562 4.76705C30.0797 4.89015 30.253 5.07386 30.3761 5.31818C30.4992 5.5625 30.5607 5.86458 30.5607 6.22443V9H29.7113V6.3267C29.7113 6.01042 29.6289 5.76326 29.4641 5.58523C29.2994 5.4053 29.073 5.31534 28.7852 5.31534C28.5882 5.31534 28.413 5.35795 28.2596 5.44318C28.1081 5.52841 27.9878 5.65341 27.8988 5.81818C27.8117 5.98106 27.7681 6.17803 27.7681 6.40909ZM33.538 9.08807C33.1289 9.08807 32.7719 8.99432 32.467 8.80682C32.1621 8.61932 31.9253 8.35701 31.7567 8.01989C31.5882 7.68277 31.5039 7.28883 31.5039 6.83807C31.5039 6.38542 31.5882 5.98958 31.7567 5.65057C31.9253 5.31155 32.1621 5.0483 32.467 4.8608C32.7719 4.6733 33.1289 4.57955 33.538 4.57955C33.9471 4.57955 34.3041 4.6733 34.609 4.8608C34.9139 5.0483 35.1507 5.31155 35.3192 5.65057C35.4878 5.98958 35.5721 6.38542 35.5721 6.83807C35.5721 7.28883 35.4878 7.68277 35.3192 8.01989C35.1507 8.35701 34.9139 8.61932 34.609 8.80682C34.3041 8.99432 33.9471 9.08807 33.538 9.08807ZM33.5408 8.375C33.806 8.375 34.0257 8.30492 34.1999 8.16477C34.3742 8.02462 34.503 7.83807 34.5863 7.60511C34.6715 7.37216 34.7141 7.11553 34.7141 6.83523C34.7141 6.55682 34.6715 6.30114 34.5863 6.06818C34.503 5.83333 34.3742 5.64489 34.1999 5.50284C34.0257 5.3608 33.806 5.28977 33.5408 5.28977C33.2738 5.28977 33.0522 5.3608 32.8761 5.50284C32.7018 5.64489 32.5721 5.83333 32.4869 6.06818C32.4035 6.30114 32.3619 6.55682 32.3619 6.83523C32.3619 7.11553 32.4035 7.37216 32.4869 7.60511C32.5721 7.83807 32.7018 8.02462 32.8761 8.16477C33.0522 8.30492 33.2738 8.375 33.5408 8.375ZM37.3335 9L36.0494 4.63636H36.9272L37.7823 7.84091H37.8249L38.6829 4.63636H39.5607L40.413 7.8267H40.4556L41.305 4.63636H42.1829L40.9016 9H40.0352L39.1488 5.84943H39.0835L38.1971 9H37.3335ZM43.8384 6.40909V9H42.989V4.63636H43.8043V5.34659H43.8583C43.9587 5.11553 44.1159 4.92992 44.3299 4.78977C44.5458 4.64962 44.8176 4.57955 45.1452 4.57955C45.4426 4.57955 45.703 4.64205 45.9265 4.76705C46.15 4.89015 46.3233 5.07386 46.4464 5.31818C46.5695 5.5625 46.631 5.86458 46.631 6.22443V9H45.7816V6.3267C45.7816 6.01042 45.6992 5.76326 45.5344 5.58523C45.3697 5.4053 45.1433 5.31534 44.8555 5.31534C44.6585 5.31534 44.4833 5.35795 44.3299 5.44318C44.1784 5.52841 44.0581 5.65341 43.9691 5.81818C43.882 5.98106 43.8384 6.17803 43.8384 6.40909ZM49.9556 3.18182H51.021L52.8732 7.70455H52.9414L54.7937 3.18182H55.859V9H55.0238V4.78977H54.9698L53.2539 8.99148H52.5607L50.8448 4.78693H50.7908V9H49.9556V3.18182ZM58.337 9.09659C58.0605 9.09659 57.8105 9.04545 57.587 8.94318C57.3635 8.83902 57.1864 8.68845 57.0558 8.49148C56.927 8.29451 56.8626 8.05303 56.8626 7.76705C56.8626 7.52083 56.9099 7.31818 57.0046 7.15909C57.0993 7 57.2272 6.87405 57.3881 6.78125C57.5491 6.68845 57.729 6.61837 57.9279 6.57102C58.1268 6.52367 58.3294 6.48769 58.5359 6.46307C58.7972 6.43277 59.0094 6.40814 59.1722 6.3892C59.3351 6.36837 59.4535 6.33523 59.5273 6.28977C59.6012 6.24432 59.6381 6.17045 59.6381 6.06818V6.0483C59.6381 5.80019 59.5681 5.60795 59.4279 5.47159C59.2897 5.33523 59.0832 5.26705 58.8086 5.26705C58.5226 5.26705 58.2972 5.33049 58.1325 5.45739C57.9696 5.58239 57.8569 5.72159 57.7944 5.875L56.9961 5.69318C57.0908 5.42803 57.229 5.21402 57.4109 5.05114C57.5946 4.88636 57.8058 4.76705 58.0444 4.69318C58.283 4.61742 58.534 4.57955 58.7972 4.57955C58.9715 4.57955 59.1561 4.60038 59.3512 4.64205C59.5482 4.68182 59.7319 4.75568 59.9023 4.86364C60.0747 4.97159 60.2158 5.12595 60.3256 5.3267C60.4355 5.52557 60.4904 5.78409 60.4904 6.10227V9H59.6609V8.40341H59.6268C59.5719 8.51326 59.4895 8.62121 59.3796 8.72727C59.2698 8.83333 59.1287 8.9214 58.9563 8.99148C58.784 9.06155 58.5775 9.09659 58.337 9.09659ZM58.5217 8.41477C58.7565 8.41477 58.9573 8.36837 59.1239 8.27557C59.2925 8.18277 59.4203 8.06155 59.5075 7.91193C59.5965 7.76042 59.641 7.59848 59.641 7.42614V6.86364C59.6107 6.89394 59.552 6.92235 59.4648 6.94886C59.3796 6.97348 59.2821 6.99527 59.1722 7.0142C59.0624 7.03125 58.9554 7.04735 58.8512 7.0625C58.747 7.07576 58.6599 7.08712 58.5898 7.09659C58.4251 7.11742 58.2745 7.15246 58.1381 7.2017C58.0037 7.25095 57.8957 7.32197 57.8143 7.41477C57.7347 7.50568 57.695 7.62689 57.695 7.77841C57.695 7.98864 57.7726 8.14773 57.9279 8.25568C58.0832 8.36174 58.2811 8.41477 58.5217 8.41477ZM61.6218 9V4.63636H62.4428V5.32955H62.4883C62.5678 5.0947 62.708 4.91004 62.9087 4.77557C63.1114 4.6392 63.3406 4.57102 63.5962 4.57102C63.6493 4.57102 63.7118 4.57292 63.7837 4.5767C63.8576 4.58049 63.9154 4.58523 63.957 4.59091V5.40341C63.9229 5.39394 63.8623 5.38352 63.7752 5.37216C63.6881 5.3589 63.601 5.35227 63.5138 5.35227C63.3131 5.35227 63.1341 5.39489 62.9769 5.48011C62.8216 5.56345 62.6985 5.67992 62.6076 5.82955C62.5167 5.97727 62.4712 6.14583 62.4712 6.33523V9H61.6218ZM65.4734 7.51989L65.4677 6.48295H65.6154L67.354 4.63636H68.3711L66.3881 6.73864H66.2546L65.4734 7.51989ZM64.6921 9V3.18182H65.5415V9H64.6921ZM67.4478 9L65.8853 6.92614L66.4705 6.33239L68.4904 9H67.4478ZM70.8462 9.08807C70.4163 9.08807 70.046 8.99621 69.7354 8.8125C69.4267 8.62689 69.1881 8.36648 69.0195 8.03125C68.8529 7.69413 68.7695 7.29924 68.7695 6.84659C68.7695 6.39962 68.8529 6.00568 69.0195 5.66477C69.1881 5.32386 69.4229 5.05777 69.7241 4.86648C70.0271 4.67519 70.3813 4.57955 70.7866 4.57955C71.0328 4.57955 71.2714 4.62027 71.5025 4.7017C71.7335 4.78314 71.9409 4.91098 72.1246 5.08523C72.3084 5.25947 72.4532 5.4858 72.5593 5.7642C72.6654 6.04072 72.7184 6.37689 72.7184 6.77273V7.07386H69.2496V6.4375H71.886C71.886 6.21402 71.8406 6.0161 71.7496 5.84375C71.6587 5.66951 71.5309 5.5322 71.3661 5.43182C71.2032 5.33144 71.012 5.28125 70.7923 5.28125C70.5536 5.28125 70.3453 5.33996 70.1673 5.45739C69.9911 5.57292 69.8548 5.72443 69.7582 5.91193C69.6635 6.09754 69.6161 6.29924 69.6161 6.51705V7.0142C69.6161 7.30587 69.6673 7.55398 69.7695 7.75852C69.8737 7.96307 70.0186 8.11932 70.2042 8.22727C70.3898 8.33333 70.6067 8.38636 70.8548 8.38636C71.0157 8.38636 71.1625 8.36364 71.2951 8.31818C71.4277 8.27083 71.5423 8.20076 71.6388 8.10795C71.7354 8.01515 71.8093 7.90057 71.8604 7.7642L72.6644 7.90909C72.6 8.14583 72.4845 8.35322 72.3178 8.53125C72.1531 8.70739 71.9457 8.8447 71.6957 8.94318C71.4476 9.03977 71.1644 9.08807 70.8462 9.08807ZM75.6978 4.63636V5.31818H73.3143V4.63636H75.6978ZM73.9535 3.59091H74.8029V7.71875C74.8029 7.88352 74.8275 8.00758 74.8768 8.09091C74.926 8.17235 74.9895 8.22822 75.0671 8.25852C75.1467 8.28693 75.2328 8.30114 75.3256 8.30114C75.3938 8.30114 75.4535 8.2964 75.5046 8.28693C75.5558 8.27746 75.5955 8.26989 75.6239 8.2642L75.7773 8.96591C75.7281 8.98485 75.658 9.00379 75.5671 9.02273C75.4762 9.04356 75.3626 9.05492 75.2262 9.05682C75.0027 9.06061 74.7944 9.02083 74.6012 8.9375C74.408 8.85417 74.2518 8.72538 74.1325 8.55114C74.0131 8.37689 73.9535 8.15814 73.9535 7.89489V3.59091ZM76.6374 10.6364V4.63636H77.467V5.34375H77.538C77.5872 5.25284 77.6583 5.14773 77.7511 5.02841C77.8439 4.90909 77.9727 4.80492 78.1374 4.71591C78.3022 4.625 78.52 4.57955 78.7908 4.57955C79.1431 4.57955 79.4575 4.66856 79.734 4.84659C80.0105 5.02462 80.2274 5.28125 80.3846 5.61648C80.5437 5.9517 80.6232 6.35511 80.6232 6.8267C80.6232 7.2983 80.5446 7.70265 80.3874 8.03977C80.2302 8.375 80.0143 8.63352 79.7397 8.81534C79.4651 8.99527 79.1516 9.08523 78.7994 9.08523C78.5342 9.08523 78.3174 9.04072 78.1488 8.9517C77.9821 8.86269 77.8514 8.75852 77.7567 8.6392C77.6621 8.51989 77.5891 8.41383 77.538 8.32102H77.4869V10.6364H76.6374ZM77.4698 6.81818C77.4698 7.125 77.5143 7.39394 77.6033 7.625C77.6924 7.85606 77.8211 8.03693 77.9897 8.16761C78.1583 8.2964 78.3647 8.3608 78.609 8.3608C78.8628 8.3608 79.0749 8.29356 79.2454 8.15909C79.4158 8.02273 79.5446 7.83807 79.6317 7.60511C79.7208 7.37216 79.7653 7.10985 79.7653 6.81818C79.7653 6.5303 79.7217 6.27178 79.6346 6.04261C79.5494 5.81345 79.4206 5.63258 79.2482 5.5C79.0778 5.36742 78.8647 5.30114 78.609 5.30114C78.3628 5.30114 78.1545 5.36458 77.984 5.49148C77.8155 5.61837 77.6876 5.79545 77.6005 6.02273C77.5134 6.25 77.4698 6.51515 77.4698 6.81818ZM82.4244 3.18182V9H81.5749V3.18182H82.4244ZM84.837 9.09659C84.5605 9.09659 84.3105 9.04545 84.087 8.94318C83.8635 8.83902 83.6864 8.68845 83.5558 8.49148C83.427 8.29451 83.3626 8.05303 83.3626 7.76705C83.3626 7.52083 83.4099 7.31818 83.5046 7.15909C83.5993 7 83.7272 6.87405 83.8881 6.78125C84.0491 6.68845 84.229 6.61837 84.4279 6.57102C84.6268 6.52367 84.8294 6.48769 85.0359 6.46307C85.2972 6.43277 85.5094 6.40814 85.6722 6.3892C85.8351 6.36837 85.9535 6.33523 86.0273 6.28977C86.1012 6.24432 86.1381 6.17045 86.1381 6.06818V6.0483C86.1381 5.80019 86.0681 5.60795 85.9279 5.47159C85.7897 5.33523 85.5832 5.26705 85.3086 5.26705C85.0226 5.26705 84.7972 5.33049 84.6325 5.45739C84.4696 5.58239 84.3569 5.72159 84.2944 5.875L83.4961 5.69318C83.5908 5.42803 83.729 5.21402 83.9109 5.05114C84.0946 4.88636 84.3058 4.76705 84.5444 4.69318C84.783 4.61742 85.034 4.57955 85.2972 4.57955C85.4715 4.57955 85.6561 4.60038 85.8512 4.64205C86.0482 4.68182 86.2319 4.75568 86.4023 4.86364C86.5747 4.97159 86.7158 5.12595 86.8256 5.3267C86.9355 5.52557 86.9904 5.78409 86.9904 6.10227V9H86.1609V8.40341H86.1268C86.0719 8.51326 85.9895 8.62121 85.8796 8.72727C85.7698 8.83333 85.6287 8.9214 85.4563 8.99148C85.284 9.06155 85.0775 9.09659 84.837 9.09659ZM85.0217 8.41477C85.2565 8.41477 85.4573 8.36837 85.6239 8.27557C85.7925 8.18277 85.9203 8.06155 86.0075 7.91193C86.0965 7.76042 86.141 7.59848 86.141 7.42614V6.86364C86.1107 6.89394 86.052 6.92235 85.9648 6.94886C85.8796 6.97348 85.7821 6.99527 85.6722 7.0142C85.5624 7.03125 85.4554 7.04735 85.3512 7.0625C85.247 7.07576 85.1599 7.08712 85.0898 7.09659C84.9251 7.11742 84.7745 7.15246 84.6381 7.2017C84.5037 7.25095 84.3957 7.32197 84.3143 7.41477C84.2347 7.50568 84.195 7.62689 84.195 7.77841C84.195 7.98864 84.2726 8.14773 84.4279 8.25568C84.5832 8.36174 84.7811 8.41477 85.0217 8.41477ZM89.9599 9.08807C89.5375 9.08807 89.1739 8.99242 88.869 8.80114C88.5659 8.60795 88.333 8.34186 88.1701 8.00284C88.0072 7.66383 87.9258 7.27557 87.9258 6.83807C87.9258 6.39489 88.0091 6.00379 88.1758 5.66477C88.3424 5.32386 88.5773 5.05777 88.8803 4.86648C89.1834 4.67519 89.5404 4.57955 89.9513 4.57955C90.2828 4.57955 90.5782 4.6411 90.8377 4.7642C91.0972 4.88542 91.3065 5.05587 91.4656 5.27557C91.6265 5.49527 91.7222 5.75189 91.7525 6.04545H90.9258C90.8803 5.84091 90.7762 5.66477 90.6133 5.51705C90.4523 5.36932 90.2364 5.29545 89.9656 5.29545C89.7288 5.29545 89.5214 5.35795 89.3434 5.48295C89.1673 5.60606 89.0299 5.7822 88.9315 6.01136C88.833 6.23864 88.7837 6.50758 88.7837 6.81818C88.7837 7.13636 88.832 7.41098 88.9286 7.64205C89.0252 7.87311 89.1616 8.05208 89.3377 8.17898C89.5157 8.30587 89.725 8.36932 89.9656 8.36932C90.1265 8.36932 90.2724 8.33996 90.4031 8.28125C90.5356 8.22064 90.6464 8.13447 90.7354 8.02273C90.8263 7.91098 90.8898 7.77652 90.9258 7.61932H91.7525C91.7222 7.90152 91.6303 8.15341 91.4769 8.375C91.3235 8.59659 91.118 8.77083 90.8604 8.89773C90.6048 9.02462 90.3046 9.08807 89.9599 9.08807ZM94.5415 9.08807C94.1116 9.08807 93.7414 8.99621 93.4308 8.8125C93.122 8.62689 92.8834 8.36648 92.7148 8.03125C92.5482 7.69413 92.4648 7.29924 92.4648 6.84659C92.4648 6.39962 92.5482 6.00568 92.7148 5.66477C92.8834 5.32386 93.1183 5.05777 93.4194 4.86648C93.7224 4.67519 94.0766 4.57955 94.4819 4.57955C94.7281 4.57955 94.9667 4.62027 95.1978 4.7017C95.4289 4.78314 95.6362 4.91098 95.82 5.08523C96.0037 5.25947 96.1486 5.4858 96.2546 5.7642C96.3607 6.04072 96.4137 6.37689 96.4137 6.77273V7.07386H92.945V6.4375H95.5813C95.5813 6.21402 95.5359 6.0161 95.445 5.84375C95.354 5.66951 95.2262 5.5322 95.0614 5.43182C94.8986 5.33144 94.7073 5.28125 94.4876 5.28125C94.2489 5.28125 94.0406 5.33996 93.8626 5.45739C93.6864 5.57292 93.5501 5.72443 93.4535 5.91193C93.3588 6.09754 93.3114 6.29924 93.3114 6.51705V7.0142C93.3114 7.30587 93.3626 7.55398 93.4648 7.75852C93.569 7.96307 93.7139 8.11932 93.8995 8.22727C94.0851 8.33333 94.302 8.38636 94.5501 8.38636C94.7111 8.38636 94.8578 8.36364 94.9904 8.31818C95.123 8.27083 95.2376 8.20076 95.3342 8.10795C95.4308 8.01515 95.5046 7.90057 95.5558 7.7642L96.3597 7.90909C96.2953 8.14583 96.1798 8.35322 96.0131 8.53125C95.8484 8.70739 95.641 8.8447 95.391 8.94318C95.1429 9.03977 94.8597 9.08807 94.5415 9.08807Z" fill="#A8A8A8"/>
</svg>
