<svg width="200" height="281" viewBox="0 5 200 281" fill="none" xmlns="http://www.w3.org/2000/svg">
    <g filter="url(#filter0_f_4301_73717)">
        <mask id="mask0_4301_73717" style="mask-type:alpha" maskUnits="userSpaceOnUse" x="68" y="68"
            width="64" height="145">
            <path
                d="M68.3042 113.391L99.9564 68.1741L131.609 113.391V140.522V167.652L99.9564 212.87L68.3042 167.652V140.522V113.391Z"
                fill="#D9D9D9" />
        </mask>
        <g mask="url(#mask0_4301_73717)">
            <path d="M131.608 167.652V113.391L115.782 124.696V156.348L131.608 167.652Z"
                fill="#EC8409" />
            <path d="M68.3042 140.522V167.652L84.1303 156.348V124.696L68.3042 113.391V140.522Z"
                fill="#FDAC32" />
            <path d="M99.9565 212.87L131.609 167.652L115.783 156.348L99.9565 181.217V212.87Z"
                fill="#EC5B09" />
            <path d="M68.3042 167.652L99.9564 212.87V181.217L84.1303 156.348L68.3042 167.652Z"
                fill="#FDA116" />
            <path d="M131.609 113.391L99.9565 68.1741V99.8262L115.783 124.696L131.609 113.391Z"
                fill="#EC9109" />
            <path d="M99.9564 68.1741L68.3042 113.391L84.1303 124.696L99.9564 99.8262V68.1741Z"
                fill="#FDBC43" />
            <path
                d="M99.9565 181.217L115.783 156.348V124.696L99.9565 99.8262L84.1304 124.696V156.348L99.9565 181.217Z"
                fill="url(#paint0_linear_4301_73717)" />
            <path opacity="0.2"
                d="M45.6957 136L76.0212 118.899L99.9562 94.9642L111.261 65.9132L130.626 87.3252L62.7634 155.187L45.6957 136Z"
                fill="url(#paint1_linear_4301_73717)" />
            <path opacity="0.2"
                d="M79.6087 217.391L94.6848 172.959L115.782 151.862L138.39 158.608L142.913 183.478L90.913 221.913L79.6087 217.391Z"
                fill="url(#paint2_linear_4301_73717)" />
            <path opacity="0.2"
                d="M47.9565 181.216L68.3043 167.651L84.1147 156.507L115.784 124.696L149.697 108.868L154.218 140.521L66.4375 202.516L47.9565 181.216Z"
                fill="url(#paint3_linear_4301_73717)" />
        </g>
    </g>
    <mask id="mask1_4301_73717" style="mask-type:alpha" maskUnits="userSpaceOnUse" x="68" y="68"
        width="64" height="145">
        <path
            d="M68.3042 113.391L99.9564 68.1741L131.609 113.391V140.522V167.652L99.9564 212.87L68.3042 167.652V140.522V113.391Z"
            fill="#D9D9D9" />
    </mask>
    <g mask="url(#mask1_4301_73717)">
        <path d="M131.608 167.652V113.391L115.782 124.696V156.348L131.608 167.652Z" fill="#F25600" />
        <path d="M68.3042 140.522V167.652L84.1303 156.348V124.696L68.3042 113.391V140.522Z"
            fill="#FA832E" />
        <path d="M99.9565 212.87L131.609 167.652L115.783 156.348L99.9565 181.217V212.87Z"
            fill="#E05000" />
        <path d="M68.3042 167.652L99.9564 212.87V181.217L84.1303 156.348L68.3042 167.652Z"
            fill="#EF7115" />
        <path d="M131.609 113.391L99.9565 68.1741V99.8262L115.783 124.696L131.609 113.391Z"
            fill="#FF6D1C" />
        <path d="M99.9564 68.1741L68.3042 113.391L84.1303 124.696L99.9564 99.8262V68.1741Z"
            fill="#FF994F" />
        <path
            d="M99.9565 181.217L115.783 156.348V124.696L99.9565 99.8262L84.1304 124.696V156.348L99.9565 181.217Z"
            fill="url(#paint4_linear_4301_73717)" />
        <path opacity="0.2"
            d="M45.6957 136L76.0212 118.899L99.9562 94.9642L111.261 65.9132L130.626 87.3252L62.7634 155.187L45.6957 136Z"
            fill="url(#paint5_linear_4301_73717)" />
        <path opacity="0.2"
            d="M79.6087 217.391L94.6848 172.959L115.782 151.862L138.39 158.608L142.913 178.957L90.913 217.391L79.6087 217.391Z"
            fill="url(#paint6_linear_4301_73717)" />
        <path opacity="0.2"
            d="M47.9565 181.216L68.3043 167.651L84.1147 156.507L115.784 124.696L149.697 108.868L154.218 140.521L66.4375 202.516L47.9565 181.216Z"
            fill="url(#paint7_linear_4301_73717)" />
        <rect x="47.9214" y="243.546" width="136.482" height="2.25517"
            transform="rotate(-42.4346 47.9214 243.546)" fill="white" />
        <rect x="45.6958" y="229.786" width="136.482" height="9.26175"
            transform="rotate(-42.4346 45.6958 229.786)" fill="white" />
    </g>
    <path
        d="M109 50.1304L110.63 62.0649L122.565 63.6956L110.63 65.3262L109 77.2608L107.369 65.3262L95.4346 63.6956L107.369 62.0649L109 50.1304Z"
        fill="white" />
    <path
        d="M133.87 122.478L134.685 128.445L140.652 129.261L134.685 130.076L133.87 136.043L133.054 130.076L127.087 129.261L133.054 128.445L133.87 122.478Z"
        fill="white" />
    <path
        d="M77.3482 163.174L78.4353 171.13L86.3916 172.217L78.4353 173.304L77.3482 181.261L76.2611 173.304L68.3047 172.217L76.2611 171.13L77.3482 163.174Z"
        fill="white" />
    <path
        d="M149.695 225.913C149.695 230.908 127.426 234.957 99.9554 234.957C72.4853 234.957 50.2163 230.908 50.2163 225.913C50.2163 220.919 72.4853 216.87 99.9554 216.87C127.426 216.87 149.695 220.919 149.695 225.913Z"
        fill="#1B1A22" />
    <path
        d="M99.9554 234.957C127.426 234.957 149.695 230.908 149.695 225.913V234.957C149.695 239.951 127.426 244 99.9554 244C72.4853 244 50.2163 239.951 50.2163 234.957V225.913C50.2163 230.908 72.4853 234.957 99.9554 234.957Z"
        fill="url(#paint8_linear_4301_73717)" />
    <g opacity="0.3" filter="url(#filter1_f_4301_73717)">
        <path
            d="M127.087 225.913C127.087 223.416 114.94 221.392 99.9561 221.392C84.9724 221.392 72.8257 223.416 72.8257 225.913C72.8257 228.411 84.9724 230.435 99.9561 230.435C114.94 230.435 127.087 228.411 127.087 225.913Z"
            fill="#E05000" />
    </g>
    <g filter="url(#filter2_f_4301_73717)">
        <path
            d="M114.227 225.912C114.227 225.24 107.837 224.694 99.9557 224.694C92.074 224.694 85.6846 225.24 85.6846 225.912C85.6846 226.585 92.074 227.13 99.9557 227.13C107.837 227.13 114.227 226.585 114.227 225.912Z"
            fill="#E05000" />
    </g>
    <g opacity="0.44">
        <path
            d="M99.9564 34.0869C72.486 34.0869 50.2173 56.3561 50.2173 83.826V205.913C50.2173 210.908 72.486 214.956 99.9564 214.956C127.427 214.956 149.696 210.908 149.696 205.913V83.826C149.696 56.3561 127.427 34.0869 99.9564 34.0869Z"
            fill="url(#paint9_radial_4301_73717)" fill-opacity="0.57" />
        <path
            d="M99.9564 34.0869C72.486 34.0869 50.2173 56.3561 50.2173 83.826V205.913C50.2173 210.908 72.486 214.956 99.9564 214.956C127.427 214.956 149.696 210.908 149.696 205.913V83.826C149.696 56.3561 127.427 34.0869 99.9564 34.0869Z"
            fill="url(#paint10_linear_4301_73717)" fill-opacity="0.33" />
        <path
            d="M99.9564 34.0869C72.486 34.0869 50.2173 56.3561 50.2173 83.826V205.913C50.2173 210.908 72.486 214.956 99.9564 214.956C127.427 214.956 149.696 210.908 149.696 205.913V83.826C149.696 56.3561 127.427 34.0869 99.9564 34.0869Z"
            fill="url(#paint11_radial_4301_73717)" fill-opacity="0.91" />
        <path
            d="M51.3477 83.826C51.3477 56.9805 73.1103 35.2173 99.9564 35.2173C126.803 35.2173 148.565 56.9805 148.565 83.826V205.913C148.565 206.084 148.473 206.412 147.934 206.891C147.4 207.366 146.546 207.876 145.34 208.395C142.938 209.427 139.392 210.383 134.925 211.196C126.009 212.817 113.645 213.826 99.9564 213.826C86.2676 213.826 73.9037 212.817 64.9876 211.196C60.5204 210.383 56.9747 209.427 54.5724 208.395C53.3669 207.876 52.5132 207.366 51.9787 206.891C51.4395 206.412 51.3477 206.084 51.3477 205.913V83.826Z"
            stroke="url(#paint12_linear_4301_73717)" stroke-opacity="0.43" stroke-width="2.26087" />
        <path
            d="M51.3477 83.826C51.3477 56.9805 73.1103 35.2173 99.9564 35.2173C126.803 35.2173 148.565 56.9805 148.565 83.826V205.913C148.565 206.084 148.473 206.412 147.934 206.891C147.4 207.366 146.546 207.876 145.34 208.395C142.938 209.427 139.392 210.383 134.925 211.196C126.009 212.817 113.645 213.826 99.9564 213.826C86.2676 213.826 73.9037 212.817 64.9876 211.196C60.5204 210.383 56.9747 209.427 54.5724 208.395C53.3669 207.876 52.5132 207.366 51.9787 206.891C51.4395 206.412 51.3477 206.084 51.3477 205.913V83.826Z"
            stroke="url(#paint13_radial_4301_73717)" stroke-opacity="0.2" stroke-width="2.26087" />
    </g>
    <defs>
        <filter id="filter0_f_4301_73717" x="0.478111" y="0.347984" width="198.956" height="280.348"
            filterUnits="userSpaceOnUse" color-interpolation-filters="sRGB">
            <feFlood flood-opacity="0" result="BackgroundImageFix" />
            <feBlend mode="normal" in="SourceGraphic" in2="BackgroundImageFix" result="shape" />
            <feGaussianBlur stdDeviation="33.913" result="effect1_foregroundBlur_4301_73717" />
        </filter>
        <filter id="filter1_f_4301_73717" x="63.7822" y="212.348" width="72.3477" height="27.1304"
            filterUnits="userSpaceOnUse" color-interpolation-filters="sRGB">
            <feFlood flood-opacity="0" result="BackgroundImageFix" />
            <feBlend mode="normal" in="SourceGraphic" in2="BackgroundImageFix" result="shape" />
            <feGaussianBlur stdDeviation="4.52174" result="effect1_foregroundBlur_4301_73717" />
        </filter>
        <filter id="filter2_f_4301_73717" x="76.6411" y="215.651" width="46.6294" height="20.5225"
            filterUnits="userSpaceOnUse" color-interpolation-filters="sRGB">
            <feFlood flood-opacity="0" result="BackgroundImageFix" />
            <feBlend mode="normal" in="SourceGraphic" in2="BackgroundImageFix" result="shape" />
            <feGaussianBlur stdDeviation="4.52174" result="effect1_foregroundBlur_4301_73717" />
        </filter>
        <linearGradient id="paint0_linear_4301_73717" x1="95.4347" y1="181.217" x2="113.522"
            y2="145.044" gradientUnits="userSpaceOnUse">
            <stop stop-color="#F85C04" />
            <stop offset="1" stop-color="#EC9D08" />
        </linearGradient>
        <linearGradient id="paint1_linear_4301_73717" x1="85.1796" y1="109.741" x2="98.7265"
            y2="123.288" gradientUnits="userSpaceOnUse">
            <stop offset="0.203401" stop-color="white" />
            <stop offset="0.824081" stop-color="white" stop-opacity="0" />
        </linearGradient>
        <linearGradient id="paint2_linear_4301_73717" x1="102.235" y1="165.41" x2="115.782"
            y2="178.957" gradientUnits="userSpaceOnUse">
            <stop offset="0.203401" stop-color="white" />
            <stop offset="0.824081" stop-color="white" stop-opacity="0" />
        </linearGradient>
        <linearGradient id="paint3_linear_4301_73717" x1="90.913" y1="142.782" x2="104.478"
            y2="156.347" gradientUnits="userSpaceOnUse">
            <stop stop-color="white" />
            <stop offset="0.824081" stop-color="white" stop-opacity="0" />
        </linearGradient>
        <linearGradient id="paint4_linear_4301_73717" x1="95.4347" y1="197.044" x2="122.565"
            y2="120.174" gradientUnits="userSpaceOnUse">
            <stop stop-color="#98290C" />
            <stop offset="1" stop-color="#FF5D02" />
        </linearGradient>
        <linearGradient id="paint5_linear_4301_73717" x1="85.1796" y1="109.741" x2="98.7265"
            y2="123.288" gradientUnits="userSpaceOnUse">
            <stop offset="0.203401" stop-color="white" />
            <stop offset="0.824081" stop-color="white" stop-opacity="0" />
        </linearGradient>
        <linearGradient id="paint6_linear_4301_73717" x1="102.235" y1="165.41" x2="115.782"
            y2="178.957" gradientUnits="userSpaceOnUse">
            <stop offset="0.203401" stop-color="white" />
            <stop offset="0.824081" stop-color="white" stop-opacity="0" />
        </linearGradient>
        <linearGradient id="paint7_linear_4301_73717" x1="90.913" y1="142.782" x2="104.478"
            y2="156.347" gradientUnits="userSpaceOnUse">
            <stop stop-color="white" />
            <stop offset="0.824081" stop-color="white" stop-opacity="0" />
        </linearGradient>
        <linearGradient id="paint8_linear_4301_73717" x1="46.4692" y1="244" x2="149.695" y2="244"
            gradientUnits="userSpaceOnUse">
            <stop stop-color="#212027" />
            <stop offset="1" stop-color="#131118" />
        </linearGradient>
        <radialGradient id="paint9_radial_4301_73717" cx="0" cy="0" r="1"
            gradientUnits="userSpaceOnUse"
            gradientTransform="translate(102.217 14.9868) rotate(90) scale(193.471 673.132)">
            <stop stop-color="#FDA92A" />
            <stop offset="1" stop-color="#FF3D00" stop-opacity="0" />
        </radialGradient>
        <linearGradient id="paint10_linear_4301_73717" x1="34.3912" y1="27.3043" x2="149.696"
            y2="219.478" gradientUnits="userSpaceOnUse">
            <stop offset="0.160927" stop-color="white" stop-opacity="0.45" />
            <stop offset="0.571448" stop-color="white" stop-opacity="0.43" />
            <stop offset="1" stop-color="white" stop-opacity="0" />
        </linearGradient>
        <radialGradient id="paint11_radial_4301_73717" cx="0" cy="0" r="1"
            gradientUnits="userSpaceOnUse"
            gradientTransform="translate(99.9564 42.2489) rotate(90) scale(38.7671 65.5166)">
            <stop stop-color="#FFCC81" />
            <stop offset="1" stop-color="#FDA116" stop-opacity="0" />
        </radialGradient>
        <linearGradient id="paint12_linear_4301_73717" x1="73.3477" y1="-7.0146" x2="158.164"
            y2="227.478" gradientUnits="userSpaceOnUse">
            <stop offset="0.393026" stop-color="white" stop-opacity="0" />
            <stop offset="0.549245" stop-color="white" />
            <stop offset="1" stop-color="white" stop-opacity="0" />
        </linearGradient>
        <radialGradient id="paint13_radial_4301_73717" cx="0" cy="0" r="1"
            gradientUnits="userSpaceOnUse"
            gradientTransform="translate(105.458 34.0869) rotate(124.145) scale(91.7372 41.7461)">
            <stop stop-color="white" />
            <stop offset="1" stop-color="white" stop-opacity="0" />
        </radialGradient>
    </defs>
</svg>