<svg width="200" height="281" viewBox="0 8 200 281" fill="none" xmlns="http://www.w3.org/2000/svg">
    <g filter="url(#filter0_f_4301_72391)">
        <mask id="mask0_4301_72391" style="mask-type:alpha" maskUnits="userSpaceOnUse" x="68" y="68"
            width="64" height="145">
            <path
                d="M68.3047 113.348L99.9569 68.1306L131.609 113.348V140.478V167.609L99.9569 212.826L68.3047 167.609V140.478V113.348Z"
                fill="#D9D9D9" />
        </mask>
        <g mask="url(#mask0_4301_72391)">
            <path d="M131.609 167.609V113.348L115.783 124.652V156.304L131.609 167.609Z"
                fill="#EC8409" />
            <path d="M68.3047 140.478V167.609L84.1308 156.304V124.652L68.3047 113.348V140.478Z"
                fill="#FDAC32" />
            <path d="M99.957 212.826L131.609 167.609L115.783 156.304L99.957 181.174V212.826Z"
                fill="#EC5B09" />
            <path d="M68.3047 167.609L99.9569 212.826V181.174L84.1308 156.304L68.3047 167.609Z"
                fill="#FDA116" />
            <path d="M131.609 113.348L99.957 68.1306V99.7828L115.783 124.652L131.609 113.348Z"
                fill="#EC9109" />
            <path d="M99.9569 68.1306L68.3047 113.348L84.1308 124.652L99.9569 99.7828V68.1306Z"
                fill="#FDBC43" />
            <path
                d="M99.9569 181.174L115.783 156.304V124.652L99.9569 99.7827L84.1309 124.652V156.304L99.9569 181.174Z"
                fill="url(#paint0_linear_4301_72391)" />
            <path opacity="0.2"
                d="M45.6961 135.957L76.0217 118.856L99.9567 94.9208L111.261 65.8697L130.626 87.2818L62.7639 155.144L45.6961 135.957Z"
                fill="url(#paint1_linear_4301_72391)" />
            <path opacity="0.2"
                d="M79.6091 217.348L94.6852 172.916L115.782 151.819L138.391 158.565L142.913 183.435L90.9135 221.87L79.6091 217.348Z"
                fill="url(#paint2_linear_4301_72391)" />
            <path opacity="0.2"
                d="M47.957 181.173L68.3048 167.608L84.1152 156.463L115.785 124.652L149.697 108.825L154.219 140.478L66.438 202.472L47.957 181.173Z"
                fill="url(#paint3_linear_4301_72391)" />
        </g>
    </g>
    <mask id="mask1_4301_72391" style="mask-type:alpha" maskUnits="userSpaceOnUse" x="68" y="71"
        width="64" height="145">
        <path
            d="M68.3047 116.348L99.9569 71.1304L131.609 116.348V143.478V170.609L99.9569 215.826L68.3047 170.609V143.478V116.348Z"
            fill="#D9D9D9" />
    </mask>
    <g mask="url(#mask1_4301_72391)">
        <path d="M131.609 170.609V116.348L115.783 127.652V159.304L131.609 170.609Z" fill="#F25600" />
        <path d="M68.3047 143.478V170.609L84.1308 159.304V127.652L68.3047 116.348V143.478Z"
            fill="#FA832E" />
        <path d="M99.957 215.826L131.609 170.609L115.783 159.304L99.957 184.174V215.826Z"
            fill="#E05000" />
        <path d="M68.3047 170.609L99.9569 215.826V184.174L84.1308 159.304L68.3047 170.609Z"
            fill="#EF7115" />
        <path d="M131.609 116.348L99.957 71.1304V102.783L115.783 127.652L131.609 116.348Z"
            fill="#FF6D1C" />
        <path d="M99.9569 71.1304L68.3047 116.348L84.1308 127.652L99.9569 102.783V71.1304Z"
            fill="#FF994F" />
        <path
            d="M99.9569 184.174L115.783 159.304V127.652L99.9569 102.782L84.1309 127.652V159.304L99.9569 184.174Z"
            fill="url(#paint4_linear_4301_72391)" />
        <path opacity="0.2"
            d="M45.6961 138.956L76.0217 121.856L99.9567 97.9205L111.261 68.8695L130.626 90.2815L62.7639 158.144L45.6961 138.956Z"
            fill="url(#paint5_linear_4301_72391)" />
        <path opacity="0.2"
            d="M79.6091 220.348L94.6852 175.916L115.782 154.819L138.391 161.565L142.913 181.913L90.9135 220.348L79.6091 220.348Z"
            fill="url(#paint6_linear_4301_72391)" />
        <path opacity="0.2"
            d="M47.957 184.173L68.3048 170.608L84.1152 159.463L115.785 127.652L149.697 111.825L154.219 143.477L66.438 205.472L47.957 184.173Z"
            fill="url(#paint7_linear_4301_72391)" />
    </g>
    <path
        d="M109 63.6086L110.631 75.5432L122.565 77.1739L110.631 78.8045L109 90.7391L107.37 78.8045L95.4351 77.1739L107.37 75.5432L109 63.6086Z"
        fill="white" />
    <path
        d="M136.131 131.435L137.218 139.391L145.174 140.478L137.218 141.565L136.131 149.522L135.044 141.565L127.087 140.478L135.044 139.391L136.131 131.435Z"
        fill="white" />
    <path
        d="M77.3482 167.609L78.4353 175.565L86.3916 176.652L78.4353 177.739L77.3482 185.696L76.2611 177.739L68.3047 176.652L76.2611 175.565L77.3482 167.609Z"
        fill="white" />
    <path
        d="M149.695 230.913C149.695 235.908 127.426 239.957 99.9554 239.957C72.4853 239.957 50.2163 235.908 50.2163 230.913C50.2163 225.919 72.4853 221.87 99.9554 221.87C127.426 221.87 149.695 225.919 149.695 230.913Z"
        fill="#1B1A22" />
    <path
        d="M99.9554 239.957C127.426 239.957 149.695 235.908 149.695 230.913V239.957C149.695 244.951 127.426 249 99.9554 249C72.4853 249 50.2163 244.951 50.2163 239.957V230.913C50.2163 235.908 72.4853 239.957 99.9554 239.957Z"
        fill="url(#paint8_linear_4301_72391)" />
    <g opacity="0.3" filter="url(#filter1_f_4301_72391)">
        <path
            d="M127.087 230.913C127.087 228.416 114.94 226.392 99.9561 226.392C84.9724 226.392 72.8257 228.416 72.8257 230.913C72.8257 233.411 84.9724 235.435 99.9561 235.435C114.94 235.435 127.087 233.411 127.087 230.913Z"
            fill="#E05000" />
    </g>
    <g filter="url(#filter2_f_4301_72391)">
        <path
            d="M114.226 230.912C114.226 230.24 107.837 229.694 99.9552 229.694C92.0735 229.694 85.6841 230.24 85.6841 230.912C85.6841 231.585 92.0735 232.13 99.9552 232.13C107.837 232.13 114.226 231.585 114.226 230.912Z"
            fill="#E05000" />
    </g>
    <g opacity="0.44">
        <path
            d="M99.9564 51C72.486 51 50.2173 73.2692 50.2173 100.739V222.826C50.2173 227.821 72.486 231.87 99.9564 231.87C127.427 231.87 149.696 227.821 149.696 222.826V100.739C149.696 73.2692 127.427 51 99.9564 51Z"
            fill="url(#paint9_radial_4301_72391)" fill-opacity="0.57" />
        <path
            d="M99.9564 51C72.486 51 50.2173 73.2692 50.2173 100.739V222.826C50.2173 227.821 72.486 231.87 99.9564 231.87C127.427 231.87 149.696 227.821 149.696 222.826V100.739C149.696 73.2692 127.427 51 99.9564 51Z"
            fill="url(#paint10_linear_4301_72391)" fill-opacity="0.33" />
        <path
            d="M99.9564 51C72.486 51 50.2173 73.2692 50.2173 100.739V222.826C50.2173 227.821 72.486 231.87 99.9564 231.87C127.427 231.87 149.696 227.821 149.696 222.826V100.739C149.696 73.2692 127.427 51 99.9564 51Z"
            fill="url(#paint11_radial_4301_72391)" fill-opacity="0.91" />
        <path
            d="M51.3477 100.739C51.3477 73.8935 73.1103 52.1304 99.9564 52.1304C126.803 52.1304 148.565 73.8935 148.565 100.739V222.826C148.565 222.998 148.473 223.325 147.934 223.804C147.4 224.279 146.546 224.79 145.34 225.308C142.938 226.34 139.392 227.296 134.925 228.109C126.009 229.73 113.645 230.739 99.9564 230.739C86.2676 230.739 73.9037 229.73 64.9876 228.109C60.5204 227.296 56.9747 226.34 54.5724 225.308C53.3669 224.79 52.5132 224.279 51.9787 223.804C51.4395 223.325 51.3477 222.998 51.3477 222.826V100.739Z"
            stroke="url(#paint12_linear_4301_72391)" stroke-opacity="0.43" stroke-width="2.26087" />
        <path
            d="M51.3477 100.739C51.3477 73.8935 73.1103 52.1304 99.9564 52.1304C126.803 52.1304 148.565 73.8935 148.565 100.739V222.826C148.565 222.998 148.473 223.325 147.934 223.804C147.4 224.279 146.546 224.79 145.34 225.308C142.938 226.34 139.392 227.296 134.925 228.109C126.009 229.73 113.645 230.739 99.9564 230.739C86.2676 230.739 73.9037 229.73 64.9876 228.109C60.5204 227.296 56.9747 226.34 54.5724 225.308C53.3669 224.79 52.5132 224.279 51.9787 223.804C51.4395 223.325 51.3477 222.998 51.3477 222.826V100.739Z"
            stroke="url(#paint13_radial_4301_72391)" stroke-opacity="0.2" stroke-width="2.26087" />
    </g>
    <path
        d="M92.0789 103.066L93.3959 112.198L103.035 113.446L93.3959 114.693L92.0789 123.825L90.7619 114.693L81.123 113.446L90.7619 112.198L92.0789 103.066Z"
        fill="white" />
    <path
        d="M154.932 123.822L156.18 132.447L165.312 133.625L156.18 134.803L154.932 143.428L153.685 134.803L144.553 133.625L153.685 132.447L154.932 123.822Z"
        fill="white" />
    <path
        d="M122.063 180.333L123.242 188.958L131.866 190.136L123.242 191.314L122.063 199.939L120.885 191.314L112.261 190.136L120.885 188.958L122.063 180.333Z"
        fill="white" />
    <path
        d="M47.1091 86.9202L48.5648 97.5737L59.2183 99.0293L48.5648 100.485L47.1091 111.138L45.6535 100.485L35 99.0293L45.6535 97.5737L47.1091 86.9202Z"
        fill="white" />
    <path
        d="M52.2906 139.969L53.1224 145.549L59.2101 146.311L53.1224 147.074L52.2906 152.654L51.4588 147.074L45.3711 146.311L51.4588 145.549L52.2906 139.969Z"
        fill="white" />
    <path
        d="M131.872 105.373L132.288 109.431L135.332 109.986L132.288 110.54L131.872 114.599L131.456 110.54L128.413 109.986L131.456 109.431L131.872 105.373Z"
        fill="white" />
    <path
        d="M45.9544 168.8L46.301 172.351L48.8375 172.836L46.301 173.321L45.9544 176.872L45.6078 173.321L43.0713 172.836L45.6078 172.351L45.9544 168.8Z"
        fill="white" />
    <path
        d="M112.266 146.889L113.097 152.469L119.185 153.232L113.097 153.994L112.266 159.574L111.434 153.994L105.346 153.232L111.434 152.469L112.266 146.889Z"
        fill="white" />
    <path
        d="M68.4327 176.876L69.2645 182.964L75.3522 183.795L69.2645 184.627L68.4327 190.715L67.6009 184.627L61.5132 183.795L67.6009 182.964L68.4327 176.876Z"
        fill="white" />
    <path
        d="M155.519 80L156.42 85.5804L163.015 86.3429L156.42 87.1053L155.519 92.6858L154.617 87.1053L148.022 86.3429L154.617 85.5804L155.519 80Z"
        fill="white" />
    <defs>
        <filter id="filter0_f_4301_72391" x="0.4786" y="0.304527" width="198.956" height="280.348"
            filterUnits="userSpaceOnUse" color-interpolation-filters="sRGB">
            <feFlood flood-opacity="0" result="BackgroundImageFix" />
            <feBlend mode="normal" in="SourceGraphic" in2="BackgroundImageFix" result="shape" />
            <feGaussianBlur stdDeviation="33.913" result="effect1_foregroundBlur_4301_72391" />
        </filter>
        <filter id="filter1_f_4301_72391" x="59.2605" y="212.826" width="81.3912" height="36.1739"
            filterUnits="userSpaceOnUse" color-interpolation-filters="sRGB">
            <feFlood flood-opacity="0" result="BackgroundImageFix" />
            <feBlend mode="normal" in="SourceGraphic" in2="BackgroundImageFix" result="shape" />
            <feGaussianBlur stdDeviation="6.78261" result="effect1_foregroundBlur_4301_72391" />
        </filter>
        <filter id="filter2_f_4301_72391" x="72.1189" y="216.129" width="55.6729" height="29.566"
            filterUnits="userSpaceOnUse" color-interpolation-filters="sRGB">
            <feFlood flood-opacity="0" result="BackgroundImageFix" />
            <feBlend mode="normal" in="SourceGraphic" in2="BackgroundImageFix" result="shape" />
            <feGaussianBlur stdDeviation="6.78261" result="effect1_foregroundBlur_4301_72391" />
        </filter>
        <linearGradient id="paint0_linear_4301_72391" x1="95.4352" y1="181.174" x2="113.522"
            y2="145" gradientUnits="userSpaceOnUse">
            <stop stop-color="#F85C04" />
            <stop offset="1" stop-color="#EC9D08" />
        </linearGradient>
        <linearGradient id="paint1_linear_4301_72391" x1="85.1801" y1="109.697" x2="98.727"
            y2="123.244" gradientUnits="userSpaceOnUse">
            <stop offset="0.203401" stop-color="white" />
            <stop offset="0.824081" stop-color="white" stop-opacity="0" />
        </linearGradient>
        <linearGradient id="paint2_linear_4301_72391" x1="102.236" y1="165.366" x2="115.783"
            y2="178.913" gradientUnits="userSpaceOnUse">
            <stop offset="0.203401" stop-color="white" />
            <stop offset="0.824081" stop-color="white" stop-opacity="0" />
        </linearGradient>
        <linearGradient id="paint3_linear_4301_72391" x1="90.9135" y1="142.738" x2="104.479"
            y2="156.303" gradientUnits="userSpaceOnUse">
            <stop stop-color="white" />
            <stop offset="0.824081" stop-color="white" stop-opacity="0" />
        </linearGradient>
        <linearGradient id="paint4_linear_4301_72391" x1="95.4352" y1="200" x2="122.566" y2="123.13"
            gradientUnits="userSpaceOnUse">
            <stop stop-color="#98290C" />
            <stop offset="1" stop-color="#FF5D02" />
        </linearGradient>
        <linearGradient id="paint5_linear_4301_72391" x1="85.1801" y1="112.697" x2="98.727"
            y2="126.244" gradientUnits="userSpaceOnUse">
            <stop offset="0.203401" stop-color="white" />
            <stop offset="0.824081" stop-color="white" stop-opacity="0" />
        </linearGradient>
        <linearGradient id="paint6_linear_4301_72391" x1="102.236" y1="168.366" x2="115.783"
            y2="181.913" gradientUnits="userSpaceOnUse">
            <stop offset="0.203401" stop-color="white" />
            <stop offset="0.824081" stop-color="white" stop-opacity="0" />
        </linearGradient>
        <linearGradient id="paint7_linear_4301_72391" x1="90.9135" y1="145.738" x2="104.479"
            y2="159.303" gradientUnits="userSpaceOnUse">
            <stop stop-color="white" />
            <stop offset="0.824081" stop-color="white" stop-opacity="0" />
        </linearGradient>
        <linearGradient id="paint8_linear_4301_72391" x1="46.4692" y1="249" x2="149.695" y2="249"
            gradientUnits="userSpaceOnUse">
            <stop stop-color="#212027" />
            <stop offset="1" stop-color="#131118" />
        </linearGradient>
        <radialGradient id="paint9_radial_4301_72391" cx="0" cy="0" r="1"
            gradientUnits="userSpaceOnUse"
            gradientTransform="translate(102.217 31.8999) rotate(90) scale(193.471 673.132)">
            <stop stop-color="#FDA92A" />
            <stop offset="1" stop-color="#FF3D00" stop-opacity="0" />
        </radialGradient>
        <linearGradient id="paint10_linear_4301_72391" x1="34.3912" y1="44.2174" x2="149.696"
            y2="236.391" gradientUnits="userSpaceOnUse">
            <stop offset="0.160927" stop-color="white" stop-opacity="0.45" />
            <stop offset="0.571448" stop-color="white" stop-opacity="0.43" />
            <stop offset="1" stop-color="white" stop-opacity="0" />
        </linearGradient>
        <radialGradient id="paint11_radial_4301_72391" cx="0" cy="0" r="1"
            gradientUnits="userSpaceOnUse"
            gradientTransform="translate(99.9564 59.162) rotate(90) scale(38.7671 65.5166)">
            <stop stop-color="#FFCC81" />
            <stop offset="1" stop-color="#FDA116" stop-opacity="0" />
        </radialGradient>
        <linearGradient id="paint12_linear_4301_72391" x1="73.3477" y1="9.89849" x2="158.164"
            y2="244.391" gradientUnits="userSpaceOnUse">
            <stop offset="0.393026" stop-color="white" stop-opacity="0" />
            <stop offset="0.549245" stop-color="white" />
            <stop offset="1" stop-color="white" stop-opacity="0" />
        </linearGradient>
        <radialGradient id="paint13_radial_4301_72391" cx="0" cy="0" r="1"
            gradientUnits="userSpaceOnUse"
            gradientTransform="translate(105.458 51) rotate(124.145) scale(91.7372 41.7461)">
            <stop stop-color="white" />
            <stop offset="1" stop-color="white" stop-opacity="0" />
        </radialGradient>
    </defs>
</svg>