<svg width="20" height="20" viewBox="0 0 20 20" fill="none" xmlns="http://www.w3.org/2000/svg"><path fill-rule="evenodd" clip-rule="evenodd" d="M6.36189 1.47495C6.63948 2.09536 7.1082 2.82057 7.58225 3.33963C8.34504 3.09723 9.1573 2.96647 10 2.96647C14.4183 2.96647 18 6.5609 18 10.9949C18 15.4288 14.4183 19.0233 10 19.0233C5.58172 19.0233 2 15.4288 2 10.9949C2 8.92199 2.7828 7.03261 4.06793 5.60818C3.72912 4.91657 3.14352 4.19953 2.59942 3.73012C2.33947 3.50585 2.3195 3.04511 2.60329 2.85214L5.24729 1.05422C5.57092 0.834149 6.20176 1.11705 6.36189 1.47495ZM6.64128 10.5537C5.05521 10.435 4.06424 12.1852 4.77577 13.6127C5.73362 15.5343 7.71327 16.8538 10 16.8538C13.2242 16.8538 15.8378 14.2308 15.8378 10.9952C15.8378 8.82607 14.6632 6.93226 12.9174 5.91952C12.5747 5.72071 12.1292 5.8421 12.0104 6.22104L11.5889 7.56581C10.9863 9.4879 9.1447 10.7409 7.14242 10.5912L6.64128 10.5537Z" fill="white"></path></svg>
