<svg viewBox="0 0 28 28" fill="fillCurrent" xmlns="http://www.w3.org/2000/svg" class="max-w-full max-h-full w-full h-full pointer-events-none" aria-hidden="true">
  <path d="M16.782 0.138605H2.32872C1.10891 0.138605 0.11644 1.13108 0.11644 2.35088V16.7709C0.11644 16.7709 0.116442 18.9832 2.0806 18.9832H4.07664C6.07129 18.9832 6.04912 16.8041 6.04912 16.8041L6.08377 6.17247L16.7487 6.13642C16.7487 6.13642 18.961 6.13643 18.961 4.15009V2.13187C18.961 0.115041 16.782 0.137217 16.782 0.137217V0.138605Z" fill="fillCurrent"></path>
  <path d="M11.0475 27.8614H25.5008C26.7206 27.8614 27.7131 26.8689 27.7131 25.6491V11.2291C27.7131 11.2291 27.7131 9.01685 25.7489 9.01685H23.7529C21.7582 9.01685 21.7804 11.1959 21.7804 11.1959L21.7457 21.8275L11.0808 21.8636C11.0808 21.8636 8.86852 21.8636 8.86852 23.8499V25.8681C8.86852 27.885 11.0475 27.8628 11.0475 27.8628V27.8614Z" fill="fillCurrent"></path>
</svg>
