<svg width="24" height="24" viewBox="0 0 24 24" fill="none" xmlns="http://www.w3.org/2000/svg"><circle cx="12" cy="12" r="12" fill="white"></circle><path d="M13.391 5.0693H6.16436C5.55445 5.0693 5.05822 5.56554 5.05822 6.17544V13.3854C5.05822 13.3854 5.05822 14.4916 6.0403 14.4916H7.03832C8.03564 14.4916 8.02456 13.402 8.02456 13.402L8.04188 8.08623L13.3743 8.06821C13.3743 8.06821 14.4805 8.06821 14.4805 7.07504V6.06593C14.4805 5.05752 13.391 5.0693 13.391 5.0693Z" fill="black"></path><path d="M10.5237 18.9307H17.7504C18.3603 18.9307 18.8566 18.4344 18.8566 17.8245V10.6145C18.8566 10.6145 18.8565 9.50842 17.8744 9.50842H16.8764C15.8791 9.50842 15.8902 10.5979 15.8902 10.5979L15.8729 15.9137L10.5404 15.9318C10.5404 15.9318 9.43426 15.9318 9.43426 16.9249V17.934C9.43426 18.9425 10.5237 18.9307 10.5237 18.9307Z" fill="black"></path></svg>
