<svg xmlns="http://www.w3.org/2000/svg" width="24" height="24" fill="none" viewBox="0 0 25 25"><g clip-path="url(#a)"><path fill="#000" d="M24.969 12.46C24.969 5.577 19.39 0 12.509 0 5.63 0 .05 5.578.05 12.46v.08C.05 19.423 5.628 25 12.51 25c6.88 0 12.459-5.578 12.459-12.46v-.08Z"/><path fill="#3C69F7" d="M24.969 12.46C24.969 5.577 19.39 0 12.509 0 5.63 0 .05 5.578.05 12.46v.08C.05 19.423 5.628 25 12.51 25c6.88 0 12.459-5.578 12.459-12.46v-.08Z"/><path fill="#fff" d="M13.092 4.692H9.145L6.17 11.05c-.806 1.723-1.21 2.584-1.087 3.242.107.579.49 1.05 1.096 1.344.687.336 1.792.336 4.003.336h2.894l1.248-2.666c.067-.144.1-.216.09-.27a.157.157 0 0 0-.09-.112c-.058-.028-.15-.028-.334-.028h-2.632c-.736 0-1.105 0-1.334-.112-.202-.098-.33-.255-.365-.448-.04-.22.093-.507.362-1.08l3.072-6.563Z"/><path fill="#fff" d="M11.927 20.308h3.947l2.975-6.357c.807-1.723 1.21-2.584 1.088-3.242-.108-.579-.491-1.05-1.096-1.344-.687-.336-1.792-.336-4.003-.336h-2.894l-1.248 2.666c-.067.144-.1.216-.09.27.008.049.04.088.09.112.058.028.15.028.334.028h2.632c.736 0 1.105 0 1.334.112.201.098.33.255.365.448.04.22-.094.507-.362 1.08l-3.072 6.563Z"/></g><defs><clipPath id="a"><path fill="#fff" d="M.05 0H25v25H.05z"/></clipPath></defs></svg>