<svg width="1530" height="1530" viewBox="0 0 1530 1530" fill="none" xmlns="http://www.w3.org/2000/svg">
<path d="M1268.06 793.995C1173.55 966.447 1016.58 1096.16 829.41 1156.47C634.798 1219.81 511.441 1176.48 339.832 1095.91C528.666 1112.93 659.405 1111.43 820.636 985.397C909.923 915.817 982.733 827.37 1033.86 726.379C1115.01 736.396 1194.06 759.218 1268.06 793.995V793.995Z" fill="#D81FFA"/>
<path d="M1034.39 726.376C983.22 827.34 910.374 915.75 821.06 985.287C659.829 1111.32 529.09 1112.82 340.256 1095.81C523.527 1047.23 645.921 1001.01 754.193 827.48C773.304 796.965 790.249 765.147 804.905 732.26C880.676 718.833 958.033 716.85 1034.39 726.376V726.376Z" fill="#E167FF"/>
<path d="M1034.39 726.377C958.065 716.897 880.745 718.916 805.013 732.368C836.432 662.148 857.098 587.597 866.317 511.223C945.828 492.989 1027.73 487.465 1108.97 494.855C1096.53 575.491 1071.36 653.64 1034.39 726.377V726.377Z" fill="#0057FF"/>
<path d="M805.014 732.368C769.613 738.704 734.688 747.463 700.486 758.581C505.875 821.917 431.626 929.76 340.365 1095.91C369.252 908.363 402.203 781.796 563.434 655.764C652.53 585.885 755.951 536.531 866.318 511.223C857.098 587.597 836.432 662.148 805.014 732.368Z" fill="#189FFF"/>
<path d="M866.319 511.225C755.953 536.532 652.532 585.887 563.435 655.766C402.204 781.798 369.254 908.365 340.367 1095.91C303.349 909.755 291.153 779.552 399.425 606.017C503.285 439.182 666.983 318.351 857.013 268.255C872.896 348.249 876.036 430.25 866.319 511.225V511.225Z" fill="#17EF97"/>
<path d="M765 1473.58C1156.34 1473.58 1473.58 1156.34 1473.58 765C1473.58 373.661 1156.34 56.4181 765 56.4181C373.661 56.4181 56.418 373.661 56.418 765C56.418 1156.34 373.661 1473.58 765 1473.58Z" stroke="white" stroke-width="111.881" stroke-miterlimit="10"/>
</svg>
