<?xml version="1.0" standalone="no"?>
<!DOCTYPE svg PUBLIC "-//W3C//DTD SVG 1.0//EN" "http://www.w3.org/TR/2001/REC-SVG-20010904/DTD/svg10.dtd">
<svg xmlns="http://www.w3.org/2000/svg" xmlns:xlink="http://www.w3.org/1999/xlink" id="body_1" width="30" height="30">

<g transform="matrix(1.25 0 0 1.25 0 0)">
    <path d="M24 12C 24 15.313708 22.828426 18.142136 20.485281 20.485281C 18.142136 22.828426 15.313708 24 12 24C 8.686292 24 5.857865 22.828426 3.514719 20.485281C 1.171573 18.142136 0 15.313708 0 12C 0 8.686292 1.171573 5.857865 3.514719 3.514719C 5.857865 1.171573 8.686292 0 12 0C 15.313708 0 18.142136 1.171573 20.485281 3.514719C 22.828426 5.857865 24 8.686292 24 12C 24 12.139641 23.997564 12.279239 23.992691 12.418794" stroke="none" fill="#000000" fill-rule="nonzero" />
    <path d="M10.89 5.025L3.8930001 12.042L6.952 12.042L8.872 10.122L8.872 16.95L10.889 18.968L10.889 5.025L10.89 5.025zM13.132 5.025L20.128 12.042L17.07 12.042L15.15 10.122L15.15 16.95L13.132 18.968L13.132 5.025z" stroke="none" fill="#FFFFFF" fill-rule="nonzero" />
</g>
</svg>