<svg width="66" height="56" viewBox="0 0 66 56" fill="none" xmlns="http://www.w3.org/2000/svg">
    <g clip-path="url(#clip0_2651_53658)">
        <circle cx="26" cy="28" r="10" fill="#FFC600" />
        <rect opacity="0.1" x="12.9023" y="27.1904" width="2.33003" height="18.2151"
            transform="rotate(-45 12.9023 27.1904)" fill="white" />
        <path d="M27.2841 32.14H25.6161V25.276L23.9961 26.272V24.472L25.6161 23.5H27.2841V32.14Z"
            fill="#9A7800" />
        <rect opacity="0.3" x="22.1719" y="16.2838" width="3.34667" height="20.5498"
            transform="rotate(-45 22.1719 16.2838)" fill="white" />
        <rect opacity="0.2" x="20" y="16.1765" width="0.970977" height="23.6184"
            transform="rotate(-45 20 16.1765)" fill="white" />
        <circle cx="26" cy="28" r="9.5" stroke="url(#paint0_linear_2651_53658)" />
    </g>
    <g filter="url(#filter0_f_2651_53658)">
        <g clip-path="url(#clip1_2651_53658)">
            <circle cx="26" cy="28" r="10" fill="#FFC600" />
            <rect opacity="0.1" x="12.9023" y="27.1904" width="2.33003" height="18.2151"
                transform="rotate(-45 12.9023 27.1904)" fill="white" />
            <path
                d="M27.2841 32.14H25.6161V25.276L23.9961 26.272V24.472L25.6161 23.5H27.2841V32.14Z"
                fill="#9A7800" />
            <rect opacity="0.3" x="22.1719" y="16.2838" width="3.34667" height="20.5498"
                transform="rotate(-45 22.1719 16.2838)" fill="white" />
            <rect opacity="0.2" x="20" y="16.1765" width="0.970977" height="23.6184"
                transform="rotate(-45 20 16.1765)" fill="white" />
            <circle cx="26" cy="28" r="9.5" stroke="url(#paint1_linear_2651_53658)" />
        </g>
    </g>
    <defs>
        <filter id="filter0_f_2651_53658" x="-14" y="-12" width="80" height="80"
            filterUnits="userSpaceOnUse" color-interpolation-filters="sRGB">
            <feFlood flood-opacity="0" result="BackgroundImageFix" />
            <feBlend mode="normal" in="SourceGraphic" in2="BackgroundImageFix" result="shape" />
            <feGaussianBlur stdDeviation="15" result="effect1_foregroundBlur_2651_53658" />
        </filter>
        <linearGradient id="paint0_linear_2651_53658" x1="38" y1="40" x2="16" y2="18"
            gradientUnits="userSpaceOnUse">
            <stop stop-color="#F1B00A" />
            <stop offset="1" stop-color="#F1B00A" stop-opacity="0" />
        </linearGradient>
        <linearGradient id="paint1_linear_2651_53658" x1="38" y1="40" x2="16" y2="18"
            gradientUnits="userSpaceOnUse">
            <stop stop-color="#F1B00A" />
            <stop offset="1" stop-color="#F1B00A" stop-opacity="0" />
        </linearGradient>
        <clipPath id="clip0_2651_53658">
            <rect x="16" y="18" width="20" height="20" rx="10" fill="white" />
        </clipPath>
        <clipPath id="clip1_2651_53658">
            <rect x="16" y="18" width="20" height="20" rx="10" fill="white" />
        </clipPath>
    </defs>
</svg>