<svg width="244" height="201" viewBox="0 0 244 201" fill="none" xmlns="http://www.w3.org/2000/svg">
    <path
        d="M89.913 135.658C65.5874 132.283 47.3448 110.411 47.795 85.095C48.0962 68.1194 56.3306 53.4866 68.5796 44.518C69.2393 44.0343 70.1258 44.6583 69.9196 45.471C68.9756 49.0865 68.321 52.8641 67.9663 56.7729C66.7941 69.6885 69.1251 81.7949 74.7844 91.6693C71.6948 94.3626 67.9721 96.303 64.0731 97.0923C63.2475 97.2572 63.1424 98.4147 63.9249 98.7256C71.2212 101.642 77.0093 108.81 78.4724 116.737C78.6295 117.583 79.7505 117.684 80.0573 116.881C81.6343 112.731 84.4701 109.056 87.9688 106.32C87.9688 106.32 87.9766 106.32 87.9843 106.321C95.1642 111.465 104.194 114.859 115.034 115.842C122.309 116.503 128.968 115.956 134.979 114.399C135.77 114.191 136.37 115.133 135.873 115.799C125.549 129.931 108.32 138.2 89.9144 135.642L89.913 135.658Z"
        fill="url(#paint0_linear_2778_65140)" />
    <path
        d="M74.791 91.6772C77.8038 89.0568 80.2276 85.7116 81.6491 81.9876C81.8025 81.5858 82.1536 81.4098 82.4861 81.44C82.8185 81.4701 83.1322 81.7065 83.2108 82.1293C84.6817 90.0568 90.462 97.2242 97.7583 100.141C98.5408 100.452 98.4357 101.609 97.6101 101.774C94.1479 102.475 90.83 104.076 87.9685 106.319C82.4725 102.375 78.0745 97.411 74.791 91.6772Z"
        fill="url(#paint1_linear_2778_65140)" />
    <g filter="url(#filter0_f_2778_65140)">
        <path
            d="M93.8596 138.346C76.868 135.989 64.1254 120.711 64.4398 103.028C64.6503 91.1701 70.402 80.9489 78.9581 74.6843C79.4189 74.3464 80.0381 74.7823 79.8941 75.3499C79.2347 77.8754 78.7774 80.5141 78.5297 83.2444C77.7109 92.2661 79.3391 100.722 83.2922 107.62C81.1341 109.501 78.5337 110.857 75.8103 111.408C75.2336 111.523 75.1602 112.332 75.7067 112.549C80.8033 114.586 84.8463 119.593 85.8683 125.13C85.978 125.721 86.7611 125.792 86.9754 125.23C88.0769 122.332 90.0577 119.764 92.5016 117.853C92.5016 117.853 92.507 117.854 92.5124 117.854C97.5277 121.447 103.835 123.818 111.407 124.505C116.488 124.966 121.14 124.584 125.339 123.497C125.891 123.352 126.31 124.009 125.963 124.475C118.751 134.346 106.717 140.122 93.8606 138.335L93.8596 138.346Z"
            fill="url(#paint2_linear_2778_65140)" />
        <path
            d="M83.2968 107.625C85.4012 105.795 87.0943 103.458 88.0872 100.857C88.1943 100.576 88.4396 100.453 88.6718 100.474C88.9041 100.495 89.1232 100.66 89.1781 100.956C90.2055 106.493 94.2431 111.5 99.3396 113.537C99.8862 113.754 99.8128 114.562 99.2361 114.678C96.8177 115.167 94.5002 116.286 92.5013 117.852C88.6623 115.097 85.5903 111.63 83.2968 107.625Z"
            fill="url(#paint3_linear_2778_65140)" />
    </g>
    <path
        d="M166.27 112.188C161.308 112.188 156.718 113.778 152.985 116.475C148.101 105.323 136.939 97.5293 123.951 97.5293C114.477 97.5293 105.974 101.676 100.172 108.249C96.5441 105.824 92.1798 104.41 87.4836 104.41C77.27 104.41 68.6246 111.1 65.7176 120.323C65.1741 120.285 64.626 120.265 64.0726 120.265C51.6197 120.265 41.4976 130.211 41.2661 142.568C36.9146 145.531 34.0586 150.515 34.0586 156.164C34.0586 165.251 41.4493 172.618 50.5663 172.618H187.13C199.729 172.618 209.941 162.438 209.941 149.882C209.941 137.484 199.986 127.404 187.608 127.151C184.471 118.428 176.101 112.188 166.27 112.188Z"
        fill="#17161C" />
    <defs>
        <filter id="filter0_f_2778_65140" x="-0.556908" y="11.4923" width="192.682" height="191.623"
            filterUnits="userSpaceOnUse" color-interpolation-filters="sRGB">
            <feFlood flood-opacity="0" result="BackgroundImageFix" />
            <feBlend mode="normal" in="SourceGraphic" in2="BackgroundImageFix" result="shape" />
            <feGaussianBlur stdDeviation="30.9782" result="effect1_foregroundBlur_2778_65140" />
        </filter>
        <linearGradient id="paint0_linear_2778_65140" x1="50.8287" y1="50.0922" x2="80.1202"
            y2="135.873" gradientUnits="userSpaceOnUse">
            <stop stop-color="#F85C04" />
            <stop offset="1" stop-color="#EC9D08" />
        </linearGradient>
        <linearGradient id="paint1_linear_2778_65140" x1="75.5938" y1="82.8322" x2="83.7255"
            y2="106.07" gradientUnits="userSpaceOnUse">
            <stop stop-color="#F85C04" />
            <stop offset="1" stop-color="#EC9D08" />
        </linearGradient>
        <linearGradient id="paint2_linear_2778_65140" x1="66.5589" y1="78.5779" x2="87.0193"
            y2="138.497" gradientUnits="userSpaceOnUse">
            <stop stop-color="#F85C04" />
            <stop offset="1" stop-color="#EC9D08" />
        </linearGradient>
        <linearGradient id="paint3_linear_2778_65140" x1="83.8575" y1="101.447" x2="89.5376"
            y2="117.679" gradientUnits="userSpaceOnUse">
            <stop stop-color="#F85C04" />
            <stop offset="1" stop-color="#EC9D08" />
        </linearGradient>
    </defs>
</svg>