<svg width="251" height="140" viewBox="0 0 251 140" fill="none" xmlns="http://www.w3.org/2000/svg">
    <path
        d="M181.297 29.0714C175.424 29.0714 169.993 30.9514 165.577 34.1399C159.797 20.9556 146.59 11.7407 131.222 11.7407C120.012 11.7407 109.951 16.6437 103.085 24.4139C98.7926 21.5475 93.6285 19.8755 88.0717 19.8755C75.9865 19.8755 65.7567 27.7852 62.317 38.6898C61.674 38.6442 61.0255 38.621 60.3707 38.621C45.6357 38.621 33.6587 50.3801 33.3847 64.9895C28.2358 68.4924 24.8564 74.3849 24.8564 81.0635C24.8564 91.807 33.6015 100.516 44.3893 100.516H205.979C220.886 100.516 232.97 88.4816 232.97 73.6361C232.97 58.9785 221.19 47.0611 206.544 46.7616C202.832 36.4486 192.929 29.0714 181.297 29.0714Z"
        fill="#17161C" />
    <g opacity="0.6">
        <path
            d="M206.141 130.077C206.141 130.077 250.482 77.73 242.854 86.6868C206.844 128.971 198.117 126.674 197.539 126.456L197.508 126.442C197.508 126.442 197.518 126.448 197.539 126.456L206.141 130.077Z"
            fill="url(#paint0_linear_2778_65161)" />
        <path
            d="M207.698 123.738C208.893 126.166 210.73 128.317 213.008 129.777C213.448 130.06 213.248 130.716 212.724 130.704C207.813 130.585 202.814 133.141 200.162 137.128C199.879 137.555 199.202 137.348 199.207 136.835C199.224 134.411 198.532 131.948 197.312 129.769C196.126 127.644 194.44 125.777 192.397 124.463C192.176 124.322 192.115 124.09 192.175 123.896C192.234 123.701 192.414 123.544 192.676 123.55C197.588 123.664 202.586 121.113 205.238 117.126C205.521 116.698 206.198 116.906 206.193 117.419C206.178 119.571 206.719 121.751 207.698 123.738Z"
            fill="url(#paint1_linear_2778_65161)" />
    </g>
    <path
        d="M209.388 48.0169C209.388 48.0169 257.291 -8.53514 249.05 1.14115C210.147 46.8221 200.719 44.3404 200.095 44.1047L200.061 44.0904C200.061 44.0904 200.072 44.096 200.095 44.1047L209.388 48.0169Z"
        fill="url(#paint2_linear_2778_65161)" />
    <path
        d="M211.07 41.1687C212.36 43.7927 214.345 46.1163 216.806 47.6931C217.282 47.9993 217.065 48.7078 216.499 48.6948C211.194 48.5666 205.794 51.3273 202.929 55.6344C202.623 56.0966 201.891 55.8725 201.896 55.3182C201.915 52.6995 201.167 50.0387 199.849 47.6842C198.568 45.389 196.746 43.3718 194.539 41.9528C194.301 41.7997 194.235 41.5497 194.299 41.3396C194.364 41.1294 194.558 40.9592 194.841 40.9657C200.148 41.0891 205.547 38.3332 208.412 34.0261C208.718 33.564 209.449 33.7881 209.444 34.3423C209.428 36.6677 210.012 39.022 211.07 41.1687Z"
        fill="url(#paint3_linear_2778_65161)" />
    <path
        d="M15.3564 65.1865C15.3564 65.1865 35.8413 47.9415 32.3361 50.9084C15.7881 64.9147 16.632 68.3749 16.7135 68.6043L16.7184 68.6169C16.7184 68.6169 16.7165 68.6128 16.7135 68.6043L15.3564 65.1865Z"
        fill="url(#paint4_linear_2778_65161)" />
    <path
        d="M18.3488 65.4601C19.1076 67.0034 20.2752 68.3701 21.7224 69.2975C22.0025 69.4776 21.8748 69.8943 21.5419 69.8866C18.4217 69.8112 15.2454 71.435 13.5604 73.9682C13.3804 74.2401 12.9501 74.1083 12.9532 73.7823C12.9639 72.242 12.5244 70.6771 11.7493 69.2923C10.9957 67.9423 9.92423 66.7559 8.62594 65.9213C8.48588 65.8312 8.44709 65.6842 8.48494 65.5606C8.52279 65.437 8.63728 65.3369 8.80375 65.3407C11.9248 65.4133 15.1003 63.7924 16.7853 61.2591C16.9652 60.9873 17.3956 61.1191 17.3924 61.4451C17.383 62.8128 17.7264 64.1975 18.3488 65.4601Z"
        fill="url(#paint5_linear_2778_65161)" />
    <defs>
        <linearGradient id="paint0_linear_2778_65161" x1="243.549" y1="87.3999" x2="199.444"
            y2="139.608" gradientUnits="userSpaceOnUse">
            <stop stop-color="#ED9708" stop-opacity="0" />
            <stop offset="1" stop-color="#ED9708" />
        </linearGradient>
        <linearGradient id="paint1_linear_2778_65161" x1="189.768" y1="132.878" x2="203.391"
            y2="115.921" gradientUnits="userSpaceOnUse">
            <stop stop-color="#F85C04" />
            <stop offset="1" stop-color="#EC9D08" />
        </linearGradient>
        <linearGradient id="paint2_linear_2778_65161" x1="249.8" y1="1.91163" x2="202.153"
            y2="58.3139" gradientUnits="userSpaceOnUse">
            <stop stop-color="#ED9708" stop-opacity="0" />
            <stop offset="1" stop-color="#ED9708" />
        </linearGradient>
        <linearGradient id="paint3_linear_2778_65161" x1="191.699" y1="51.0435" x2="206.416"
            y2="32.7245" gradientUnits="userSpaceOnUse">
            <stop stop-color="#F85C04" />
            <stop offset="1" stop-color="#EC9D08" />
        </linearGradient>
        <linearGradient id="paint4_linear_2778_65161" x1="32.0637" y1="50.6302" x2="11.2911"
            y2="67.3571" gradientUnits="userSpaceOnUse">
            <stop stop-color="#ED9708" stop-opacity="0" />
            <stop offset="1" stop-color="#ED9708" />
        </linearGradient>
        <linearGradient id="paint5_linear_2778_65161" x1="6.95543" y1="71.2681" x2="15.6115"
            y2="60.4936" gradientUnits="userSpaceOnUse">
            <stop stop-color="#F85C04" />
            <stop offset="1" stop-color="#EC9D08" />
        </linearGradient>
    </defs>
</svg>