<svg width="52" height="98" viewBox="0 0 52 98" fill="none" xmlns="http://www.w3.org/2000/svg">
    <path
        d="M1.07747 1.72245C0.80175 1.73771 0.565858 1.52657 0.550589 1.25086C0.535322 0.975136 0.74646 0.739246 1.02218 0.723978L1.07747 1.72245ZM22.9186 96.4934C22.6461 96.4483 22.4619 96.1908 22.5071 95.9184L23.243 91.479C23.2882 91.2066 23.5456 91.0223 23.818 91.0675C24.0905 91.1126 24.2747 91.3701 24.2295 91.6425L23.5754 95.5887L27.5215 96.2428C27.7939 96.288 27.9782 96.5454 27.933 96.8179C27.8878 97.0903 27.6304 97.2745 27.358 97.2294L22.9186 96.4934ZM1.02218 0.723978C22.4893 -0.464748 41.7925 13.6302 48.8546 32.9331C55.9349 52.2858 50.6981 76.7945 23.2913 96.4068L22.7094 95.5935C49.8026 76.2057 54.8205 52.1503 47.9155 33.2767C40.9923 14.3534 22.0702 0.55999 1.07747 1.72245L1.02218 0.723978Z"
        fill="#3A393E" />
</svg>