<svg width="48" height="48" viewBox="0 0 48 48" fill="none" xmlns="http://www.w3.org/2000/svg">
    <g opacity="0.76">
        <path
            d="M0.5 8C0.5 3.85787 3.85786 0.5 8 0.5H40C44.1421 0.5 47.5 3.85786 47.5 8V40C47.5 44.1421 44.1421 47.5 40 47.5H8C3.85787 47.5 0.5 44.1421 0.5 40V8Z"
            fill="#3A393E" stroke="#4C4C4C" />
        <g clip-path="url(#clip0_2778_66417)">
            <rect x="3" y="22" width="13" height="13" rx="4" fill="#4C4C4C" />
            <rect x="3" y="36" width="13" height="13" rx="4" fill="#4C4C4C" />
            <rect x="17" y="22" width="14" height="13" rx="4" fill="#4C4C4C" />
            <rect x="17" y="36" width="14" height="13" rx="4" fill="#4C4C4C" />
            <rect x="32" y="22" width="13" height="13" rx="4" fill="#4C4C4C" />
            <rect x="32" y="36" width="13" height="13" rx="4" fill="#4C4C4C" />
            <rect x="3" y="29" width="42" height="18" fill="url(#paint0_linear_2778_66417)" />
        </g>
        <path
            d="M3.75852 8.27273H6.03409L8.4375 14.1364H8.53977L10.9432 8.27273H13.2188V17H11.429V11.3196H11.3565L9.09801 16.9574H7.87926L5.62074 11.2983H5.5483V17H3.75852V8.27273ZM16.5714 17.1236C16.1538 17.1236 15.7816 17.0511 15.4549 16.9062C15.1282 16.7585 14.8697 16.5412 14.6793 16.2543C14.4918 15.9645 14.3981 15.6037 14.3981 15.1719C14.3981 14.8082 14.4648 14.5028 14.5984 14.2557C14.7319 14.0085 14.9137 13.8097 15.1438 13.6591C15.3739 13.5085 15.6353 13.3949 15.9279 13.3182C16.2234 13.2415 16.533 13.1875 16.8569 13.1562C17.2376 13.1165 17.5444 13.0795 17.7773 13.0455C18.0103 13.0085 18.1793 12.9545 18.2844 12.8835C18.3896 12.8125 18.4421 12.7074 18.4421 12.5682V12.5426C18.4421 12.2727 18.3569 12.0639 18.1864 11.9162C18.0188 11.7685 17.7802 11.6946 17.4705 11.6946C17.1438 11.6946 16.8839 11.767 16.6907 11.9119C16.4975 12.054 16.3697 12.233 16.3072 12.4489L14.6282 12.3125C14.7134 11.9148 14.881 11.571 15.131 11.2812C15.381 10.9886 15.7035 10.7642 16.0984 10.608C16.4961 10.4489 16.9563 10.3693 17.479 10.3693C17.8427 10.3693 18.1907 10.4119 18.5231 10.4972C18.8583 10.5824 19.1552 10.7145 19.4137 10.8935C19.6751 11.0724 19.881 11.3026 20.0316 11.5838C20.1822 11.8622 20.2575 12.196 20.2575 12.5852V17H18.5359V16.0923H18.4847C18.3796 16.2969 18.239 16.4773 18.0629 16.6335C17.8867 16.7869 17.6751 16.9077 17.4279 16.9957C17.1808 17.081 16.8952 17.1236 16.5714 17.1236ZM17.0913 15.8707C17.3583 15.8707 17.5941 15.8182 17.7987 15.7131C18.0032 15.6051 18.1637 15.4602 18.2802 15.2784C18.3967 15.0966 18.4549 14.8906 18.4549 14.6605V13.9659C18.3981 14.0028 18.32 14.0369 18.2205 14.0682C18.1239 14.0966 18.0146 14.1236 17.8924 14.1491C17.7702 14.1719 17.6481 14.1932 17.5259 14.2131C17.4038 14.2301 17.293 14.2457 17.1935 14.2599C16.9805 14.2912 16.7944 14.3409 16.6353 14.4091C16.4762 14.4773 16.3526 14.5696 16.2646 14.6861C16.1765 14.7997 16.1325 14.9418 16.1325 15.1122C16.1325 15.3594 16.2219 15.5483 16.4009 15.679C16.5827 15.8068 16.8129 15.8707 17.0913 15.8707ZM21.6658 17V10.4545H23.4258V11.5966H23.494C23.6133 11.1903 23.8136 10.8835 24.0948 10.6761C24.3761 10.4659 24.6999 10.3608 25.0664 10.3608C25.1573 10.3608 25.2553 10.3665 25.3604 10.3778C25.4656 10.3892 25.5579 10.4048 25.6374 10.4247V12.0355C25.5522 12.0099 25.4343 11.9872 25.2837 11.9673C25.1332 11.9474 24.9954 11.9375 24.8704 11.9375C24.6033 11.9375 24.3647 11.9957 24.1545 12.1122C23.9471 12.2259 23.7823 12.3849 23.6602 12.5895C23.5408 12.794 23.4812 13.0298 23.4812 13.2969V17H21.6658ZM28.2209 15.1165L28.2251 12.9389H28.4893L30.5859 10.4545H32.6697L29.853 13.7443H29.4226L28.2209 15.1165ZM26.576 17V8.27273H28.3913V17H26.576ZM30.6669 17L28.7408 14.1491L29.951 12.8665L32.7933 17H30.6669ZM36.2738 17.1278C35.6005 17.1278 35.021 16.9915 34.5352 16.7188C34.0522 16.4432 33.68 16.054 33.4187 15.5511C33.1573 15.0455 33.0266 14.4474 33.0266 13.7571C33.0266 13.0838 33.1573 12.4929 33.4187 11.9844C33.68 11.4759 34.0479 11.0795 34.5224 10.7955C34.9996 10.5114 35.5593 10.3693 36.2013 10.3693C36.6332 10.3693 37.0352 10.4389 37.4073 10.5781C37.7823 10.7145 38.109 10.9205 38.3874 11.196C38.6687 11.4716 38.8874 11.8182 39.0437 12.2358C39.1999 12.6506 39.2781 13.1364 39.2781 13.6932V14.1918H33.7511V13.0668H37.5692C37.5692 12.8054 37.5124 12.5739 37.3988 12.3722C37.2852 12.1705 37.1275 12.0128 36.9258 11.8991C36.7269 11.7827 36.4954 11.7244 36.2312 11.7244C35.9556 11.7244 35.7113 11.7884 35.4982 11.9162C35.288 12.0412 35.1232 12.2102 35.0039 12.4233C34.8846 12.6335 34.8235 12.8679 34.8207 13.1264V14.196C34.8207 14.5199 34.8803 14.7997 34.9996 15.0355C35.1218 15.2713 35.2937 15.4531 35.5153 15.581C35.7369 15.7088 35.9996 15.7727 36.3036 15.7727C36.5053 15.7727 36.69 15.7443 36.8576 15.6875C37.0252 15.6307 37.1687 15.5455 37.288 15.4318C37.4073 15.3182 37.4982 15.179 37.5607 15.0142L39.2397 15.125C39.1545 15.5284 38.9798 15.8807 38.7156 16.1818C38.4542 16.4801 38.1161 16.7131 37.7013 16.8807C37.2894 17.0455 36.8136 17.1278 36.2738 17.1278ZM43.9442 10.4545V11.8182H40.0025V10.4545H43.9442ZM40.8974 8.88636H42.7127V14.9886C42.7127 15.1562 42.7383 15.2869 42.7894 15.3807C42.8406 15.4716 42.9116 15.5355 43.0025 15.5724C43.0962 15.6094 43.2042 15.6278 43.3263 15.6278C43.4116 15.6278 43.4968 15.6207 43.582 15.6065C43.6673 15.5895 43.7326 15.5767 43.7781 15.5682L44.0636 16.919C43.9727 16.9474 43.8448 16.9801 43.68 17.017C43.5153 17.0568 43.315 17.081 43.0792 17.0895C42.6417 17.1065 42.2582 17.0483 41.9286 16.9148C41.6019 16.7812 41.3477 16.5739 41.1658 16.2926C40.984 16.0114 40.8945 15.6562 40.8974 15.2273V8.88636Z"
            fill="#8B8B8E" />
    </g>
    <defs>
        <linearGradient id="paint0_linear_2778_66417" x1="24" y1="29" x2="24" y2="47"
            gradientUnits="userSpaceOnUse">
            <stop stop-color="#302F34" stop-opacity="0" />
            <stop offset="0.873837" stop-color="#302F34" />
        </linearGradient>
        <clipPath id="clip0_2778_66417">
            <rect x="3" y="22" width="42" height="23" rx="4" fill="white" />
        </clipPath>
    </defs>
</svg>