<svg width="57" height="53" viewBox="0 0 57 53" fill="none" xmlns="http://www.w3.org/2000/svg">
    <g opacity="0.76">
        <rect x="0.5" y="0.5" width="47" height="47" rx="7.5" fill="#3A393E" stroke="#4C4C4C" />
        <path
            d="M20.0582 16.2727V25H18.4645L14.6676 19.5071H14.6037V25H12.7585V16.2727H14.3778L18.1449 21.7614H18.2216V16.2727H20.0582ZM21.5827 25V16.2727H27.3612V17.794H23.4279V19.8736H26.9776V21.3949H23.4279V25H21.5827ZM28.2699 17.794V16.2727H35.4375V17.794H32.7656V25H30.9418V17.794H28.2699Z"
            fill="#8B8B8E" />
        <path d="M0 36H48V40C48 44.4183 44.4183 48 40 48H8C3.58172 48 0 44.4183 0 40V36Z"
            fill="#8B8B8E" />
        <path
            d="M7.50568 45V39.1818H9.83523C10.2633 39.1818 10.6203 39.2453 10.9062 39.3722C11.1922 39.4991 11.4072 39.6752 11.5511 39.9006C11.6951 40.1241 11.767 40.3816 11.767 40.6733C11.767 40.9006 11.7216 41.1004 11.6307 41.2727C11.5398 41.4432 11.4148 41.5833 11.2557 41.6932C11.0985 41.8011 10.9186 41.8778 10.7159 41.9233V41.9801C10.9375 41.9896 11.1449 42.0521 11.3381 42.1676C11.5331 42.2831 11.6913 42.4451 11.8125 42.6534C11.9337 42.8598 11.9943 43.1061 11.9943 43.392C11.9943 43.7008 11.9176 43.9763 11.7642 44.2188C11.6127 44.4593 11.3883 44.6496 11.0909 44.7898C10.7936 44.9299 10.4271 45 9.99148 45H7.50568ZM8.7358 43.9943H9.73864C10.0814 43.9943 10.3314 43.929 10.4886 43.7983C10.6458 43.6657 10.7244 43.4896 10.7244 43.2699C10.7244 43.1089 10.6856 42.9669 10.608 42.8438C10.5303 42.7206 10.4195 42.6241 10.2756 42.554C10.1335 42.4839 9.96402 42.4489 9.76705 42.4489H8.7358V43.9943ZM8.7358 41.6165H9.64773C9.81629 41.6165 9.96591 41.5871 10.0966 41.5284C10.2292 41.4678 10.3333 41.3826 10.4091 41.2727C10.4867 41.1629 10.5256 41.0312 10.5256 40.8778C10.5256 40.6676 10.4508 40.4981 10.3011 40.3693C10.1534 40.2405 9.94318 40.1761 9.67045 40.1761H8.7358V41.6165ZM15.5703 43.142V40.6364H16.7805V45H15.6186V44.2074H15.5732C15.4747 44.4631 15.3108 44.6686 15.0817 44.8239C14.8544 44.9792 14.5769 45.0568 14.2493 45.0568C13.9576 45.0568 13.701 44.9905 13.4794 44.858C13.2578 44.7254 13.0845 44.5369 12.9595 44.2926C12.8364 44.0483 12.7739 43.7557 12.772 43.4148V40.6364H13.9822V43.1989C13.9841 43.4564 14.0533 43.66 14.1896 43.8097C14.326 43.9593 14.5088 44.0341 14.7379 44.0341C14.8838 44.0341 15.0201 44.0009 15.147 43.9347C15.2739 43.8665 15.3762 43.7661 15.4538 43.6335C15.5334 43.5009 15.5722 43.3371 15.5703 43.142ZM18.4957 46.6364C18.3423 46.6364 18.1984 46.6241 18.0639 46.5994C17.9313 46.5767 17.8215 46.5473 17.7344 46.5114L18.0071 45.608C18.1491 45.6515 18.277 45.6752 18.3906 45.679C18.5062 45.6828 18.6056 45.6563 18.6889 45.5994C18.7741 45.5426 18.8433 45.446 18.8963 45.3097L18.9673 45.125L17.402 40.6364H18.6747L19.5781 43.8409H19.6236L20.5355 40.6364H21.8168L20.1207 45.4716C20.0393 45.7064 19.9285 45.911 19.7884 46.0852C19.6501 46.2614 19.4749 46.3968 19.2628 46.4915C19.0507 46.5881 18.795 46.6364 18.4957 46.6364ZM29.1768 39.1818V45H28.1143L25.5831 41.3381H25.5405V45H24.3104V39.1818H25.3899L27.9013 42.8409H27.9524V39.1818H29.1768ZM30.1932 45V39.1818H34.0455V40.196H31.4233V41.5824H33.7898V42.5966H31.4233V45H30.1932ZM34.6513 40.196V39.1818H39.4297V40.196H37.6484V45H36.4325V40.196H34.6513Z"
            fill="#3A393E" />
        <path d="M46 34L46 36" stroke="#8B8B8E" stroke-linecap="round" />
        <path d="M43 39L41 39" stroke="#8B8B8E" stroke-linecap="round" />
        <path d="M51 39L49 39" stroke="#8B8B8E" stroke-linecap="round" />
        <path d="M49.4141 36L47.9998 37.4142" stroke="#8B8B8E" stroke-linecap="round" />
        <path d="M43 36L44.4142 37.4142" stroke="#8B8B8E" stroke-linecap="round" />
        <path d="M43 42.4141L44.4142 40.9998" stroke="#8B8B8E" stroke-linecap="round" />
        <path d="M45.2476 37.875L52.8702 43.5777L48.9976 44.3702L46.375 47.3277L45.2476 37.875Z"
            fill="#BDBDBD" />
    </g>
</svg>