<svg width="48" height="48" viewBox="8 0 48 48" fill="none" xmlns="http://www.w3.org/2000/svg">
    <g opacity="0.76">
        <rect x="8.5" y="0.5" width="47" height="47" rx="7.5" fill="#3A393E" stroke="#4C4C4C" />
        <path opacity="0.3"
            d="M2.31534 11.6705V5.63636H3.84091V11.6705H2.31534ZM0.0610796 9.41619V7.89062H6.09517V9.41619H0.0610796ZM7.73153 11.4659V10.0128L11.375 4.27273H12.6278V6.28409H11.8864L9.58949 9.91903V9.98722H14.767V11.4659H7.73153ZM11.9205 13V11.0227L11.9545 10.3793V4.27273H13.6847V13H11.9205ZM19.4183 13.1918C18.6854 13.1889 18.0547 13.0085 17.5263 12.6506C17.0007 12.2926 16.5959 11.7741 16.3118 11.0952C16.0305 10.4162 15.8913 9.59943 15.8942 8.64489C15.8942 7.69318 16.0348 6.8821 16.3161 6.21165C16.6001 5.54119 17.005 5.03125 17.5305 4.68182C18.0589 4.32955 18.6882 4.15341 19.4183 4.15341C20.1484 4.15341 20.7763 4.32955 21.3018 4.68182C21.8303 5.03409 22.2365 5.54545 22.5206 6.21591C22.8047 6.88352 22.9453 7.69318 22.9425 8.64489C22.9425 9.60227 22.8004 10.4205 22.5163 11.0994C22.2351 11.7784 21.8317 12.2969 21.3061 12.6548C20.7805 13.0128 20.1513 13.1918 19.4183 13.1918ZM19.4183 11.6619C19.9183 11.6619 20.3175 11.4105 20.6158 10.9077C20.9141 10.4048 21.0618 9.65057 21.0589 8.64489C21.0589 7.98295 20.9908 7.43182 20.8544 6.99148C20.7209 6.55114 20.5305 6.22017 20.2834 5.99858C20.0391 5.77699 19.7507 5.66619 19.4183 5.66619C18.9212 5.66619 18.5234 5.91477 18.2251 6.41193C17.9268 6.90909 17.7763 7.65341 17.7734 8.64489C17.7734 9.31534 17.8402 9.875 17.9737 10.3239C18.1101 10.7699 18.3018 11.1051 18.549 11.3295C18.7962 11.5511 19.0859 11.6619 19.4183 11.6619ZM27.0866 13V4.27273H30.5298C31.1918 4.27273 31.7557 4.39915 32.2216 4.65199C32.6875 4.90199 33.0426 5.25 33.2869 5.69602C33.5341 6.1392 33.6577 6.65057 33.6577 7.23011C33.6577 7.80966 33.5327 8.32102 33.2827 8.7642C33.0327 9.20739 32.6705 9.55256 32.196 9.79972C31.7244 10.0469 31.1534 10.1705 30.483 10.1705H28.2884V8.69176H30.1847C30.5398 8.69176 30.8324 8.63068 31.0625 8.50852C31.2955 8.38352 31.4688 8.21165 31.5824 7.9929C31.6989 7.77131 31.7571 7.51705 31.7571 7.23011C31.7571 6.94034 31.6989 6.6875 31.5824 6.47159C31.4688 6.25284 31.2955 6.08381 31.0625 5.96449C30.8295 5.84233 30.5341 5.78125 30.1761 5.78125H28.9318V13H27.0866Z"
            fill="url(#paint0_linear_2778_66420)" />
        <path
            d="M14.3153 26.6705V20.6364H15.8409V26.6705H14.3153ZM12.0611 24.4162V22.8906H18.0952V24.4162H12.0611ZM23.6605 19.2727V28H21.8153V21.0241H21.7642L19.7656 22.277V20.6406L21.9261 19.2727H23.6605ZM25.7347 28V26.6705L28.8413 23.794C29.1055 23.5384 29.3271 23.3082 29.506 23.1037C29.6879 22.8991 29.8256 22.6989 29.9194 22.5028C30.0131 22.304 30.06 22.0895 30.06 21.8594C30.06 21.6037 30.0018 21.3835 29.8853 21.1989C29.7688 21.0114 29.6097 20.8679 29.408 20.7685C29.2063 20.6662 28.9776 20.6151 28.7219 20.6151C28.4549 20.6151 28.2219 20.669 28.0231 20.777C27.8242 20.8849 27.6708 21.0398 27.5629 21.2415C27.4549 21.4432 27.4009 21.6832 27.4009 21.9616H25.6495C25.6495 21.3906 25.7788 20.8949 26.0373 20.4744C26.2958 20.054 26.658 19.7287 27.1239 19.4986C27.5898 19.2685 28.1268 19.1534 28.7347 19.1534C29.3597 19.1534 29.9038 19.2642 30.3668 19.4858C30.8327 19.7045 31.195 20.0085 31.4535 20.3977C31.712 20.7869 31.8413 21.233 31.8413 21.7358C31.8413 22.0653 31.7759 22.3906 31.6452 22.7116C31.5174 23.0327 31.2887 23.3892 30.9592 23.7812C30.6296 24.1705 30.1651 24.6378 29.5657 25.1832L28.2915 26.4318V26.4915H31.9563V28H25.7347ZM36.7152 28.1918C35.9822 28.1889 35.3516 28.0085 34.8232 27.6506C34.2976 27.2926 33.8928 26.7741 33.6087 26.0952C33.3274 25.4162 33.1882 24.5994 33.1911 23.6449C33.1911 22.6932 33.3317 21.8821 33.6129 21.2116C33.897 20.5412 34.3018 20.0312 34.8274 19.6818C35.3558 19.3295 35.9851 19.1534 36.7152 19.1534C37.4453 19.1534 38.0732 19.3295 38.5987 19.6818C39.1271 20.0341 39.5334 20.5455 39.8175 21.2159C40.1016 21.8835 40.2422 22.6932 40.2393 23.6449C40.2393 24.6023 40.0973 25.4205 39.8132 26.0994C39.532 26.7784 39.1286 27.2969 38.603 27.6548C38.0774 28.0128 37.4482 28.1918 36.7152 28.1918ZM36.7152 26.6619C37.2152 26.6619 37.6143 26.4105 37.9126 25.9077C38.2109 25.4048 38.3587 24.6506 38.3558 23.6449C38.3558 22.983 38.2876 22.4318 38.1513 21.9915C38.0178 21.5511 37.8274 21.2202 37.5803 20.9986C37.3359 20.777 37.0476 20.6662 36.7152 20.6662C36.218 20.6662 35.8203 20.9148 35.522 21.4119C35.2237 21.9091 35.0732 22.6534 35.0703 23.6449C35.0703 24.3153 35.1371 24.875 35.2706 25.3239C35.407 25.7699 35.5987 26.1051 35.8459 26.3295C36.093 26.5511 36.3828 26.6619 36.7152 26.6619ZM44.3835 28V19.2727H47.8267C48.4886 19.2727 49.0526 19.3991 49.5185 19.652C49.9844 19.902 50.3395 20.25 50.5838 20.696C50.831 21.1392 50.9545 21.6506 50.9545 22.2301C50.9545 22.8097 50.8295 23.321 50.5795 23.7642C50.3295 24.2074 49.9673 24.5526 49.4929 24.7997C49.0213 25.0469 48.4503 25.1705 47.7798 25.1705H45.5852V23.6918H47.4815C47.8366 23.6918 48.1293 23.6307 48.3594 23.5085C48.5923 23.3835 48.7656 23.2116 48.8793 22.9929C48.9957 22.7713 49.054 22.517 49.054 22.2301C49.054 21.9403 48.9957 21.6875 48.8793 21.4716C48.7656 21.2528 48.5923 21.0838 48.3594 20.9645C48.1264 20.8423 47.831 20.7812 47.473 20.7812H46.2287V28H44.3835Z"
            fill="#8B8B8E" />
        <path opacity="0.3"
            d="M26.3153 41.6705V35.6364H27.8409V41.6705H26.3153ZM24.0611 39.4162V37.8906H30.0952V39.4162H24.0611ZM35.6605 34.2727V43H33.8153V36.0241H33.7642L31.7656 37.277V35.6406L33.9261 34.2727H35.6605ZM41.1566 43.1918C40.4237 43.1889 39.793 43.0085 39.2646 42.6506C38.739 42.2926 38.3342 41.7741 38.0501 41.0952C37.7688 40.4162 37.6296 39.5994 37.6325 38.6449C37.6325 37.6932 37.7731 36.8821 38.0543 36.2116C38.3384 35.5412 38.7433 35.0312 39.2688 34.6818C39.7972 34.3295 40.4265 34.1534 41.1566 34.1534C41.8867 34.1534 42.5146 34.3295 43.0401 34.6818C43.5685 35.0341 43.9748 35.5455 44.2589 36.2159C44.543 36.8835 44.6836 37.6932 44.6808 38.6449C44.6808 39.6023 44.5387 40.4205 44.2546 41.0994C43.9734 41.7784 43.57 42.2969 43.0444 42.6548C42.5188 43.0128 41.8896 43.1918 41.1566 43.1918ZM41.1566 41.6619C41.6566 41.6619 42.0558 41.4105 42.354 40.9077C42.6523 40.4048 42.8001 39.6506 42.7972 38.6449C42.7972 37.983 42.729 37.4318 42.5927 36.9915C42.4592 36.5511 42.2688 36.2202 42.0217 35.9986C41.7773 35.777 41.489 35.6662 41.1566 35.6662C40.6594 35.6662 40.2617 35.9148 39.9634 36.4119C39.6651 36.9091 39.5146 37.6534 39.5117 38.6449C39.5117 39.3153 39.5785 39.875 39.712 40.3239C39.8484 40.7699 40.0401 41.1051 40.2873 41.3295C40.5344 41.5511 40.8242 41.6619 41.1566 41.6619ZM48.8249 43V34.2727H52.2681C52.93 34.2727 53.494 34.3991 53.9599 34.652C54.4258 34.902 54.7809 35.25 55.0252 35.696C55.2724 36.1392 55.396 36.6506 55.396 37.2301C55.396 37.8097 55.271 38.321 55.021 38.7642C54.771 39.2074 54.4087 39.5526 53.9343 39.7997C53.4627 40.0469 52.8917 40.1705 52.2212 40.1705H50.0266V38.6918H51.9229C52.2781 38.6918 52.5707 38.6307 52.8008 38.5085C53.0337 38.3835 53.207 38.2116 53.3207 37.9929C53.4371 37.7713 53.4954 37.517 53.4954 37.2301C53.4954 36.9403 53.4371 36.6875 53.3207 36.4716C53.207 36.2528 53.0337 36.0838 52.8008 35.9645C52.5678 35.8423 52.2724 35.7812 51.9144 35.7812H50.6701V43H48.8249Z"
            fill="url(#paint1_linear_2778_66420)" />
    </g>
    <defs>
        <linearGradient id="paint0_linear_2778_66420" x1="32.4286" y1="9" x2="6.71429" y2="9"
            gradientUnits="userSpaceOnUse">
            <stop stop-color="#8B8B8E" />
            <stop offset="1" stop-color="#8B8B8E" stop-opacity="0" />
        </linearGradient>
        <linearGradient id="paint1_linear_2778_66420" x1="55.0571" y1="39" x2="24.4143" y2="39"
            gradientUnits="userSpaceOnUse">
            <stop stop-color="#8B8B8E" stop-opacity="0" />
            <stop offset="0.677517" stop-color="#8B8B8E" />
        </linearGradient>
    </defs>
</svg>