<svg width="40" height="40" viewBox="0 0 40 40" fill="none" xmlns="http://www.w3.org/2000/svg">
    <g clip-path="url(#clip0_4501_77931)">
        <g opacity="0.6">
            <mask id="path-1-inside-1_4501_77931" fill="white">
                <path fill-rule="evenodd" clip-rule="evenodd"
                    d="M25.1874 35.8626L36.6912 11.967C35.5608 11.4228 35.0856 10.0651 35.6298 8.93463L35.6299 8.9345L32.8309 7.58703L32.8309 7.58715C32.2866 8.71768 30.9289 9.19294 29.7984 8.64868C28.6679 8.10442 28.1926 6.74674 28.7369 5.61621L28.7369 5.61609L25.938 4.26861L25.9379 4.26873C25.3937 5.39926 24.036 5.87452 22.9055 5.33026L22.9053 5.33021L11.4015 29.2258C11.4015 29.2258 11.4016 29.2258 11.4016 29.2258C12.5321 29.77 13.0073 31.1276 12.4632 32.2581L15.2621 33.6056C15.8064 32.4752 17.1641 32 18.2945 32.5442C19.425 33.0885 19.9003 34.4461 19.3561 35.5765L22.1551 36.924C22.6994 35.7936 24.0569 35.3184 25.1874 35.8626Z" />
            </mask>
            <path fill-rule="evenodd" clip-rule="evenodd"
                d="M25.1874 35.8626L36.6912 11.967C35.5608 11.4228 35.0856 10.0651 35.6298 8.93463L35.6299 8.9345L32.8309 7.58703L32.8309 7.58715C32.2866 8.71768 30.9289 9.19294 29.7984 8.64868C28.6679 8.10442 28.1926 6.74674 28.7369 5.61621L28.7369 5.61609L25.938 4.26861L25.9379 4.26873C25.3937 5.39926 24.036 5.87452 22.9055 5.33026L22.9053 5.33021L11.4015 29.2258C11.4015 29.2258 11.4016 29.2258 11.4016 29.2258C12.5321 29.77 13.0073 31.1276 12.4632 32.2581L15.2621 33.6056C15.8064 32.4752 17.1641 32 18.2945 32.5442C19.425 33.0885 19.9003 34.4461 19.3561 35.5765L22.1551 36.924C22.6994 35.7936 24.0569 35.3184 25.1874 35.8626Z"
                fill="url(#paint0_linear_4501_77931)" />
            <path
                d="M36.6912 11.967L36.9419 12.0877L37.0625 11.8371L36.8119 11.7164L36.6912 11.967ZM25.1874 35.8626L25.0667 36.1132L25.3174 36.2339L25.438 35.9833L25.1874 35.8626ZM35.6299 8.9345L35.8805 9.05517L36.0012 8.80452L35.7505 8.68385L35.6299 8.9345ZM32.8309 7.58703L32.9516 7.33638L32.7009 7.21571L32.5803 7.46636L32.8309 7.58703ZM32.8309 7.58715L32.5802 7.46648L32.8309 7.58715ZM28.7369 5.61621L28.4862 5.49554L28.7369 5.61621ZM28.7369 5.61609L28.9876 5.73676L29.1083 5.48611L28.8576 5.36544L28.7369 5.61609ZM25.938 4.26861L26.0586 4.01796L25.808 3.89729L25.6873 4.14794L25.938 4.26861ZM25.9379 4.26873L25.6873 4.14806L25.9379 4.26873ZM22.9055 5.33026L22.7848 5.58091L22.9055 5.33026ZM22.9053 5.33021L23.026 5.07955L22.7754 4.95888L22.6547 5.20954L22.9053 5.33021ZM11.4015 29.2258L11.1508 29.1051L11.0302 29.3557L11.2808 29.4764L11.4015 29.2258ZM12.4632 32.2581L12.2125 32.1375L12.0919 32.3881L12.3425 32.5088L12.4632 32.2581ZM15.2621 33.6056L15.1415 33.8563L15.3921 33.9769L15.5128 33.7263L15.2621 33.6056ZM19.3561 35.5765L19.1055 35.4559L18.9848 35.7065L19.2355 35.8272L19.3561 35.5765ZM22.1551 36.924L22.0344 37.1747L22.2851 37.2953L22.4057 37.0447L22.1551 36.924ZM36.4406 11.8464L24.9367 35.7419L25.438 35.9833L36.9419 12.0877L36.4406 11.8464ZM35.3792 8.81396C34.7683 10.0829 35.3017 11.6067 36.5705 12.2177L36.8119 11.7164C35.8199 11.2388 35.4029 10.0474 35.8805 9.0553L35.3792 8.81396ZM35.3792 8.81384L35.3792 8.81396L35.8805 9.0553L35.8805 9.05517L35.3792 8.81384ZM32.7103 7.83768L35.5092 9.18516L35.7505 8.68385L32.9516 7.33638L32.7103 7.83768ZM33.0815 7.70782L33.0816 7.7077L32.5803 7.46636L32.5802 7.46648L33.0815 7.70782ZM29.6777 8.89933C30.9467 9.51023 32.4706 8.97678 33.0815 7.70782L32.5802 7.46648C32.1026 8.45857 30.9112 8.87564 29.9191 8.39803L29.6777 8.89933ZM28.4862 5.49554C27.8753 6.7645 28.4088 8.28843 29.6777 8.89933L29.9191 8.39803C28.927 7.92041 28.5099 6.72898 28.9875 5.73688L28.4862 5.49554ZM28.4863 5.49542L28.4862 5.49554L28.9875 5.73688L28.9876 5.73676L28.4863 5.49542ZM25.8173 4.51927L28.6163 5.86675L28.8576 5.36544L26.0586 4.01796L25.8173 4.51927ZM26.1886 4.3894L26.1886 4.38928L25.6873 4.14794L25.6873 4.14806L26.1886 4.3894ZM22.7848 5.58091C24.0537 6.19182 25.5777 5.65836 26.1886 4.3894L25.6873 4.14806C25.2097 5.14016 24.0182 5.55722 23.0261 5.07961L22.7848 5.58091ZM22.7847 5.58086L22.7848 5.58091L23.0261 5.07961L23.026 5.07955L22.7847 5.58086ZM11.6522 29.3464L23.156 5.45088L22.6547 5.20954L11.1508 29.1051L11.6522 29.3464ZM11.2808 29.4764C11.2808 29.4764 11.2809 29.4764 11.2809 29.4764C11.2809 29.4764 11.2809 29.4764 11.2809 29.4765L11.5223 28.9751C11.5222 28.9751 11.5222 28.9751 11.5222 28.9751C11.5222 28.9751 11.5222 28.9751 11.5222 28.9751L11.2808 29.4764ZM11.2809 29.4765C12.273 29.954 12.69 31.1454 12.2125 32.1375L12.7138 32.3788C13.3246 31.1099 12.7912 29.586 11.5223 28.9751L11.2809 29.4765ZM15.3828 33.355L12.5838 32.0075L12.3425 32.5088L15.1415 33.8563L15.3828 33.355ZM18.4152 32.2936C17.1463 31.6827 15.6224 32.2161 15.0115 33.4849L15.5128 33.7263C15.9904 32.7343 17.1818 32.3173 18.1739 32.7949L18.4152 32.2936ZM19.6068 35.6972C20.2176 34.4283 19.6841 32.9044 18.4152 32.2936L18.1739 32.7949C19.1659 33.2725 19.583 34.4638 19.1055 35.4559L19.6068 35.6972ZM22.2758 36.6734L19.4768 35.3259L19.2355 35.8272L22.0344 37.1747L22.2758 36.6734ZM25.308 35.6119C24.0392 35.0011 22.5154 35.5345 21.9044 36.8033L22.4057 37.0447C22.8834 36.0527 24.0747 35.6357 25.0667 36.1132L25.308 35.6119Z"
                fill="url(#paint1_linear_4501_77931)" mask="url(#path-1-inside-1_4501_77931)" />
            <path
                d="M29.1061 21.6366C30.2968 18.8308 29.1299 15.4941 26.405 13.9289C24.5778 12.8792 22.4946 12.8237 20.7589 13.5568C20.6654 13.5962 20.6753 13.7304 20.775 13.7602C21.2202 13.8901 21.6643 14.0611 22.1032 14.2724C23.5534 14.9706 24.6943 15.9903 25.3853 17.2223C25.869 17.0648 26.3129 16.792 26.6454 16.427C26.7156 16.3496 26.8456 16.4122 26.8288 16.5153C26.6745 17.4783 27.0691 18.5515 27.8201 19.2124C27.9001 19.2831 27.8395 19.4089 27.7344 19.3904C27.192 19.2939 26.6198 19.3617 26.1054 19.56C26.1054 19.56 26.105 19.5609 26.1046 19.5618C26.1949 20.6542 25.9809 21.8322 25.395 23.0493C25.0017 23.8662 24.5191 24.5407 23.9703 25.0816C23.8978 25.1526 23.9598 25.2765 24.0624 25.2661C26.2254 25.067 28.2039 23.759 29.1044 21.6357L29.1061 21.6366Z"
                fill="white" />
            <path
                d="M25.3859 17.2235C24.9148 17.3774 24.4041 17.4224 23.9169 17.3365C23.8643 17.3272 23.8232 17.3534 23.8052 17.3907C23.7872 17.4281 23.7924 17.4765 23.8324 17.5118C24.583 18.1737 24.978 19.246 24.8237 20.2089C24.8069 20.3121 24.9369 20.3747 25.0071 20.2972C25.3024 19.9732 25.6844 19.7219 26.1055 19.56C26.0357 18.7233 25.7873 17.9386 25.3859 17.2235Z"
                fill="white" />
            <path opacity="0.5" fill-rule="evenodd" clip-rule="evenodd"
                d="M24.4539 9.0607L32.809 13.083C33.5012 13.4162 33.7922 14.2475 33.4589 14.9396L26.9025 28.5584L16.0409 23.3294L22.5973 9.71061C22.9305 9.01845 23.7618 8.72748 24.4539 9.0607ZM33.0101 12.6653L24.6551 8.64294C23.7322 8.19865 22.6239 8.58662 22.1796 9.50949L15.6232 23.1283L15.5814 23.2151L15.5813 23.215L15.3802 23.6328L14.2153 26.0524C13.771 26.9752 14.159 28.0835 15.0819 28.5278L23.437 32.5502C24.3598 32.9945 25.4681 32.6065 25.9124 31.6836L27.0773 29.264L27.1191 29.1772L27.1192 29.1773L27.3203 28.7595L33.8767 15.1407C34.321 14.2179 33.933 13.1096 33.0101 12.6653ZM23.6381 32.1324L15.283 28.1101C14.5908 27.7769 14.2998 26.9456 14.6331 26.2535L15.7979 23.8339L26.6595 29.0629L25.4947 31.4825C25.1615 32.1746 24.3302 32.4656 23.6381 32.1324Z"
                fill="url(#paint2_linear_4501_77931)" />
            <path
                d="M15.3371 26.6509C15.4237 26.5418 15.5375 26.346 15.6212 26.1721L15.8056 25.789C15.8893 25.6152 15.9714 25.4041 16.0027 25.2683L16.621 25.566L16.5797 26.2176C16.5736 26.3314 16.5697 26.4001 16.5395 26.5437L16.5612 26.5542C16.6459 26.4441 16.6923 26.4032 16.7871 26.3174L17.2728 25.8798L17.8811 26.1726C17.7945 26.2818 17.6788 26.4767 17.5951 26.6505L17.4106 27.0336C17.327 27.2075 17.2468 27.4195 17.2155 27.5552L16.6743 27.2947C16.7609 27.1855 16.8766 26.9907 16.9603 26.8168L17.1182 26.489L17.0944 26.4776L16.3385 27.133L16.2082 27.0703L16.2491 26.0706L16.2313 26.062L16.0735 26.3899C15.9898 26.5637 15.9076 26.7748 15.8783 26.9115L15.3371 26.6509ZM17.274 27.5834C17.3922 27.4895 17.5613 27.3203 17.6943 27.1702L18.0151 26.8527C18.1452 26.7036 18.2738 26.5125 18.3367 26.3919L19.1425 26.7799C19.0876 26.9092 19.0174 27.1308 18.9829 27.3186L18.9347 27.7674C18.8994 27.962 18.8736 28.2026 18.8719 28.3527L18.3307 28.0921C18.3658 28.0141 18.3974 27.898 18.4269 27.7711L18.4311 27.722L18.042 27.5347L18.0072 27.5715C17.9244 27.6727 17.8533 27.7698 17.8172 27.8449L17.274 27.5834ZM18.1845 27.36L18.4807 27.5026L18.5014 27.2474C18.5137 27.1511 18.5351 27.0763 18.5632 26.9827L18.5375 26.9703C18.477 27.0556 18.4415 27.109 18.3711 27.1846L18.1845 27.36ZM20.1409 29.0001C19.6708 28.7737 20.1491 28.2401 19.7975 28.0708C19.7738 28.0594 19.7265 28.0415 19.7078 28.0398L19.6688 28.1208C19.5852 28.2946 19.505 28.5066 19.4737 28.6424L18.9325 28.3818C19.0191 28.2727 19.1348 28.0778 19.2185 27.904L19.403 27.5208C19.4867 27.347 19.5668 27.135 19.5981 26.9992L20.4376 27.4034C20.7398 27.5488 20.9197 27.7815 20.8066 28.0165C20.6906 28.2575 20.4015 28.2667 20.1052 28.1241L20.0874 28.1155L20.0817 28.1274L20.0857 28.1293C20.2555 28.211 20.22 28.391 20.3642 28.4604C20.5083 28.5298 20.632 28.475 20.7278 28.3873L20.4485 28.9827C20.3758 29.0377 20.2416 29.0485 20.1409 29.0001ZM19.7791 27.8917L20.0339 28.0143C20.1366 28.0638 20.2228 28.0566 20.2589 27.9816C20.2922 27.9124 20.246 27.8366 20.1532 27.792L19.8885 27.6645L19.7791 27.8917ZM21.6995 29.748C21.1643 29.4903 21.8205 28.9206 21.4511 28.7428C21.4176 28.7267 21.3663 28.7117 21.3448 28.7111L21.2601 28.8869C21.1765 29.0607 21.0943 29.2717 21.065 29.4085L20.5238 29.1479C20.6104 29.0388 20.7261 28.8439 20.8098 28.6701L20.9943 28.2869C21.078 28.1131 21.1581 27.9011 21.1894 27.7653L21.7306 28.0259C21.6478 28.1271 21.5416 28.3022 21.4598 28.4721L21.4227 28.5491L21.5353 28.6033C21.6973 28.6813 21.8356 28.6214 21.9288 28.4278C21.9725 28.337 21.9868 28.2416 21.9755 28.1438L22.4831 28.3881C22.4845 28.4813 22.471 28.5599 22.4159 28.6745C22.2761 28.9648 22.0856 28.9461 21.6965 28.7588L21.578 28.7017L21.5675 28.7234L21.5912 28.7349C21.844 28.8566 21.7886 29.0829 21.9762 29.1732C22.1066 29.236 22.1906 29.2132 22.2845 29.1343L22.007 29.7208C21.9363 29.7817 21.7983 29.7955 21.6995 29.748ZM22.0785 29.8964C22.1631 29.7863 22.2808 29.5923 22.3645 29.4185L22.5489 29.0353C22.6326 28.8615 22.7108 28.6486 22.7441 28.5138L23.9055 29.0729L23.7301 29.6089C23.7017 29.5416 23.6204 29.4831 23.4268 29.3899L23.0239 29.1959L22.9459 29.3579L23.2639 29.5109C23.3568 29.5556 23.4466 29.5964 23.5107 29.62L23.4127 29.8234C23.3553 29.7861 23.2683 29.7393 23.1755 29.6946L22.8575 29.5415L22.7852 29.6917L23.1329 29.859C23.4449 30.0092 23.5489 30.0106 23.6144 30.0008L23.2951 30.4821L22.0785 29.8964ZM23.8764 30.7619C23.963 30.6528 24.0787 30.4579 24.1624 30.2841L24.3687 29.8555L24.185 29.7671C24.0843 29.7186 23.9938 29.6944 23.887 29.7039L24.2122 29.2205L25.4012 29.793L25.2262 30.3486C25.172 30.269 25.0857 30.2007 24.9909 30.155L24.8191 30.0723L24.6127 30.5009C24.5291 30.6747 24.4489 30.8867 24.4176 31.0225L23.8764 30.7619Z"
                fill="white" />
            <path fill-rule="evenodd" clip-rule="evenodd"
                d="M25.1869 35.8626L36.6907 11.9671C35.5603 11.4228 35.085 10.0651 35.6293 8.93463L35.6293 8.93449L32.8304 7.58701L32.8303 7.58715C32.2861 8.71768 30.9284 9.19294 29.7979 8.64868C28.6673 8.10442 28.1921 6.74674 28.7363 5.61621L28.7364 5.61607L25.9374 4.26859L25.9374 4.26873C25.3931 5.39926 24.0354 5.87452 22.9049 5.33026L22.9048 5.33022L11.401 29.2258C11.401 29.2258 11.401 29.2258 11.4011 29.2258C12.5315 29.77 13.0068 31.1276 12.4627 32.2581L15.2616 33.6056C15.8059 32.4752 17.1635 32 18.294 32.5442C19.4245 33.0885 19.8998 34.446 19.3556 35.5765L22.1546 36.924C22.6989 35.7936 24.0564 35.3184 25.1869 35.8626Z"
                fill="#0D0D0D" fill-opacity="0.71" />
        </g>
        <mask id="mask0_4501_77931" style="mask-type:alpha" maskUnits="userSpaceOnUse" x="11" y="4"
            width="26" height="33">
            <path fill-rule="evenodd" clip-rule="evenodd"
                d="M25.1869 35.8626L36.6907 11.9671C35.5603 11.4228 35.085 10.0651 35.6293 8.93465L35.6294 8.93449L32.8304 7.58701L32.8303 7.58717C32.2861 8.7177 30.9284 9.19296 29.7979 8.6487C28.6673 8.10444 28.1921 6.74676 28.7363 5.61623L28.7364 5.61608L25.9375 4.2686L25.9374 4.26875C25.3931 5.39928 24.0354 5.87454 22.9049 5.33028L22.9048 5.33024L11.401 29.2258C11.401 29.2258 11.401 29.2258 11.4011 29.2258C12.5315 29.7701 13.0068 31.1276 12.4627 32.2581L15.2616 33.6056C15.8059 32.4752 17.1635 32 18.294 32.5442C19.4245 33.0885 19.8998 34.446 19.3556 35.5765L22.1546 36.924C22.6989 35.7936 24.0564 35.3184 25.1869 35.8626Z"
                fill="#0D0D0D" />
        </mask>
        <g mask="url(#mask0_4501_77931)">
            <rect x="13.6533" y="0.150391" width="19.0337" height="35.2341"
                transform="rotate(11.5533 13.6533 0.150391)" fill="#150101" fill-opacity="0.31" />
        </g>
        <g filter="url(#filter0_f_4501_77931)">
            <mask id="path-10-inside-2_4501_77931" fill="white">
                <path fill-rule="evenodd" clip-rule="evenodd"
                    d="M27.9574 32.6844L31.4008 9.03487C29.7582 8.79569 28.5588 7.69479 28.7217 6.57593L28.7217 6.57576L24.655 5.98364L24.6549 5.98383C24.492 7.10271 23.0284 7.81587 21.3858 7.5767C19.7432 7.33754 18.5436 6.23663 18.7065 5.11774L18.7066 5.11756L14.6398 4.52544L14.6398 4.52562C14.4769 5.64451 13.0132 6.35766 11.3706 6.1185L11.3705 6.11848L7.92716 29.7679C7.92719 29.7679 7.92723 29.7679 7.92727 29.7679C9.5698 30.0071 10.7693 31.1079 10.6065 32.2268L14.6733 32.8189C14.8363 31.7001 16.2999 30.987 17.9424 31.2261C19.585 31.4653 20.7845 32.5661 20.6217 33.685L24.6883 34.2771C24.8514 33.1583 26.3149 32.4452 27.9574 32.6844Z" />
            </mask>
            <path fill-rule="evenodd" clip-rule="evenodd"
                d="M27.9574 32.6844L31.4008 9.03487C29.7582 8.79569 28.5588 7.69479 28.7217 6.57593L28.7217 6.57576L24.655 5.98364L24.6549 5.98383C24.492 7.10271 23.0284 7.81587 21.3858 7.5767C19.7432 7.33754 18.5436 6.23663 18.7065 5.11774L18.7066 5.11756L14.6398 4.52544L14.6398 4.52562C14.4769 5.64451 13.0132 6.35766 11.3706 6.1185L11.3705 6.11848L7.92716 29.7679C7.92719 29.7679 7.92723 29.7679 7.92727 29.7679C9.5698 30.0071 10.7693 31.1079 10.6065 32.2268L14.6733 32.8189C14.8363 31.7001 16.2999 30.987 17.9424 31.2261C19.585 31.4653 20.7845 32.5661 20.6217 33.685L24.6883 34.2771C24.8514 33.1583 26.3149 32.4452 27.9574 32.6844Z"
                fill="url(#paint3_linear_4501_77931)" />
            <path
                d="M31.4008 9.03487L31.6847 9.07621L31.7261 8.7923L31.4421 8.75096L31.4008 9.03487ZM27.9574 32.6844L27.9161 32.9683L28.2 33.0096L28.2414 32.7257L27.9574 32.6844ZM28.7217 6.57593L28.4378 6.53459L28.7217 6.57593ZM28.7217 6.57576L29.0056 6.6171L29.0469 6.33318L28.763 6.29185L28.7217 6.57576ZM24.655 5.98364L24.6963 5.69973L24.4124 5.65839L24.371 5.94231L24.655 5.98364ZM24.6549 5.98383L24.9388 6.02517L24.6549 5.98383ZM18.7066 5.11756L18.9905 5.1589L19.0318 4.87498L18.7479 4.83365L18.7066 5.11756ZM14.6398 4.52544L14.6812 4.24153L14.3973 4.20019L14.3559 4.4841L14.6398 4.52544ZM11.3705 6.11848L11.4119 5.83457L11.1279 5.79323L11.0866 6.07714L11.3705 6.11848ZM7.92716 29.7679L7.64324 29.7266L7.60191 30.0105L7.88582 30.0518L7.92716 29.7679ZM10.6065 32.2268L10.3226 32.1854L10.2813 32.4693L10.5652 32.5107L10.6065 32.2268ZM14.6733 32.8189L14.6319 33.1028L14.9158 33.1441L14.9572 32.8602L14.6733 32.8189ZM20.6217 33.685L20.3378 33.6437L20.2965 33.9275L20.5803 33.9689L20.6217 33.685ZM24.6883 34.2771L24.647 34.561L24.9309 34.6023L24.9722 34.3184L24.6883 34.2771ZM31.1169 8.99354L27.6735 32.643L28.2414 32.7257L31.6847 9.07621L31.1169 8.99354ZM28.4378 6.53459C28.3386 7.21564 28.6589 7.85907 29.1902 8.34665C29.7227 8.83544 30.4887 9.19199 31.3595 9.31879L31.4421 8.75096C30.6703 8.63857 30.0153 8.32507 29.5782 7.9239C29.1398 7.52153 28.9418 7.05508 29.0056 6.61726L28.4378 6.53459ZM28.4378 6.53442L28.4378 6.53459L29.0056 6.61726L29.0056 6.6171L28.4378 6.53442ZM24.6136 6.26756L28.6804 6.85967L28.763 6.29185L24.6963 5.69973L24.6136 6.26756ZM24.9388 6.02517L24.9389 6.02498L24.371 5.94231L24.371 5.94249L24.9388 6.02517ZM21.3444 7.86062C22.2152 7.9874 23.0511 7.86408 23.7009 7.54745C24.3491 7.2316 24.8397 6.70623 24.9388 6.02517L24.371 5.94249C24.3073 6.38031 23.9845 6.77096 23.4496 7.03161C22.9162 7.29149 22.1989 7.40517 21.4271 7.29279L21.3444 7.86062ZM18.4226 5.0764C18.3235 5.75747 18.6438 6.40091 19.1751 6.88849C19.7077 7.37729 20.4736 7.73383 21.3444 7.86062L21.4271 7.29279C20.6553 7.18041 20.0002 6.86692 19.5631 6.46574C19.1247 6.06336 18.9267 5.5969 18.9905 5.15908L18.4226 5.0764ZM18.4227 5.07622L18.4226 5.0764L18.9905 5.15908L18.9905 5.1589L18.4227 5.07622ZM14.5985 4.80936L18.6652 5.40147L18.7479 4.83365L14.6812 4.24153L14.5985 4.80936ZM14.9237 4.56696L14.9238 4.56678L14.3559 4.4841L14.3559 4.48429L14.9237 4.56696ZM11.3293 6.40241C12.2001 6.5292 13.0359 6.40588 13.6858 6.08925C14.334 5.7734 14.8246 5.24802 14.9237 4.56696L14.3559 4.48429C14.2922 4.92211 13.9694 5.31275 13.4344 5.57341C12.9011 5.83328 12.1838 5.94696 11.412 5.83459L11.3293 6.40241ZM11.3292 6.40239L11.3293 6.40241L11.412 5.83459L11.4119 5.83457L11.3292 6.40239ZM8.21107 29.8093L11.6544 6.15982L11.0866 6.07714L7.64324 29.7266L8.21107 29.8093ZM7.88582 30.0518C7.88582 30.0518 7.88582 30.0518 7.88582 30.0518C7.88582 30.0518 7.88582 30.0518 7.88582 30.0518L7.88582 30.0518C7.88582 30.0518 7.88582 30.0518 7.88583 30.0518L7.88583 30.0518C7.88583 30.0518 7.88583 30.0518 7.88583 30.0518L7.88583 30.0518C7.88583 30.0518 7.88583 30.0518 7.88583 30.0518L7.88584 30.0518C7.88584 30.0518 7.88584 30.0518 7.88584 30.0518L7.88584 30.0518C7.88584 30.0518 7.88584 30.0518 7.88584 30.0518C7.88584 30.0518 7.88584 30.0518 7.88584 30.0518C7.88585 30.0518 7.88585 30.0518 7.88585 30.0518C7.88585 30.0518 7.88585 30.0518 7.88585 30.0518C7.88585 30.0518 7.88585 30.0518 7.88585 30.0518C7.88585 30.0518 7.88585 30.0518 7.88585 30.0518L7.88585 30.0518C7.88585 30.0518 7.88585 30.0518 7.88585 30.0518L7.88586 30.0518C7.88586 30.0518 7.88586 30.0518 7.88586 30.0518L7.88586 30.0518C7.88586 30.0518 7.88586 30.0518 7.88586 30.0518L7.88586 30.0518C7.88587 30.0518 7.88587 30.0518 7.88587 30.0518L7.88587 30.0518C7.88587 30.0518 7.88587 30.0518 7.88587 30.0518C7.88587 30.0518 7.88587 30.0518 7.88587 30.0518C7.88587 30.0518 7.88587 30.0518 7.88587 30.0518C7.88587 30.0518 7.88587 30.0518 7.88588 30.0518C7.88588 30.0518 7.88588 30.0518 7.88588 30.0518C7.88588 30.0518 7.88588 30.0518 7.88588 30.0518C7.88588 30.0518 7.88588 30.0518 7.88588 30.0518C7.88588 30.0518 7.88588 30.0518 7.88588 30.0518L7.88588 30.0518C7.88588 30.0518 7.88588 30.0518 7.88589 30.0518L7.88589 30.0518C7.88589 30.0518 7.88589 30.0518 7.88589 30.0518L7.88589 30.0518C7.88589 30.0518 7.88589 30.0518 7.88589 30.0518L7.8859 30.0518C7.8859 30.0518 7.8859 30.0518 7.8859 30.0518L7.8859 30.0518C7.8859 30.0518 7.8859 30.0518 7.8859 30.0518C7.8859 30.0518 7.8859 30.0518 7.8859 30.0518C7.88591 30.0518 7.88591 30.0518 7.88591 30.0518C7.88591 30.0518 7.88591 30.0518 7.88591 30.0518C7.88591 30.0518 7.88591 30.0518 7.88591 30.0518C7.88591 30.0518 7.88591 30.0518 7.88591 30.0518L7.88591 30.0518C7.88591 30.0518 7.88591 30.0518 7.88592 30.0518L7.88592 30.0518C7.88592 30.0518 7.88592 30.0518 7.88592 30.0518L7.88592 30.0518C7.88592 30.0518 7.88592 30.0518 7.88592 30.0518L7.88592 30.0518C7.88593 30.0518 7.88593 30.0518 7.88593 30.0518L7.88593 30.0518C7.88593 30.0518 7.88593 30.0518 7.88593 30.0518C7.88593 30.0518 7.88593 30.0518 7.88593 30.0518L7.96861 29.484C7.96861 29.484 7.96861 29.484 7.96861 29.484C7.96861 29.484 7.96861 29.484 7.9686 29.484L7.9686 29.484C7.9686 29.484 7.9686 29.484 7.9686 29.484L7.9686 29.484C7.9686 29.484 7.9686 29.484 7.9686 29.484L7.96859 29.484C7.96859 29.484 7.96859 29.484 7.96859 29.484L7.96859 29.484C7.96859 29.484 7.96859 29.484 7.96859 29.484L7.96859 29.484C7.96859 29.484 7.96859 29.484 7.96859 29.484C7.96859 29.484 7.96859 29.484 7.96858 29.484C7.96858 29.484 7.96858 29.484 7.96858 29.484C7.96858 29.484 7.96858 29.484 7.96858 29.484C7.96858 29.484 7.96858 29.484 7.96858 29.484C7.96858 29.484 7.96858 29.484 7.96858 29.484L7.96857 29.484C7.96857 29.484 7.96857 29.484 7.96857 29.484L7.96857 29.484C7.96857 29.484 7.96857 29.484 7.96857 29.484L7.96857 29.484C7.96856 29.484 7.96856 29.484 7.96856 29.484L7.96856 29.484C7.96856 29.484 7.96856 29.484 7.96856 29.484L7.96856 29.484C7.96856 29.484 7.96856 29.484 7.96856 29.484C7.96856 29.484 7.96856 29.484 7.96855 29.484C7.96855 29.484 7.96855 29.484 7.96855 29.484C7.96855 29.484 7.96855 29.484 7.96855 29.484C7.96855 29.484 7.96855 29.484 7.96855 29.484C7.96855 29.484 7.96855 29.484 7.96855 29.484C7.96855 29.484 7.96855 29.484 7.96855 29.484C7.96855 29.484 7.96855 29.484 7.96854 29.484L7.96854 29.484C7.96854 29.484 7.96854 29.484 7.96854 29.484L7.96854 29.484C7.96854 29.484 7.96854 29.484 7.96854 29.484L7.96853 29.484C7.96853 29.484 7.96853 29.484 7.96853 29.484L7.96853 29.484C7.96853 29.484 7.96853 29.484 7.96853 29.484L7.96853 29.484C7.96852 29.484 7.96852 29.484 7.96852 29.484C7.96852 29.484 7.96852 29.484 7.96852 29.484C7.96852 29.484 7.96852 29.484 7.96852 29.484C7.96852 29.484 7.96852 29.484 7.96852 29.484C7.96852 29.484 7.96852 29.484 7.96852 29.484C7.96852 29.484 7.96852 29.484 7.96852 29.484L7.96851 29.484C7.96851 29.484 7.96851 29.484 7.96851 29.484L7.96851 29.484C7.96851 29.484 7.96851 29.484 7.96851 29.484L7.96851 29.484C7.9685 29.484 7.9685 29.484 7.9685 29.484L7.9685 29.484C7.9685 29.484 7.9685 29.484 7.9685 29.484L7.9685 29.484C7.9685 29.484 7.9685 29.484 7.9685 29.484C7.9685 29.484 7.9685 29.484 7.96849 29.484L7.88582 30.0518ZM7.88593 30.0518C8.65772 30.1642 9.31278 30.4777 9.7499 30.8788C10.1883 31.2812 10.3863 31.7476 10.3226 32.1854L10.8904 32.2681C10.9895 31.587 10.6691 30.9436 10.1379 30.4561C9.60531 29.9673 8.83935 29.6108 7.96861 29.484L7.88593 30.0518ZM14.7146 32.535L10.6478 31.9428L10.5652 32.5107L14.6319 33.1028L14.7146 32.535ZM17.9838 30.9422C17.113 30.8154 16.2772 30.9387 15.6274 31.2553C14.9791 31.5712 14.4886 32.0965 14.3894 32.7775L14.9572 32.8602C15.021 32.4225 15.3437 32.0318 15.8787 31.7712C16.4121 31.5113 17.1293 31.3977 17.9011 31.5101L17.9838 30.9422ZM20.9056 33.7263C21.0047 33.0452 20.6843 32.4018 20.153 31.9143C19.6205 31.4255 18.8545 31.069 17.9838 30.9422L17.9011 31.5101C18.6729 31.6224 19.328 31.9359 19.7651 32.337C20.2035 32.7394 20.4015 33.2058 20.3378 33.6437L20.9056 33.7263ZM24.7297 33.9932L20.663 33.4011L20.5803 33.9689L24.647 34.561L24.7297 33.9932ZM27.9988 32.4004C27.128 32.2737 26.2922 32.397 25.6424 32.7136C24.9942 33.0294 24.5037 33.5547 24.4044 34.2357L24.9722 34.3184C25.036 33.8807 25.3588 33.49 25.8937 33.2294C26.4271 32.9696 27.1443 32.8559 27.9161 32.9683L27.9988 32.4004Z"
                fill="url(#paint4_linear_4501_77931)" mask="url(#path-10-inside-2_4501_77931)" />
            <path
                d="M31.4008 9.03487L31.6847 9.07621L31.7261 8.7923L31.4421 8.75096L31.4008 9.03487ZM27.9574 32.6844L27.9161 32.9683L28.2 33.0096L28.2414 32.7257L27.9574 32.6844ZM28.7217 6.57593L28.4378 6.53459L28.7217 6.57593ZM28.7217 6.57576L29.0056 6.6171L29.0469 6.33318L28.763 6.29185L28.7217 6.57576ZM24.655 5.98364L24.6963 5.69973L24.4124 5.65839L24.371 5.94231L24.655 5.98364ZM24.6549 5.98383L24.9388 6.02517L24.6549 5.98383ZM18.7066 5.11756L18.9905 5.1589L19.0318 4.87498L18.7479 4.83365L18.7066 5.11756ZM14.6398 4.52544L14.6812 4.24153L14.3973 4.20019L14.3559 4.4841L14.6398 4.52544ZM11.3705 6.11848L11.4119 5.83457L11.1279 5.79323L11.0866 6.07714L11.3705 6.11848ZM7.92716 29.7679L7.64324 29.7266L7.60191 30.0105L7.88582 30.0518L7.92716 29.7679ZM10.6065 32.2268L10.3226 32.1854L10.2813 32.4693L10.5652 32.5107L10.6065 32.2268ZM14.6733 32.8189L14.6319 33.1028L14.9158 33.1441L14.9572 32.8602L14.6733 32.8189ZM20.6217 33.685L20.3378 33.6437L20.2965 33.9275L20.5803 33.9689L20.6217 33.685ZM24.6883 34.2771L24.647 34.561L24.9309 34.6023L24.9722 34.3184L24.6883 34.2771ZM31.1169 8.99354L27.6735 32.643L28.2414 32.7257L31.6847 9.07621L31.1169 8.99354ZM28.4378 6.53459C28.3386 7.21564 28.6589 7.85907 29.1902 8.34665C29.7227 8.83544 30.4887 9.19199 31.3595 9.31879L31.4421 8.75096C30.6703 8.63857 30.0153 8.32507 29.5782 7.9239C29.1398 7.52153 28.9418 7.05508 29.0056 6.61726L28.4378 6.53459ZM28.4378 6.53442L28.4378 6.53459L29.0056 6.61726L29.0056 6.6171L28.4378 6.53442ZM24.6136 6.26756L28.6804 6.85967L28.763 6.29185L24.6963 5.69973L24.6136 6.26756ZM24.9388 6.02517L24.9389 6.02498L24.371 5.94231L24.371 5.94249L24.9388 6.02517ZM21.3444 7.86062C22.2152 7.9874 23.0511 7.86408 23.7009 7.54745C24.3491 7.2316 24.8397 6.70623 24.9388 6.02517L24.371 5.94249C24.3073 6.38031 23.9845 6.77096 23.4496 7.03161C22.9162 7.29149 22.1989 7.40517 21.4271 7.29279L21.3444 7.86062ZM18.4226 5.0764C18.3235 5.75747 18.6438 6.40091 19.1751 6.88849C19.7077 7.37729 20.4736 7.73383 21.3444 7.86062L21.4271 7.29279C20.6553 7.18041 20.0002 6.86692 19.5631 6.46574C19.1247 6.06336 18.9267 5.5969 18.9905 5.15908L18.4226 5.0764ZM18.4227 5.07622L18.4226 5.0764L18.9905 5.15908L18.9905 5.1589L18.4227 5.07622ZM14.5985 4.80936L18.6652 5.40147L18.7479 4.83365L14.6812 4.24153L14.5985 4.80936ZM14.9237 4.56696L14.9238 4.56678L14.3559 4.4841L14.3559 4.48429L14.9237 4.56696ZM11.3293 6.40241C12.2001 6.5292 13.0359 6.40588 13.6858 6.08925C14.334 5.7734 14.8246 5.24802 14.9237 4.56696L14.3559 4.48429C14.2922 4.92211 13.9694 5.31275 13.4344 5.57341C12.9011 5.83328 12.1838 5.94696 11.412 5.83459L11.3293 6.40241ZM11.3292 6.40239L11.3293 6.40241L11.412 5.83459L11.4119 5.83457L11.3292 6.40239ZM8.21107 29.8093L11.6544 6.15982L11.0866 6.07714L7.64324 29.7266L8.21107 29.8093ZM7.88582 30.0518C7.88582 30.0518 7.88582 30.0518 7.88582 30.0518C7.88582 30.0518 7.88582 30.0518 7.88582 30.0518L7.88582 30.0518C7.88582 30.0518 7.88582 30.0518 7.88583 30.0518L7.88583 30.0518C7.88583 30.0518 7.88583 30.0518 7.88583 30.0518L7.88583 30.0518C7.88583 30.0518 7.88583 30.0518 7.88583 30.0518L7.88584 30.0518C7.88584 30.0518 7.88584 30.0518 7.88584 30.0518L7.88584 30.0518C7.88584 30.0518 7.88584 30.0518 7.88584 30.0518C7.88584 30.0518 7.88584 30.0518 7.88584 30.0518C7.88585 30.0518 7.88585 30.0518 7.88585 30.0518C7.88585 30.0518 7.88585 30.0518 7.88585 30.0518C7.88585 30.0518 7.88585 30.0518 7.88585 30.0518C7.88585 30.0518 7.88585 30.0518 7.88585 30.0518L7.88585 30.0518C7.88585 30.0518 7.88585 30.0518 7.88585 30.0518L7.88586 30.0518C7.88586 30.0518 7.88586 30.0518 7.88586 30.0518L7.88586 30.0518C7.88586 30.0518 7.88586 30.0518 7.88586 30.0518L7.88586 30.0518C7.88587 30.0518 7.88587 30.0518 7.88587 30.0518L7.88587 30.0518C7.88587 30.0518 7.88587 30.0518 7.88587 30.0518C7.88587 30.0518 7.88587 30.0518 7.88587 30.0518C7.88587 30.0518 7.88587 30.0518 7.88587 30.0518C7.88587 30.0518 7.88587 30.0518 7.88588 30.0518C7.88588 30.0518 7.88588 30.0518 7.88588 30.0518C7.88588 30.0518 7.88588 30.0518 7.88588 30.0518C7.88588 30.0518 7.88588 30.0518 7.88588 30.0518C7.88588 30.0518 7.88588 30.0518 7.88588 30.0518L7.88588 30.0518C7.88588 30.0518 7.88588 30.0518 7.88589 30.0518L7.88589 30.0518C7.88589 30.0518 7.88589 30.0518 7.88589 30.0518L7.88589 30.0518C7.88589 30.0518 7.88589 30.0518 7.88589 30.0518L7.8859 30.0518C7.8859 30.0518 7.8859 30.0518 7.8859 30.0518L7.8859 30.0518C7.8859 30.0518 7.8859 30.0518 7.8859 30.0518C7.8859 30.0518 7.8859 30.0518 7.8859 30.0518C7.88591 30.0518 7.88591 30.0518 7.88591 30.0518C7.88591 30.0518 7.88591 30.0518 7.88591 30.0518C7.88591 30.0518 7.88591 30.0518 7.88591 30.0518C7.88591 30.0518 7.88591 30.0518 7.88591 30.0518L7.88591 30.0518C7.88591 30.0518 7.88591 30.0518 7.88592 30.0518L7.88592 30.0518C7.88592 30.0518 7.88592 30.0518 7.88592 30.0518L7.88592 30.0518C7.88592 30.0518 7.88592 30.0518 7.88592 30.0518L7.88592 30.0518C7.88593 30.0518 7.88593 30.0518 7.88593 30.0518L7.88593 30.0518C7.88593 30.0518 7.88593 30.0518 7.88593 30.0518C7.88593 30.0518 7.88593 30.0518 7.88593 30.0518L7.96861 29.484C7.96861 29.484 7.96861 29.484 7.96861 29.484C7.96861 29.484 7.96861 29.484 7.9686 29.484L7.9686 29.484C7.9686 29.484 7.9686 29.484 7.9686 29.484L7.9686 29.484C7.9686 29.484 7.9686 29.484 7.9686 29.484L7.96859 29.484C7.96859 29.484 7.96859 29.484 7.96859 29.484L7.96859 29.484C7.96859 29.484 7.96859 29.484 7.96859 29.484L7.96859 29.484C7.96859 29.484 7.96859 29.484 7.96859 29.484C7.96859 29.484 7.96859 29.484 7.96858 29.484C7.96858 29.484 7.96858 29.484 7.96858 29.484C7.96858 29.484 7.96858 29.484 7.96858 29.484C7.96858 29.484 7.96858 29.484 7.96858 29.484C7.96858 29.484 7.96858 29.484 7.96858 29.484L7.96857 29.484C7.96857 29.484 7.96857 29.484 7.96857 29.484L7.96857 29.484C7.96857 29.484 7.96857 29.484 7.96857 29.484L7.96857 29.484C7.96856 29.484 7.96856 29.484 7.96856 29.484L7.96856 29.484C7.96856 29.484 7.96856 29.484 7.96856 29.484L7.96856 29.484C7.96856 29.484 7.96856 29.484 7.96856 29.484C7.96856 29.484 7.96856 29.484 7.96855 29.484C7.96855 29.484 7.96855 29.484 7.96855 29.484C7.96855 29.484 7.96855 29.484 7.96855 29.484C7.96855 29.484 7.96855 29.484 7.96855 29.484C7.96855 29.484 7.96855 29.484 7.96855 29.484C7.96855 29.484 7.96855 29.484 7.96855 29.484C7.96855 29.484 7.96855 29.484 7.96854 29.484L7.96854 29.484C7.96854 29.484 7.96854 29.484 7.96854 29.484L7.96854 29.484C7.96854 29.484 7.96854 29.484 7.96854 29.484L7.96853 29.484C7.96853 29.484 7.96853 29.484 7.96853 29.484L7.96853 29.484C7.96853 29.484 7.96853 29.484 7.96853 29.484L7.96853 29.484C7.96852 29.484 7.96852 29.484 7.96852 29.484C7.96852 29.484 7.96852 29.484 7.96852 29.484C7.96852 29.484 7.96852 29.484 7.96852 29.484C7.96852 29.484 7.96852 29.484 7.96852 29.484C7.96852 29.484 7.96852 29.484 7.96852 29.484C7.96852 29.484 7.96852 29.484 7.96852 29.484L7.96851 29.484C7.96851 29.484 7.96851 29.484 7.96851 29.484L7.96851 29.484C7.96851 29.484 7.96851 29.484 7.96851 29.484L7.96851 29.484C7.9685 29.484 7.9685 29.484 7.9685 29.484L7.9685 29.484C7.9685 29.484 7.9685 29.484 7.9685 29.484L7.9685 29.484C7.9685 29.484 7.9685 29.484 7.9685 29.484C7.9685 29.484 7.9685 29.484 7.96849 29.484L7.88582 30.0518ZM7.88593 30.0518C8.65772 30.1642 9.31278 30.4777 9.7499 30.8788C10.1883 31.2812 10.3863 31.7476 10.3226 32.1854L10.8904 32.2681C10.9895 31.587 10.6691 30.9436 10.1379 30.4561C9.60531 29.9673 8.83935 29.6108 7.96861 29.484L7.88593 30.0518ZM14.7146 32.535L10.6478 31.9428L10.5652 32.5107L14.6319 33.1028L14.7146 32.535ZM17.9838 30.9422C17.113 30.8154 16.2772 30.9387 15.6274 31.2553C14.9791 31.5712 14.4886 32.0965 14.3894 32.7775L14.9572 32.8602C15.021 32.4225 15.3437 32.0318 15.8787 31.7712C16.4121 31.5113 17.1293 31.3977 17.9011 31.5101L17.9838 30.9422ZM20.9056 33.7263C21.0047 33.0452 20.6843 32.4018 20.153 31.9143C19.6205 31.4255 18.8545 31.069 17.9838 30.9422L17.9011 31.5101C18.6729 31.6224 19.328 31.9359 19.7651 32.337C20.2035 32.7394 20.4015 33.2058 20.3378 33.6437L20.9056 33.7263ZM24.7297 33.9932L20.663 33.4011L20.5803 33.9689L24.647 34.561L24.7297 33.9932ZM27.9988 32.4004C27.128 32.2737 26.2922 32.397 25.6424 32.7136C24.9942 33.0294 24.5037 33.5547 24.4044 34.2357L24.9722 34.3184C25.036 33.8807 25.3588 33.49 25.8937 33.2294C26.4271 32.9696 27.1443 32.8559 27.9161 32.9683L27.9988 32.4004Z"
                fill="url(#paint5_linear_4501_77931)" mask="url(#path-10-inside-2_4501_77931)" />
        </g>
        <mask id="path-12-inside-3_4501_77931" fill="white">
            <path fill-rule="evenodd" clip-rule="evenodd"
                d="M25.6213 34.3749C24.3143 34.1846 23.1005 35.0899 22.9101 36.3968L19.6742 35.9257C19.8644 34.6187 18.9591 33.4049 17.6521 33.2146C16.3451 33.0243 15.1313 33.9296 14.941 35.2365L11.705 34.7654C11.8952 33.4584 10.99 32.2446 9.68298 32.0543L13.7054 4.42795C15.0124 4.61826 16.2263 3.71297 16.4166 2.40593L16.4166 2.4058L19.6525 2.87695L19.6525 2.87707C19.4622 4.18411 20.3675 5.39794 21.6745 5.58824C22.9816 5.77855 24.1954 4.87326 24.3857 3.56622L24.3857 3.5661L27.6217 4.03726L27.6217 4.03738C27.4314 5.34442 28.3367 6.55825 29.6437 6.74856L25.6213 34.3749Z" />
        </mask>
        <path fill-rule="evenodd" clip-rule="evenodd"
            d="M25.6213 34.3749C24.3143 34.1846 23.1005 35.0899 22.9101 36.3968L19.6742 35.9257C19.8644 34.6187 18.9591 33.4049 17.6521 33.2146C16.3451 33.0243 15.1313 33.9296 14.941 35.2365L11.705 34.7654C11.8952 33.4584 10.99 32.2446 9.68298 32.0543L13.7054 4.42795C15.0124 4.61826 16.2263 3.71297 16.4166 2.40593L16.4166 2.4058L19.6525 2.87695L19.6525 2.87707C19.4622 4.18411 20.3675 5.39794 21.6745 5.58824C22.9816 5.77855 24.1954 4.87326 24.3857 3.56622L24.3857 3.5661L27.6217 4.03726L27.6217 4.03738C27.4314 5.34442 28.3367 6.55825 29.6437 6.74856L25.6213 34.3749Z"
            fill="url(#paint6_radial_4501_77931)" />
        <path
            d="M22.9101 36.3968L22.8679 36.6866L23.1577 36.7288L23.1999 36.439L22.9101 36.3968ZM25.6213 34.3749L25.5791 34.6647L25.8689 34.7069L25.9111 34.4171L25.6213 34.3749ZM19.6742 35.9257L19.3844 35.8835L19.3422 36.1733L19.632 36.2155L19.6742 35.9257ZM14.941 35.2365L14.8988 35.5263L15.1886 35.5685L15.2308 35.2787L14.941 35.2365ZM11.705 34.7654L11.4152 34.7232L11.3731 35.013L11.6628 35.0552L11.705 34.7654ZM9.68298 32.0543L9.3932 32.0121L9.351 32.3019L9.64079 32.3441L9.68298 32.0543ZM13.7054 4.42795L13.7476 4.13816L13.4578 4.09597L13.4156 4.38576L13.7054 4.42795ZM16.4166 2.4058L16.4588 2.11601L16.169 2.07382L16.1268 2.3636L16.4166 2.4058ZM19.6525 2.87695L19.9423 2.91914L19.9845 2.62936L19.6947 2.58716L19.6525 2.87695ZM24.3857 3.5661L24.4279 3.27632L24.1381 3.23412L24.0959 3.52391L24.3857 3.5661ZM27.6217 4.03726L27.9115 4.07945L27.9537 3.78967L27.6639 3.74747L27.6217 4.03726ZM29.6437 6.74856L29.9335 6.79075L29.9757 6.50096L29.6859 6.45877L29.6437 6.74856ZM23.1999 36.439C23.367 35.2921 24.4321 34.4977 25.5791 34.6647L25.6635 34.0851C24.1964 33.8715 22.834 34.8876 22.6203 36.3546L23.1999 36.439ZM19.632 36.2155L22.8679 36.6866L22.9523 36.107L19.7164 35.6359L19.632 36.2155ZM17.6099 33.5044C18.7569 33.6714 19.5513 34.7365 19.3844 35.8835L19.964 35.9679C20.1775 34.5008 19.1614 33.1384 17.6943 32.9248L17.6099 33.5044ZM15.2308 35.2787C15.3978 34.1318 16.463 33.3374 17.6099 33.5044L17.6943 32.9248C16.2273 32.7112 14.8649 33.7273 14.6512 35.1943L15.2308 35.2787ZM11.6628 35.0552L14.8988 35.5263L14.9832 34.9467L11.7472 34.4756L11.6628 35.0552ZM9.64079 32.3441C10.7877 32.5111 11.5822 33.5762 11.4152 34.7232L11.9948 34.8075C12.2083 33.3405 11.1922 31.9781 9.72518 31.7645L9.64079 32.3441ZM13.4156 4.38576L9.3932 32.0121L9.97277 32.0965L13.9952 4.47014L13.4156 4.38576ZM16.1268 2.36374C15.9598 3.51073 14.8946 4.30517 13.7476 4.13816L13.6632 4.71774C15.1303 4.93134 16.4927 3.9152 16.7063 2.44812L16.1268 2.36374ZM16.1268 2.3636L16.1268 2.36374L16.7063 2.44812L16.7064 2.44799L16.1268 2.3636ZM19.6947 2.58716L16.4588 2.11601L16.3744 2.69558L19.6103 3.16674L19.6947 2.58716ZM19.9423 2.91927L19.9423 2.91914L19.3627 2.83476L19.3627 2.83488L19.9423 2.91927ZM21.7167 5.29846C20.5697 5.13146 19.7753 4.06625 19.9423 2.91927L19.3627 2.83488C19.1491 4.30196 20.1653 5.66442 21.6323 5.87803L21.7167 5.29846ZM24.0959 3.52403C23.9289 4.67102 22.8637 5.46546 21.7167 5.29846L21.6323 5.87803C23.0994 6.09164 24.4619 5.0755 24.6755 3.60842L24.0959 3.52403ZM24.0959 3.52391L24.0959 3.52403L24.6755 3.60842L24.6755 3.6083L24.0959 3.52391ZM27.6639 3.74747L24.4279 3.27632L24.3435 3.85589L27.5795 4.32705L27.6639 3.74747ZM27.9115 4.07958L27.9115 4.07945L27.3319 3.99507L27.3319 3.99519L27.9115 4.07958ZM29.6859 6.45877C28.5389 6.29177 27.7445 5.22657 27.9115 4.07958L27.3319 3.99519C27.1183 5.46227 28.1344 6.82474 29.6015 7.03834L29.6859 6.45877ZM25.9111 34.4171L29.9335 6.79075L29.3539 6.70636L25.3315 34.3327L25.9111 34.4171Z"
            fill="url(#paint7_linear_4501_77931)" fill-opacity="0.58"
            mask="url(#path-12-inside-3_4501_77931)" />
        <path
            d="M22.9101 36.3968L22.8679 36.6866L23.1577 36.7288L23.1999 36.439L22.9101 36.3968ZM25.6213 34.3749L25.5791 34.6647L25.8689 34.7069L25.9111 34.4171L25.6213 34.3749ZM19.6742 35.9257L19.3844 35.8835L19.3422 36.1733L19.632 36.2155L19.6742 35.9257ZM14.941 35.2365L14.8988 35.5263L15.1886 35.5685L15.2308 35.2787L14.941 35.2365ZM11.705 34.7654L11.4152 34.7232L11.3731 35.013L11.6628 35.0552L11.705 34.7654ZM9.68298 32.0543L9.3932 32.0121L9.351 32.3019L9.64079 32.3441L9.68298 32.0543ZM13.7054 4.42795L13.7476 4.13816L13.4578 4.09597L13.4156 4.38576L13.7054 4.42795ZM16.4166 2.4058L16.4588 2.11601L16.169 2.07382L16.1268 2.3636L16.4166 2.4058ZM19.6525 2.87695L19.9423 2.91914L19.9845 2.62936L19.6947 2.58716L19.6525 2.87695ZM24.3857 3.5661L24.4279 3.27632L24.1381 3.23412L24.0959 3.52391L24.3857 3.5661ZM27.6217 4.03726L27.9115 4.07945L27.9537 3.78967L27.6639 3.74747L27.6217 4.03726ZM29.6437 6.74856L29.9335 6.79075L29.9757 6.50096L29.6859 6.45877L29.6437 6.74856ZM23.1999 36.439C23.367 35.2921 24.4321 34.4977 25.5791 34.6647L25.6635 34.0851C24.1964 33.8715 22.834 34.8876 22.6203 36.3546L23.1999 36.439ZM19.632 36.2155L22.8679 36.6866L22.9523 36.107L19.7164 35.6359L19.632 36.2155ZM17.6099 33.5044C18.7569 33.6714 19.5513 34.7365 19.3844 35.8835L19.964 35.9679C20.1775 34.5008 19.1614 33.1384 17.6943 32.9248L17.6099 33.5044ZM15.2308 35.2787C15.3978 34.1318 16.463 33.3374 17.6099 33.5044L17.6943 32.9248C16.2273 32.7112 14.8649 33.7273 14.6512 35.1943L15.2308 35.2787ZM11.6628 35.0552L14.8988 35.5263L14.9832 34.9467L11.7472 34.4756L11.6628 35.0552ZM9.64079 32.3441C10.7877 32.5111 11.5822 33.5762 11.4152 34.7232L11.9948 34.8075C12.2083 33.3405 11.1922 31.9781 9.72518 31.7645L9.64079 32.3441ZM13.4156 4.38576L9.3932 32.0121L9.97277 32.0965L13.9952 4.47014L13.4156 4.38576ZM16.1268 2.36374C15.9598 3.51073 14.8946 4.30517 13.7476 4.13816L13.6632 4.71774C15.1303 4.93134 16.4927 3.9152 16.7063 2.44812L16.1268 2.36374ZM16.1268 2.3636L16.1268 2.36374L16.7063 2.44812L16.7064 2.44799L16.1268 2.3636ZM19.6947 2.58716L16.4588 2.11601L16.3744 2.69558L19.6103 3.16674L19.6947 2.58716ZM19.9423 2.91927L19.9423 2.91914L19.3627 2.83476L19.3627 2.83488L19.9423 2.91927ZM21.7167 5.29846C20.5697 5.13146 19.7753 4.06625 19.9423 2.91927L19.3627 2.83488C19.1491 4.30196 20.1653 5.66442 21.6323 5.87803L21.7167 5.29846ZM24.0959 3.52403C23.9289 4.67102 22.8637 5.46546 21.7167 5.29846L21.6323 5.87803C23.0994 6.09164 24.4619 5.0755 24.6755 3.60842L24.0959 3.52403ZM24.0959 3.52391L24.0959 3.52403L24.6755 3.60842L24.6755 3.6083L24.0959 3.52391ZM27.6639 3.74747L24.4279 3.27632L24.3435 3.85589L27.5795 4.32705L27.6639 3.74747ZM27.9115 4.07958L27.9115 4.07945L27.3319 3.99507L27.3319 3.99519L27.9115 4.07958ZM29.6859 6.45877C28.5389 6.29177 27.7445 5.22657 27.9115 4.07958L27.3319 3.99519C27.1183 5.46227 28.1344 6.82474 29.6015 7.03834L29.6859 6.45877ZM25.9111 34.4171L29.9335 6.79075L29.3539 6.70636L25.3315 34.3327L25.9111 34.4171Z"
            fill="url(#paint8_linear_4501_77931)" mask="url(#path-12-inside-3_4501_77931)" />
        <g opacity="0.6" filter="url(#filter1_f_4501_77931)">
            <path
                d="M25.6689 18.0046C25.9792 14.8237 23.7641 11.852 20.5466 11.1415C18.389 10.6651 16.2875 11.2636 14.7812 12.542C14.7 12.6108 14.7521 12.7419 14.8612 12.7404C15.3474 12.7306 15.8453 12.7622 16.3507 12.8358C18.0208 13.079 19.4823 13.741 20.5605 14.7565C20.995 14.4472 21.3534 14.0349 21.5715 13.5653C21.6174 13.4659 21.767 13.4876 21.7827 13.5961C21.9306 14.6079 22.6623 15.5577 23.6212 15.9832C23.7234 16.0287 23.7023 16.1737 23.5913 16.1881C23.0184 16.2619 22.4672 16.5094 22.0149 16.8692C22.0149 16.8692 22.0147 16.8702 22.0146 16.8712C22.448 17.9358 22.6037 19.1816 22.3997 20.5832C22.2627 21.5239 21.9916 22.3502 21.6124 23.0637C21.5621 23.1574 21.6631 23.262 21.7625 23.2193C23.8639 22.341 25.4326 20.4112 25.6669 18.0043L25.6689 18.0046Z"
                fill="white" />
            <path
                d="M20.5612 14.7579C20.1383 15.0598 19.6414 15.2651 19.127 15.3321C19.0715 15.3394 19.0386 15.3785 19.0323 15.4215C19.0261 15.4644 19.0465 15.5113 19.0976 15.5341C20.0563 15.9605 20.7882 16.9093 20.9361 17.9212C20.9517 18.0296 21.1014 18.0514 21.1473 17.9519C21.341 17.535 21.6442 17.1636 22.0148 16.8695C21.6822 16.0543 21.1873 15.3473 20.5612 14.7579Z"
                fill="white" />
        </g>
        <path
            d="M25.6689 18.0046C25.9792 14.8237 23.7641 11.852 20.5466 11.1415C18.389 10.6651 16.2875 11.2636 14.7812 12.542C14.7 12.6108 14.7521 12.7419 14.8612 12.7404C15.3474 12.7306 15.8453 12.7622 16.3507 12.8358C18.0208 13.079 19.4823 13.741 20.5605 14.7565C20.995 14.4472 21.3534 14.0349 21.5715 13.5653C21.6174 13.4659 21.767 13.4876 21.7827 13.5961C21.9306 14.6079 22.6623 15.5577 23.6212 15.9832C23.7234 16.0287 23.7023 16.1737 23.5913 16.1881C23.0184 16.2619 22.4672 16.5094 22.0149 16.8692C22.0149 16.8692 22.0147 16.8702 22.0146 16.8712C22.448 17.9358 22.6037 19.1816 22.3997 20.5832C22.2627 21.5239 21.9916 22.3502 21.6124 23.0637C21.5621 23.1574 21.6631 23.262 21.7625 23.2193C23.8639 22.341 25.4326 20.4112 25.6669 18.0043L25.6689 18.0046Z"
            fill="white" />
        <path
            d="M20.5612 14.7579C20.1383 15.0598 19.6414 15.2651 19.127 15.3321C19.0715 15.3394 19.0386 15.3785 19.0323 15.4215C19.0261 15.4644 19.0465 15.5113 19.0976 15.5341C20.0563 15.9605 20.7882 16.9093 20.9361 17.9212C20.9517 18.0296 21.1014 18.0514 21.1473 17.9519C21.341 17.535 21.6442 17.1636 22.0148 16.8695C21.6822 16.0543 21.1873 15.3473 20.5612 14.7579Z"
            fill="white" />
        <path opacity="0.5" fill-rule="evenodd" clip-rule="evenodd"
            d="M22.89 31.1166L13.2304 29.7102C12.4302 29.5936 11.8759 28.8505 11.9924 28.0503L12.4144 25.1524L24.9717 26.9807L24.9718 26.9808L24.5499 29.8786C24.4334 30.6788 23.6902 31.2331 22.89 31.1166ZM25.5252 26.5663L27.8187 10.8147C27.974 9.74774 27.235 8.75686 26.168 8.6015L16.5085 7.19507C15.4415 7.03972 14.4506 7.77873 14.2953 8.8457L12.0016 24.5991L11.9313 25.0821L11.9314 25.0821L11.5095 27.9799C11.3541 29.0469 12.0931 30.0378 13.1601 30.1931L22.8197 31.5996C23.8866 31.7549 24.8775 31.0159 25.0329 29.9489L25.4551 27.0493L25.5254 26.5663L25.5252 26.5663ZM25.0423 26.4959L27.3357 10.7444C27.4522 9.94416 26.8979 9.201 26.0977 9.08448L16.4381 7.67805C15.6379 7.56154 14.8948 8.11579 14.7782 8.91602L12.4848 24.6676L12.485 24.6676L25.0423 26.4959Z"
            fill="url(#paint9_linear_4501_77931)" />
        <g filter="url(#filter2_d_4501_77931)">
            <path
                d="M18.68 25.6053C18.742 25.4809 18.9267 25.5078 18.9507 25.6447L18.9574 25.6834C19.1045 26.5241 19.6421 27.2449 20.4059 27.6256L20.4411 27.6431C20.5655 27.7051 20.5386 27.8898 20.4017 27.9138L20.363 27.9206C19.5223 28.0676 18.8015 28.6052 18.4208 29.3691L18.4033 29.4042C18.3413 29.5286 18.1566 29.5017 18.1326 29.3648L18.1258 29.3261C17.9788 28.4854 17.4412 27.7646 16.6773 27.3839L16.6422 27.3664C16.5178 27.3044 16.5447 27.1197 16.6816 27.0957L16.7203 27.089C17.561 26.9419 18.2818 26.4043 18.6625 25.6405L18.68 25.6053Z"
                fill="white" />
        </g>
        <path opacity="0.3"
            d="M14.6189 26.3164C14.6618 26.2305 14.7895 26.2491 14.806 26.3437V26.3437C14.9077 26.9249 15.2794 27.4234 15.8076 27.6866V27.6866C15.8936 27.7294 15.875 27.8571 15.7803 27.8737V27.8737C15.1991 27.9754 14.7006 28.3471 14.4375 28.8752V28.8752C14.3946 28.9612 14.2669 28.9426 14.2503 28.848V28.848C14.1486 28.2667 13.7769 27.7683 13.2488 27.5051V27.5051C13.1628 27.4623 13.1814 27.3345 13.276 27.318V27.318C13.8573 27.2163 14.3557 26.8446 14.6189 26.3164V26.3164Z"
            fill="white" />
        <path opacity="0.3"
            d="M22.3396 27.4405C22.3825 27.3545 22.5102 27.3731 22.5267 27.4677C22.6284 28.049 23.0001 28.5474 23.5283 28.8106C23.6143 28.8534 23.5957 28.9812 23.501 28.9977C22.9198 29.0994 22.4214 29.4711 22.1582 29.9993C22.1153 30.0852 21.9876 30.0666 21.971 29.972C21.8693 29.3907 21.4976 28.8923 20.9695 28.6291C20.8835 28.5863 20.9021 28.4585 20.9967 28.442C21.578 28.3403 22.0764 27.9686 22.3396 27.4405Z"
            fill="white" />
        <path
            d="M13.3194 20.461L12.8968 21.028L13.3194 21.595L12.7524 21.1724L12.1855 21.595L12.6081 21.028L12.1855 20.461L12.7524 20.8837L13.3194 20.461Z"
            fill="url(#paint10_radial_4501_77931)" />
        <path
            d="M26.2657 25.7667L25.4998 26.7941L26.2657 27.8216L25.2383 27.0557L24.2108 27.8216L24.9767 26.7941L24.2108 25.7667L25.2383 26.5326L26.2657 25.7667Z"
            fill="url(#paint11_radial_4501_77931)" />
        <path
            d="M26.4096 10.0217L27.5452 12.1278L29.8878 11.6411L27.7818 12.7766L28.2685 15.1193L27.1329 13.0132L24.7903 13.4999L26.8963 12.3644L26.4096 10.0217Z"
            fill="url(#paint12_radial_4501_77931)" />
    </g>
    <defs>
        <filter id="filter0_f_4501_77931" x="-3.97022" y="-7.37207" width="47.2686" height="53.5464"
            filterUnits="userSpaceOnUse" color-interpolation-filters="sRGB">
            <feFlood flood-opacity="0" result="BackgroundImageFix" />
            <feBlend mode="normal" in="SourceGraphic" in2="BackgroundImageFix" result="shape" />
            <feGaussianBlur stdDeviation="5.94873" result="effect1_foregroundBlur_4501_77931" />
        </filter>
        <filter id="filter1_f_4501_77931" x="9.9417" y="6.17852" width="20.5561" height="21.8505"
            filterUnits="userSpaceOnUse" color-interpolation-filters="sRGB">
            <feFlood flood-opacity="0" result="BackgroundImageFix" />
            <feBlend mode="normal" in="SourceGraphic" in2="BackgroundImageFix" result="shape" />
            <feGaussianBlur stdDeviation="2.4" result="effect1_foregroundBlur_4501_77931" />
        </filter>
        <filter id="filter2_d_4501_77931" x="14.691" y="24.9016" width="7.70151" height="7.70151"
            filterUnits="userSpaceOnUse" color-interpolation-filters="sRGB">
            <feFlood flood-opacity="0" result="BackgroundImageFix" />
            <feColorMatrix in="SourceAlpha" type="matrix"
                values="0 0 0 0 0 0 0 0 0 0 0 0 0 0 0 0 0 0 127 0" result="hardAlpha" />
            <feOffset dy="1.24767" />
            <feGaussianBlur stdDeviation="0.935755" />
            <feComposite in2="hardAlpha" operator="out" />
            <feColorMatrix type="matrix"
                values="0 0 0 0 0.729167 0 0 0 0 0.04375 0 0 0 0 0 0 0 0 0.44 0" />
            <feBlend mode="normal" in2="BackgroundImageFix" result="effect1_dropShadow_4501_77931" />
            <feBlend mode="normal" in="SourceGraphic" in2="effect1_dropShadow_4501_77931"
                result="shape" />
        </filter>
        <linearGradient id="paint0_linear_4501_77931" x1="16.3979" y1="11.9889" x2="30.4988"
            y2="19.991" gradientUnits="userSpaceOnUse">
            <stop stop-color="#98290C" />
            <stop offset="1" stop-color="#FF5D02" />
        </linearGradient>
        <linearGradient id="paint1_linear_4501_77931" x1="23.9352" y1="-7.60457" x2="18.3341"
            y2="4.02988" gradientUnits="userSpaceOnUse">
            <stop stop-color="white" />
            <stop offset="1" stop-color="white" stop-opacity="0" />
        </linearGradient>
        <linearGradient id="paint2_linear_4501_77931" x1="45.2265" y1="5.88793" x2="7.46013"
            y2="22.9291" gradientUnits="userSpaceOnUse">
            <stop stop-color="white" stop-opacity="0" />
            <stop offset="0.73465" stop-color="white" />
            <stop offset="1" stop-color="white" stop-opacity="0" />
        </linearGradient>
        <linearGradient id="paint3_linear_4501_77931" x1="6.33027" y1="13.4186" x2="27.0923"
            y2="18.5767" gradientUnits="userSpaceOnUse">
            <stop stop-color="#98290C" />
            <stop offset="1" stop-color="#FF5D02" />
        </linearGradient>
        <linearGradient id="paint4_linear_4501_77931" x1="6.81124" y1="-5.56541" x2="5.13471"
            y2="5.94924" gradientUnits="userSpaceOnUse">
            <stop stop-color="white" />
            <stop offset="1" stop-color="white" stop-opacity="0" />
        </linearGradient>
        <linearGradient id="paint5_linear_4501_77931" x1="0.923817" y1="34.8702" x2="1.83282"
            y2="28.6271" gradientUnits="userSpaceOnUse">
            <stop />
            <stop offset="1" stop-opacity="0" />
        </linearGradient>
        <radialGradient id="paint6_radial_4501_77931" cx="0" cy="0" r="1"
            gradientUnits="userSpaceOnUse"
            gradientTransform="translate(9.33843 39.7707) rotate(-55.9179) scale(44.312 62.9736)">
            <stop stop-color="#AA160C" />
            <stop offset="0.620539" stop-color="#FF6B00" />
            <stop offset="1" stop-color="#F84B00" />
        </radialGradient>
        <linearGradient id="paint7_linear_4501_77931" x1="12.3807" y1="-3.30284" x2="19.192"
            y2="19.4013" gradientUnits="userSpaceOnUse">
            <stop stop-color="white" />
            <stop offset="1" stop-color="white" stop-opacity="0" />
        </linearGradient>
        <linearGradient id="paint8_linear_4501_77931" x1="3.78526" y1="38.3472" x2="4.84712"
            y2="31.0542" gradientUnits="userSpaceOnUse">
            <stop />
            <stop offset="1" stop-opacity="0" />
        </linearGradient>
        <linearGradient id="paint9_linear_4501_77931" x1="36.3007" y1="-2.04788" x2="21.0656"
            y2="36.1012" gradientUnits="userSpaceOnUse">
            <stop stop-color="white" stop-opacity="0" />
            <stop offset="0.333317" stop-color="white" stop-opacity="0.12" />
            <stop offset="0.423807" stop-color="white" stop-opacity="0.68" />
            <stop offset="0.685061" stop-color="white" stop-opacity="0.27" />
            <stop offset="0.737191" stop-color="white" stop-opacity="0.79" />
            <stop offset="0.805793" stop-color="white" stop-opacity="0.26" />
            <stop offset="1" stop-color="white" stop-opacity="0.17" />
        </linearGradient>
        <radialGradient id="paint10_radial_4501_77931" cx="0" cy="0" r="1"
            gradientUnits="userSpaceOnUse"
            gradientTransform="translate(12.7524 21.028) rotate(110.035) scale(2.32019)">
            <stop offset="0.0976782" stop-color="white" />
            <stop offset="1" stop-color="white" stop-opacity="0" />
        </radialGradient>
        <radialGradient id="paint11_radial_4501_77931" cx="0" cy="0" r="1"
            gradientUnits="userSpaceOnUse"
            gradientTransform="translate(25.2383 26.7941) rotate(110.035) scale(4.20439)">
            <stop offset="0.0976782" stop-color="white" />
            <stop offset="1" stop-color="white" stop-opacity="0" />
        </radialGradient>
        <radialGradient id="paint12_radial_4501_77931" cx="0" cy="0" r="1"
            gradientUnits="userSpaceOnUse"
            gradientTransform="translate(27.339 12.5705) rotate(45) scale(7.85012)">
            <stop offset="0.0976782" stop-color="white" />
            <stop offset="1" stop-color="white" stop-opacity="0" />
        </radialGradient>
        <clipPath id="clip0_4501_77931">
            <rect width="40" height="40" fill="white" />
        </clipPath>
    </defs>
</svg>
    