<svg width="40" height="40" viewBox="0 0 40 40" fill="none" xmlns="http://www.w3.org/2000/svg">
    <g clip-path="url(#clip0_4501_78163)">
        <g opacity="0.6">
            <mask id="path-1-inside-1_4501_78163" fill="white">
                <path fill-rule="evenodd" clip-rule="evenodd"
                    d="M24.9198 35.8803L36.8401 12.1897C35.7194 11.6257 35.268 10.26 35.8319 9.13919L35.832 9.13907L33.0571 7.74281L33.057 7.74293C32.493 8.86376 31.1273 9.31519 30.0064 8.75122C28.8856 8.18726 28.4342 6.82147 28.9981 5.70065L28.9982 5.70053L26.2233 4.30427L26.2232 4.30439C25.6592 5.42521 24.2934 5.87664 23.1726 5.31268L23.1725 5.31262L11.2522 29.0032C11.2522 29.0032 11.2523 29.0032 11.2523 29.0032C12.3731 29.5672 12.8245 30.9329 12.2607 32.0537L15.0356 33.4499C15.5996 32.3292 16.9653 31.8778 18.0861 32.4418C19.2069 33.0057 19.6583 34.3714 19.0945 35.4922L21.8694 36.8885C22.4334 35.7678 23.7991 35.3164 24.9198 35.8803Z" />
            </mask>
            <path fill-rule="evenodd" clip-rule="evenodd"
                d="M24.9198 35.8803L36.8401 12.1897C35.7194 11.6257 35.268 10.26 35.8319 9.13919L35.832 9.13907L33.0571 7.74281L33.057 7.74293C32.493 8.86376 31.1273 9.31519 30.0064 8.75122C28.8856 8.18726 28.4342 6.82147 28.9981 5.70065L28.9982 5.70053L26.2233 4.30427L26.2232 4.30439C25.6592 5.42521 24.2934 5.87664 23.1726 5.31268L23.1725 5.31262L11.2522 29.0032C11.2522 29.0032 11.2523 29.0032 11.2523 29.0032C12.3731 29.5672 12.8245 30.9329 12.2607 32.0537L15.0356 33.4499C15.5996 32.3292 16.9653 31.8778 18.0861 32.4418C19.2069 33.0057 19.6583 34.3714 19.0945 35.4922L21.8694 36.8885C22.4334 35.7678 23.7991 35.3164 24.9198 35.8803Z"
                fill="url(#paint0_linear_4501_78163)" />
            <path
                d="M36.8401 12.1897L37.0886 12.3148L37.2137 12.0663L36.9652 11.9412L36.8401 12.1897ZM24.9198 35.8803L24.7948 36.1288L25.0433 36.2538L25.1683 36.0053L24.9198 35.8803ZM35.8319 9.13919L35.5834 9.01415L35.8319 9.13919ZM35.832 9.13907L36.0805 9.2641L36.2055 9.0156L35.957 8.89056L35.832 9.13907ZM33.0571 7.74281L33.1821 7.49431L32.9336 7.36927L32.8086 7.61778L33.0571 7.74281ZM33.057 7.74293L32.8085 7.6179L33.057 7.74293ZM28.9981 5.70065L28.7496 5.57561L28.9981 5.70065ZM28.9982 5.70053L29.2467 5.82557L29.3717 5.57706L29.1232 5.45203L28.9982 5.70053ZM26.2233 4.30427L26.3483 4.05577L26.0998 3.93073L25.9747 4.17923L26.2233 4.30427ZM26.2232 4.30439L25.9747 4.17935L26.2232 4.30439ZM23.1725 5.31262L23.2975 5.06412L23.049 4.93908L22.924 5.18758L23.1725 5.31262ZM11.2522 29.0032L11.0037 28.8781L10.8787 29.1266L11.1272 29.2517L11.2522 29.0032ZM12.2607 32.0537L12.0122 31.9286L11.8871 32.1771L12.1356 32.3022L12.2607 32.0537ZM15.0356 33.4499L14.9106 33.6984L15.1591 33.8235L15.2841 33.575L15.0356 33.4499ZM19.0945 35.4922L18.846 35.3672L18.721 35.6157L18.9694 35.7407L19.0945 35.4922ZM21.8694 36.8885L21.7444 37.137L21.9929 37.262L22.1179 37.0135L21.8694 36.8885ZM36.5916 12.0647L24.6713 35.7552L25.1683 36.0053L37.0886 12.3148L36.5916 12.0647ZM35.5834 9.01415C34.9504 10.2722 35.4571 11.8052 36.7151 12.4382L36.9652 11.9412C35.9817 11.4463 35.5855 10.2478 36.0804 9.26423L35.5834 9.01415ZM35.5835 9.01403L35.5834 9.01415L36.0804 9.26423L36.0805 9.2641L35.5835 9.01403ZM32.932 7.99132L35.707 9.38757L35.957 8.89056L33.1821 7.49431L32.932 7.99132ZM33.3055 7.86797L33.3056 7.86785L32.8086 7.61778L32.8085 7.6179L33.3055 7.86797ZM29.8814 8.99973C31.1395 9.63275 32.6725 9.12604 33.3055 7.86797L32.8085 7.6179C32.3136 8.60148 31.1151 8.99763 30.1315 8.50272L29.8814 8.99973ZM28.7496 5.57561C28.1166 6.83368 28.6233 8.36671 29.8814 8.99973L30.1315 8.50272C29.1479 8.00782 28.7517 6.80927 29.2466 5.82568L28.7496 5.57561ZM28.7497 5.57549L28.7496 5.57561L29.2466 5.82568L29.2467 5.82557L28.7497 5.57549ZM26.0982 4.55277L28.8732 5.94903L29.1232 5.45203L26.3483 4.05577L26.0982 4.55277ZM26.4717 4.42942L26.4718 4.42931L25.9747 4.17923L25.9747 4.17935L26.4717 4.42942ZM23.0476 5.56118C24.3056 6.1942 25.8387 5.68749 26.4717 4.42942L25.9747 4.17935C25.4798 5.16293 24.2812 5.55908 23.2977 5.06418L23.0476 5.56118ZM23.0475 5.56112L23.0476 5.56118L23.2977 5.06418L23.2975 5.06412L23.0475 5.56112ZM11.5007 29.1282L23.421 5.43766L22.924 5.18758L11.0037 28.8781L11.5007 29.1282ZM11.1272 29.2517L11.1272 29.2517C11.1272 29.2517 11.1272 29.2517 11.1272 29.2517C11.1272 29.2517 11.1272 29.2517 11.1272 29.2517C11.1272 29.2517 11.1272 29.2517 11.1272 29.2517C11.1272 29.2517 11.1272 29.2517 11.1272 29.2517C11.1272 29.2517 11.1272 29.2517 11.1272 29.2517L11.1272 29.2517L11.1272 29.2517L11.1272 29.2517C11.1272 29.2517 11.1272 29.2517 11.1272 29.2517C11.1272 29.2517 11.1272 29.2517 11.1272 29.2517C11.1272 29.2517 11.1272 29.2517 11.1272 29.2517C11.1272 29.2517 11.1272 29.2517 11.1272 29.2517L11.1272 29.2517L11.1272 29.2517C11.1272 29.2517 11.1272 29.2517 11.1272 29.2517C11.1272 29.2517 11.1272 29.2517 11.1272 29.2517C11.1272 29.2517 11.1272 29.2517 11.1272 29.2517C11.1272 29.2517 11.1272 29.2517 11.1272 29.2517L11.1272 29.2517L11.1272 29.2517C11.1272 29.2517 11.1272 29.2517 11.1272 29.2517C11.1272 29.2517 11.1272 29.2517 11.1272 29.2517C11.1272 29.2517 11.1272 29.2517 11.1272 29.2517C11.1272 29.2517 11.1272 29.2517 11.1272 29.2517L11.1272 29.2517L11.1272 29.2517C11.1272 29.2517 11.1272 29.2517 11.1272 29.2517C11.1272 29.2517 11.1272 29.2517 11.1272 29.2517C11.1272 29.2517 11.1272 29.2517 11.1272 29.2517C11.1272 29.2517 11.1272 29.2517 11.1272 29.2517L11.1272 29.2517L11.1272 29.2517C11.1272 29.2517 11.1272 29.2517 11.1272 29.2517C11.1272 29.2517 11.1272 29.2517 11.1272 29.2517C11.1272 29.2517 11.1272 29.2517 11.1272 29.2517L11.1272 29.2517L11.1272 29.2517C11.1272 29.2517 11.1272 29.2517 11.1272 29.2517C11.1272 29.2517 11.1272 29.2517 11.1272 29.2517C11.1272 29.2517 11.1272 29.2517 11.1272 29.2517C11.1272 29.2517 11.1272 29.2517 11.1272 29.2517L11.1272 29.2517C11.1272 29.2517 11.1272 29.2517 11.1272 29.2517C11.1272 29.2517 11.1272 29.2517 11.1272 29.2517C11.1272 29.2517 11.1272 29.2517 11.1272 29.2517C11.1272 29.2517 11.1272 29.2517 11.1272 29.2517L11.1272 29.2517L11.1272 29.2517C11.1272 29.2517 11.1272 29.2517 11.1272 29.2517C11.1272 29.2517 11.1272 29.2517 11.1272 29.2517C11.1272 29.2517 11.1272 29.2517 11.1272 29.2517L11.1272 29.2517L11.1272 29.2517C11.1272 29.2517 11.1272 29.2517 11.1272 29.2517C11.1272 29.2517 11.1272 29.2517 11.1272 29.2517C11.1272 29.2517 11.1272 29.2517 11.1272 29.2517L11.1272 29.2517L11.1272 29.2517C11.1272 29.2517 11.1272 29.2517 11.1272 29.2517C11.1272 29.2517 11.1272 29.2517 11.1272 29.2517C11.1272 29.2517 11.1272 29.2517 11.1272 29.2517C11.1272 29.2517 11.1272 29.2517 11.1272 29.2517L11.1272 29.2517C11.1272 29.2517 11.1272 29.2517 11.1272 29.2517C11.1272 29.2517 11.1272 29.2517 11.1272 29.2517C11.1272 29.2517 11.1272 29.2517 11.1272 29.2517C11.1272 29.2517 11.1272 29.2517 11.1272 29.2517L11.1272 29.2517L11.1272 29.2517C11.1272 29.2517 11.1272 29.2517 11.1272 29.2517C11.1272 29.2517 11.1272 29.2517 11.1272 29.2517C11.1272 29.2517 11.1272 29.2517 11.1272 29.2517L11.1272 29.2517L11.1272 29.2517C11.1272 29.2517 11.1272 29.2517 11.1272 29.2517C11.1272 29.2517 11.1272 29.2517 11.1272 29.2517C11.1272 29.2517 11.1272 29.2517 11.1272 29.2517C11.1272 29.2517 11.1272 29.2517 11.1272 29.2517L11.1272 29.2517L11.1272 29.2517C11.1272 29.2517 11.1272 29.2517 11.1272 29.2517C11.1272 29.2517 11.1272 29.2517 11.1272 29.2517C11.1272 29.2517 11.1272 29.2517 11.1272 29.2517C11.1272 29.2517 11.1272 29.2517 11.1272 29.2517L11.1272 29.2517L11.1272 29.2517C11.1272 29.2517 11.1272 29.2517 11.1272 29.2517C11.1272 29.2517 11.1272 29.2517 11.1272 29.2517C11.1272 29.2517 11.1272 29.2517 11.1273 29.2517C11.1273 29.2517 11.1273 29.2517 11.1273 29.2517L11.1273 29.2517L11.1273 29.2517C11.1273 29.2517 11.1273 29.2517 11.1273 29.2517C11.1273 29.2517 11.1273 29.2517 11.1273 29.2517C11.1273 29.2517 11.1273 29.2517 11.1273 29.2517C11.1273 29.2517 11.1273 29.2517 11.1273 29.2517L11.1273 29.2517L11.1273 29.2517L11.1273 29.2517C11.1273 29.2517 11.1273 29.2517 11.1273 29.2517C11.1273 29.2517 11.1273 29.2517 11.1273 29.2517C11.1273 29.2517 11.1273 29.2517 11.1273 29.2517C11.1273 29.2517 11.1273 29.2517 11.1273 29.2517C11.1273 29.2517 11.1273 29.2517 11.1273 29.2517L11.1273 29.2517L11.3773 28.7547L11.3773 28.7547C11.3773 28.7547 11.3773 28.7547 11.3773 28.7547C11.3773 28.7547 11.3773 28.7547 11.3773 28.7547C11.3773 28.7547 11.3773 28.7547 11.3773 28.7547C11.3773 28.7547 11.3773 28.7547 11.3773 28.7547C11.3773 28.7547 11.3773 28.7547 11.3773 28.7547L11.3773 28.7547L11.3773 28.7547L11.3773 28.7547C11.3773 28.7547 11.3773 28.7547 11.3773 28.7547C11.3773 28.7547 11.3773 28.7547 11.3773 28.7547C11.3773 28.7547 11.3773 28.7547 11.3773 28.7547C11.3773 28.7547 11.3773 28.7547 11.3773 28.7547L11.3773 28.7547L11.3773 28.7547C11.3773 28.7547 11.3773 28.7547 11.3773 28.7547C11.3773 28.7547 11.3773 28.7547 11.3773 28.7547C11.3773 28.7547 11.3773 28.7547 11.3773 28.7547C11.3773 28.7547 11.3773 28.7547 11.3773 28.7547L11.3773 28.7547L11.3773 28.7547C11.3773 28.7547 11.3773 28.7547 11.3773 28.7547C11.3773 28.7547 11.3773 28.7547 11.3773 28.7547C11.3773 28.7547 11.3773 28.7547 11.3773 28.7547C11.3773 28.7547 11.3773 28.7547 11.3773 28.7547L11.3773 28.7547L11.3773 28.7547C11.3773 28.7547 11.3773 28.7547 11.3773 28.7547C11.3773 28.7547 11.3773 28.7547 11.3773 28.7547C11.3773 28.7547 11.3773 28.7547 11.3773 28.7547C11.3773 28.7547 11.3773 28.7547 11.3773 28.7547L11.3773 28.7547L11.3773 28.7547C11.3773 28.7547 11.3773 28.7547 11.3773 28.7547C11.3773 28.7547 11.3773 28.7547 11.3773 28.7547C11.3773 28.7547 11.3773 28.7547 11.3773 28.7547L11.3773 28.7547L11.3773 28.7547C11.3773 28.7547 11.3773 28.7547 11.3773 28.7547C11.3773 28.7547 11.3773 28.7547 11.3773 28.7547C11.3773 28.7547 11.3773 28.7547 11.3773 28.7547C11.3773 28.7547 11.3773 28.7547 11.3773 28.7547L11.3773 28.7547C11.3773 28.7547 11.3773 28.7547 11.3773 28.7547C11.3773 28.7547 11.3773 28.7547 11.3773 28.7547C11.3773 28.7547 11.3773 28.7547 11.3773 28.7547C11.3773 28.7547 11.3773 28.7547 11.3773 28.7547L11.3773 28.7547L11.3773 28.7547C11.3773 28.7547 11.3773 28.7547 11.3773 28.7547C11.3773 28.7547 11.3773 28.7547 11.3773 28.7547C11.3773 28.7547 11.3773 28.7547 11.3773 28.7547L11.3773 28.7547L11.3773 28.7547C11.3773 28.7547 11.3773 28.7547 11.3773 28.7547C11.3773 28.7547 11.3773 28.7547 11.3773 28.7547C11.3773 28.7547 11.3773 28.7547 11.3773 28.7547L11.3773 28.7547L11.3773 28.7547C11.3773 28.7547 11.3773 28.7547 11.3773 28.7547C11.3773 28.7547 11.3773 28.7547 11.3773 28.7547C11.3773 28.7547 11.3773 28.7547 11.3773 28.7547C11.3773 28.7547 11.3773 28.7547 11.3773 28.7547L11.3773 28.7547C11.3773 28.7547 11.3773 28.7547 11.3773 28.7547C11.3773 28.7547 11.3773 28.7547 11.3773 28.7547C11.3773 28.7547 11.3773 28.7547 11.3773 28.7547C11.3773 28.7547 11.3773 28.7547 11.3773 28.7547L11.3773 28.7547L11.3773 28.7547C11.3773 28.7547 11.3773 28.7547 11.3773 28.7547C11.3773 28.7547 11.3773 28.7547 11.3773 28.7547C11.3773 28.7547 11.3773 28.7547 11.3773 28.7547L11.3773 28.7547L11.3773 28.7547C11.3773 28.7547 11.3773 28.7547 11.3773 28.7547C11.3773 28.7547 11.3773 28.7547 11.3773 28.7547C11.3773 28.7547 11.3773 28.7547 11.3773 28.7547C11.3773 28.7547 11.3773 28.7547 11.3773 28.7547L11.3773 28.7547L11.3773 28.7547C11.3773 28.7547 11.3773 28.7547 11.3773 28.7547C11.3773 28.7547 11.3773 28.7547 11.3773 28.7547C11.3773 28.7547 11.3773 28.7547 11.3773 28.7547C11.3773 28.7547 11.3773 28.7547 11.3773 28.7547L11.3773 28.7547L11.3773 28.7547C11.3773 28.7547 11.3773 28.7547 11.3773 28.7547C11.3773 28.7547 11.3773 28.7547 11.3773 28.7547C11.3773 28.7547 11.3773 28.7547 11.3773 28.7547C11.3773 28.7547 11.3773 28.7547 11.3773 28.7547L11.3773 28.7547L11.3773 28.7547C11.3773 28.7547 11.3773 28.7547 11.3773 28.7547C11.3773 28.7547 11.3773 28.7547 11.3773 28.7547C11.3773 28.7547 11.3773 28.7547 11.3773 28.7547C11.3773 28.7547 11.3773 28.7547 11.3773 28.7547L11.3773 28.7547L11.3773 28.7547L11.3773 28.7547C11.3773 28.7547 11.3773 28.7547 11.3773 28.7547C11.3773 28.7547 11.3773 28.7547 11.3773 28.7547C11.3773 28.7547 11.3773 28.7547 11.3773 28.7547C11.3773 28.7547 11.3773 28.7547 11.3773 28.7547C11.3773 28.7547 11.3773 28.7547 11.3773 28.7547L11.3772 28.7547L11.1272 29.2517ZM11.1273 29.2517C12.1108 29.7466 12.507 30.9451 12.0122 31.9286L12.5092 32.1787C13.1421 30.9206 12.6354 29.3877 11.3773 28.7547L11.1273 29.2517ZM15.1606 33.2014L12.3857 31.8052L12.1356 32.3022L14.9106 33.6984L15.1606 33.2014ZM18.2112 32.1933C16.9531 31.5603 15.4202 32.0669 14.7871 33.3249L15.2841 33.575C15.779 32.5915 16.9775 32.1954 17.9611 32.6903L18.2112 32.1933ZM19.343 35.6172C19.9759 34.3592 19.4692 32.8263 18.2112 32.1933L17.9611 32.6903C18.9446 33.1852 19.3408 34.3836 18.846 35.3672L19.343 35.6172ZM21.9945 36.64L19.2195 35.2437L18.9694 35.7407L21.7444 37.137L21.9945 36.64ZM25.0449 35.6318C23.7869 34.9989 22.254 35.5055 21.6209 36.7634L22.1179 37.0135C22.6128 36.0301 23.8113 35.634 24.7948 36.1288L25.0449 35.6318Z"
                fill="url(#paint1_linear_4501_78163)" mask="url(#path-1-inside-1_4501_78163)" />
            <path
                d="M29.0875 21.7249C30.3271 18.9403 29.2187 15.5837 26.5216 13.971C24.7131 12.8896 22.6312 12.7976 20.8829 13.5002C20.7887 13.538 20.7963 13.6723 20.8955 13.7039C21.3384 13.8415 21.7793 14.0203 22.2145 14.2392C23.6523 14.9627 24.7751 16.0022 25.4445 17.2461C25.9309 17.0972 26.3795 16.8321 26.7183 16.473C26.7898 16.3969 26.9187 16.4617 26.9001 16.5645C26.729 17.5246 27.1047 18.6046 27.844 19.2786C27.9228 19.3506 27.8601 19.4754 27.7553 19.455C27.2146 19.3491 26.6413 19.4068 26.1236 19.5961C26.1236 19.5961 26.1232 19.5969 26.1227 19.5978C26.1939 20.6917 25.9593 21.8658 25.3522 23.0724C24.9447 23.8823 24.4504 24.5482 23.8921 25.0795C23.8184 25.1492 23.8782 25.2742 23.981 25.2655C26.1471 25.1043 28.1483 23.8311 29.0857 21.724L29.0875 21.7249Z"
                fill="white" />
            <path
                d="M25.4447 17.2472C24.9711 17.3928 24.4596 17.4288 23.974 17.3344C23.9216 17.3242 23.88 17.3497 23.8614 17.3867C23.8428 17.4237 23.8471 17.4723 23.8865 17.5083C24.6254 18.1831 25.0016 19.2622 24.8304 20.2223C24.8119 20.3251 24.9407 20.39 25.0123 20.3138C25.3132 19.995 25.6995 19.7504 26.1234 19.5959C26.0682 18.7581 25.8336 17.9692 25.4447 17.2472Z"
                fill="white" />
            <path opacity="0.5" fill-rule="evenodd" clip-rule="evenodd"
                d="M24.6562 9.06939L32.9396 13.2373C33.6258 13.5826 33.9022 14.4188 33.5569 15.105L26.7632 28.607L15.9948 23.1887L22.7885 9.68671C23.1338 9.00049 23.97 8.72411 24.6562 9.06939ZM33.148 12.8232L24.8646 8.65522C23.9496 8.19484 22.8347 8.56336 22.3743 9.47832L15.5806 22.9803L15.5373 23.0663L15.5372 23.0662L15.3288 23.4804L14.1218 25.8793C13.6614 26.7942 14.0299 27.9091 14.9449 28.3695L23.2283 32.5375C24.1432 32.9978 25.2582 32.6293 25.7185 31.7144L26.9256 29.3155L26.9688 29.2295L26.969 29.2295L27.1774 28.8154L33.9711 15.3134C34.4315 14.3985 34.063 13.2835 33.148 12.8232ZM23.4367 32.1233L15.1533 27.9554C14.467 27.6101 14.1907 26.7739 14.5359 26.0877L15.743 23.6888L26.5114 29.1071L25.3044 31.506C24.9591 32.1922 24.1229 32.4686 23.4367 32.1233Z"
                fill="url(#paint2_linear_4501_78163)" />
            <path
                d="M15.2329 26.4977C15.3214 26.3901 15.4386 26.1963 15.5253 26.024L15.7164 25.6441C15.8031 25.4718 15.889 25.2622 15.9226 25.127L16.5355 25.4354L16.4829 26.0862C16.4748 26.1999 16.4697 26.2685 16.437 26.4115L16.4585 26.4224C16.5451 26.3138 16.5922 26.2737 16.6885 26.1896L17.1818 25.7605L17.7849 26.064C17.6964 26.1716 17.5773 26.3644 17.4906 26.5368L17.2994 26.9166C17.2127 27.089 17.1288 27.2995 17.0952 27.4347L16.5586 27.1648C16.6471 27.0571 16.7662 26.8643 16.8529 26.692L17.0165 26.3669L16.993 26.3551L16.2257 26.9973L16.0965 26.9322L16.1549 25.9334L16.1373 25.9245L15.9737 26.2496C15.887 26.4219 15.8012 26.6315 15.7695 26.7677L15.2329 26.4977ZM17.1532 27.4639C17.273 27.3721 17.445 27.2059 17.5807 27.0582L17.9069 26.7463C18.0397 26.5996 18.1715 26.4107 18.2365 26.2912L19.0355 26.6932C18.9783 26.8215 18.9042 27.0419 18.8665 27.2291L18.8104 27.6769C18.7717 27.871 18.7417 28.1111 18.7374 28.261L18.2008 27.9911C18.2373 27.9137 18.2709 27.7981 18.3026 27.6717L18.3077 27.6227L17.9219 27.4286L17.8865 27.4648C17.8019 27.5646 17.7292 27.6605 17.6917 27.7349L17.1532 27.4639ZM18.0674 27.2565L18.3611 27.4043L18.3863 27.1494C18.4003 27.0534 18.423 26.9789 18.4526 26.8859L18.4272 26.8731C18.3652 26.9572 18.3288 27.0101 18.2571 27.0844L18.0674 27.2565ZM19.9948 28.9305C19.5287 28.696 20.0163 28.1708 19.6678 27.9954C19.6443 27.9836 19.5973 27.9649 19.5786 27.9629L19.5382 28.0432C19.4515 28.2155 19.3677 28.426 19.334 28.5612L18.7975 28.2913C18.886 28.1837 19.0051 27.9908 19.0918 27.8185L19.2829 27.4386C19.3696 27.2663 19.4535 27.0557 19.4872 26.9205L20.3194 27.3393C20.619 27.49 20.7949 27.7258 20.6776 27.9588C20.5574 28.1977 20.2682 28.2019 19.9745 28.0541L19.9568 28.0452L19.9509 28.0569L19.9548 28.0589C20.1233 28.1436 20.0846 28.323 20.2275 28.3949C20.3705 28.4668 20.4951 28.4142 20.5924 28.3282L20.3027 28.9186C20.229 28.9723 20.0947 28.9808 19.9948 28.9305ZM19.6525 27.816L19.9051 27.9431C20.007 27.9943 20.0933 27.9887 20.1307 27.9143C20.1652 27.8457 20.1203 27.7691 20.0282 27.7228L19.7658 27.5908L19.6525 27.816ZM21.5401 29.7057C21.0095 29.4386 21.6756 28.8805 21.3094 28.6963C21.2761 28.6795 21.2251 28.6637 21.2036 28.6627L21.1159 28.837C21.0292 29.0093 20.9434 29.2189 20.9116 29.3551L20.3751 29.0851C20.4636 28.9775 20.5827 28.7846 20.6694 28.6123L20.8606 28.2324C20.9473 28.0601 21.0311 27.8496 21.0648 27.7143L21.6014 27.9843C21.5168 28.0841 21.4075 28.2573 21.3228 28.4258L21.2844 28.5021L21.396 28.5583C21.5566 28.6391 21.6959 28.5816 21.7925 28.3897C21.8378 28.2996 21.8537 28.2046 21.8442 28.1065L22.3474 28.3597C22.3472 28.4529 22.3323 28.5312 22.2751 28.6448C22.1303 28.9327 21.9402 28.9106 21.5544 28.7165L21.4369 28.6574L21.4261 28.6789L21.4496 28.6908C21.7002 28.8169 21.6408 29.0422 21.8269 29.1358C21.9561 29.2008 22.0405 29.1795 22.1358 29.1023L21.848 29.6839C21.7763 29.7435 21.6381 29.7549 21.5401 29.7057ZM21.9164 29.8606C22.003 29.752 22.124 29.5602 22.2107 29.3879L22.4019 29.008C22.4886 28.8356 22.5705 28.6241 22.6061 28.4899L23.7575 29.0692L23.5729 29.6021C23.5456 29.5344 23.4654 29.4744 23.2735 29.3778L22.874 29.1768L22.7932 29.3374L23.1085 29.496C23.2005 29.5423 23.2896 29.5847 23.3533 29.6094L23.2518 29.8111C23.195 29.7727 23.1089 29.7244 23.0168 29.6781L22.7016 29.5195L22.6267 29.6683L22.9713 29.8417C23.2807 29.9974 23.3846 30.0006 23.4503 29.9919L23.1227 30.4676L21.9164 29.8606ZM23.6989 30.7575C23.7874 30.6499 23.9065 30.4571 23.9932 30.2848L24.2071 29.8598L24.0249 29.7682C23.9251 29.7179 23.8349 29.6922 23.7281 29.6998L24.0616 29.2222L25.2405 29.8154L25.0557 30.3678C25.003 30.2873 24.9179 30.2175 24.8239 30.1702L24.6535 30.0845L24.4397 30.5094C24.353 30.6817 24.2691 30.8923 24.2355 31.0275L23.6989 30.7575Z"
                fill="white" />
            <path fill-rule="evenodd" clip-rule="evenodd"
                d="M24.9198 35.8803L36.8401 12.1897C35.7193 11.6257 35.2679 10.26 35.8319 9.13919L35.832 9.13905L33.057 7.74279L33.0569 7.74293C32.493 8.86376 31.1272 9.31519 30.0064 8.75122C28.8855 8.18726 28.4341 6.82147 28.9981 5.70065L28.9982 5.7005L26.2232 4.30425L26.2231 4.30439C25.6592 5.42521 24.2934 5.87664 23.1726 5.31268L23.1725 5.31264L11.2522 29.0032C11.2522 29.0032 11.2522 29.0032 11.2523 29.0032C12.373 29.5672 12.8245 30.9329 12.2606 32.0537L15.0356 33.4499C15.5996 32.3292 16.9653 31.8778 18.0861 32.4418C19.2069 33.0057 19.6583 34.3714 19.0944 35.4922L21.8694 36.8885C22.4334 35.7678 23.7991 35.3164 24.9198 35.8803Z"
                fill="#0D0D0D" fill-opacity="0.71" />
        </g>
        <mask id="mask0_4501_78163" style="mask-type:alpha" maskUnits="userSpaceOnUse" x="11" y="4"
            width="26" height="33">
            <path fill-rule="evenodd" clip-rule="evenodd"
                d="M25.1869 35.8626L36.6907 11.9671C35.5603 11.4228 35.085 10.0651 35.6293 8.93465L35.6294 8.93449L32.8304 7.58701L32.8303 7.58717C32.2861 8.7177 30.9284 9.19296 29.7979 8.6487C28.6673 8.10444 28.1921 6.74676 28.7363 5.61623L28.7364 5.61608L25.9375 4.2686L25.9374 4.26875C25.3931 5.39928 24.0354 5.87454 22.9049 5.33028L22.9048 5.33024L11.401 29.2258C11.401 29.2258 11.401 29.2258 11.4011 29.2258C12.5315 29.7701 13.0068 31.1276 12.4627 32.2581L15.2616 33.6056C15.8059 32.4752 17.1635 32 18.294 32.5442C19.4245 33.0885 19.8998 34.446 19.3556 35.5765L22.1546 36.924C22.6989 35.7936 24.0564 35.3184 25.1869 35.8626Z"
                fill="#0D0D0D" />
        </mask>
        <g mask="url(#mask0_4501_78163)">
            <rect x="13.6533" y="0.150391" width="19.0337" height="35.2341"
                transform="rotate(11.5533 13.6533 0.150391)" fill="#150101" fill-opacity="0.31" />
        </g>
        <g filter="url(#filter0_f_4501_78163)">
            <mask id="path-10-inside-2_4501_78163" fill="white">
                <path fill-rule="evenodd" clip-rule="evenodd"
                    d="M27.9574 32.6844L31.4008 9.03487C29.7582 8.79569 28.5588 7.69479 28.7217 6.57593L28.7217 6.57576L24.655 5.98364L24.6549 5.98383C24.492 7.10271 23.0284 7.81587 21.3858 7.5767C19.7432 7.33754 18.5436 6.23663 18.7065 5.11774L18.7066 5.11756L14.6398 4.52544L14.6398 4.52562C14.4769 5.64451 13.0132 6.35766 11.3706 6.1185L11.3705 6.11848L7.92716 29.7679C7.92719 29.7679 7.92723 29.7679 7.92727 29.7679C9.5698 30.0071 10.7693 31.1079 10.6065 32.2268L14.6733 32.8189C14.8363 31.7001 16.2999 30.987 17.9424 31.2261C19.585 31.4653 20.7845 32.5661 20.6217 33.685L24.6883 34.2771C24.8514 33.1583 26.3149 32.4452 27.9574 32.6844Z" />
            </mask>
            <path fill-rule="evenodd" clip-rule="evenodd"
                d="M27.9574 32.6844L31.4008 9.03487C29.7582 8.79569 28.5588 7.69479 28.7217 6.57593L28.7217 6.57576L24.655 5.98364L24.6549 5.98383C24.492 7.10271 23.0284 7.81587 21.3858 7.5767C19.7432 7.33754 18.5436 6.23663 18.7065 5.11774L18.7066 5.11756L14.6398 4.52544L14.6398 4.52562C14.4769 5.64451 13.0132 6.35766 11.3706 6.1185L11.3705 6.11848L7.92716 29.7679C7.92719 29.7679 7.92723 29.7679 7.92727 29.7679C9.5698 30.0071 10.7693 31.1079 10.6065 32.2268L14.6733 32.8189C14.8363 31.7001 16.2999 30.987 17.9424 31.2261C19.585 31.4653 20.7845 32.5661 20.6217 33.685L24.6883 34.2771C24.8514 33.1583 26.3149 32.4452 27.9574 32.6844Z"
                fill="url(#paint3_linear_4501_78163)" />
            <path
                d="M31.4008 9.03487L31.6847 9.07621L31.7261 8.7923L31.4421 8.75096L31.4008 9.03487ZM27.9574 32.6844L27.9161 32.9683L28.2 33.0096L28.2414 32.7257L27.9574 32.6844ZM28.7217 6.57576L29.0056 6.6171L29.0469 6.33318L28.763 6.29185L28.7217 6.57576ZM24.655 5.98364L24.6963 5.69973L24.4124 5.65839L24.371 5.94231L24.655 5.98364ZM24.6549 5.98383L24.9388 6.02517L24.6549 5.98383ZM18.7066 5.11756L18.9905 5.1589L19.0318 4.87498L18.7479 4.83365L18.7066 5.11756ZM14.6398 4.52544L14.6812 4.24153L14.3973 4.20019L14.3559 4.4841L14.6398 4.52544ZM11.3705 6.11848L11.4119 5.83457L11.1279 5.79323L11.0866 6.07714L11.3705 6.11848ZM7.92716 29.7679L7.64324 29.7266L7.60191 30.0105L7.88582 30.0518L7.92716 29.7679ZM10.6065 32.2268L10.3226 32.1854L10.2813 32.4693L10.5652 32.5107L10.6065 32.2268ZM14.6733 32.8189L14.6319 33.1028L14.9158 33.1441L14.9572 32.8602L14.6733 32.8189ZM20.6217 33.685L20.3378 33.6437L20.2965 33.9275L20.5803 33.9689L20.6217 33.685ZM24.6883 34.2771L24.647 34.561L24.9309 34.6023L24.9722 34.3184L24.6883 34.2771ZM31.1169 8.99354L27.6735 32.643L28.2414 32.7257L31.6847 9.07621L31.1169 8.99354ZM28.4378 6.53459C28.3386 7.21564 28.6589 7.85907 29.1902 8.34665C29.7227 8.83544 30.4887 9.19199 31.3595 9.31879L31.4421 8.75096C30.6703 8.63857 30.0153 8.32507 29.5782 7.9239C29.1398 7.52153 28.9418 7.05508 29.0056 6.61726L28.4378 6.53459ZM28.4378 6.53442L28.4378 6.53459L29.0056 6.61726L29.0056 6.6171L28.4378 6.53442ZM24.6136 6.26756L28.6804 6.85967L28.763 6.29185L24.6963 5.69973L24.6136 6.26756ZM24.9388 6.02517L24.9389 6.02498L24.371 5.94231L24.371 5.94249L24.9388 6.02517ZM21.3444 7.86062C22.2152 7.9874 23.0511 7.86408 23.7009 7.54745C24.3491 7.2316 24.8397 6.70623 24.9388 6.02517L24.371 5.94249C24.3073 6.38031 23.9845 6.77096 23.4496 7.03161C22.9162 7.29149 22.1989 7.40517 21.4271 7.29279L21.3444 7.86062ZM18.4226 5.0764C18.3235 5.75747 18.6438 6.40091 19.1751 6.88849C19.7077 7.37729 20.4736 7.73383 21.3444 7.86062L21.4271 7.29279C20.6553 7.18041 20.0002 6.86692 19.5631 6.46574C19.1247 6.06336 18.9267 5.5969 18.9905 5.15908L18.4226 5.0764ZM18.4227 5.07622L18.4226 5.0764L18.9905 5.15908L18.9905 5.1589L18.4227 5.07622ZM14.5985 4.80936L18.6652 5.40147L18.7479 4.83365L14.6812 4.24153L14.5985 4.80936ZM14.9237 4.56696L14.9238 4.56678L14.3559 4.4841L14.3559 4.48429L14.9237 4.56696ZM11.3293 6.40241C12.2001 6.5292 13.0359 6.40588 13.6858 6.08925C14.334 5.7734 14.8246 5.24802 14.9237 4.56696L14.3559 4.48429C14.2922 4.92211 13.9694 5.31275 13.4344 5.57341C12.9011 5.83328 12.1838 5.94696 11.412 5.83459L11.3293 6.40241ZM11.3292 6.40239L11.3293 6.40241L11.412 5.83459L11.4119 5.83457L11.3292 6.40239ZM8.21107 29.8093L11.6544 6.15982L11.0866 6.07714L7.64324 29.7266L8.21107 29.8093ZM7.88582 30.0518C7.88584 30.0518 7.88586 30.0518 7.88588 30.0518C7.88589 30.0518 7.88591 30.0518 7.88593 30.0518L7.96861 29.484C7.96859 29.484 7.96857 29.484 7.96855 29.484C7.96853 29.484 7.96851 29.484 7.96849 29.484L7.88582 30.0518ZM7.88593 30.0518C8.65772 30.1642 9.31278 30.4777 9.7499 30.8788C10.1883 31.2812 10.3863 31.7476 10.3226 32.1854L10.8904 32.2681C10.9895 31.587 10.6691 30.9436 10.1379 30.4561C9.60531 29.9673 8.83935 29.6108 7.96861 29.484L7.88593 30.0518ZM14.7146 32.535L10.6478 31.9428L10.5652 32.5107L14.6319 33.1028L14.7146 32.535ZM17.9838 30.9422C17.113 30.8154 16.2772 30.9387 15.6274 31.2553C14.9791 31.5712 14.4886 32.0965 14.3894 32.7775L14.9572 32.8602C15.021 32.4225 15.3437 32.0318 15.8787 31.7712C16.4121 31.5113 17.1293 31.3977 17.9011 31.5101L17.9838 30.9422ZM20.9056 33.7263C21.0047 33.0452 20.6843 32.4018 20.153 31.9143C19.6205 31.4255 18.8545 31.069 17.9838 30.9422L17.9011 31.5101C18.6729 31.6224 19.328 31.9359 19.7651 32.337C20.2035 32.7394 20.4015 33.2058 20.3378 33.6437L20.9056 33.7263ZM24.7297 33.9932L20.663 33.4011L20.5803 33.9689L24.647 34.561L24.7297 33.9932ZM27.9988 32.4004C27.128 32.2737 26.2922 32.397 25.6424 32.7136C24.9942 33.0294 24.5037 33.5547 24.4044 34.2357L24.9722 34.3184C25.036 33.8807 25.3588 33.49 25.8937 33.2294C26.4271 32.9696 27.1443 32.8559 27.9161 32.9683L27.9988 32.4004Z"
                fill="url(#paint4_linear_4501_78163)" mask="url(#path-10-inside-2_4501_78163)" />
            <path
                d="M31.4008 9.03487L31.6847 9.07621L31.7261 8.7923L31.4421 8.75096L31.4008 9.03487ZM27.9574 32.6844L27.9161 32.9683L28.2 33.0096L28.2414 32.7257L27.9574 32.6844ZM28.7217 6.57576L29.0056 6.6171L29.0469 6.33318L28.763 6.29185L28.7217 6.57576ZM24.655 5.98364L24.6963 5.69973L24.4124 5.65839L24.371 5.94231L24.655 5.98364ZM24.6549 5.98383L24.9388 6.02517L24.6549 5.98383ZM18.7066 5.11756L18.9905 5.1589L19.0318 4.87498L18.7479 4.83365L18.7066 5.11756ZM14.6398 4.52544L14.6812 4.24153L14.3973 4.20019L14.3559 4.4841L14.6398 4.52544ZM11.3705 6.11848L11.4119 5.83457L11.1279 5.79323L11.0866 6.07714L11.3705 6.11848ZM7.92716 29.7679L7.64324 29.7266L7.60191 30.0105L7.88582 30.0518L7.92716 29.7679ZM10.6065 32.2268L10.3226 32.1854L10.2813 32.4693L10.5652 32.5107L10.6065 32.2268ZM14.6733 32.8189L14.6319 33.1028L14.9158 33.1441L14.9572 32.8602L14.6733 32.8189ZM20.6217 33.685L20.3378 33.6437L20.2965 33.9275L20.5803 33.9689L20.6217 33.685ZM24.6883 34.2771L24.647 34.561L24.9309 34.6023L24.9722 34.3184L24.6883 34.2771ZM31.1169 8.99354L27.6735 32.643L28.2414 32.7257L31.6847 9.07621L31.1169 8.99354ZM28.4378 6.53459C28.3386 7.21564 28.6589 7.85907 29.1902 8.34665C29.7227 8.83544 30.4887 9.19199 31.3595 9.31879L31.4421 8.75096C30.6703 8.63857 30.0153 8.32507 29.5782 7.9239C29.1398 7.52153 28.9418 7.05508 29.0056 6.61726L28.4378 6.53459ZM28.4378 6.53442L28.4378 6.53459L29.0056 6.61726L29.0056 6.6171L28.4378 6.53442ZM24.6136 6.26756L28.6804 6.85967L28.763 6.29185L24.6963 5.69973L24.6136 6.26756ZM24.9388 6.02517L24.9389 6.02498L24.371 5.94231L24.371 5.94249L24.9388 6.02517ZM21.3444 7.86062C22.2152 7.9874 23.0511 7.86408 23.7009 7.54745C24.3491 7.2316 24.8397 6.70623 24.9388 6.02517L24.371 5.94249C24.3073 6.38031 23.9845 6.77096 23.4496 7.03161C22.9162 7.29149 22.1989 7.40517 21.4271 7.29279L21.3444 7.86062ZM18.4226 5.0764C18.3235 5.75747 18.6438 6.40091 19.1751 6.88849C19.7077 7.37729 20.4736 7.73383 21.3444 7.86062L21.4271 7.29279C20.6553 7.18041 20.0002 6.86692 19.5631 6.46574C19.1247 6.06336 18.9267 5.5969 18.9905 5.15908L18.4226 5.0764ZM18.4227 5.07622L18.4226 5.0764L18.9905 5.15908L18.9905 5.1589L18.4227 5.07622ZM14.5985 4.80936L18.6652 5.40147L18.7479 4.83365L14.6812 4.24153L14.5985 4.80936ZM14.9237 4.56696L14.9238 4.56678L14.3559 4.4841L14.3559 4.48429L14.9237 4.56696ZM11.3293 6.40241C12.2001 6.5292 13.0359 6.40588 13.6858 6.08925C14.334 5.7734 14.8246 5.24802 14.9237 4.56696L14.3559 4.48429C14.2922 4.92211 13.9694 5.31275 13.4344 5.57341C12.9011 5.83328 12.1838 5.94696 11.412 5.83459L11.3293 6.40241ZM11.3292 6.40239L11.3293 6.40241L11.412 5.83459L11.4119 5.83457L11.3292 6.40239ZM8.21107 29.8093L11.6544 6.15982L11.0866 6.07714L7.64324 29.7266L8.21107 29.8093ZM7.88582 30.0518C7.88584 30.0518 7.88586 30.0518 7.88588 30.0518C7.88589 30.0518 7.88591 30.0518 7.88593 30.0518L7.96861 29.484C7.96859 29.484 7.96857 29.484 7.96855 29.484C7.96853 29.484 7.96851 29.484 7.96849 29.484L7.88582 30.0518ZM7.88593 30.0518C8.65772 30.1642 9.31278 30.4777 9.7499 30.8788C10.1883 31.2812 10.3863 31.7476 10.3226 32.1854L10.8904 32.2681C10.9895 31.587 10.6691 30.9436 10.1379 30.4561C9.60531 29.9673 8.83935 29.6108 7.96861 29.484L7.88593 30.0518ZM14.7146 32.535L10.6478 31.9428L10.5652 32.5107L14.6319 33.1028L14.7146 32.535ZM17.9838 30.9422C17.113 30.8154 16.2772 30.9387 15.6274 31.2553C14.9791 31.5712 14.4886 32.0965 14.3894 32.7775L14.9572 32.8602C15.021 32.4225 15.3437 32.0318 15.8787 31.7712C16.4121 31.5113 17.1293 31.3977 17.9011 31.5101L17.9838 30.9422ZM20.9056 33.7263C21.0047 33.0452 20.6843 32.4018 20.153 31.9143C19.6205 31.4255 18.8545 31.069 17.9838 30.9422L17.9011 31.5101C18.6729 31.6224 19.328 31.9359 19.7651 32.337C20.2035 32.7394 20.4015 33.2058 20.3378 33.6437L20.9056 33.7263ZM24.7297 33.9932L20.663 33.4011L20.5803 33.9689L24.647 34.561L24.7297 33.9932ZM27.9988 32.4004C27.128 32.2737 26.2922 32.397 25.6424 32.7136C24.9942 33.0294 24.5037 33.5547 24.4044 34.2357L24.9722 34.3184C25.036 33.8807 25.3588 33.49 25.8937 33.2294C26.4271 32.9696 27.1443 32.8559 27.9161 32.9683L27.9988 32.4004Z"
                fill="url(#paint5_linear_4501_78163)" mask="url(#path-10-inside-2_4501_78163)" />
        </g>
        <mask id="path-12-inside-3_4501_78163" fill="white">
            <path fill-rule="evenodd" clip-rule="evenodd"
                d="M26.9753 33.7625C25.6564 33.6934 24.5311 34.7066 24.462 36.0255L21.1964 35.8544C21.2654 34.5355 20.2522 33.4103 18.9332 33.3412C17.6142 33.2721 16.489 34.2852 16.4198 35.6042L13.1542 35.4331C13.2232 34.1142 12.21 32.989 10.8911 32.9199L12.3516 5.04041C13.6706 5.10951 14.7959 4.09626 14.865 2.77726L14.865 2.77712L18.1306 2.9482L18.1306 2.94832C18.0615 4.26733 19.0748 5.39261 20.3938 5.46171C21.7128 5.53081 22.8381 4.51756 22.9072 3.19855L22.9072 3.19843L26.1728 3.36951L26.1728 3.36964C26.1037 4.68865 27.1169 5.81393 28.4359 5.88303L26.9753 33.7625Z" />
        </mask>
        <path fill-rule="evenodd" clip-rule="evenodd"
            d="M26.9753 33.7625C25.6564 33.6934 24.5311 34.7066 24.462 36.0255L21.1964 35.8544C21.2654 34.5355 20.2522 33.4103 18.9332 33.3412C17.6142 33.2721 16.489 34.2852 16.4198 35.6042L13.1542 35.4331C13.2232 34.1142 12.21 32.989 10.8911 32.9199L12.3516 5.04041C13.6706 5.10951 14.7959 4.09626 14.865 2.77726L14.865 2.77712L18.1306 2.9482L18.1306 2.94832C18.0615 4.26733 19.0748 5.39261 20.3938 5.46171C21.7128 5.53081 22.8381 4.51756 22.9072 3.19855L22.9072 3.19843L26.1728 3.36951L26.1728 3.36964C26.1037 4.68865 27.1169 5.81393 28.4359 5.88303L26.9753 33.7625Z"
            fill="url(#paint6_radial_4501_78163)" />
        <path
            d="M24.462 36.0255L24.4466 36.3179L24.7391 36.3333L24.7544 36.0408L24.462 36.0255ZM26.9753 33.7625L26.96 34.0549L27.2525 34.0702L27.2678 33.7778L26.9753 33.7625ZM21.1964 35.8544L20.9039 35.8391L20.8886 36.1315L21.181 36.1469L21.1964 35.8544ZM16.4198 35.6042L16.4045 35.8966L16.6969 35.912L16.7123 35.6195L16.4198 35.6042ZM13.1542 35.4331L12.8618 35.4178L12.8465 35.7102L13.1389 35.7256L13.1542 35.4331ZM10.8911 32.9199L10.5986 32.9045L10.5833 33.197L10.8757 33.2123L10.8911 32.9199ZM12.3516 5.04041L12.3669 4.74797L12.0745 4.73265L12.0592 5.02509L12.3516 5.04041ZM14.865 2.77712L14.8803 2.48468L14.5879 2.46936L14.5726 2.7618L14.865 2.77712ZM18.1306 2.9482L18.4231 2.96352L18.4384 2.67108L18.1459 2.65576L18.1306 2.9482ZM22.9072 3.19843L22.9225 2.90599L22.63 2.89067L22.6147 3.18311L22.9072 3.19843ZM26.1728 3.36951L26.4652 3.38483L26.4805 3.09239L26.1881 3.07707L26.1728 3.36951ZM26.1728 3.36964L26.4652 3.38496L26.1728 3.36964ZM28.4359 5.88303L28.7284 5.89835L28.7437 5.60591L28.4512 5.59059L28.4359 5.88303ZM24.7544 36.0408C24.8151 34.8834 25.8026 33.9943 26.96 34.0549L26.9907 33.47C25.5102 33.3925 24.2472 34.5297 24.1695 36.0102L24.7544 36.0408ZM21.181 36.1469L24.4466 36.3179L24.4773 35.7331L21.2117 35.562L21.181 36.1469ZM18.9179 33.6336C20.0753 33.6942 20.9645 34.6817 20.9039 35.8391L21.4888 35.8697C21.5663 34.3893 20.429 33.1263 18.9485 33.0487L18.9179 33.6336ZM16.7123 35.6195C16.773 34.4621 17.7604 33.573 18.9179 33.6336L18.9485 33.0487C17.4681 32.9712 16.205 34.1084 16.1274 35.5889L16.7123 35.6195ZM13.1389 35.7256L16.4045 35.8966L16.4351 35.3118L13.1695 35.1407L13.1389 35.7256ZM10.8757 33.2123C12.0332 33.2729 12.9224 34.2604 12.8618 35.4178L13.4467 35.4484C13.5241 33.968 12.3868 32.705 10.9064 32.6274L10.8757 33.2123ZM12.0592 5.02509L10.5986 32.9045L11.1835 32.9352L12.6441 5.05573L12.0592 5.02509ZM14.5726 2.76194C14.5119 3.91943 13.5244 4.80861 12.3669 4.74797L12.3363 5.33285C13.8168 5.41042 15.0799 4.27309 15.1574 2.79258L14.5726 2.76194ZM14.5726 2.7618L14.5726 2.76194L15.1574 2.79258L15.1575 2.79244L14.5726 2.7618ZM18.1459 2.65576L14.8803 2.48468L14.8497 3.06956L18.1153 3.24064L18.1459 2.65576ZM18.423 2.96364L18.4231 2.96352L17.8382 2.93288L17.8382 2.933L18.423 2.96364ZM20.4091 5.16927C19.2516 5.10863 18.3624 4.12114 18.423 2.96364L17.8382 2.933C17.7606 4.41352 18.8979 5.67659 20.3784 5.75415L20.4091 5.16927ZM22.6147 3.18323C22.5541 4.34073 21.5666 5.22991 20.4091 5.16927L20.3784 5.75415C21.859 5.83171 23.122 4.69439 23.1996 3.21387L22.6147 3.18323ZM22.6147 3.18311L22.6147 3.18323L23.1996 3.21387L23.1996 3.21375L22.6147 3.18311ZM26.1881 3.07707L22.9225 2.90599L22.8918 3.49087L26.1574 3.66195L26.1881 3.07707ZM26.4652 3.38496L26.4652 3.38483L25.8803 3.35419L25.8803 3.35432L26.4652 3.38496ZM28.4512 5.59059C27.2937 5.52995 26.4046 4.54245 26.4652 3.38496L25.8803 3.35432C25.8028 4.83484 26.9401 6.09791 28.4206 6.17547L28.4512 5.59059ZM27.2678 33.7778L28.7284 5.89835L28.1435 5.86771L26.6829 33.7472L27.2678 33.7778Z"
            fill="url(#paint7_linear_4501_78163)" fill-opacity="0.58"
            mask="url(#path-12-inside-3_4501_78163)" />
        <path
            d="M24.462 36.0255L24.4466 36.3179L24.7391 36.3333L24.7544 36.0408L24.462 36.0255ZM26.9753 33.7625L26.96 34.0549L27.2525 34.0702L27.2678 33.7778L26.9753 33.7625ZM21.1964 35.8544L20.9039 35.8391L20.8886 36.1315L21.181 36.1469L21.1964 35.8544ZM16.4198 35.6042L16.4045 35.8966L16.6969 35.912L16.7123 35.6195L16.4198 35.6042ZM13.1542 35.4331L12.8618 35.4178L12.8465 35.7102L13.1389 35.7256L13.1542 35.4331ZM10.8911 32.9199L10.5986 32.9045L10.5833 33.197L10.8757 33.2123L10.8911 32.9199ZM12.3516 5.04041L12.3669 4.74797L12.0745 4.73265L12.0592 5.02509L12.3516 5.04041ZM14.865 2.77712L14.8803 2.48468L14.5879 2.46936L14.5726 2.7618L14.865 2.77712ZM18.1306 2.9482L18.4231 2.96352L18.4384 2.67108L18.1459 2.65576L18.1306 2.9482ZM22.9072 3.19843L22.9225 2.90599L22.63 2.89067L22.6147 3.18311L22.9072 3.19843ZM26.1728 3.36951L26.4652 3.38483L26.4805 3.09239L26.1881 3.07707L26.1728 3.36951ZM26.1728 3.36964L26.4652 3.38496L26.1728 3.36964ZM28.4359 5.88303L28.7284 5.89835L28.7437 5.60591L28.4512 5.59059L28.4359 5.88303ZM24.7544 36.0408C24.8151 34.8834 25.8026 33.9943 26.96 34.0549L26.9907 33.47C25.5102 33.3925 24.2472 34.5297 24.1695 36.0102L24.7544 36.0408ZM21.181 36.1469L24.4466 36.3179L24.4773 35.7331L21.2117 35.562L21.181 36.1469ZM18.9179 33.6336C20.0753 33.6942 20.9645 34.6817 20.9039 35.8391L21.4888 35.8697C21.5663 34.3893 20.429 33.1263 18.9485 33.0487L18.9179 33.6336ZM16.7123 35.6195C16.773 34.4621 17.7604 33.573 18.9179 33.6336L18.9485 33.0487C17.4681 32.9712 16.205 34.1084 16.1274 35.5889L16.7123 35.6195ZM13.1389 35.7256L16.4045 35.8966L16.4351 35.3118L13.1695 35.1407L13.1389 35.7256ZM10.8757 33.2123C12.0332 33.2729 12.9224 34.2604 12.8618 35.4178L13.4467 35.4484C13.5241 33.968 12.3868 32.705 10.9064 32.6274L10.8757 33.2123ZM12.0592 5.02509L10.5986 32.9045L11.1835 32.9352L12.6441 5.05573L12.0592 5.02509ZM14.5726 2.76194C14.5119 3.91943 13.5244 4.80861 12.3669 4.74797L12.3363 5.33285C13.8168 5.41042 15.0799 4.27309 15.1574 2.79258L14.5726 2.76194ZM14.5726 2.7618L14.5726 2.76194L15.1574 2.79258L15.1575 2.79244L14.5726 2.7618ZM18.1459 2.65576L14.8803 2.48468L14.8497 3.06956L18.1153 3.24064L18.1459 2.65576ZM18.423 2.96364L18.4231 2.96352L17.8382 2.93288L17.8382 2.933L18.423 2.96364ZM20.4091 5.16927C19.2516 5.10863 18.3624 4.12114 18.423 2.96364L17.8382 2.933C17.7606 4.41352 18.8979 5.67659 20.3784 5.75415L20.4091 5.16927ZM22.6147 3.18323C22.5541 4.34073 21.5666 5.22991 20.4091 5.16927L20.3784 5.75415C21.859 5.83171 23.122 4.69439 23.1996 3.21387L22.6147 3.18323ZM22.6147 3.18311L22.6147 3.18323L23.1996 3.21387L23.1996 3.21375L22.6147 3.18311ZM26.1881 3.07707L22.9225 2.90599L22.8918 3.49087L26.1574 3.66195L26.1881 3.07707ZM26.4652 3.38496L26.4652 3.38483L25.8803 3.35419L25.8803 3.35432L26.4652 3.38496ZM28.4512 5.59059C27.2937 5.52995 26.4046 4.54245 26.4652 3.38496L25.8803 3.35432C25.8028 4.83484 26.9401 6.09791 28.4206 6.17547L28.4512 5.59059ZM27.2678 33.7778L28.7284 5.89835L28.1435 5.86771L26.6829 33.7472L27.2678 33.7778Z"
            fill="url(#paint8_linear_4501_78163)" mask="url(#path-12-inside-3_4501_78163)" />
        <g opacity="0.6" filter="url(#filter1_f_4501_78163)">
            <path
                d="M25 19.4187C26.116 16.424 24.7375 12.9833 21.81 11.4712C19.8469 10.4571 17.6622 10.4964 15.8783 11.3455C15.7821 11.3912 15.7988 11.5313 15.9047 11.5578C16.3771 11.673 16.8502 11.8314 17.3199 12.0322C18.8717 12.6957 20.1144 13.7105 20.8959 14.9687C21.3952 14.7812 21.8474 14.4746 22.1787 14.0768C22.2486 13.9924 22.3877 14.0519 22.3749 14.1607C22.2583 15.1766 22.7218 16.2824 23.5394 16.9396C23.6266 17.0098 23.569 17.1445 23.458 17.13C22.8853 17.0543 22.2891 17.1521 21.7596 17.3839C21.7596 17.3839 21.7592 17.3848 21.7588 17.3857C21.9045 18.5259 21.7354 19.7699 21.1786 21.0722C20.8048 21.9463 20.3309 22.6753 19.7812 23.2677C19.7086 23.3454 19.7794 23.4723 19.8864 23.4566C22.1428 23.1468 24.1542 21.6841 24.9981 19.4179L25 19.4187Z"
                fill="white" />
            <path
                d="M20.8964 14.9703C20.4102 15.1535 19.8773 15.2245 19.3629 15.1573C19.3074 15.1501 19.2656 15.1794 19.2485 15.2194C19.2314 15.2593 19.2391 15.3098 19.2827 15.345C20.0999 16.0031 20.5638 17.1079 20.4472 18.1238C20.4345 18.2327 20.5736 18.2921 20.6434 18.2078C20.9376 17.8545 21.326 17.5734 21.7596 17.3841C21.6473 16.5109 21.3504 15.7006 20.8964 14.9703Z"
                fill="white" />
        </g>
        <path
            d="M25 19.4187C26.116 16.424 24.7375 12.9833 21.81 11.4712C19.8469 10.4571 17.6622 10.4964 15.8783 11.3455C15.7821 11.3912 15.7988 11.5313 15.9047 11.5578C16.3771 11.673 16.8502 11.8314 17.3199 12.0322C18.8717 12.6957 20.1144 13.7105 20.8959 14.9687C21.3952 14.7812 21.8474 14.4746 22.1787 14.0768C22.2486 13.9924 22.3877 14.0519 22.3749 14.1607C22.2583 15.1766 22.7218 16.2824 23.5394 16.9396C23.6266 17.0098 23.569 17.1445 23.458 17.13C22.8853 17.0543 22.2891 17.1521 21.7596 17.3839C21.7596 17.3839 21.7592 17.3848 21.7588 17.3857C21.9045 18.5259 21.7354 19.7699 21.1786 21.0722C20.8048 21.9463 20.3309 22.6753 19.7812 23.2677C19.7086 23.3454 19.7794 23.4723 19.8864 23.4566C22.1428 23.1468 24.1542 21.6841 24.9981 19.4179L25 19.4187Z"
            fill="white" />
        <path
            d="M20.8964 14.9703C20.4102 15.1535 19.8773 15.2245 19.3629 15.1573C19.3074 15.1501 19.2656 15.1794 19.2485 15.2194C19.2314 15.2593 19.2391 15.3098 19.2827 15.345C20.0999 16.0031 20.5638 17.1079 20.4472 18.1238C20.4345 18.2327 20.5736 18.2921 20.6434 18.2078C20.9376 17.8545 21.326 17.5734 21.7596 17.3841C21.6473 16.5109 21.3504 15.7006 20.8964 14.9703Z"
            fill="white" />
        <path opacity="0.5" fill-rule="evenodd" clip-rule="evenodd"
            d="M23.9558 30.7696L14.2077 30.2589C13.4002 30.2166 12.7798 29.5276 12.8221 28.7201L12.9753 25.7957L25.6476 26.4596L25.6478 26.4596L25.4946 29.384C25.4523 30.1915 24.7633 30.8119 23.9558 30.7696ZM26.1607 25.9958L26.9934 10.1C27.0498 9.02325 26.2227 8.10465 25.1459 8.04825L15.3979 7.53756C14.3212 7.48116 13.4026 8.3083 13.3461 9.38504L12.5133 25.2827L12.4878 25.7701L12.4879 25.7701L12.3347 28.6945C12.2783 29.7713 13.1054 30.6899 14.1822 30.7463L23.9302 31.257C25.007 31.3134 25.9256 30.4862 25.982 29.4095L26.1353 26.4832L26.1608 25.9958L26.1607 25.9958ZM25.6733 25.9703L26.506 10.0745C26.5483 9.26691 25.928 8.57796 25.1204 8.53565L15.3724 8.02497C14.5648 7.98266 13.8759 8.60302 13.8335 9.41057L13.0008 25.3064L13.0009 25.3064L25.6733 25.9703Z"
            fill="url(#paint9_linear_4501_78163)" />
        <g filter="url(#filter2_d_4501_78163)">
            <path
                d="M19.0808 25.8442C19.129 25.7202 19.3075 25.7295 19.3424 25.8579V25.8579C19.5568 26.6467 20.1331 27.2867 20.8951 27.5823V27.5823C21.0192 27.6304 21.0098 27.809 20.8814 27.8439V27.8439C20.0927 28.0583 19.4527 28.6346 19.157 29.3966V29.3966C19.1089 29.5206 18.9303 29.5113 18.8954 29.3829V29.3829C18.6811 28.5941 18.1048 27.9541 17.3427 27.6585V27.6585C17.2187 27.6104 17.228 27.4318 17.3565 27.3969V27.3969C18.1452 27.1825 18.7852 26.6062 19.0808 25.8442V25.8442Z"
                fill="white" />
        </g>
        <path opacity="0.3"
            d="M15.2778 26.7518C15.3125 26.6623 15.4414 26.669 15.4666 26.7617C15.6214 27.3311 16.0375 27.7932 16.5876 28.0066C16.6772 28.0414 16.6704 28.1703 16.5777 28.1955C16.0083 28.3503 15.5462 28.7663 15.3328 29.3165C15.298 29.406 15.1691 29.3993 15.1439 29.3066C14.9892 28.7371 14.5731 28.2751 14.023 28.0617C13.9334 28.0269 13.9402 27.898 14.0329 27.8728C14.6023 27.718 15.0643 27.302 15.2778 26.7518Z"
            fill="white" />
        <path opacity="0.3"
            d="M23.0688 27.1595C23.1035 27.07 23.2324 27.0767 23.2576 27.1694C23.4124 27.7389 23.8285 28.2009 24.3786 28.4143C24.4682 28.4491 24.4614 28.578 24.3687 28.6032C23.7993 28.758 23.3372 29.174 23.1238 29.7242C23.0891 29.8137 22.9601 29.807 22.9349 29.7143C22.7802 29.1449 22.3641 28.6828 21.814 28.4694C21.7244 28.4346 21.7312 28.3057 21.8239 28.2805C22.3933 28.1257 22.8554 27.7097 23.0688 27.1595Z"
            fill="white" />
        <path
            d="M13.2787 19.4163L12.6813 20.0038L13.0737 20.7441L12.4862 20.1467L11.7459 20.5391L12.3433 19.9516L11.9509 19.2113L12.5384 19.8087L13.2787 19.4163Z"
            fill="url(#paint10_radial_4501_78163)" />
        <path
            d="M24.1765 25.5159L23.2628 26.4145L23.863 27.5467L22.9644 26.633L21.8322 27.2332L22.7459 26.3347L22.1457 25.2024L23.0442 26.1161L24.1765 25.5159Z"
            fill="url(#paint11_radial_4501_78163)" />
        <path
            d="M26.5119 12.0187L27.25 14.0964L29.4519 13.9825L27.3742 14.7206L27.4881 16.9225L26.7501 14.8448L24.5482 14.9587L26.6258 14.2207L26.5119 12.0187Z"
            fill="url(#paint12_radial_4501_78163)" />
    </g>
    <defs>
        <filter id="filter0_f_4501_78163" x="-3.97022" y="-7.37207" width="47.2686" height="53.5464"
            filterUnits="userSpaceOnUse" color-interpolation-filters="sRGB">
            <feFlood flood-opacity="0" result="BackgroundImageFix" />
            <feBlend mode="normal" in="SourceGraphic" in2="BackgroundImageFix" result="shape" />
            <feGaussianBlur stdDeviation="5.94873" result="effect1_foregroundBlur_4501_78163" />
        </filter>
        <filter id="filter1_f_4501_78163" x="11.0149" y="5.90947" width="19.1708" height="22.3485"
            filterUnits="userSpaceOnUse" color-interpolation-filters="sRGB">
            <feFlood flood-opacity="0" result="BackgroundImageFix" />
            <feBlend mode="normal" in="SourceGraphic" in2="BackgroundImageFix" result="shape" />
            <feGaussianBlur stdDeviation="2.4" result="effect1_foregroundBlur_4501_78163" />
        </filter>
        <filter id="filter2_d_4501_78163" x="15.3834" y="25.1325" width="7.47105" height="7.47105"
            filterUnits="userSpaceOnUse" color-interpolation-filters="sRGB">
            <feFlood flood-opacity="0" result="BackgroundImageFix" />
            <feColorMatrix in="SourceAlpha" type="matrix"
                values="0 0 0 0 0 0 0 0 0 0 0 0 0 0 0 0 0 0 127 0" result="hardAlpha" />
            <feOffset dy="1.24767" />
            <feGaussianBlur stdDeviation="0.935755" />
            <feComposite in2="hardAlpha" operator="out" />
            <feColorMatrix type="matrix"
                values="0 0 0 0 0.729167 0 0 0 0 0.04375 0 0 0 0 0 0 0 0 0.44 0" />
            <feBlend mode="normal" in2="BackgroundImageFix" result="effect1_dropShadow_4501_78163" />
            <feBlend mode="normal" in="SourceGraphic" in2="effect1_dropShadow_4501_78163"
                result="shape" />
        </filter>
        <linearGradient id="paint0_linear_4501_78163" x1="16.5495" y1="11.8564" x2="30.5082"
            y2="20.1041" gradientUnits="userSpaceOnUse">
            <stop stop-color="#98290C" />
            <stop offset="1" stop-color="#FF5D02" />
        </linearGradient>
        <linearGradient id="paint1_linear_4501_78163" x1="24.4286" y1="-7.60215" x2="18.6247"
            y2="3.9325" gradientUnits="userSpaceOnUse">
            <stop stop-color="white" />
            <stop offset="1" stop-color="white" stop-opacity="0" />
        </linearGradient>
        <linearGradient id="paint2_linear_4501_78163" x1="45.4811" y1="6.26066" x2="7.42229"
            y2="22.6383" gradientUnits="userSpaceOnUse">
            <stop stop-color="white" stop-opacity="0" />
            <stop offset="0.73465" stop-color="white" />
            <stop offset="1" stop-color="white" stop-opacity="0" />
        </linearGradient>
        <linearGradient id="paint3_linear_4501_78163" x1="6.33027" y1="13.4186" x2="27.0923"
            y2="18.5767" gradientUnits="userSpaceOnUse">
            <stop stop-color="#98290C" />
            <stop offset="1" stop-color="#FF5D02" />
        </linearGradient>
        <linearGradient id="paint4_linear_4501_78163" x1="6.81124" y1="-5.56541" x2="5.13471"
            y2="5.94924" gradientUnits="userSpaceOnUse">
            <stop stop-color="white" />
            <stop offset="1" stop-color="white" stop-opacity="0" />
        </linearGradient>
        <linearGradient id="paint5_linear_4501_78163" x1="0.923817" y1="34.8702" x2="1.83282"
            y2="28.6271" gradientUnits="userSpaceOnUse">
            <stop />
            <stop offset="1" stop-opacity="0" />
        </linearGradient>
        <radialGradient id="paint6_radial_4501_78163" cx="0" cy="0" r="1"
            gradientUnits="userSpaceOnUse"
            gradientTransform="translate(11.2587 40.6351) rotate(-61.203) scale(44.312 62.9736)">
            <stop stop-color="#AA160C" />
            <stop offset="0.620539" stop-color="#FF6B00" />
            <stop offset="1" stop-color="#F84B00" />
        </radialGradient>
        <linearGradient id="paint7_linear_4501_78163" x1="10.3205" y1="-2.53549" x2="19.1941"
            y2="19.4447" gradientUnits="userSpaceOnUse">
            <stop stop-color="white" />
            <stop offset="1" stop-color="white" stop-opacity="0" />
        </linearGradient>
        <linearGradient id="paint8_linear_4501_78163" x1="5.59806" y1="39.7292" x2="5.98363"
            y2="32.3694" gradientUnits="userSpaceOnUse">
            <stop />
            <stop offset="1" stop-opacity="0" />
        </linearGradient>
        <linearGradient id="paint9_linear_4501_78163" x1="34.2546" y1="-3.48922" x2="22.5983"
            y2="35.901" gradientUnits="userSpaceOnUse">
            <stop stop-color="white" stop-opacity="0" />
            <stop offset="0.333317" stop-color="white" stop-opacity="0.12" />
            <stop offset="0.423807" stop-color="white" stop-opacity="0.68" />
            <stop offset="0.685061" stop-color="white" stop-opacity="0.27" />
            <stop offset="0.737191" stop-color="white" stop-opacity="0.79" />
            <stop offset="0.805793" stop-color="white" stop-opacity="0.26" />
            <stop offset="1" stop-color="white" stop-opacity="0.17" />
        </linearGradient>
        <radialGradient id="paint10_radial_4501_78163" cx="0" cy="0" r="1"
            gradientUnits="userSpaceOnUse"
            gradientTransform="translate(12.5123 19.9777) rotate(118.811) scale(2.7489)">
            <stop offset="0.0976782" stop-color="white" />
            <stop offset="1" stop-color="white" stop-opacity="0" />
        </radialGradient>
        <radialGradient id="paint11_radial_4501_78163" cx="0" cy="0" r="1"
            gradientUnits="userSpaceOnUse"
            gradientTransform="translate(23.0043 26.3746) rotate(118.811) scale(4.20439)">
            <stop offset="0.0976782" stop-color="white" />
            <stop offset="1" stop-color="white" stop-opacity="0" />
        </radialGradient>
        <radialGradient id="paint12_radial_4501_78163" cx="0" cy="0" r="1"
            gradientUnits="userSpaceOnUse"
            gradientTransform="translate(27 14.4706) rotate(53.7763) scale(7.23394)">
            <stop offset="0.0976782" stop-color="white" />
            <stop offset="1" stop-color="white" stop-opacity="0" />
        </radialGradient>
        <clipPath id="clip0_4501_78163">
            <rect width="40" height="40" fill="white" />
        </clipPath>
    </defs>
</svg>
    