<svg width="40" height="40" viewBox="0 0 40 40" fill="none" xmlns="http://www.w3.org/2000/svg">
    <g clip-path="url(#clip0_4501_78240)">
        <g opacity="0.6">
            <mask id="path-1-inside-1_4501_78240" fill="white">
                <path fill-rule="evenodd" clip-rule="evenodd"
                    d="M24.7085 35.8913L36.9543 12.3673C35.8415 11.7879 35.409 10.4161 35.9883 9.3032L35.9884 9.30308L33.2329 7.8687L33.2329 7.86882C32.6535 8.98176 31.2816 9.41431 30.1687 8.83495C29.0558 8.25559 28.6232 6.88371 29.2026 5.77076L29.2026 5.77065L26.4472 4.33626L26.4471 4.33638C25.8678 5.44932 24.4959 5.88187 23.3829 5.30251L23.3828 5.30245L11.137 28.8264C11.1371 28.8264 11.1371 28.8264 11.1371 28.8265C12.25 29.4058 12.6826 30.7776 12.1033 31.8905L14.8588 33.3249C15.4382 32.212 16.81 31.7796 17.9229 32.3589C19.0358 32.9382 19.4683 34.31 18.8891 35.423L21.6445 36.8573C22.2239 35.7445 23.5957 35.312 24.7085 35.8913Z" />
            </mask>
            <path fill-rule="evenodd" clip-rule="evenodd"
                d="M24.7085 35.8913L36.9543 12.3673C35.8415 11.7879 35.409 10.4161 35.9883 9.3032L35.9884 9.30308L33.2329 7.8687L33.2329 7.86882C32.6535 8.98176 31.2816 9.41431 30.1687 8.83495C29.0558 8.25559 28.6232 6.88371 29.2026 5.77076L29.2026 5.77065L26.4472 4.33626L26.4471 4.33638C25.8678 5.44932 24.4959 5.88187 23.3829 5.30251L23.3828 5.30245L11.137 28.8264C11.1371 28.8264 11.1371 28.8264 11.1371 28.8265C12.25 29.4058 12.6826 30.7776 12.1033 31.8905L14.8588 33.3249C15.4382 32.212 16.81 31.7796 17.9229 32.3589C19.0358 32.9382 19.4683 34.31 18.8891 35.423L21.6445 36.8573C22.2239 35.7445 23.5957 35.312 24.7085 35.8913Z"
                fill="url(#paint0_linear_4501_78240)" />
            <path
                d="M36.9543 12.3673L37.2011 12.4958L37.3295 12.249L37.0828 12.1206L36.9543 12.3673ZM24.7085 35.8913L24.5801 36.138L24.8268 36.2665L24.9553 36.0197L24.7085 35.8913ZM35.9883 9.3032L35.7415 9.17475L35.9883 9.3032ZM35.9884 9.30308L36.2351 9.43153L36.3636 9.18478L36.1168 9.05632L35.9884 9.30308ZM33.2329 7.8687L33.3614 7.62194L33.1146 7.49349L32.9862 7.74025L33.2329 7.8687ZM33.2329 7.86882L32.9861 7.74036L33.2329 7.86882ZM29.2026 5.77076L28.9558 5.64231L29.2026 5.77076ZM29.2026 5.77065L29.4494 5.8991L29.5778 5.65234L29.3311 5.52389L29.2026 5.77065ZM26.4472 4.33626L26.5756 4.0895L26.3289 3.96105L26.2004 4.20781L26.4472 4.33626ZM26.4471 4.33638L26.2004 4.20792L26.4471 4.33638ZM23.3828 5.30245L23.5113 5.0557L23.2645 4.92725L23.1361 5.174L23.3828 5.30245ZM11.137 28.8264L10.8903 28.698L10.7618 28.9447L11.0086 29.0732L11.137 28.8264ZM12.1033 31.8905L11.8566 31.7621L11.7281 32.0088L11.9749 32.1373L12.1033 31.8905ZM14.8588 33.3249L14.7303 33.5717L14.977 33.7001L15.1055 33.4534L14.8588 33.3249ZM18.8891 35.423L18.6423 35.2945L18.5139 35.5413L18.7606 35.6697L18.8891 35.423ZM21.6445 36.8573L21.5161 37.1041L21.7628 37.2325L21.8913 36.9858L21.6445 36.8573ZM36.7076 12.2389L24.4618 35.7628L24.9553 36.0197L37.2011 12.4958L36.7076 12.2389ZM35.7415 9.17475C35.0913 10.4239 35.5767 11.9637 36.8259 12.6141L37.0828 12.1206C36.1062 11.6121 35.7266 10.4083 36.2351 9.43166L35.7415 9.17475ZM35.7416 9.17463L35.7415 9.17475L36.2351 9.43166L36.2351 9.43153L35.7416 9.17463ZM33.1045 8.11545L35.8599 9.54983L36.1168 9.05632L33.3614 7.62194L33.1045 8.11545ZM33.4796 7.99727L33.4797 7.99715L32.9862 7.74025L32.9861 7.74036L33.4796 7.99727ZM30.0402 9.08171C31.2895 9.73201 32.8293 9.24649 33.4796 7.99727L32.9861 7.74036C32.4777 8.71703 31.2738 9.09662 30.2971 8.5882L30.0402 9.08171ZM28.9558 5.64231C28.3055 6.89153 28.791 8.4314 30.0402 9.08171L30.2971 8.5882C29.3205 8.07978 28.9409 6.87588 29.4493 5.89922L28.9558 5.64231ZM28.9559 5.64219L28.9558 5.64231L29.4493 5.89922L29.4494 5.8991L28.9559 5.64219ZM26.3187 4.58301L29.0742 6.0174L29.3311 5.52389L26.5756 4.0895L26.3187 4.58301ZM26.6939 4.46483L26.6939 4.46471L26.2004 4.20781L26.2004 4.20792L26.6939 4.46483ZM23.2545 5.54927C24.5037 6.19957 26.0436 5.71405 26.6939 4.46483L26.2004 4.20792C25.692 5.18459 24.4881 5.56418 23.5114 5.05576L23.2545 5.54927ZM23.2544 5.54921L23.2545 5.54927L23.5114 5.05576L23.5113 5.0557L23.2544 5.54921ZM11.3838 28.9549L23.6296 5.43091L23.1361 5.174L10.8903 28.698L11.3838 28.9549ZM11.0086 29.0732L11.0086 29.0732C11.0086 29.0732 11.0086 29.0732 11.0086 29.0732C11.0086 29.0732 11.0086 29.0732 11.0086 29.0732C11.0086 29.0732 11.0086 29.0732 11.0086 29.0732C11.0086 29.0732 11.0086 29.0732 11.0086 29.0732C11.0086 29.0732 11.0086 29.0732 11.0086 29.0732L11.0086 29.0732L11.0086 29.0732L11.0086 29.0732C11.0086 29.0732 11.0086 29.0732 11.0086 29.0732C11.0086 29.0732 11.0086 29.0732 11.0086 29.0732C11.0086 29.0732 11.0086 29.0732 11.0086 29.0732C11.0086 29.0732 11.0086 29.0732 11.0086 29.0732L11.0086 29.0732L11.0086 29.0732C11.0086 29.0732 11.0086 29.0732 11.0086 29.0732C11.0086 29.0732 11.0086 29.0732 11.0086 29.0732C11.0086 29.0732 11.0086 29.0732 11.0086 29.0732C11.0086 29.0732 11.0086 29.0732 11.0086 29.0732L11.0086 29.0732L11.0086 29.0732C11.0086 29.0732 11.0086 29.0732 11.0086 29.0732C11.0086 29.0732 11.0086 29.0732 11.0086 29.0732C11.0086 29.0732 11.0086 29.0732 11.0086 29.0732C11.0086 29.0732 11.0086 29.0732 11.0086 29.0732L11.0086 29.0732L11.0086 29.0732C11.0086 29.0732 11.0086 29.0732 11.0086 29.0732C11.0086 29.0732 11.0086 29.0732 11.0086 29.0732C11.0086 29.0732 11.0086 29.0732 11.0086 29.0732C11.0086 29.0732 11.0086 29.0732 11.0086 29.0732L11.0086 29.0732L11.0086 29.0732C11.0086 29.0732 11.0086 29.0732 11.0086 29.0732C11.0086 29.0732 11.0086 29.0732 11.0086 29.0732C11.0086 29.0732 11.0086 29.0732 11.0086 29.0732L11.0086 29.0732L11.0086 29.0732C11.0086 29.0732 11.0086 29.0732 11.0086 29.0732C11.0086 29.0732 11.0086 29.0732 11.0086 29.0732C11.0086 29.0732 11.0086 29.0732 11.0086 29.0732C11.0086 29.0732 11.0086 29.0732 11.0086 29.0732L11.0086 29.0732C11.0086 29.0732 11.0086 29.0732 11.0086 29.0732C11.0086 29.0732 11.0086 29.0732 11.0086 29.0732C11.0086 29.0732 11.0086 29.0732 11.0086 29.0732C11.0086 29.0732 11.0086 29.0732 11.0086 29.0732L11.0086 29.0732L11.0086 29.0732C11.0086 29.0732 11.0086 29.0732 11.0086 29.0732C11.0086 29.0732 11.0086 29.0732 11.0086 29.0732C11.0086 29.0732 11.0086 29.0732 11.0086 29.0732L11.0086 29.0732L11.0086 29.0732C11.0086 29.0732 11.0086 29.0732 11.0086 29.0732C11.0086 29.0732 11.0086 29.0732 11.0086 29.0732C11.0086 29.0732 11.0086 29.0732 11.0086 29.0732L11.0086 29.0732L11.0086 29.0732C11.0086 29.0732 11.0086 29.0732 11.0086 29.0732C11.0086 29.0732 11.0086 29.0732 11.0086 29.0732C11.0086 29.0732 11.0086 29.0732 11.0086 29.0732C11.0086 29.0732 11.0086 29.0732 11.0086 29.0732L11.0086 29.0732C11.0086 29.0732 11.0086 29.0732 11.0086 29.0732C11.0086 29.0732 11.0086 29.0732 11.0086 29.0732C11.0086 29.0732 11.0086 29.0732 11.0086 29.0732C11.0086 29.0732 11.0086 29.0732 11.0086 29.0732L11.0086 29.0732L11.0086 29.0732C11.0086 29.0732 11.0086 29.0732 11.0086 29.0732C11.0086 29.0732 11.0086 29.0732 11.0086 29.0732C11.0086 29.0732 11.0086 29.0732 11.0086 29.0732L11.0086 29.0732L11.0086 29.0732C11.0086 29.0732 11.0086 29.0732 11.0086 29.0732C11.0086 29.0732 11.0086 29.0732 11.0086 29.0732C11.0086 29.0732 11.0086 29.0732 11.0086 29.0732C11.0086 29.0732 11.0086 29.0732 11.0086 29.0732L11.0086 29.0732L11.0086 29.0732C11.0086 29.0732 11.0086 29.0732 11.0086 29.0732C11.0086 29.0732 11.0086 29.0732 11.0086 29.0732C11.0086 29.0732 11.0086 29.0732 11.0086 29.0732C11.0086 29.0732 11.0086 29.0732 11.0087 29.0732L11.0087 29.0732L11.0087 29.0732C11.0087 29.0732 11.0087 29.0732 11.0087 29.0732C11.0087 29.0732 11.0087 29.0732 11.0087 29.0732C11.0087 29.0732 11.0087 29.0732 11.0087 29.0732C11.0087 29.0732 11.0087 29.0732 11.0087 29.0732L11.0087 29.0732L11.0087 29.0732C11.0087 29.0732 11.0087 29.0732 11.0087 29.0732C11.0087 29.0732 11.0087 29.0732 11.0087 29.0732C11.0087 29.0732 11.0087 29.0732 11.0087 29.0732C11.0087 29.0732 11.0087 29.0732 11.0087 29.0732L11.0087 29.0732L11.0087 29.0732L11.0087 29.0732C11.0087 29.0732 11.0087 29.0732 11.0087 29.0732C11.0087 29.0732 11.0087 29.0732 11.0087 29.0732C11.0087 29.0732 11.0087 29.0732 11.0087 29.0732C11.0087 29.0732 11.0087 29.0732 11.0087 29.0732C11.0087 29.0732 11.0087 29.0732 11.0087 29.0732L11.0087 29.0732L11.2656 28.5797L11.2656 28.5797C11.2656 28.5797 11.2656 28.5797 11.2656 28.5797C11.2656 28.5797 11.2656 28.5797 11.2656 28.5797C11.2656 28.5797 11.2656 28.5797 11.2656 28.5797C11.2656 28.5797 11.2656 28.5797 11.2656 28.5797C11.2656 28.5797 11.2656 28.5797 11.2656 28.5797L11.2656 28.5797L11.2656 28.5797L11.2656 28.5797C11.2656 28.5797 11.2656 28.5797 11.2656 28.5797C11.2656 28.5797 11.2656 28.5797 11.2656 28.5797C11.2656 28.5797 11.2656 28.5797 11.2656 28.5797C11.2656 28.5797 11.2656 28.5797 11.2656 28.5797L11.2656 28.5797L11.2656 28.5797C11.2656 28.5797 11.2656 28.5797 11.2656 28.5797C11.2656 28.5797 11.2656 28.5797 11.2656 28.5797C11.2656 28.5797 11.2656 28.5797 11.2656 28.5797C11.2656 28.5797 11.2656 28.5797 11.2656 28.5797L11.2656 28.5797L11.2656 28.5797C11.2656 28.5797 11.2656 28.5797 11.2656 28.5797C11.2656 28.5797 11.2656 28.5797 11.2656 28.5797C11.2656 28.5797 11.2656 28.5797 11.2656 28.5797C11.2656 28.5797 11.2656 28.5797 11.2656 28.5797L11.2656 28.5797L11.2655 28.5797C11.2655 28.5797 11.2655 28.5797 11.2655 28.5797C11.2655 28.5797 11.2655 28.5797 11.2655 28.5797C11.2655 28.5797 11.2655 28.5797 11.2655 28.5797C11.2655 28.5797 11.2655 28.5797 11.2655 28.5797L11.2655 28.5797L11.2655 28.5797C11.2655 28.5797 11.2655 28.5797 11.2655 28.5797C11.2655 28.5797 11.2655 28.5797 11.2655 28.5797C11.2655 28.5797 11.2655 28.5797 11.2655 28.5797L11.2655 28.5797L11.2655 28.5797C11.2655 28.5797 11.2655 28.5797 11.2655 28.5797C11.2655 28.5797 11.2655 28.5797 11.2655 28.5797C11.2655 28.5797 11.2655 28.5797 11.2655 28.5797C11.2655 28.5797 11.2655 28.5797 11.2655 28.5797L11.2655 28.5797C11.2655 28.5797 11.2655 28.5797 11.2655 28.5797C11.2655 28.5797 11.2655 28.5797 11.2655 28.5797C11.2655 28.5797 11.2655 28.5797 11.2655 28.5797C11.2655 28.5797 11.2655 28.5797 11.2655 28.5797L11.2655 28.5797L11.2655 28.5797C11.2655 28.5797 11.2655 28.5797 11.2655 28.5797C11.2655 28.5797 11.2655 28.5797 11.2655 28.5797C11.2655 28.5797 11.2655 28.5797 11.2655 28.5797L11.2655 28.5797L11.2655 28.5797C11.2655 28.5797 11.2655 28.5797 11.2655 28.5797C11.2655 28.5797 11.2655 28.5797 11.2655 28.5797C11.2655 28.5797 11.2655 28.5797 11.2655 28.5797L11.2655 28.5797L11.2655 28.5797C11.2655 28.5797 11.2655 28.5797 11.2655 28.5797C11.2655 28.5797 11.2655 28.5797 11.2655 28.5797C11.2655 28.5797 11.2655 28.5797 11.2655 28.5797C11.2655 28.5797 11.2655 28.5797 11.2655 28.5797L11.2655 28.5797C11.2655 28.5797 11.2655 28.5797 11.2655 28.5797C11.2655 28.5797 11.2655 28.5797 11.2655 28.5797C11.2655 28.5797 11.2655 28.5797 11.2655 28.5797C11.2655 28.5797 11.2655 28.5797 11.2655 28.5797L11.2655 28.5797L11.2655 28.5797C11.2655 28.5797 11.2655 28.5797 11.2655 28.5797C11.2655 28.5797 11.2655 28.5797 11.2655 28.5797C11.2655 28.5797 11.2655 28.5797 11.2655 28.5797L11.2655 28.5797L11.2655 28.5797C11.2655 28.5797 11.2655 28.5797 11.2655 28.5797C11.2655 28.5797 11.2655 28.5797 11.2655 28.5797C11.2655 28.5797 11.2655 28.5797 11.2655 28.5797C11.2655 28.5797 11.2655 28.5797 11.2655 28.5797L11.2655 28.5797L11.2655 28.5797C11.2655 28.5797 11.2655 28.5797 11.2655 28.5797C11.2655 28.5797 11.2655 28.5797 11.2655 28.5797C11.2655 28.5797 11.2655 28.5797 11.2655 28.5797C11.2655 28.5797 11.2655 28.5797 11.2655 28.5797L11.2655 28.5797L11.2655 28.5797C11.2655 28.5797 11.2655 28.5797 11.2655 28.5797C11.2655 28.5797 11.2655 28.5797 11.2655 28.5797C11.2655 28.5797 11.2655 28.5797 11.2655 28.5797C11.2655 28.5797 11.2655 28.5797 11.2655 28.5797L11.2655 28.5797L11.2655 28.5797C11.2655 28.5797 11.2655 28.5797 11.2655 28.5797C11.2655 28.5797 11.2655 28.5797 11.2655 28.5797C11.2655 28.5797 11.2655 28.5797 11.2655 28.5797C11.2655 28.5797 11.2655 28.5797 11.2655 28.5797L11.2655 28.5797L11.2655 28.5797L11.2655 28.5797C11.2655 28.5797 11.2655 28.5797 11.2655 28.5797C11.2655 28.5797 11.2655 28.5797 11.2655 28.5797C11.2655 28.5797 11.2655 28.5797 11.2655 28.5797C11.2655 28.5797 11.2655 28.5797 11.2655 28.5797C11.2655 28.5797 11.2655 28.5797 11.2655 28.5796L11.2655 28.5796L11.0086 29.0732ZM11.0087 29.0732C11.9853 29.5816 12.3649 30.7854 11.8566 31.7621L12.3501 32.0189C13.0003 30.7697 12.5147 29.23 11.2656 28.5797L11.0087 29.0732ZM14.9872 33.0781L12.2318 31.6438L11.9749 32.1373L14.7303 33.5717L14.9872 33.0781ZM18.0513 32.1121C16.8022 31.4619 15.2624 31.9473 14.612 33.1964L15.1055 33.4534C15.614 32.4768 16.8178 32.0972 17.7944 32.6056L18.0513 32.1121ZM19.1358 35.5514C19.786 34.3022 19.3005 32.7624 18.0513 32.1121L17.7944 32.6056C18.7711 33.114 19.1506 34.3179 18.6423 35.2945L19.1358 35.5514ZM21.773 36.6106L19.0175 35.1762L18.7606 35.6697L21.5161 37.1041L21.773 36.6106ZM24.837 35.6445C23.5878 34.9943 22.0481 35.4798 21.3978 36.7289L21.8913 36.9858C22.3997 36.0093 23.6035 35.6297 24.5801 36.138L24.837 35.6445Z"
                fill="url(#paint1_linear_4501_78240)" mask="url(#path-1-inside-1_4501_78240)" />
            <path
                d="M29.071 21.7948C30.3489 19.0277 29.2869 15.6561 26.6123 14.0064C24.8189 12.9001 22.7384 12.7795 20.9806 13.4579C20.8859 13.4943 20.8917 13.6288 20.9904 13.6617C21.4313 13.8054 21.8698 13.9902 22.3019 14.2152C23.7296 14.9584 24.8379 16.0133 25.4901 17.2663C25.9785 17.1241 26.4307 16.8652 26.7745 16.5109C26.847 16.4357 26.975 16.5023 26.955 16.6049C26.7706 17.5625 27.1315 18.6475 27.8614 19.3317C27.9392 19.4047 27.8747 19.5287 27.7702 19.5068C27.2311 19.3935 26.657 19.4433 26.1367 19.6254C26.1367 19.6254 26.1363 19.6263 26.1358 19.6271C26.192 20.7219 25.9412 21.8926 25.3175 23.0908C24.8988 23.895 24.3954 24.554 23.8299 25.0775C23.7552 25.1462 23.8133 25.272 23.9162 25.2648C26.0843 25.1334 28.1028 23.888 29.0693 21.7939L29.071 21.7948Z"
                fill="white" />
            <path
                d="M25.4905 17.2672C25.0148 17.4063 24.5029 17.4353 24.0186 17.3341C23.9664 17.3232 23.9245 17.3481 23.9053 17.3849C23.8862 17.4216 23.8899 17.4702 23.9288 17.5068C24.6583 18.1918 25.0196 19.2759 24.8352 20.2336C24.8152 20.3361 24.9432 20.4028 25.0157 20.3276C25.321 20.0129 25.7107 19.7736 26.1367 19.625C26.093 18.7866 25.8693 17.9945 25.4905 17.2672Z"
                fill="white" />
            <path opacity="0.5" fill-rule="evenodd" clip-rule="evenodd"
                d="M24.8147 9.07932L33.0398 13.3611C33.7212 13.7158 33.986 14.5557 33.6313 15.2371L26.6521 28.6441L15.9594 23.0778L22.9386 9.67083C23.2933 8.98944 24.1333 8.72461 24.8147 9.07932ZM33.2539 12.9498L25.0287 8.66806C24.1202 8.19511 23.0003 8.54822 22.5274 9.45674L15.5481 22.8637L15.5036 22.9492L15.5035 22.9491L15.2894 23.3604L14.0495 25.7423C13.5765 26.6509 13.9296 27.7708 14.8381 28.2437L23.0633 32.5255C23.9718 32.9984 25.0917 32.6453 25.5647 31.7368L26.8046 29.3548L26.8491 29.2694L26.8492 29.2694L27.0633 28.8582L34.0426 15.4512C34.5155 14.5427 34.1624 13.4228 33.2539 12.9498ZM23.2774 32.1142L15.0522 27.8325C14.3708 27.4778 14.106 26.6378 14.4607 25.9564L15.7007 23.5745L26.3934 29.1407L25.1534 31.5227C24.7987 32.2041 23.9588 32.4689 23.2774 32.1142Z"
                fill="url(#paint2_linear_4501_78240)" />
            <path
                d="M15.1521 26.3757C15.242 26.2694 15.3618 26.0772 15.4509 25.9061L15.6473 25.5289C15.7364 25.3577 15.8251 25.1494 15.8606 25.0146L16.4692 25.3315L16.4076 25.9815C16.3979 26.0951 16.3919 26.1636 16.3572 26.3062L16.3786 26.3173C16.4666 26.2099 16.5143 26.1705 16.6118 26.0878L17.1109 25.6655L17.7097 25.9773C17.6198 26.0836 17.498 26.2748 17.4089 26.4459L17.2126 26.8231C17.1235 26.9942 17.0367 27.2036 17.0012 27.3383L16.4684 27.061C16.5584 26.9546 16.6802 26.7635 16.7692 26.5923L16.9373 26.2696L16.9139 26.2574L16.1379 26.8889L16.0095 26.8221L16.0817 25.8242L16.0642 25.8151L15.8962 26.1379C15.8071 26.309 15.7184 26.5173 15.6848 26.6531L15.1521 26.3757ZM17.0588 27.3684C17.1799 27.2782 17.3542 27.1143 17.4919 26.9685L17.8224 26.6611C17.9571 26.5163 18.0916 26.3292 18.1582 26.2107L18.9515 26.6237C18.8926 26.7512 18.8155 26.9705 18.7752 27.1571L18.713 27.6042C18.6716 27.7976 18.6382 28.0373 18.6319 28.1872L18.0991 27.9099C18.1366 27.833 18.1719 27.7179 18.2053 27.592L18.211 27.543L17.8279 27.3436L17.7921 27.3793C17.7061 27.4779 17.632 27.5728 17.5936 27.6467L17.0588 27.3684ZM17.9758 27.1735L18.2675 27.3253L18.2961 27.0709C18.3114 26.975 18.3352 26.9009 18.3661 26.8083L18.3408 26.7951C18.2777 26.8784 18.2406 26.9307 18.1678 27.0041L17.9758 27.1735ZM19.8799 28.874C19.4172 28.6331 19.9119 28.1146 19.5658 27.9345C19.5425 27.9223 19.4957 27.9029 19.4772 27.9007L19.4357 27.9804C19.3466 28.1515 19.2598 28.3609 19.2243 28.4956L18.6915 28.2183C18.7815 28.1119 18.9033 27.9207 18.9923 27.7496L19.1887 27.3724C19.2778 27.2013 19.3645 26.9919 19.4001 26.8572L20.2264 27.2874C20.5239 27.4422 20.6965 27.6804 20.5761 27.9117C20.4526 28.149 20.1634 28.1491 19.8717 27.9973L19.8542 27.9882L19.8481 27.9999L19.852 28.0019C20.0192 28.0889 19.9781 28.2677 20.12 28.3416C20.262 28.4155 20.3873 28.3646 20.4858 28.2799L20.1879 28.8663C20.1135 28.919 19.9791 28.9256 19.8799 28.874ZM19.5531 27.7548L19.8039 27.8854C19.905 27.938 19.9914 27.9336 20.0298 27.8597C20.0653 27.7916 20.0214 27.7144 19.93 27.6669L19.6695 27.5312L19.5531 27.7548ZM21.4144 29.6703C20.8875 29.396 21.5612 28.8472 21.1976 28.6579C21.1646 28.6407 21.1138 28.6242 21.0923 28.6228L21.0022 28.7959C20.9131 28.967 20.8244 29.1754 20.7908 29.3111L20.2581 29.0338C20.348 28.9274 20.4698 28.7362 20.5589 28.5651L20.7552 28.1879C20.8443 28.0168 20.9311 27.8074 20.9666 27.6727L21.4994 27.95C21.4135 28.0486 21.3018 28.2203 21.2148 28.3876L21.1753 28.4634L21.2861 28.5211C21.4456 28.6041 21.5857 28.5485 21.6849 28.358C21.7315 28.2685 21.7487 28.1737 21.7405 28.0755L22.2402 28.3357C22.2387 28.4288 22.2227 28.507 22.164 28.6197C22.0152 28.9056 21.8254 28.8809 21.4423 28.6815L21.3257 28.6208L21.3145 28.6422L21.3379 28.6543C21.5868 28.7839 21.5243 29.0083 21.709 29.1045C21.8373 29.1713 21.922 29.1511 22.0183 29.0752L21.7226 29.6528C21.6501 29.7114 21.5117 29.7209 21.4144 29.6703ZM21.7885 29.8305C21.8766 29.7231 22.0003 29.5329 22.0894 29.3618L22.2857 28.9846C22.3748 28.8135 22.4596 28.6031 22.4971 28.4694L23.6404 29.0646L23.4484 29.5948C23.4221 29.5267 23.3427 29.4656 23.1521 29.3664L22.7554 29.1599L22.6724 29.3194L22.9855 29.4823C23.0769 29.5299 23.1654 29.5735 23.2287 29.5991L23.1245 29.7993C23.0682 29.7602 22.9828 29.7107 22.8914 29.6632L22.5783 29.5002L22.5014 29.648L22.8436 29.8261C23.1508 29.9861 23.2547 29.9907 23.3205 29.9829L22.9863 30.454L21.7885 29.8305ZM23.5585 30.7519C23.6485 30.6455 23.7703 30.4543 23.8593 30.2832L24.079 29.8613L23.8981 29.7671C23.799 29.7155 23.7092 29.6886 23.6022 29.6947L23.9423 29.2217L25.1129 29.8311L24.9206 30.3809C24.8689 30.2997 24.7848 30.2287 24.6915 30.1801L24.5223 30.0921L24.3027 30.514C24.2136 30.6851 24.1268 30.8945 24.0913 31.0292L23.5585 30.7519Z"
                fill="white" />
            <path fill-rule="evenodd" clip-rule="evenodd"
                d="M24.7085 35.8913L36.9543 12.3674C35.8414 11.788 35.4089 10.4161 35.9883 9.3032L35.9883 9.30306L33.2329 7.86867L33.2328 7.86882C32.6535 8.98176 31.2816 9.41431 30.1686 8.83495C29.0557 8.25559 28.6231 6.8837 29.2025 5.77076L29.2026 5.77062L26.4471 4.33624L26.4471 4.33637C25.8677 5.44932 24.4958 5.88187 23.3829 5.30251L23.3828 5.30247L11.137 28.8264C11.137 28.8264 11.1371 28.8264 11.1371 28.8264C12.25 29.4058 12.6825 30.7776 12.1033 31.8905L14.8587 33.3249C15.4381 32.212 16.8099 31.7796 17.9228 32.3589C19.0357 32.9382 19.4683 34.31 18.8891 35.4229L21.6445 36.8573C22.2239 35.7445 23.5956 35.312 24.7085 35.8913Z"
                fill="#0D0D0D" fill-opacity="0.71" />
        </g>
        <mask id="mask0_4501_78240" style="mask-type:alpha" maskUnits="userSpaceOnUse" x="10" y="4"
            width="29" height="33">
            <path fill-rule="evenodd" clip-rule="evenodd"
                d="M22.4139 35.8178L38.0402 14.3899C37.0265 13.6506 36.804 12.2295 37.5433 11.2158L37.5434 11.2156L35.0335 9.38528L35.0334 9.38542C34.2941 10.3992 32.8729 10.6217 31.8591 9.8824C30.8454 9.14311 30.6229 7.72196 31.3622 6.70818L31.3623 6.70804L28.8524 4.87769L28.8523 4.87783C28.113 5.8916 26.6918 6.11411 25.678 5.37481L25.678 5.37476L10.0516 26.8026C10.0517 26.8026 10.0517 26.8027 10.0517 26.8027C11.0654 27.5419 11.288 28.963 10.5488 29.9767L13.0587 31.8071C13.798 30.7935 15.2191 30.571 16.2328 31.3103C17.2465 32.0495 17.4691 33.4706 16.7299 34.4843L19.2398 36.3147C19.9791 35.3011 21.4001 35.0786 22.4139 35.8178Z"
                fill="#0D0D0D" />
        </mask>
        <g mask="url(#mask0_4501_78240)">
            <rect x="17.5127" y="-1.38916" width="19.0337" height="35.2341"
                transform="rotate(21.9476 17.5127 -1.38916)" fill="#150101" fill-opacity="0.31" />
        </g>
        <g filter="url(#filter0_f_4501_78240)">
            <mask id="path-10-inside-2_4501_78240" fill="white">
                <path fill-rule="evenodd" clip-rule="evenodd"
                    d="M27.9574 32.6844L31.4008 9.03487C29.7582 8.79569 28.5588 7.69479 28.7217 6.57593L28.7217 6.57576L24.655 5.98364L24.6549 5.98383C24.492 7.10271 23.0284 7.81587 21.3858 7.5767C19.7432 7.33754 18.5436 6.23663 18.7065 5.11774L18.7066 5.11756L14.6398 4.52544L14.6398 4.52562C14.4769 5.64451 13.0132 6.35766 11.3706 6.1185L11.3705 6.11848L7.92716 29.7679C7.92719 29.7679 7.92723 29.7679 7.92727 29.7679C9.5698 30.0071 10.7693 31.1079 10.6065 32.2268L14.6733 32.8189C14.8363 31.7001 16.2999 30.987 17.9424 31.2261C19.585 31.4653 20.7845 32.5661 20.6217 33.685L24.6883 34.2771C24.8514 33.1583 26.3149 32.4452 27.9574 32.6844Z" />
            </mask>
            <path fill-rule="evenodd" clip-rule="evenodd"
                d="M27.9574 32.6844L31.4008 9.03487C29.7582 8.79569 28.5588 7.69479 28.7217 6.57593L28.7217 6.57576L24.655 5.98364L24.6549 5.98383C24.492 7.10271 23.0284 7.81587 21.3858 7.5767C19.7432 7.33754 18.5436 6.23663 18.7065 5.11774L18.7066 5.11756L14.6398 4.52544L14.6398 4.52562C14.4769 5.64451 13.0132 6.35766 11.3706 6.1185L11.3705 6.11848L7.92716 29.7679C7.92719 29.7679 7.92723 29.7679 7.92727 29.7679C9.5698 30.0071 10.7693 31.1079 10.6065 32.2268L14.6733 32.8189C14.8363 31.7001 16.2999 30.987 17.9424 31.2261C19.585 31.4653 20.7845 32.5661 20.6217 33.685L24.6883 34.2771C24.8514 33.1583 26.3149 32.4452 27.9574 32.6844Z"
                fill="url(#paint3_linear_4501_78240)" />
            <path
                d="M31.4008 9.03487L31.6847 9.07621L31.7261 8.7923L31.4421 8.75096L31.4008 9.03487ZM27.9574 32.6844L27.9161 32.9683L28.2 33.0096L28.2414 32.7257L27.9574 32.6844ZM28.7217 6.57576L29.0056 6.6171L29.0469 6.33318L28.763 6.29185L28.7217 6.57576ZM24.655 5.98364L24.6963 5.69973L24.4124 5.65839L24.371 5.94231L24.655 5.98364ZM24.6549 5.98383L24.9388 6.02517L24.6549 5.98383ZM18.7066 5.11756L18.9905 5.1589L19.0318 4.87498L18.7479 4.83365L18.7066 5.11756ZM14.6398 4.52544L14.6812 4.24153L14.3973 4.20019L14.3559 4.4841L14.6398 4.52544ZM11.3705 6.11848L11.4119 5.83457L11.1279 5.79323L11.0866 6.07714L11.3705 6.11848ZM7.92716 29.7679L7.64324 29.7266L7.60191 30.0105L7.88582 30.0518L7.92716 29.7679ZM10.6065 32.2268L10.3226 32.1854L10.2813 32.4693L10.5652 32.5107L10.6065 32.2268ZM14.6733 32.8189L14.6319 33.1028L14.9158 33.1441L14.9572 32.8602L14.6733 32.8189ZM20.6217 33.685L20.3378 33.6437L20.2965 33.9275L20.5803 33.9689L20.6217 33.685ZM24.6883 34.2771L24.647 34.561L24.9309 34.6023L24.9722 34.3184L24.6883 34.2771ZM31.1169 8.99354L27.6735 32.643L28.2414 32.7257L31.6847 9.07621L31.1169 8.99354ZM28.4378 6.53459C28.3386 7.21564 28.6589 7.85907 29.1902 8.34665C29.7227 8.83544 30.4887 9.19199 31.3595 9.31879L31.4421 8.75096C30.6703 8.63857 30.0153 8.32507 29.5782 7.9239C29.1398 7.52153 28.9418 7.05508 29.0056 6.61726L28.4378 6.53459ZM28.4378 6.53442L28.4378 6.53459L29.0056 6.61726L29.0056 6.6171L28.4378 6.53442ZM24.6136 6.26756L28.6804 6.85967L28.763 6.29185L24.6963 5.69973L24.6136 6.26756ZM24.9388 6.02517L24.9389 6.02498L24.371 5.94231L24.371 5.94249L24.9388 6.02517ZM21.3444 7.86062C22.2152 7.9874 23.0511 7.86408 23.7009 7.54745C24.3491 7.2316 24.8397 6.70623 24.9388 6.02517L24.371 5.94249C24.3073 6.38031 23.9845 6.77096 23.4496 7.03161C22.9162 7.29149 22.1989 7.40517 21.4271 7.29279L21.3444 7.86062ZM18.4226 5.0764C18.3235 5.75747 18.6438 6.40091 19.1751 6.88849C19.7077 7.37729 20.4736 7.73383 21.3444 7.86062L21.4271 7.29279C20.6553 7.18041 20.0002 6.86692 19.5631 6.46574C19.1247 6.06336 18.9267 5.5969 18.9905 5.15908L18.4226 5.0764ZM18.4227 5.07622L18.4226 5.0764L18.9905 5.15908L18.9905 5.1589L18.4227 5.07622ZM14.5985 4.80936L18.6652 5.40147L18.7479 4.83365L14.6812 4.24153L14.5985 4.80936ZM14.9237 4.56696L14.9238 4.56678L14.3559 4.4841L14.3559 4.48429L14.9237 4.56696ZM11.3293 6.40241C12.2001 6.5292 13.0359 6.40588 13.6858 6.08925C14.334 5.7734 14.8246 5.24802 14.9237 4.56696L14.3559 4.48429C14.2922 4.92211 13.9694 5.31275 13.4344 5.57341C12.9011 5.83328 12.1838 5.94696 11.412 5.83459L11.3293 6.40241ZM11.3292 6.40239L11.3293 6.40241L11.412 5.83459L11.4119 5.83457L11.3292 6.40239ZM8.21107 29.8093L11.6544 6.15982L11.0866 6.07714L7.64324 29.7266L8.21107 29.8093ZM7.88582 30.0518C7.88584 30.0518 7.88586 30.0518 7.88588 30.0518C7.88589 30.0518 7.88591 30.0518 7.88593 30.0518L7.96861 29.484C7.96859 29.484 7.96857 29.484 7.96855 29.484C7.96853 29.484 7.96851 29.484 7.96849 29.484L7.88582 30.0518ZM7.88593 30.0518C8.65772 30.1642 9.31278 30.4777 9.7499 30.8788C10.1883 31.2812 10.3863 31.7476 10.3226 32.1854L10.8904 32.2681C10.9895 31.587 10.6691 30.9436 10.1379 30.4561C9.60531 29.9673 8.83935 29.6108 7.96861 29.484L7.88593 30.0518ZM14.7146 32.535L10.6478 31.9428L10.5652 32.5107L14.6319 33.1028L14.7146 32.535ZM17.9838 30.9422C17.113 30.8154 16.2772 30.9387 15.6274 31.2553C14.9791 31.5712 14.4886 32.0965 14.3894 32.7775L14.9572 32.8602C15.021 32.4225 15.3437 32.0318 15.8787 31.7712C16.4121 31.5113 17.1293 31.3977 17.9011 31.5101L17.9838 30.9422ZM20.9056 33.7263C21.0047 33.0452 20.6843 32.4018 20.153 31.9143C19.6205 31.4255 18.8545 31.069 17.9838 30.9422L17.9011 31.5101C18.6729 31.6224 19.328 31.9359 19.7651 32.337C20.2035 32.7394 20.4015 33.2058 20.3378 33.6437L20.9056 33.7263ZM24.7297 33.9932L20.663 33.4011L20.5803 33.9689L24.647 34.561L24.7297 33.9932ZM27.9988 32.4004C27.128 32.2737 26.2922 32.397 25.6424 32.7136C24.9942 33.0294 24.5037 33.5547 24.4044 34.2357L24.9722 34.3184C25.036 33.8807 25.3588 33.49 25.8937 33.2294C26.4271 32.9696 27.1443 32.8559 27.9161 32.9683L27.9988 32.4004Z"
                fill="url(#paint4_linear_4501_78240)" mask="url(#path-10-inside-2_4501_78240)" />
            <path
                d="M31.4008 9.03487L31.6847 9.07621L31.7261 8.7923L31.4421 8.75096L31.4008 9.03487ZM27.9574 32.6844L27.9161 32.9683L28.2 33.0096L28.2414 32.7257L27.9574 32.6844ZM28.7217 6.57576L29.0056 6.6171L29.0469 6.33318L28.763 6.29185L28.7217 6.57576ZM24.655 5.98364L24.6963 5.69973L24.4124 5.65839L24.371 5.94231L24.655 5.98364ZM24.6549 5.98383L24.9388 6.02517L24.6549 5.98383ZM18.7066 5.11756L18.9905 5.1589L19.0318 4.87498L18.7479 4.83365L18.7066 5.11756ZM14.6398 4.52544L14.6812 4.24153L14.3973 4.20019L14.3559 4.4841L14.6398 4.52544ZM11.3705 6.11848L11.4119 5.83457L11.1279 5.79323L11.0866 6.07714L11.3705 6.11848ZM7.92716 29.7679L7.64324 29.7266L7.60191 30.0105L7.88582 30.0518L7.92716 29.7679ZM10.6065 32.2268L10.3226 32.1854L10.2813 32.4693L10.5652 32.5107L10.6065 32.2268ZM14.6733 32.8189L14.6319 33.1028L14.9158 33.1441L14.9572 32.8602L14.6733 32.8189ZM20.6217 33.685L20.3378 33.6437L20.2965 33.9275L20.5803 33.9689L20.6217 33.685ZM24.6883 34.2771L24.647 34.561L24.9309 34.6023L24.9722 34.3184L24.6883 34.2771ZM31.1169 8.99354L27.6735 32.643L28.2414 32.7257L31.6847 9.07621L31.1169 8.99354ZM28.4378 6.53459C28.3386 7.21564 28.6589 7.85907 29.1902 8.34665C29.7227 8.83544 30.4887 9.19199 31.3595 9.31879L31.4421 8.75096C30.6703 8.63857 30.0153 8.32507 29.5782 7.9239C29.1398 7.52153 28.9418 7.05508 29.0056 6.61726L28.4378 6.53459ZM28.4378 6.53442L28.4378 6.53459L29.0056 6.61726L29.0056 6.6171L28.4378 6.53442ZM24.6136 6.26756L28.6804 6.85967L28.763 6.29185L24.6963 5.69973L24.6136 6.26756ZM24.9388 6.02517L24.9389 6.02498L24.371 5.94231L24.371 5.94249L24.9388 6.02517ZM21.3444 7.86062C22.2152 7.9874 23.0511 7.86408 23.7009 7.54745C24.3491 7.2316 24.8397 6.70623 24.9388 6.02517L24.371 5.94249C24.3073 6.38031 23.9845 6.77096 23.4496 7.03161C22.9162 7.29149 22.1989 7.40517 21.4271 7.29279L21.3444 7.86062ZM18.4226 5.0764C18.3235 5.75747 18.6438 6.40091 19.1751 6.88849C19.7077 7.37729 20.4736 7.73383 21.3444 7.86062L21.4271 7.29279C20.6553 7.18041 20.0002 6.86692 19.5631 6.46574C19.1247 6.06336 18.9267 5.5969 18.9905 5.15908L18.4226 5.0764ZM18.4227 5.07622L18.4226 5.0764L18.9905 5.15908L18.9905 5.1589L18.4227 5.07622ZM14.5985 4.80936L18.6652 5.40147L18.7479 4.83365L14.6812 4.24153L14.5985 4.80936ZM14.9237 4.56696L14.9238 4.56678L14.3559 4.4841L14.3559 4.48429L14.9237 4.56696ZM11.3293 6.40241C12.2001 6.5292 13.0359 6.40588 13.6858 6.08925C14.334 5.7734 14.8246 5.24802 14.9237 4.56696L14.3559 4.48429C14.2922 4.92211 13.9694 5.31275 13.4344 5.57341C12.9011 5.83328 12.1838 5.94696 11.412 5.83459L11.3293 6.40241ZM11.3292 6.40239L11.3293 6.40241L11.412 5.83459L11.4119 5.83457L11.3292 6.40239ZM8.21107 29.8093L11.6544 6.15982L11.0866 6.07714L7.64324 29.7266L8.21107 29.8093ZM7.88582 30.0518C7.88584 30.0518 7.88586 30.0518 7.88588 30.0518C7.88589 30.0518 7.88591 30.0518 7.88593 30.0518L7.96861 29.484C7.96859 29.484 7.96857 29.484 7.96855 29.484C7.96853 29.484 7.96851 29.484 7.96849 29.484L7.88582 30.0518ZM7.88593 30.0518C8.65772 30.1642 9.31278 30.4777 9.7499 30.8788C10.1883 31.2812 10.3863 31.7476 10.3226 32.1854L10.8904 32.2681C10.9895 31.587 10.6691 30.9436 10.1379 30.4561C9.60531 29.9673 8.83935 29.6108 7.96861 29.484L7.88593 30.0518ZM14.7146 32.535L10.6478 31.9428L10.5652 32.5107L14.6319 33.1028L14.7146 32.535ZM17.9838 30.9422C17.113 30.8154 16.2772 30.9387 15.6274 31.2553C14.9791 31.5712 14.4886 32.0965 14.3894 32.7775L14.9572 32.8602C15.021 32.4225 15.3437 32.0318 15.8787 31.7712C16.4121 31.5113 17.1293 31.3977 17.9011 31.5101L17.9838 30.9422ZM20.9056 33.7263C21.0047 33.0452 20.6843 32.4018 20.153 31.9143C19.6205 31.4255 18.8545 31.069 17.9838 30.9422L17.9011 31.5101C18.6729 31.6224 19.328 31.9359 19.7651 32.337C20.2035 32.7394 20.4015 33.2058 20.3378 33.6437L20.9056 33.7263ZM24.7297 33.9932L20.663 33.4011L20.5803 33.9689L24.647 34.561L24.7297 33.9932ZM27.9988 32.4004C27.128 32.2737 26.2922 32.397 25.6424 32.7136C24.9942 33.0294 24.5037 33.5547 24.4044 34.2357L24.9722 34.3184C25.036 33.8807 25.3588 33.49 25.8937 33.2294C26.4271 32.9696 27.1443 32.8559 27.9161 32.9683L27.9988 32.4004Z"
                fill="url(#paint5_linear_4501_78240)" mask="url(#path-10-inside-2_4501_78240)" />
        </g>
        <mask id="path-12-inside-3_4501_78240" fill="white">
            <path fill-rule="evenodd" clip-rule="evenodd"
                d="M27.7173 33.3606C26.3965 33.3606 25.3258 34.4313 25.3257 35.752L22.0557 35.752C22.0556 34.4313 20.9849 33.3606 19.6641 33.3606C18.3433 33.3606 17.2726 34.4313 17.2726 35.752L14.0025 35.752C14.0024 34.4313 12.9317 33.3606 11.6109 33.3606L11.6109 5.44295C12.9317 5.44295 14.0025 4.37222 14.0025 3.05141L14.0025 3.05127L17.2726 3.05127L17.2726 3.05139C17.2726 4.37221 18.3433 5.44294 19.6641 5.44294C20.9849 5.44294 22.0557 4.37221 22.0557 3.05139L22.0557 3.05127L25.3257 3.05127L25.3257 3.0514C25.3257 4.37221 26.3965 5.44294 27.7173 5.44295L27.7173 33.3606Z" />
        </mask>
        <path fill-rule="evenodd" clip-rule="evenodd"
            d="M27.7173 33.3606C26.3965 33.3606 25.3258 34.4313 25.3257 35.752L22.0557 35.752C22.0556 34.4313 20.9849 33.3606 19.6641 33.3606C18.3433 33.3606 17.2726 34.4313 17.2726 35.752L14.0025 35.752C14.0024 34.4313 12.9317 33.3606 11.6109 33.3606L11.6109 5.44295C12.9317 5.44295 14.0025 4.37222 14.0025 3.05141L14.0025 3.05127L17.2726 3.05127L17.2726 3.05139C17.2726 4.37221 18.3433 5.44294 19.6641 5.44294C20.9849 5.44294 22.0557 4.37221 22.0557 3.05139L22.0557 3.05127L25.3257 3.05127L25.3257 3.0514C25.3257 4.37221 26.3965 5.44294 27.7173 5.44295L27.7173 33.3606Z"
            fill="url(#paint6_radial_4501_78240)" />
        <path
            d="M25.3257 35.752L25.3257 36.0449L25.6185 36.0449L25.6186 35.7521L25.3257 35.752ZM27.7173 33.3606L27.7173 33.6535L28.0101 33.6535L28.0101 33.3606L27.7173 33.3606ZM22.0557 35.752L21.7628 35.7521L21.7628 36.0449L22.0557 36.0449L22.0557 35.752ZM17.2726 35.752L17.2726 36.0449L17.5654 36.0449L17.5654 35.7521L17.2726 35.752ZM14.0025 35.752L13.7096 35.7521L13.7096 36.0449L14.0025 36.0449L14.0025 35.752ZM11.6109 33.3606L11.3181 33.3606L11.3181 33.6535L11.6109 33.6535L11.6109 33.3606ZM11.6109 5.44295L11.6109 5.15011L11.3181 5.15011L11.3181 5.44295L11.6109 5.44295ZM14.0025 3.05127L14.0025 2.75843L13.7096 2.75843L13.7096 3.05127L14.0025 3.05127ZM17.2726 3.05127L17.5654 3.05127L17.5654 2.75843L17.2726 2.75843L17.2726 3.05127ZM22.0557 3.05127L22.0557 2.75843L21.7628 2.75843L21.7628 3.05127L22.0557 3.05127ZM25.3257 3.05127L25.6186 3.05127L25.6186 2.75843L25.3257 2.75843L25.3257 3.05127ZM25.3257 3.0514L25.6186 3.0514L25.3257 3.0514ZM27.7173 5.44295L28.0101 5.44295L28.0101 5.1501L27.7173 5.1501L27.7173 5.44295ZM25.6186 35.7521C25.6186 34.593 26.5582 33.6535 27.7173 33.6535L27.7173 33.0678C26.2348 33.0678 25.033 34.2695 25.0329 35.752L25.6186 35.7521ZM22.0557 36.0449L25.3257 36.0449L25.3257 35.4592L22.0557 35.4592L22.0557 36.0449ZM19.6641 33.6535C20.8232 33.6535 21.7628 34.593 21.7628 35.7521L22.3485 35.752C22.3484 34.2695 21.1466 33.0678 19.6641 33.0678L19.6641 33.6535ZM17.5654 35.7521C17.5655 34.593 18.5051 33.6535 19.6641 33.6535L19.6641 33.0678C18.1816 33.0678 16.9798 34.2695 16.9797 35.752L17.5654 35.7521ZM14.0025 36.0449L17.2726 36.0449L17.2726 35.4592L14.0025 35.4592L14.0025 36.0449ZM11.6109 33.6535C12.77 33.6535 13.7096 34.593 13.7096 35.7521L14.2953 35.752C14.2952 34.2695 13.0934 33.0678 11.6109 33.0678L11.6109 33.6535ZM11.3181 5.44295L11.3181 33.3606L11.9038 33.3606L11.9038 5.44295L11.3181 5.44295ZM13.7096 3.05141C13.7096 4.21049 12.77 5.15011 11.6109 5.15011L11.6109 5.7358C13.0935 5.7358 14.2953 4.53395 14.2953 3.05141L13.7096 3.05141ZM13.7096 3.05127L13.7096 3.05141L14.2953 3.05141L14.2953 3.05127L13.7096 3.05127ZM17.2726 2.75843L14.0025 2.75843L14.0025 3.34411L17.2726 3.34411L17.2726 2.75843ZM17.5654 3.05139L17.5654 3.05127L16.9797 3.05127L16.9797 3.05139L17.5654 3.05139ZM19.6641 5.1501C18.505 5.1501 17.5654 4.21047 17.5654 3.05139L16.9797 3.05139C16.9797 4.53394 18.1816 5.73578 19.6641 5.73578L19.6641 5.1501ZM21.7628 3.05139C21.7628 4.21047 20.8232 5.1501 19.6641 5.1501L19.6641 5.73578C21.1467 5.73578 22.3485 4.53394 22.3485 3.05139L21.7628 3.05139ZM21.7628 3.05127L21.7628 3.05139L22.3485 3.05139L22.3485 3.05127L21.7628 3.05127ZM25.3257 2.75843L22.0557 2.75843L22.0557 3.34411L25.3257 3.34411L25.3257 2.75843ZM25.6186 3.0514L25.6186 3.05127L25.0329 3.05127L25.0329 3.0514L25.6186 3.0514ZM27.7173 5.1501C26.5582 5.1501 25.6186 4.21048 25.6186 3.0514L25.0329 3.0514C25.0329 4.53394 26.2347 5.73579 27.7173 5.73579L27.7173 5.1501ZM28.0101 33.3606L28.0101 5.44295L27.4244 5.44294L27.4244 33.3606L28.0101 33.3606Z"
            fill="url(#paint7_linear_4501_78240)" fill-opacity="0.58"
            mask="url(#path-12-inside-3_4501_78240)" />
        <path
            d="M25.3257 35.752L25.3257 36.0449L25.6185 36.0449L25.6186 35.7521L25.3257 35.752ZM27.7173 33.3606L27.7173 33.6535L28.0101 33.6535L28.0101 33.3606L27.7173 33.3606ZM22.0557 35.752L21.7628 35.7521L21.7628 36.0449L22.0557 36.0449L22.0557 35.752ZM17.2726 35.752L17.2726 36.0449L17.5654 36.0449L17.5654 35.7521L17.2726 35.752ZM14.0025 35.752L13.7096 35.7521L13.7096 36.0449L14.0025 36.0449L14.0025 35.752ZM11.6109 33.3606L11.3181 33.3606L11.3181 33.6535L11.6109 33.6535L11.6109 33.3606ZM11.6109 5.44295L11.6109 5.15011L11.3181 5.15011L11.3181 5.44295L11.6109 5.44295ZM14.0025 3.05127L14.0025 2.75843L13.7096 2.75843L13.7096 3.05127L14.0025 3.05127ZM17.2726 3.05127L17.5654 3.05127L17.5654 2.75843L17.2726 2.75843L17.2726 3.05127ZM22.0557 3.05127L22.0557 2.75843L21.7628 2.75843L21.7628 3.05127L22.0557 3.05127ZM25.3257 3.05127L25.6186 3.05127L25.6186 2.75843L25.3257 2.75843L25.3257 3.05127ZM25.3257 3.0514L25.6186 3.0514L25.3257 3.0514ZM27.7173 5.44295L28.0101 5.44295L28.0101 5.1501L27.7173 5.1501L27.7173 5.44295ZM25.6186 35.7521C25.6186 34.593 26.5582 33.6535 27.7173 33.6535L27.7173 33.0678C26.2348 33.0678 25.033 34.2695 25.0329 35.752L25.6186 35.7521ZM22.0557 36.0449L25.3257 36.0449L25.3257 35.4592L22.0557 35.4592L22.0557 36.0449ZM19.6641 33.6535C20.8232 33.6535 21.7628 34.593 21.7628 35.7521L22.3485 35.752C22.3484 34.2695 21.1466 33.0678 19.6641 33.0678L19.6641 33.6535ZM17.5654 35.7521C17.5655 34.593 18.5051 33.6535 19.6641 33.6535L19.6641 33.0678C18.1816 33.0678 16.9798 34.2695 16.9797 35.752L17.5654 35.7521ZM14.0025 36.0449L17.2726 36.0449L17.2726 35.4592L14.0025 35.4592L14.0025 36.0449ZM11.6109 33.6535C12.77 33.6535 13.7096 34.593 13.7096 35.7521L14.2953 35.752C14.2952 34.2695 13.0934 33.0678 11.6109 33.0678L11.6109 33.6535ZM11.3181 5.44295L11.3181 33.3606L11.9038 33.3606L11.9038 5.44295L11.3181 5.44295ZM13.7096 3.05141C13.7096 4.21049 12.77 5.15011 11.6109 5.15011L11.6109 5.7358C13.0935 5.7358 14.2953 4.53395 14.2953 3.05141L13.7096 3.05141ZM13.7096 3.05127L13.7096 3.05141L14.2953 3.05141L14.2953 3.05127L13.7096 3.05127ZM17.2726 2.75843L14.0025 2.75843L14.0025 3.34411L17.2726 3.34411L17.2726 2.75843ZM17.5654 3.05139L17.5654 3.05127L16.9797 3.05127L16.9797 3.05139L17.5654 3.05139ZM19.6641 5.1501C18.505 5.1501 17.5654 4.21047 17.5654 3.05139L16.9797 3.05139C16.9797 4.53394 18.1816 5.73578 19.6641 5.73578L19.6641 5.1501ZM21.7628 3.05139C21.7628 4.21047 20.8232 5.1501 19.6641 5.1501L19.6641 5.73578C21.1467 5.73578 22.3485 4.53394 22.3485 3.05139L21.7628 3.05139ZM21.7628 3.05127L21.7628 3.05139L22.3485 3.05139L22.3485 3.05127L21.7628 3.05127ZM25.3257 2.75843L22.0557 2.75843L22.0557 3.34411L25.3257 3.34411L25.3257 2.75843ZM25.6186 3.0514L25.6186 3.05127L25.0329 3.05127L25.0329 3.0514L25.6186 3.0514ZM27.7173 5.1501C26.5582 5.1501 25.6186 4.21048 25.6186 3.0514L25.0329 3.0514C25.0329 4.53394 26.2347 5.73579 27.7173 5.73579L27.7173 5.1501ZM28.0101 33.3606L28.0101 5.44295L27.4244 5.44294L27.4244 33.3606L28.0101 33.3606Z"
            fill="url(#paint8_linear_4501_78240)" mask="url(#path-12-inside-3_4501_78240)" />
        <g opacity="0.6" filter="url(#filter1_f_4501_78240)">
            <path
                d="M24.9937 19.1397C25.9515 16.0907 24.395 12.7269 21.3923 11.3699C19.3789 10.46 17.1992 10.6135 15.4622 11.5547C15.3685 11.6054 15.3925 11.7444 15.4996 11.7654C15.9774 11.8558 16.4582 11.9891 16.9377 12.1651C18.5221 12.7465 19.8162 13.6949 20.6624 14.9105C21.1513 14.6971 21.5869 14.3673 21.8968 13.9527C21.9622 13.8648 22.1042 13.9169 22.0972 14.0262C22.0339 15.0468 22.5546 16.1268 23.4055 16.7404C23.4962 16.806 23.4457 16.9435 23.3341 16.9348C22.7582 16.8892 22.168 17.018 21.6513 17.2772C21.6513 17.2772 21.651 17.2781 21.6506 17.2791C21.8558 18.41 21.752 19.6612 21.2641 20.9908C20.9366 21.8833 20.5014 22.6361 19.9835 23.2564C19.915 23.3378 19.9923 23.4609 20.0984 23.4395C22.3355 23.0122 24.2676 21.4463 24.9918 19.139L24.9937 19.1397Z"
                fill="white" />
            <path
                d="M20.6631 14.9121C20.1871 15.1205 19.6586 15.2193 19.1414 15.1791C19.0856 15.1748 19.0454 15.2063 19.0304 15.247C19.0155 15.2878 19.0258 15.3379 19.0711 15.3707C19.9216 15.9852 20.4427 17.0642 20.3794 18.0848C20.3724 18.1942 20.5144 18.2463 20.5798 18.1584C20.8551 17.7902 21.2282 17.4891 21.6513 17.2774C21.4935 16.4114 21.1546 15.6176 20.6631 14.9121Z"
                fill="white" />
        </g>
        <path
            d="M24.9937 19.1397C25.9515 16.0907 24.395 12.7269 21.3923 11.3699C19.3789 10.46 17.1992 10.6135 15.4622 11.5547C15.3685 11.6054 15.3925 11.7444 15.4996 11.7654C15.9774 11.8558 16.4582 11.9891 16.9377 12.1651C18.5221 12.7465 19.8162 13.6949 20.6624 14.9105C21.1513 14.6971 21.5869 14.3673 21.8968 13.9527C21.9622 13.8648 22.1042 13.9169 22.0972 14.0262C22.0339 15.0468 22.5546 16.1268 23.4055 16.7404C23.4962 16.806 23.4457 16.9435 23.3341 16.9348C22.7582 16.8892 22.168 17.018 21.6513 17.2772C21.6513 17.2772 21.651 17.2781 21.6506 17.2791C21.8558 18.41 21.752 19.6612 21.2641 20.9908C20.9366 21.8833 20.5014 22.6361 19.9835 23.2564C19.915 23.3378 19.9923 23.4609 20.0984 23.4395C22.3355 23.0122 24.2676 21.4463 24.9918 19.139L24.9937 19.1397Z"
            fill="white" />
        <path
            d="M20.6631 14.9121C20.1871 15.1205 19.6586 15.2193 19.1414 15.1791C19.0856 15.1748 19.0454 15.2063 19.0304 15.247C19.0155 15.2878 19.0258 15.3379 19.0711 15.3707C19.9216 15.9852 20.4427 17.0642 20.3794 18.0848C20.3724 18.1942 20.5144 18.2463 20.5798 18.1584C20.8551 17.7902 21.2282 17.4891 21.6513 17.2774C21.4935 16.4114 21.1546 15.6176 20.6631 14.9121Z"
            fill="white" />
        <path opacity="0.5" fill-rule="evenodd" clip-rule="evenodd"
            d="M24.5448 30.5293L14.7834 30.5293C13.9747 30.5293 13.3191 29.8738 13.3191 29.0651L13.3191 26.1367L26.0089 26.1367L26.009 26.1367L26.009 29.0651C26.009 29.8738 25.3534 30.5293 24.5448 30.5293ZM26.4969 25.6468L26.4969 9.72914C26.4969 8.65092 25.6229 7.77686 24.5446 7.77686L14.7832 7.77685C13.705 7.77685 12.8309 8.65092 12.8309 9.72914L12.8309 25.6486L12.8309 26.1367L12.8311 26.1367L12.8311 29.0651C12.8311 30.1433 13.7051 31.0174 14.7834 31.0174L24.5448 31.0174C25.623 31.0174 26.4971 30.1433 26.4971 29.0651L26.4971 26.1348L26.4971 25.6468L26.4969 25.6468ZM26.0089 25.6468L26.0089 9.72914C26.0089 8.92048 25.3533 8.26493 24.5446 8.26493L14.7832 8.26493C13.9746 8.26493 13.319 8.92047 13.319 9.72914L13.319 25.6468L13.3191 25.6468L26.0089 25.6468Z"
            fill="url(#paint9_linear_4501_78240)" />
        <g filter="url(#filter2_d_4501_78240)">
            <path
                d="M19.5343 25.9974C19.5758 25.8713 19.7542 25.8713 19.7957 25.9974C20.0504 26.7721 20.658 27.3797 21.4327 27.6344C21.5588 27.6759 21.5588 27.8543 21.4327 27.8958C20.658 28.1505 20.0504 28.7581 19.7957 29.5328C19.7542 29.6589 19.5758 29.6589 19.5343 29.5328C19.2796 28.7581 18.672 28.1505 17.8973 27.8958C17.7712 27.8543 17.7712 27.6759 17.8973 27.6344C18.672 27.3797 19.2796 26.7721 19.5343 25.9974Z"
                fill="white" />
        </g>
        <path opacity="0.3"
            d="M15.6684 26.9711C15.6984 26.8798 15.8275 26.8798 15.8575 26.9711C16.0418 27.5317 16.4815 27.9713 17.042 28.1557C17.1333 28.1857 17.1333 28.3148 17.042 28.3448C16.4815 28.5291 16.0418 28.9688 15.8575 29.5293C15.8275 29.6206 15.6984 29.6206 15.6684 29.5293C15.484 28.9688 15.0444 28.5291 14.4838 28.3448C14.3925 28.3148 14.3925 28.1857 14.4838 28.1557C15.0444 27.9713 15.484 27.5317 15.6684 26.9711Z"
            fill="white" />
        <path opacity="0.3"
            d="M23.4706 26.9711C23.5006 26.8798 23.6297 26.8798 23.6597 26.9711C23.8441 27.5317 24.2837 27.9713 24.8443 28.1557C24.9355 28.1857 24.9355 28.3148 24.8443 28.3448C24.2837 28.5291 23.8441 28.9688 23.6597 29.5293C23.6297 29.6206 23.5006 29.6206 23.4706 29.5293C23.2863 28.9688 22.8466 28.5291 22.286 28.3448C22.1948 28.3148 22.1948 28.1857 22.286 28.1557C22.8466 27.9713 23.2863 27.5317 23.4706 26.9711Z"
            fill="white" />
        <path
            d="M14.3395 18.8861L13.2704 19.6653L13.7118 20.9124L12.9326 19.8433L11.6854 20.2847L12.7545 19.5055L12.3131 18.2584L13.0923 19.3275L14.3395 18.8861Z"
            fill="url(#paint10_radial_4501_78240)" />
        <path
            d="M24.2762 25.2978L23.1358 26.129L23.6067 27.4592L22.7755 26.3188L21.4453 26.7897L22.5856 25.9585L22.1148 24.6283L22.946 25.7686L24.2762 25.2978Z"
            fill="url(#paint11_radial_4501_78240)" />
        <path
            d="M26.2915 12.2052L26.6318 13.936L28.3876 14.1042L26.6568 14.4445L26.4886 16.2003L26.1483 14.4695L24.3925 14.3013L26.1233 13.961L26.2915 12.2052Z"
            fill="url(#paint12_radial_4501_78240)" />
    </g>
    <defs>
        <filter id="filter0_f_4501_78240" x="-3.97022" y="-7.37207" width="47.2686" height="53.5464"
            filterUnits="userSpaceOnUse" color-interpolation-filters="sRGB">
            <feFlood flood-opacity="0" result="BackgroundImageFix" />
            <feBlend mode="normal" in="SourceGraphic" in2="BackgroundImageFix" result="shape" />
            <feGaussianBlur stdDeviation="5.94873" result="effect1_foregroundBlur_4501_78240" />
        </filter>
        <filter id="filter1_f_4501_78240" x="10.6038" y="5.96221" width="19.4716" height="22.2797"
            filterUnits="userSpaceOnUse" color-interpolation-filters="sRGB">
            <feFlood flood-opacity="0" result="BackgroundImageFix" />
            <feBlend mode="normal" in="SourceGraphic" in2="BackgroundImageFix" result="shape" />
            <feGaussianBlur stdDeviation="2.4" result="effect1_foregroundBlur_4501_78240" />
        </filter>
        <filter id="filter2_d_4501_78240" x="15.9312" y="25.279" width="7.46763" height="7.46763"
            filterUnits="userSpaceOnUse" color-interpolation-filters="sRGB">
            <feFlood flood-opacity="0" result="BackgroundImageFix" />
            <feColorMatrix in="SourceAlpha" type="matrix"
                values="0 0 0 0 0 0 0 0 0 0 0 0 0 0 0 0 0 0 127 0" result="hardAlpha" />
            <feOffset dy="1.24767" />
            <feGaussianBlur stdDeviation="0.935755" />
            <feComposite in2="hardAlpha" operator="out" />
            <feColorMatrix type="matrix"
                values="0 0 0 0 0.729167 0 0 0 0 0.04375 0 0 0 0 0 0 0 0 0.44 0" />
            <feBlend mode="normal" in2="BackgroundImageFix" result="effect1_dropShadow_4501_78240" />
            <feBlend mode="normal" in="SourceGraphic" in2="effect1_dropShadow_4501_78240"
                result="shape" />
        </filter>
        <linearGradient id="paint0_linear_4501_78240" x1="16.6702" y1="11.7543" x2="30.5139"
            y2="20.1937" gradientUnits="userSpaceOnUse">
            <stop stop-color="#98290C" />
            <stop offset="1" stop-color="#FF5D02" />
        </linearGradient>
        <linearGradient id="paint1_linear_4501_78240" x1="24.8169" y1="-7.59377" x2="18.8545"
            y2="3.85976" gradientUnits="userSpaceOnUse">
            <stop stop-color="white" />
            <stop offset="1" stop-color="white" stop-opacity="0" />
        </linearGradient>
        <linearGradient id="paint2_linear_4501_78240" x1="45.6763" y1="6.55798" x2="7.39529"
            y2="22.4093" gradientUnits="userSpaceOnUse">
            <stop stop-color="white" stop-opacity="0" />
            <stop offset="0.73465" stop-color="white" />
            <stop offset="1" stop-color="white" stop-opacity="0" />
        </linearGradient>
        <linearGradient id="paint3_linear_4501_78240" x1="6.33027" y1="13.4186" x2="27.0923"
            y2="18.5767" gradientUnits="userSpaceOnUse">
            <stop stop-color="#98290C" />
            <stop offset="1" stop-color="#FF5D02" />
        </linearGradient>
        <linearGradient id="paint4_linear_4501_78240" x1="6.81124" y1="-5.56541" x2="5.13471"
            y2="5.94924" gradientUnits="userSpaceOnUse">
            <stop stop-color="white" />
            <stop offset="1" stop-color="white" stop-opacity="0" />
        </linearGradient>
        <linearGradient id="paint5_linear_4501_78240" x1="0.923817" y1="34.8702" x2="1.83282"
            y2="28.6271" gradientUnits="userSpaceOnUse">
            <stop />
            <stop offset="1" stop-opacity="0" />
        </linearGradient>
        <radialGradient id="paint6_radial_4501_78240" cx="0" cy="0" r="1"
            gradientUnits="userSpaceOnUse"
            gradientTransform="translate(12.3817 41.0461) rotate(-64.2019) scale(44.3119 62.9736)">
            <stop stop-color="#AA160C" />
            <stop offset="0.620539" stop-color="#FF6B00" />
            <stop offset="1" stop-color="#F84B00" />
        </radialGradient>
        <linearGradient id="paint7_linear_4501_78240" x1="9.18626" y1="-2.01632" x2="19.1976"
            y2="19.4696" gradientUnits="userSpaceOnUse">
            <stop stop-color="white" />
            <stop offset="1" stop-color="white" stop-opacity="0" />
        </linearGradient>
        <linearGradient id="paint8_linear_4501_78240" x1="6.68142" y1="40.4375" x2="6.68142"
            y2="33.0677" gradientUnits="userSpaceOnUse">
            <stop />
            <stop offset="1" stop-opacity="0" />
        </linearGradient>
        <linearGradient id="paint9_linear_4501_78240" x1="33.0372" y1="-4.22134" x2="23.4576"
            y2="35.7247" gradientUnits="userSpaceOnUse">
            <stop stop-color="white" stop-opacity="0" />
            <stop offset="0.333317" stop-color="white" stop-opacity="0.12" />
            <stop offset="0.423807" stop-color="white" stop-opacity="0.68" />
            <stop offset="0.685061" stop-color="white" stop-opacity="0.27" />
            <stop offset="0.737191" stop-color="white" stop-opacity="0.79" />
            <stop offset="0.805793" stop-color="white" stop-opacity="0.26" />
            <stop offset="1" stop-color="white" stop-opacity="0.17" />
        </linearGradient>
        <radialGradient id="paint10_radial_4501_78240" cx="0" cy="0" r="1"
            gradientUnits="userSpaceOnUse"
            gradientTransform="translate(13.0125 19.5854) rotate(127.246) scale(4.34036)">
            <stop offset="0.0976782" stop-color="white" />
            <stop offset="1" stop-color="white" stop-opacity="0" />
        </radialGradient>
        <radialGradient id="paint11_radial_4501_78240" cx="0" cy="0" r="1"
            gradientUnits="userSpaceOnUse"
            gradientTransform="translate(22.8607 26.0437) rotate(127.246) scale(4.62972)">
            <stop offset="0.0976782" stop-color="white" />
            <stop offset="1" stop-color="white" stop-opacity="0" />
        </radialGradient>
        <radialGradient id="paint12_radial_4501_78240" cx="0" cy="0" r="1"
            gradientUnits="userSpaceOnUse"
            gradientTransform="translate(26.39 14.2028) rotate(62.2111) scale(5.78715)">
            <stop offset="0.0976782" stop-color="white" />
            <stop offset="1" stop-color="white" stop-opacity="0" />
        </radialGradient>
        <clipPath id="clip0_4501_78240">
            <rect width="40" height="40" fill="white" />
        </clipPath>
    </defs>
</svg>
    