<svg width="40" height="40" viewBox="0 0 40 40" fill="none" xmlns="http://www.w3.org/2000/svg">
    <g clip-path="url(#clip0_4501_78317)">
        <g opacity="0.6">
            <mask id="path-1-inside-1_4501_78317" fill="white">
                <path fill-rule="evenodd" clip-rule="evenodd"
                    d="M24.4953 35.899L37.0684 12.5483C35.9637 11.9534 35.5504 10.5757 36.1452 9.47097L36.1453 9.47085L33.4102 7.99814L33.4101 7.99825C32.8153 9.103 31.4375 9.51636 30.3327 8.92151C29.228 8.32667 28.8146 6.94888 29.4095 5.84413L29.4095 5.84401L26.6744 4.37129L26.6743 4.37141C26.0795 5.47616 24.7017 5.88951 23.597 5.29467L23.5968 5.29461L11.0238 28.6453C11.0238 28.6453 11.0239 28.6453 11.0239 28.6453C12.1286 29.2402 12.542 30.6179 11.9472 31.7226L14.6823 33.1953C15.2772 32.0907 16.655 31.6774 17.7597 32.2722C18.8644 32.867 19.2777 34.2447 18.683 35.3494L21.4181 36.8221C22.013 35.7175 23.3907 35.3042 24.4953 35.899Z" />
            </mask>
            <path fill-rule="evenodd" clip-rule="evenodd"
                d="M24.4953 35.899L37.0684 12.5483C35.9637 11.9534 35.5504 10.5757 36.1452 9.47097L36.1453 9.47085L33.4102 7.99814L33.4101 7.99825C32.8153 9.103 31.4375 9.51636 30.3327 8.92151C29.228 8.32667 28.8146 6.94888 29.4095 5.84413L29.4095 5.84401L26.6744 4.37129L26.6743 4.37141C26.0795 5.47616 24.7017 5.88951 23.597 5.29467L23.5968 5.29461L11.0238 28.6453C11.0238 28.6453 11.0239 28.6453 11.0239 28.6453C12.1286 29.2402 12.542 30.6179 11.9472 31.7226L14.6823 33.1953C15.2772 32.0907 16.655 31.6774 17.7597 32.2722C18.8644 32.867 19.2777 34.2447 18.683 35.3494L21.4181 36.8221C22.013 35.7175 23.3907 35.3042 24.4953 35.899Z"
                fill="url(#paint0_linear_4501_78317)" />
            <path
                d="M37.0684 12.5483L37.3133 12.6802L37.4452 12.4353L37.2003 12.3034L37.0684 12.5483ZM24.4953 35.899L24.3635 36.1439L24.6084 36.2758L24.7403 36.0309L24.4953 35.899ZM36.1452 9.47097L35.9003 9.33909L36.1452 9.47097ZM36.1453 9.47085L36.3902 9.60273L36.5221 9.35779L36.2772 9.22591L36.1453 9.47085ZM33.4102 7.99814L33.5421 7.7532L33.2971 7.62131L33.1652 7.86625L33.4102 7.99814ZM33.4101 7.99825L33.1652 7.86637L33.4101 7.99825ZM29.4095 5.84401L29.6545 5.9759L29.7864 5.73096L29.5414 5.59908L29.4095 5.84401ZM26.6744 4.37129L26.8063 4.12636L26.5613 3.99447L26.4295 4.23941L26.6744 4.37129ZM26.6743 4.37141L26.4294 4.23953L26.6743 4.37141ZM23.5968 5.29461L23.7287 5.04967L23.4838 4.91779L23.3519 5.16272L23.5968 5.29461ZM11.0238 28.6453L10.7789 28.5134L10.647 28.7583L10.8919 28.8902L11.0238 28.6453ZM11.9472 31.7226L11.7023 31.5907L11.5704 31.8356L11.8153 31.9675L11.9472 31.7226ZM14.6823 33.1953L14.5505 33.4402L14.7954 33.5721L14.9273 33.3272L14.6823 33.1953ZM18.683 35.3494L18.438 35.2176L18.3062 35.4625L18.5511 35.5944L18.683 35.3494ZM21.4181 36.8221L21.2862 37.0671L21.5312 37.199L21.6631 36.954L21.4181 36.8221ZM36.8234 12.4164L24.2504 35.7671L24.7403 36.0309L37.3133 12.6802L36.8234 12.4164ZM35.9003 9.33909C35.2326 10.5791 35.6965 12.1255 36.9365 12.7932L37.2003 12.3034C36.2309 11.7813 35.8682 10.5723 36.3902 9.60286L35.9003 9.33909ZM35.9004 9.33896L35.9003 9.33909L36.3902 9.60286L36.3902 9.60273L35.9004 9.33896ZM33.2783 8.24307L36.0134 9.71578L36.2772 9.22591L33.5421 7.7532L33.2783 8.24307ZM33.655 8.13014L33.6551 8.13002L33.1652 7.86625L33.1652 7.86637L33.655 8.13014ZM30.2008 9.16645C31.4409 9.83413 32.9874 9.37016 33.655 8.13014L33.1652 7.86637C32.6432 8.83584 31.4341 9.19858 30.4646 8.67657L30.2008 9.16645ZM29.1645 5.71225C28.4969 6.95227 28.9608 8.49877 30.2008 9.16645L30.4646 8.67657C29.4951 8.15457 29.1324 6.94549 29.6544 5.97602L29.1645 5.71225ZM29.1646 5.71213L29.1645 5.71225L29.6544 5.97602L29.6545 5.9759L29.1646 5.71213ZM26.5425 4.61623L29.2776 6.08895L29.5414 5.59908L26.8063 4.12636L26.5425 4.61623ZM26.9193 4.5033L26.9193 4.50318L26.4295 4.23941L26.4294 4.23953L26.9193 4.5033ZM23.4651 5.53961C24.7051 6.20729 26.2516 5.74332 26.9193 4.5033L26.4294 4.23953C25.9074 5.209 24.6983 5.57174 23.7288 5.04973L23.4651 5.53961ZM23.465 5.53955L23.4651 5.53961L23.7288 5.04973L23.7287 5.04967L23.465 5.53955ZM11.2687 28.7772L23.8418 5.4265L23.3519 5.16272L10.7789 28.5134L11.2687 28.7772ZM10.8919 28.8902L10.8919 28.8902C10.8919 28.8902 10.8919 28.8902 10.8919 28.8902C10.8919 28.8902 10.8919 28.8902 10.8919 28.8902C10.8919 28.8902 10.8919 28.8902 10.8919 28.8902C10.8919 28.8902 10.8919 28.8902 10.8919 28.8902C10.8919 28.8902 10.8919 28.8902 10.8919 28.8902L10.8919 28.8902L10.8919 28.8902L10.8919 28.8902C10.8919 28.8902 10.8919 28.8902 10.8919 28.8902C10.8919 28.8902 10.8919 28.8902 10.8919 28.8902C10.8919 28.8902 10.8919 28.8902 10.8919 28.8902C10.8919 28.8902 10.8919 28.8902 10.8919 28.8902L10.8919 28.8902L10.8919 28.8902C10.8919 28.8902 10.8919 28.8902 10.8919 28.8902C10.8919 28.8902 10.8919 28.8902 10.8919 28.8902C10.8919 28.8902 10.8919 28.8902 10.8919 28.8902C10.8919 28.8902 10.8919 28.8902 10.8919 28.8902L10.8919 28.8902L10.8919 28.8902C10.8919 28.8902 10.8919 28.8902 10.8919 28.8902C10.8919 28.8902 10.8919 28.8902 10.8919 28.8902C10.8919 28.8902 10.8919 28.8902 10.8919 28.8902C10.8919 28.8902 10.8919 28.8902 10.8919 28.8902L10.8919 28.8902L10.8919 28.8902C10.8919 28.8902 10.8919 28.8902 10.8919 28.8902C10.8919 28.8902 10.8919 28.8902 10.8919 28.8902C10.8919 28.8902 10.8919 28.8902 10.8919 28.8902C10.8919 28.8902 10.8919 28.8902 10.8919 28.8902L10.8919 28.8902L10.8919 28.8902C10.8919 28.8902 10.8919 28.8902 10.8919 28.8902C10.8919 28.8902 10.8919 28.8902 10.8919 28.8902C10.8919 28.8902 10.8919 28.8902 10.8919 28.8902L10.8919 28.8902L10.8919 28.8902C10.8919 28.8902 10.8919 28.8902 10.8919 28.8902C10.8919 28.8902 10.8919 28.8902 10.8919 28.8902C10.8919 28.8902 10.8919 28.8902 10.8919 28.8902C10.8919 28.8902 10.8919 28.8902 10.8919 28.8902L10.8919 28.8902C10.8919 28.8902 10.8919 28.8902 10.8919 28.8902C10.8919 28.8902 10.8919 28.8902 10.8919 28.8902C10.8919 28.8902 10.8919 28.8902 10.8919 28.8902C10.8919 28.8902 10.8919 28.8902 10.892 28.8902L10.892 28.8902L10.892 28.8903C10.892 28.8903 10.892 28.8903 10.892 28.8903C10.892 28.8903 10.892 28.8903 10.892 28.8903C10.892 28.8903 10.892 28.8903 10.892 28.8903L10.892 28.8903L10.892 28.8903C10.892 28.8903 10.892 28.8903 10.892 28.8903C10.892 28.8903 10.892 28.8903 10.892 28.8903C10.892 28.8903 10.892 28.8903 10.892 28.8903L10.892 28.8903L10.892 28.8903C10.892 28.8903 10.892 28.8903 10.892 28.8903C10.892 28.8903 10.892 28.8903 10.892 28.8903C10.892 28.8903 10.892 28.8903 10.892 28.8903C10.892 28.8903 10.892 28.8903 10.892 28.8903L10.892 28.8903C10.892 28.8903 10.892 28.8903 10.892 28.8903C10.892 28.8903 10.892 28.8903 10.892 28.8903C10.892 28.8903 10.892 28.8903 10.892 28.8903C10.892 28.8903 10.892 28.8903 10.892 28.8903L10.892 28.8903L10.892 28.8903C10.892 28.8903 10.892 28.8903 10.892 28.8903C10.892 28.8903 10.892 28.8903 10.892 28.8903C10.892 28.8903 10.892 28.8903 10.892 28.8903L10.892 28.8903L10.892 28.8903C10.892 28.8903 10.892 28.8903 10.892 28.8903C10.892 28.8903 10.892 28.8903 10.892 28.8903C10.892 28.8903 10.892 28.8903 10.892 28.8903C10.892 28.8903 10.892 28.8903 10.892 28.8903L10.892 28.8903L10.892 28.8903C10.892 28.8903 10.892 28.8903 10.892 28.8903C10.892 28.8903 10.892 28.8903 10.892 28.8903C10.892 28.8903 10.892 28.8903 10.892 28.8903C10.892 28.8903 10.892 28.8903 10.892 28.8903L10.892 28.8903L10.892 28.8903C10.892 28.8903 10.892 28.8903 10.892 28.8903C10.892 28.8903 10.892 28.8903 10.892 28.8903C10.892 28.8903 10.892 28.8903 10.892 28.8903C10.892 28.8903 10.892 28.8903 10.892 28.8903L10.892 28.8903L10.892 28.8903C10.892 28.8903 10.892 28.8903 10.892 28.8903C10.892 28.8903 10.892 28.8903 10.892 28.8903C10.892 28.8903 10.892 28.8903 10.892 28.8903C10.892 28.8903 10.892 28.8903 10.892 28.8903L10.892 28.8903L10.892 28.8903L10.892 28.8903C10.892 28.8903 10.892 28.8903 10.892 28.8903C10.892 28.8903 10.892 28.8903 10.892 28.8903C10.892 28.8903 10.892 28.8903 10.892 28.8903C10.892 28.8903 10.892 28.8903 10.892 28.8903C10.892 28.8903 10.892 28.8903 10.892 28.8903L10.892 28.8903L11.1558 28.4004L11.1558 28.4004C11.1558 28.4004 11.1558 28.4004 11.1558 28.4004C11.1558 28.4004 11.1558 28.4004 11.1558 28.4004C11.1558 28.4004 11.1558 28.4004 11.1558 28.4004C11.1558 28.4004 11.1558 28.4004 11.1558 28.4004C11.1558 28.4004 11.1558 28.4004 11.1558 28.4004L11.1558 28.4004L11.1558 28.4004L11.1558 28.4004C11.1558 28.4004 11.1558 28.4004 11.1558 28.4004C11.1558 28.4004 11.1558 28.4004 11.1558 28.4004C11.1558 28.4004 11.1558 28.4004 11.1558 28.4004C11.1558 28.4004 11.1558 28.4004 11.1558 28.4004L11.1558 28.4004L11.1558 28.4004C11.1558 28.4004 11.1558 28.4004 11.1558 28.4004C11.1558 28.4004 11.1558 28.4004 11.1558 28.4004C11.1558 28.4004 11.1558 28.4004 11.1558 28.4004C11.1558 28.4004 11.1558 28.4004 11.1558 28.4004L11.1558 28.4004L11.1558 28.4004C11.1558 28.4004 11.1558 28.4004 11.1558 28.4004C11.1558 28.4004 11.1558 28.4004 11.1558 28.4004C11.1558 28.4004 11.1558 28.4004 11.1557 28.4004C11.1557 28.4004 11.1557 28.4004 11.1557 28.4004L11.1557 28.4004L11.1557 28.4004C11.1557 28.4004 11.1557 28.4004 11.1557 28.4004C11.1557 28.4004 11.1557 28.4004 11.1557 28.4004C11.1557 28.4004 11.1557 28.4004 11.1557 28.4004C11.1557 28.4004 11.1557 28.4004 11.1557 28.4004L11.1557 28.4004L11.1557 28.4004C11.1557 28.4004 11.1557 28.4004 11.1557 28.4004C11.1557 28.4004 11.1557 28.4004 11.1557 28.4004C11.1557 28.4004 11.1557 28.4004 11.1557 28.4004L11.1557 28.4004L11.1557 28.4004C11.1557 28.4004 11.1557 28.4004 11.1557 28.4004C11.1557 28.4004 11.1557 28.4004 11.1557 28.4004C11.1557 28.4004 11.1557 28.4004 11.1557 28.4004C11.1557 28.4004 11.1557 28.4004 11.1557 28.4004L11.1557 28.4004C11.1557 28.4004 11.1557 28.4004 11.1557 28.4004C11.1557 28.4004 11.1557 28.4004 11.1557 28.4004C11.1557 28.4004 11.1557 28.4004 11.1557 28.4004C11.1557 28.4004 11.1557 28.4004 11.1557 28.4004L11.1557 28.4004L11.1557 28.4004C11.1557 28.4004 11.1557 28.4004 11.1557 28.4004C11.1557 28.4004 11.1557 28.4004 11.1557 28.4004C11.1557 28.4004 11.1557 28.4004 11.1557 28.4004L11.1557 28.4004L11.1557 28.4004C11.1557 28.4004 11.1557 28.4004 11.1557 28.4004C11.1557 28.4004 11.1557 28.4004 11.1557 28.4004C11.1557 28.4004 11.1557 28.4004 11.1557 28.4004L11.1557 28.4004L11.1557 28.4004C11.1557 28.4004 11.1557 28.4004 11.1557 28.4004C11.1557 28.4004 11.1557 28.4004 11.1557 28.4004C11.1557 28.4004 11.1557 28.4004 11.1557 28.4004C11.1557 28.4004 11.1557 28.4004 11.1557 28.4004L11.1557 28.4004C11.1557 28.4004 11.1557 28.4004 11.1557 28.4004C11.1557 28.4004 11.1557 28.4004 11.1557 28.4004C11.1557 28.4004 11.1557 28.4004 11.1557 28.4004C11.1557 28.4004 11.1557 28.4004 11.1557 28.4004L11.1557 28.4004L11.1557 28.4004C11.1557 28.4004 11.1557 28.4004 11.1557 28.4004C11.1557 28.4004 11.1557 28.4004 11.1557 28.4004C11.1557 28.4004 11.1557 28.4004 11.1557 28.4004L11.1557 28.4004L11.1557 28.4004C11.1557 28.4004 11.1557 28.4004 11.1557 28.4004C11.1557 28.4004 11.1557 28.4004 11.1557 28.4004C11.1557 28.4004 11.1557 28.4004 11.1557 28.4004C11.1557 28.4004 11.1557 28.4004 11.1557 28.4004L11.1557 28.4004L11.1557 28.4004C11.1557 28.4004 11.1557 28.4004 11.1557 28.4004C11.1557 28.4004 11.1557 28.4004 11.1557 28.4004C11.1557 28.4004 11.1557 28.4004 11.1557 28.4004C11.1557 28.4004 11.1557 28.4004 11.1557 28.4004L11.1557 28.4004L11.1557 28.4004C11.1557 28.4004 11.1557 28.4004 11.1557 28.4004C11.1557 28.4004 11.1557 28.4004 11.1557 28.4004C11.1557 28.4004 11.1557 28.4004 11.1557 28.4004C11.1557 28.4004 11.1557 28.4004 11.1557 28.4004L11.1557 28.4004L11.1557 28.4004C11.1557 28.4004 11.1557 28.4004 11.1557 28.4004C11.1557 28.4004 11.1557 28.4004 11.1557 28.4004C11.1557 28.4004 11.1557 28.4004 11.1557 28.4004C11.1557 28.4004 11.1557 28.4004 11.1557 28.4004L11.1557 28.4004L11.1557 28.4004L11.1557 28.4004C11.1557 28.4004 11.1557 28.4004 11.1557 28.4004C11.1557 28.4004 11.1557 28.4004 11.1557 28.4004C11.1557 28.4004 11.1557 28.4004 11.1557 28.4004C11.1557 28.4004 11.1557 28.4004 11.1557 28.4004C11.1557 28.4004 11.1557 28.4004 11.1557 28.4004L11.1557 28.4004L10.8919 28.8902ZM10.892 28.8903C11.8614 29.4123 12.2242 30.6213 11.7023 31.5907L12.1922 31.8545C12.8597 30.6145 12.3957 29.0681 11.1558 28.4004L10.892 28.8903ZM14.8142 32.9504L12.0791 31.4777L11.8153 31.9675L14.5505 33.4402L14.8142 32.9504ZM17.8915 32.0272C16.6516 31.3596 15.1051 31.8235 14.4374 33.0634L14.9273 33.3272C15.4493 32.3578 16.6583 31.9951 17.6278 32.5171L17.8915 32.0272ZM18.9279 35.4813C19.5955 34.2413 19.1315 32.6949 17.8915 32.0272L17.6278 32.5171C18.5972 33.0391 18.96 34.2481 18.438 35.2176L18.9279 35.4813ZM21.55 36.5772L18.8149 35.1045L18.5511 35.5944L21.2862 37.0671L21.55 36.5772ZM24.6272 35.654C23.3873 34.9865 21.8409 35.4504 21.1732 36.6902L21.6631 36.954C22.1851 35.9847 23.394 35.622 24.3635 36.1439L24.6272 35.654Z"
                fill="url(#paint1_linear_4501_78317)" mask="url(#path-1-inside-1_4501_78317)" />
            <path
                d="M29.0538 21.8646C30.3702 19.1155 29.3554 15.7295 26.7041 14.0426C24.9263 12.9113 22.8477 12.7617 21.0806 13.4155C20.9854 13.4506 20.9893 13.5851 21.0875 13.6194C21.5264 13.7693 21.9622 13.9602 22.3911 14.1911C23.8083 14.9542 24.9019 16.0245 25.5365 17.2865C26.0268 17.1511 26.4826 16.8986 26.8313 16.5491C26.9049 16.4749 27.0319 16.5433 27.0105 16.6456C26.8127 17.6005 27.1584 18.6905 27.8787 19.3847C27.9555 19.4589 27.8893 19.5819 27.7851 19.5587C27.2476 19.4377 26.6729 19.4796 26.1501 19.6544C26.1501 19.6544 26.1496 19.6552 26.1492 19.6561C26.19 20.7516 25.9229 21.9187 25.2825 23.108C24.8527 23.9063 24.3401 24.5582 23.7674 25.0738C23.6917 25.1414 23.7481 25.268 23.8511 25.2622C26.0208 25.1611 28.0565 23.944 29.0521 21.8637L29.0538 21.8646Z"
                fill="white" />
            <path
                d="M25.5368 17.2878C25.0593 17.4202 24.547 17.442 24.0642 17.3342C24.0121 17.3225 23.9698 17.3468 23.9502 17.3833C23.9306 17.4198 23.9335 17.4684 23.9719 17.5055C24.6918 18.2006 25.0379 19.2898 24.8402 20.2447C24.8188 20.347 24.9458 20.4154 25.0194 20.3412C25.329 20.0308 25.722 19.7971 26.15 19.6544C26.1181 18.8154 25.9055 18.0203 25.5368 17.2878Z"
                fill="white" />
            <path opacity="0.5" fill-rule="evenodd" clip-rule="evenodd"
                d="M24.9754 9.09084L33.14 13.487C33.8163 13.8512 34.0694 14.6947 33.7052 15.3711L26.5395 28.6794L15.9255 22.9643L23.0913 9.6561C23.4555 8.97972 24.299 8.72664 24.9754 9.09084ZM33.3598 13.0788L25.1952 8.68261C24.2934 8.19702 23.1686 8.53445 22.683 9.43629L15.5173 22.7445L15.4716 22.8293L15.4715 22.8293L15.2517 23.2375L13.9786 25.6019C13.493 26.5038 13.8304 27.6285 14.7323 28.1141L22.8968 32.5102C23.7987 32.9958 24.9234 32.6584 25.409 31.7566L26.6821 29.3921L26.7278 29.3073L26.7279 29.3074L26.9477 28.8992L34.1134 15.5909C34.599 14.6891 34.2616 13.5644 33.3598 13.0788ZM23.1166 32.102L14.9521 27.7058C14.2757 27.3417 14.0226 26.4981 14.3868 25.8217L15.6599 23.4573L26.2739 29.1723L25.0007 31.5368C24.6366 32.2131 23.793 32.4662 23.1166 32.102Z"
                fill="url(#paint2_linear_4501_78317)" />
            <path
                d="M15.0722 26.2509C15.1637 26.1458 15.2861 25.9553 15.3776 25.7855L15.5792 25.411C15.6707 25.2412 15.7623 25.0341 15.7997 24.8998L16.4038 25.2251L16.3331 25.8742C16.3219 25.9877 16.3149 26.0561 16.2782 26.1982L16.2994 26.2096C16.389 26.1035 16.4372 26.0647 16.5358 25.9834L17.0407 25.5681L17.6352 25.8882C17.5438 25.9933 17.4193 26.1827 17.3279 26.3526L17.1263 26.727C17.0348 26.8969 16.9451 27.105 16.9077 27.2392L16.3789 26.9545C16.4703 26.8494 16.5947 26.6599 16.6862 26.4901L16.8587 26.1697L16.8356 26.1572L16.0508 26.7778L15.9234 26.7092L16.0095 25.7124L15.9921 25.703L15.8196 26.0234C15.7281 26.1933 15.6365 26.4004 15.601 26.5357L15.0722 26.2509ZM16.9649 27.27C17.0873 27.1816 17.2638 27.0202 17.4035 26.8763L17.7383 26.5736C17.875 26.4306 18.0121 26.2454 18.0804 26.1279L18.8678 26.5519C18.8071 26.6785 18.727 26.8968 18.6841 27.0828L18.6156 27.529C18.5715 27.7218 18.5349 27.961 18.5264 28.1108L17.9975 27.826C18.0361 27.7497 18.073 27.6351 18.1081 27.5097L18.1145 27.4608L17.7343 27.2561L17.6979 27.2913C17.6106 27.3887 17.5352 27.4825 17.4957 27.5558L16.9649 27.27ZM17.8845 27.088L18.1741 27.2439L18.2063 26.9899C18.2229 26.8943 18.2477 26.8205 18.2799 26.7283L18.2548 26.7148C18.1905 26.7972 18.1527 26.849 18.0789 26.9213L17.8845 27.088ZM19.7647 28.8149C19.3054 28.5676 19.8073 28.0561 19.4638 27.8711C19.4406 27.8586 19.3941 27.8386 19.3756 27.8361L19.333 27.9152C19.2415 28.0851 19.1519 28.2932 19.1144 28.4274L18.5856 28.1427C18.677 28.0376 18.8015 27.8481 18.8929 27.6783L19.0945 27.3038C19.186 27.134 19.2757 26.9258 19.3131 26.7916L20.1334 27.2333C20.4287 27.3923 20.5979 27.6328 20.4743 27.8625C20.3475 28.098 20.0582 28.0941 19.7687 27.9382L19.7514 27.9289L19.7451 27.9404L19.749 27.9425C19.915 28.0319 19.8713 28.2101 20.0122 28.2859C20.1531 28.3618 20.2792 28.3127 20.3788 28.2294L20.0728 28.8115C19.9977 28.8632 19.8632 28.8679 19.7647 28.8149ZM19.4535 27.6913L19.7025 27.8254C19.8029 27.8794 19.8893 27.8762 19.9288 27.8028C19.9652 27.7353 19.9224 27.6575 19.8317 27.6086L19.573 27.4694L19.4535 27.6913ZM21.288 29.6326C20.7649 29.351 21.4462 28.8116 21.0853 28.6172C21.0525 28.5996 21.002 28.5824 20.9805 28.5807L20.888 28.7525C20.7965 28.9224 20.7049 29.1295 20.6695 29.2647L20.1406 28.98C20.2321 28.8748 20.3565 28.6854 20.4479 28.5156L20.6495 28.1411C20.741 27.9713 20.8307 27.7631 20.8681 27.6289L21.3969 27.9136C21.3096 28.011 21.1956 28.1812 21.1062 28.3472L21.0657 28.4225L21.1757 28.4817C21.334 28.5669 21.4749 28.5133 21.5767 28.3242C21.6245 28.2354 21.6431 28.1408 21.6363 28.0425L22.1323 28.3096C22.1295 28.4027 22.1124 28.4806 22.0521 28.5926C21.8994 28.8763 21.7099 28.849 21.3297 28.6443L21.2139 28.5819L21.2024 28.6031L21.2256 28.6156C21.4727 28.7486 21.407 28.9722 21.5904 29.071C21.7178 29.1395 21.8027 29.1205 21.9001 29.046L21.5963 29.6194C21.523 29.677 21.3845 29.6846 21.288 29.6326ZM21.6598 29.798C21.7493 29.6918 21.8757 29.5034 21.9671 29.3336L22.1687 28.9591C22.2602 28.7893 22.3479 28.5801 22.3873 28.4469L23.5222 29.058L23.3228 29.5855C23.2974 29.517 23.2189 29.4548 23.0297 29.353L22.636 29.141L22.5508 29.2993L22.8615 29.4666C22.9522 29.5154 23.0401 29.5603 23.1031 29.5867L22.996 29.7855C22.9404 29.7455 22.8556 29.6949 22.7649 29.6461L22.4541 29.4788L22.3751 29.6254L22.7148 29.8084C23.0198 29.9726 23.1236 29.9786 23.1895 29.9718L22.8488 30.4382L21.6598 29.798ZM23.4167 30.744C23.5082 30.6389 23.6326 30.4494 23.7241 30.2796L23.9496 29.8607L23.7701 29.7641C23.6717 29.7111 23.5823 29.6829 23.4752 29.6875L23.8219 29.2194L24.9838 29.845L24.7838 30.3921C24.7334 30.3101 24.6502 30.238 24.5576 30.1881L24.3897 30.0977L24.1641 30.5165C24.0727 30.6864 23.983 30.8945 23.9456 31.0287L23.4167 30.744Z"
                fill="white" />
            <path fill-rule="evenodd" clip-rule="evenodd"
                d="M24.4953 35.899L37.0684 12.5483C35.9637 11.9534 35.5504 10.5757 36.1452 9.47097L36.1453 9.47083L33.4101 7.99811L33.4101 7.99825C32.8152 9.103 31.4374 9.51635 30.3327 8.92151C29.2279 8.32666 28.8146 6.94887 29.4094 5.84413L29.4095 5.84399L26.6744 4.37127L26.6743 4.37141C26.0794 5.47615 24.7017 5.88951 23.5969 5.29467L23.5968 5.29463L11.0238 28.6453C11.0238 28.6453 11.0238 28.6453 11.0238 28.6453C12.1285 29.2402 12.5419 30.6179 11.9472 31.7226L14.6823 33.1953C15.2772 32.0907 16.6549 31.6774 17.7596 32.2722C18.8643 32.867 19.2777 34.2447 18.683 35.3494L21.4181 36.8221C22.013 35.7175 23.3906 35.3042 24.4953 35.899Z"
                fill="#0D0D0D" fill-opacity="0.71" />
        </g>
        <mask id="mask0_4501_78317" style="mask-type:alpha" maskUnits="userSpaceOnUse" x="9" y="5"
            width="30" height="32">
            <path fill-rule="evenodd" clip-rule="evenodd"
                d="M22.0128 35.7699L38.1983 14.7613C37.2045 13.9955 37.0195 12.569 37.7852 11.5751L37.7853 11.575L35.3245 9.6791L35.3244 9.67924C34.5587 10.6732 33.1322 10.8582 32.1382 10.0924C31.1443 9.32665 30.9593 7.90013 31.725 6.90619L31.7251 6.90605L29.2643 5.01019L29.2642 5.01033C28.4985 6.00427 27.072 6.18926 26.078 5.4235L26.078 5.42345L9.89242 26.4321C9.89244 26.4321 9.89246 26.4321 9.89248 26.4322C10.8864 27.1979 11.0714 28.6243 10.3058 29.6182L12.7666 31.5141C13.5323 30.5203 14.9588 30.3353 15.9527 31.1011C16.9466 31.8668 17.1316 33.2932 16.3659 34.2871L18.8268 36.183C19.5925 35.1892 21.0189 35.0043 22.0128 35.7699Z"
                fill="#0D0D0D" />
        </mask>
        <g mask="url(#mask0_4501_78317)">
            <rect x="18.0938" y="-1.55322" width="19.0337" height="35.2341"
                transform="rotate(23.4576 18.0938 -1.55322)" fill="#150101" fill-opacity="0.31" />
        </g>
        <g filter="url(#filter0_f_4501_78317)">
            <mask id="path-10-inside-2_4501_78317" fill="white">
                <path fill-rule="evenodd" clip-rule="evenodd"
                    d="M27.9574 32.6844L31.4008 9.03487C29.7582 8.79569 28.5588 7.69479 28.7217 6.57593L28.7217 6.57576L24.655 5.98364L24.6549 5.98383C24.492 7.10271 23.0284 7.81587 21.3858 7.5767C19.7432 7.33754 18.5436 6.23663 18.7065 5.11774L18.7066 5.11756L14.6398 4.52544L14.6398 4.52562C14.4769 5.64451 13.0132 6.35766 11.3706 6.1185L11.3705 6.11848L7.92716 29.7679C7.92719 29.7679 7.92723 29.7679 7.92727 29.7679C9.5698 30.0071 10.7693 31.1079 10.6065 32.2268L14.6733 32.8189C14.8363 31.7001 16.2999 30.987 17.9424 31.2261C19.585 31.4653 20.7845 32.5661 20.6217 33.685L24.6883 34.2771C24.8514 33.1583 26.3149 32.4452 27.9574 32.6844Z" />
            </mask>
            <path fill-rule="evenodd" clip-rule="evenodd"
                d="M27.9574 32.6844L31.4008 9.03487C29.7582 8.79569 28.5588 7.69479 28.7217 6.57593L28.7217 6.57576L24.655 5.98364L24.6549 5.98383C24.492 7.10271 23.0284 7.81587 21.3858 7.5767C19.7432 7.33754 18.5436 6.23663 18.7065 5.11774L18.7066 5.11756L14.6398 4.52544L14.6398 4.52562C14.4769 5.64451 13.0132 6.35766 11.3706 6.1185L11.3705 6.11848L7.92716 29.7679C7.92719 29.7679 7.92723 29.7679 7.92727 29.7679C9.5698 30.0071 10.7693 31.1079 10.6065 32.2268L14.6733 32.8189C14.8363 31.7001 16.2999 30.987 17.9424 31.2261C19.585 31.4653 20.7845 32.5661 20.6217 33.685L24.6883 34.2771C24.8514 33.1583 26.3149 32.4452 27.9574 32.6844Z"
                fill="url(#paint3_linear_4501_78317)" />
            <path
                d="M31.4008 9.03487L31.6847 9.07621L31.7261 8.7923L31.4421 8.75096L31.4008 9.03487ZM27.9574 32.6844L27.9161 32.9683L28.2 33.0096L28.2414 32.7257L27.9574 32.6844ZM28.7217 6.57576L29.0056 6.6171L29.0469 6.33318L28.763 6.29185L28.7217 6.57576ZM24.655 5.98364L24.6963 5.69973L24.4124 5.65839L24.371 5.94231L24.655 5.98364ZM24.6549 5.98383L24.9388 6.02517L24.6549 5.98383ZM18.7065 5.11774L18.4226 5.0764L18.7065 5.11774ZM18.7066 5.11756L18.9905 5.1589L19.0318 4.87498L18.7479 4.83365L18.7066 5.11756ZM14.6398 4.52544L14.6812 4.24153L14.3973 4.20019L14.3559 4.4841L14.6398 4.52544ZM11.3705 6.11848L11.4119 5.83457L11.1279 5.79323L11.0866 6.07714L11.3705 6.11848ZM7.92716 29.7679L7.64324 29.7266L7.60191 30.0105L7.88582 30.0518L7.92716 29.7679ZM10.6065 32.2268L10.3226 32.1854L10.2813 32.4693L10.5652 32.5107L10.6065 32.2268ZM14.6733 32.8189L14.6319 33.1028L14.9158 33.1441L14.9572 32.8602L14.6733 32.8189ZM20.6217 33.685L20.3378 33.6437L20.2965 33.9275L20.5803 33.9689L20.6217 33.685ZM24.6883 34.2771L24.647 34.561L24.9309 34.6023L24.9722 34.3184L24.6883 34.2771ZM31.1169 8.99354L27.6735 32.643L28.2414 32.7257L31.6847 9.07621L31.1169 8.99354ZM28.4378 6.53459C28.3386 7.21564 28.6589 7.85907 29.1902 8.34665C29.7227 8.83544 30.4887 9.19199 31.3595 9.31879L31.4421 8.75096C30.6703 8.63857 30.0153 8.32507 29.5782 7.9239C29.1398 7.52153 28.9418 7.05508 29.0056 6.61726L28.4378 6.53459ZM28.4378 6.53442L28.4378 6.53459L29.0056 6.61726L29.0056 6.6171L28.4378 6.53442ZM24.6136 6.26756L28.6804 6.85967L28.763 6.29185L24.6963 5.69973L24.6136 6.26756ZM24.9388 6.02517L24.9389 6.02498L24.371 5.94231L24.371 5.94249L24.9388 6.02517ZM21.3444 7.86062C22.2152 7.9874 23.0511 7.86408 23.7009 7.54745C24.3491 7.2316 24.8397 6.70623 24.9388 6.02517L24.371 5.94249C24.3073 6.38031 23.9845 6.77096 23.4496 7.03161C22.9162 7.29149 22.1989 7.40517 21.4271 7.29279L21.3444 7.86062ZM18.4226 5.0764C18.3235 5.75747 18.6438 6.40091 19.1751 6.88849C19.7077 7.37729 20.4736 7.73383 21.3444 7.86062L21.4271 7.29279C20.6553 7.18041 20.0002 6.86692 19.5631 6.46574C19.1247 6.06336 18.9267 5.5969 18.9905 5.15908L18.4226 5.0764ZM18.4227 5.07622L18.4226 5.0764L18.9905 5.15908L18.9905 5.1589L18.4227 5.07622ZM14.5985 4.80936L18.6652 5.40147L18.7479 4.83365L14.6812 4.24153L14.5985 4.80936ZM14.9237 4.56696L14.9238 4.56678L14.3559 4.4841L14.3559 4.48429L14.9237 4.56696ZM11.3293 6.40241C12.2001 6.5292 13.0359 6.40588 13.6858 6.08925C14.334 5.7734 14.8246 5.24802 14.9237 4.56696L14.3559 4.48429C14.2922 4.92211 13.9694 5.31275 13.4344 5.57341C12.9011 5.83328 12.1838 5.94696 11.412 5.83459L11.3293 6.40241ZM11.3292 6.40239L11.3293 6.40241L11.412 5.83459L11.4119 5.83457L11.3292 6.40239ZM8.21107 29.8093L11.6544 6.15982L11.0866 6.07714L7.64324 29.7266L8.21107 29.8093ZM7.88582 30.0518C7.88582 30.0518 7.88582 30.0518 7.88582 30.0518C7.88582 30.0518 7.88582 30.0518 7.88582 30.0518C7.88582 30.0518 7.88582 30.0518 7.88582 30.0518C7.88582 30.0518 7.88582 30.0518 7.88583 30.0518L7.88583 30.0518C7.88583 30.0518 7.88583 30.0518 7.88583 30.0518L7.88583 30.0518C7.88583 30.0518 7.88583 30.0518 7.88583 30.0518L7.88584 30.0518C7.88584 30.0518 7.88584 30.0518 7.88584 30.0518L7.88584 30.0518C7.88584 30.0518 7.88584 30.0518 7.88584 30.0518L7.88584 30.0518C7.88585 30.0518 7.88585 30.0518 7.88585 30.0518C7.88585 30.0518 7.88585 30.0518 7.88585 30.0518C7.88585 30.0518 7.88585 30.0518 7.88585 30.0518C7.88585 30.0518 7.88585 30.0518 7.88585 30.0518C7.88585 30.0518 7.88585 30.0518 7.88585 30.0518C7.88585 30.0518 7.88585 30.0518 7.88585 30.0518L7.88586 30.0518C7.88586 30.0518 7.88586 30.0518 7.88586 30.0518L7.88586 30.0518C7.88586 30.0518 7.88586 30.0518 7.88586 30.0518L7.88586 30.0518C7.88587 30.0518 7.88587 30.0518 7.88587 30.0518L7.88587 30.0518C7.88587 30.0518 7.88587 30.0518 7.88587 30.0518L7.88587 30.0518C7.88587 30.0518 7.88587 30.0518 7.88587 30.0518C7.88587 30.0518 7.88587 30.0518 7.88588 30.0518C7.88588 30.0518 7.88588 30.0518 7.88588 30.0518C7.88588 30.0518 7.88588 30.0518 7.88588 30.0518C7.88588 30.0518 7.88588 30.0518 7.88588 30.0518C7.88588 30.0518 7.88588 30.0518 7.88588 30.0518L7.88588 30.0518C7.88588 30.0518 7.88588 30.0518 7.88589 30.0518L7.88589 30.0518C7.88589 30.0518 7.88589 30.0518 7.88589 30.0518L7.88589 30.0518C7.88589 30.0518 7.88589 30.0518 7.88589 30.0518L7.8859 30.0518C7.8859 30.0518 7.8859 30.0518 7.8859 30.0518L7.8859 30.0518C7.8859 30.0518 7.8859 30.0518 7.8859 30.0518C7.8859 30.0518 7.8859 30.0518 7.8859 30.0518C7.88591 30.0518 7.88591 30.0518 7.88591 30.0518C7.88591 30.0518 7.88591 30.0518 7.88591 30.0518C7.88591 30.0518 7.88591 30.0518 7.88591 30.0518C7.88591 30.0518 7.88591 30.0518 7.88591 30.0518L7.88591 30.0518C7.88591 30.0518 7.88591 30.0518 7.88592 30.0518L7.88592 30.0518C7.88592 30.0518 7.88592 30.0518 7.88592 30.0518L7.88592 30.0518C7.88592 30.0518 7.88592 30.0518 7.88592 30.0518L7.88592 30.0518C7.88593 30.0518 7.88593 30.0518 7.88593 30.0518L7.88593 30.0518C7.88593 30.0518 7.88593 30.0518 7.88593 30.0518C7.88593 30.0518 7.88593 30.0518 7.88593 30.0518L7.96861 29.484C7.96861 29.484 7.96861 29.484 7.96861 29.484C7.96861 29.484 7.96861 29.484 7.9686 29.484L7.9686 29.484C7.9686 29.484 7.9686 29.484 7.9686 29.484L7.9686 29.484C7.9686 29.484 7.9686 29.484 7.9686 29.484L7.96859 29.484C7.96859 29.484 7.96859 29.484 7.96859 29.484L7.96859 29.484C7.96859 29.484 7.96859 29.484 7.96859 29.484L7.96859 29.484C7.96859 29.484 7.96859 29.484 7.96859 29.484C7.96859 29.484 7.96859 29.484 7.96858 29.484C7.96858 29.484 7.96858 29.484 7.96858 29.484C7.96858 29.484 7.96858 29.484 7.96858 29.484C7.96858 29.484 7.96858 29.484 7.96858 29.484C7.96858 29.484 7.96858 29.484 7.96858 29.484L7.96857 29.484C7.96857 29.484 7.96857 29.484 7.96857 29.484L7.96857 29.484C7.96857 29.484 7.96857 29.484 7.96857 29.484L7.96857 29.484C7.96856 29.484 7.96856 29.484 7.96856 29.484L7.96856 29.484C7.96856 29.484 7.96856 29.484 7.96856 29.484L7.96856 29.484C7.96856 29.484 7.96856 29.484 7.96856 29.484C7.96856 29.484 7.96856 29.484 7.96855 29.484C7.96855 29.484 7.96855 29.484 7.96855 29.484C7.96855 29.484 7.96855 29.484 7.96855 29.484C7.96855 29.484 7.96855 29.484 7.96855 29.484C7.96855 29.484 7.96855 29.484 7.96855 29.484L7.96855 29.484C7.96855 29.484 7.96855 29.484 7.96854 29.484L7.96854 29.484C7.96854 29.484 7.96854 29.484 7.96854 29.484L7.96854 29.484C7.96854 29.484 7.96854 29.484 7.96854 29.484L7.96853 29.484C7.96853 29.484 7.96853 29.484 7.96853 29.484L7.96853 29.484C7.96853 29.484 7.96853 29.484 7.96853 29.484C7.96853 29.484 7.96853 29.484 7.96853 29.484C7.96852 29.484 7.96852 29.484 7.96852 29.484C7.96852 29.484 7.96852 29.484 7.96852 29.484C7.96852 29.484 7.96852 29.484 7.96852 29.484C7.96852 29.484 7.96852 29.484 7.96852 29.484L7.96852 29.484C7.96852 29.484 7.96852 29.484 7.96852 29.484L7.96851 29.484C7.96851 29.484 7.96851 29.484 7.96851 29.484L7.96851 29.484C7.96851 29.484 7.96851 29.484 7.96851 29.484L7.96851 29.484C7.9685 29.484 7.9685 29.484 7.9685 29.484L7.9685 29.484C7.9685 29.484 7.9685 29.484 7.9685 29.484C7.9685 29.484 7.9685 29.484 7.9685 29.484C7.9685 29.484 7.9685 29.484 7.9685 29.484C7.9685 29.484 7.9685 29.484 7.96849 29.484L7.88582 30.0518ZM7.88593 30.0518C8.65772 30.1642 9.31278 30.4777 9.7499 30.8788C10.1883 31.2812 10.3863 31.7476 10.3226 32.1854L10.8904 32.2681C10.9895 31.587 10.6691 30.9436 10.1379 30.4561C9.60531 29.9673 8.83935 29.6108 7.96861 29.484L7.88593 30.0518ZM14.7146 32.535L10.6478 31.9428L10.5652 32.5107L14.6319 33.1028L14.7146 32.535ZM17.9838 30.9422C17.113 30.8154 16.2772 30.9387 15.6274 31.2553C14.9791 31.5712 14.4886 32.0965 14.3894 32.7775L14.9572 32.8602C15.021 32.4225 15.3437 32.0318 15.8787 31.7712C16.4121 31.5113 17.1293 31.3977 17.9011 31.5101L17.9838 30.9422ZM20.9056 33.7263C21.0047 33.0452 20.6843 32.4018 20.153 31.9143C19.6205 31.4255 18.8545 31.069 17.9838 30.9422L17.9011 31.5101C18.6729 31.6224 19.328 31.9359 19.7651 32.337C20.2035 32.7394 20.4015 33.2058 20.3378 33.6437L20.9056 33.7263ZM24.7297 33.9932L20.663 33.4011L20.5803 33.9689L24.647 34.561L24.7297 33.9932ZM27.9988 32.4004C27.128 32.2737 26.2922 32.397 25.6424 32.7136C24.9942 33.0294 24.5037 33.5547 24.4044 34.2357L24.9722 34.3184C25.036 33.8807 25.3588 33.49 25.8937 33.2294C26.4271 32.9696 27.1443 32.8559 27.9161 32.9683L27.9988 32.4004Z"
                fill="url(#paint4_linear_4501_78317)" mask="url(#path-10-inside-2_4501_78317)" />
            <path
                d="M31.4008 9.03487L31.6847 9.07621L31.7261 8.7923L31.4421 8.75096L31.4008 9.03487ZM27.9574 32.6844L27.9161 32.9683L28.2 33.0096L28.2414 32.7257L27.9574 32.6844ZM28.7217 6.57576L29.0056 6.6171L29.0469 6.33318L28.763 6.29185L28.7217 6.57576ZM24.655 5.98364L24.6963 5.69973L24.4124 5.65839L24.371 5.94231L24.655 5.98364ZM24.6549 5.98383L24.9388 6.02517L24.6549 5.98383ZM18.7065 5.11774L18.4226 5.0764L18.7065 5.11774ZM18.7066 5.11756L18.9905 5.1589L19.0318 4.87498L18.7479 4.83365L18.7066 5.11756ZM14.6398 4.52544L14.6812 4.24153L14.3973 4.20019L14.3559 4.4841L14.6398 4.52544ZM11.3705 6.11848L11.4119 5.83457L11.1279 5.79323L11.0866 6.07714L11.3705 6.11848ZM7.92716 29.7679L7.64324 29.7266L7.60191 30.0105L7.88582 30.0518L7.92716 29.7679ZM10.6065 32.2268L10.3226 32.1854L10.2813 32.4693L10.5652 32.5107L10.6065 32.2268ZM14.6733 32.8189L14.6319 33.1028L14.9158 33.1441L14.9572 32.8602L14.6733 32.8189ZM20.6217 33.685L20.3378 33.6437L20.2965 33.9275L20.5803 33.9689L20.6217 33.685ZM24.6883 34.2771L24.647 34.561L24.9309 34.6023L24.9722 34.3184L24.6883 34.2771ZM31.1169 8.99354L27.6735 32.643L28.2414 32.7257L31.6847 9.07621L31.1169 8.99354ZM28.4378 6.53459C28.3386 7.21564 28.6589 7.85907 29.1902 8.34665C29.7227 8.83544 30.4887 9.19199 31.3595 9.31879L31.4421 8.75096C30.6703 8.63857 30.0153 8.32507 29.5782 7.9239C29.1398 7.52153 28.9418 7.05508 29.0056 6.61726L28.4378 6.53459ZM28.4378 6.53442L28.4378 6.53459L29.0056 6.61726L29.0056 6.6171L28.4378 6.53442ZM24.6136 6.26756L28.6804 6.85967L28.763 6.29185L24.6963 5.69973L24.6136 6.26756ZM24.9388 6.02517L24.9389 6.02498L24.371 5.94231L24.371 5.94249L24.9388 6.02517ZM21.3444 7.86062C22.2152 7.9874 23.0511 7.86408 23.7009 7.54745C24.3491 7.2316 24.8397 6.70623 24.9388 6.02517L24.371 5.94249C24.3073 6.38031 23.9845 6.77096 23.4496 7.03161C22.9162 7.29149 22.1989 7.40517 21.4271 7.29279L21.3444 7.86062ZM18.4226 5.0764C18.3235 5.75747 18.6438 6.40091 19.1751 6.88849C19.7077 7.37729 20.4736 7.73383 21.3444 7.86062L21.4271 7.29279C20.6553 7.18041 20.0002 6.86692 19.5631 6.46574C19.1247 6.06336 18.9267 5.5969 18.9905 5.15908L18.4226 5.0764ZM18.4227 5.07622L18.4226 5.0764L18.9905 5.15908L18.9905 5.1589L18.4227 5.07622ZM14.5985 4.80936L18.6652 5.40147L18.7479 4.83365L14.6812 4.24153L14.5985 4.80936ZM14.9237 4.56696L14.9238 4.56678L14.3559 4.4841L14.3559 4.48429L14.9237 4.56696ZM11.3293 6.40241C12.2001 6.5292 13.0359 6.40588 13.6858 6.08925C14.334 5.7734 14.8246 5.24802 14.9237 4.56696L14.3559 4.48429C14.2922 4.92211 13.9694 5.31275 13.4344 5.57341C12.9011 5.83328 12.1838 5.94696 11.412 5.83459L11.3293 6.40241ZM11.3292 6.40239L11.3293 6.40241L11.412 5.83459L11.4119 5.83457L11.3292 6.40239ZM8.21107 29.8093L11.6544 6.15982L11.0866 6.07714L7.64324 29.7266L8.21107 29.8093ZM7.88582 30.0518C7.88582 30.0518 7.88582 30.0518 7.88582 30.0518C7.88582 30.0518 7.88582 30.0518 7.88582 30.0518C7.88582 30.0518 7.88582 30.0518 7.88582 30.0518C7.88582 30.0518 7.88582 30.0518 7.88583 30.0518L7.88583 30.0518C7.88583 30.0518 7.88583 30.0518 7.88583 30.0518L7.88583 30.0518C7.88583 30.0518 7.88583 30.0518 7.88583 30.0518L7.88584 30.0518C7.88584 30.0518 7.88584 30.0518 7.88584 30.0518L7.88584 30.0518C7.88584 30.0518 7.88584 30.0518 7.88584 30.0518L7.88584 30.0518C7.88585 30.0518 7.88585 30.0518 7.88585 30.0518C7.88585 30.0518 7.88585 30.0518 7.88585 30.0518C7.88585 30.0518 7.88585 30.0518 7.88585 30.0518C7.88585 30.0518 7.88585 30.0518 7.88585 30.0518C7.88585 30.0518 7.88585 30.0518 7.88585 30.0518C7.88585 30.0518 7.88585 30.0518 7.88585 30.0518L7.88586 30.0518C7.88586 30.0518 7.88586 30.0518 7.88586 30.0518L7.88586 30.0518C7.88586 30.0518 7.88586 30.0518 7.88586 30.0518L7.88586 30.0518C7.88587 30.0518 7.88587 30.0518 7.88587 30.0518L7.88587 30.0518C7.88587 30.0518 7.88587 30.0518 7.88587 30.0518L7.88587 30.0518C7.88587 30.0518 7.88587 30.0518 7.88587 30.0518C7.88587 30.0518 7.88587 30.0518 7.88588 30.0518C7.88588 30.0518 7.88588 30.0518 7.88588 30.0518C7.88588 30.0518 7.88588 30.0518 7.88588 30.0518C7.88588 30.0518 7.88588 30.0518 7.88588 30.0518C7.88588 30.0518 7.88588 30.0518 7.88588 30.0518L7.88588 30.0518C7.88588 30.0518 7.88588 30.0518 7.88589 30.0518L7.88589 30.0518C7.88589 30.0518 7.88589 30.0518 7.88589 30.0518L7.88589 30.0518C7.88589 30.0518 7.88589 30.0518 7.88589 30.0518L7.8859 30.0518C7.8859 30.0518 7.8859 30.0518 7.8859 30.0518L7.8859 30.0518C7.8859 30.0518 7.8859 30.0518 7.8859 30.0518C7.8859 30.0518 7.8859 30.0518 7.8859 30.0518C7.88591 30.0518 7.88591 30.0518 7.88591 30.0518C7.88591 30.0518 7.88591 30.0518 7.88591 30.0518C7.88591 30.0518 7.88591 30.0518 7.88591 30.0518C7.88591 30.0518 7.88591 30.0518 7.88591 30.0518L7.88591 30.0518C7.88591 30.0518 7.88591 30.0518 7.88592 30.0518L7.88592 30.0518C7.88592 30.0518 7.88592 30.0518 7.88592 30.0518L7.88592 30.0518C7.88592 30.0518 7.88592 30.0518 7.88592 30.0518L7.88592 30.0518C7.88593 30.0518 7.88593 30.0518 7.88593 30.0518L7.88593 30.0518C7.88593 30.0518 7.88593 30.0518 7.88593 30.0518C7.88593 30.0518 7.88593 30.0518 7.88593 30.0518L7.96861 29.484C7.96861 29.484 7.96861 29.484 7.96861 29.484C7.96861 29.484 7.96861 29.484 7.9686 29.484L7.9686 29.484C7.9686 29.484 7.9686 29.484 7.9686 29.484L7.9686 29.484C7.9686 29.484 7.9686 29.484 7.9686 29.484L7.96859 29.484C7.96859 29.484 7.96859 29.484 7.96859 29.484L7.96859 29.484C7.96859 29.484 7.96859 29.484 7.96859 29.484L7.96859 29.484C7.96859 29.484 7.96859 29.484 7.96859 29.484C7.96859 29.484 7.96859 29.484 7.96858 29.484C7.96858 29.484 7.96858 29.484 7.96858 29.484C7.96858 29.484 7.96858 29.484 7.96858 29.484C7.96858 29.484 7.96858 29.484 7.96858 29.484C7.96858 29.484 7.96858 29.484 7.96858 29.484L7.96857 29.484C7.96857 29.484 7.96857 29.484 7.96857 29.484L7.96857 29.484C7.96857 29.484 7.96857 29.484 7.96857 29.484L7.96857 29.484C7.96856 29.484 7.96856 29.484 7.96856 29.484L7.96856 29.484C7.96856 29.484 7.96856 29.484 7.96856 29.484L7.96856 29.484C7.96856 29.484 7.96856 29.484 7.96856 29.484C7.96856 29.484 7.96856 29.484 7.96855 29.484C7.96855 29.484 7.96855 29.484 7.96855 29.484C7.96855 29.484 7.96855 29.484 7.96855 29.484C7.96855 29.484 7.96855 29.484 7.96855 29.484C7.96855 29.484 7.96855 29.484 7.96855 29.484L7.96855 29.484C7.96855 29.484 7.96855 29.484 7.96854 29.484L7.96854 29.484C7.96854 29.484 7.96854 29.484 7.96854 29.484L7.96854 29.484C7.96854 29.484 7.96854 29.484 7.96854 29.484L7.96853 29.484C7.96853 29.484 7.96853 29.484 7.96853 29.484L7.96853 29.484C7.96853 29.484 7.96853 29.484 7.96853 29.484C7.96853 29.484 7.96853 29.484 7.96853 29.484C7.96852 29.484 7.96852 29.484 7.96852 29.484C7.96852 29.484 7.96852 29.484 7.96852 29.484C7.96852 29.484 7.96852 29.484 7.96852 29.484C7.96852 29.484 7.96852 29.484 7.96852 29.484L7.96852 29.484C7.96852 29.484 7.96852 29.484 7.96852 29.484L7.96851 29.484C7.96851 29.484 7.96851 29.484 7.96851 29.484L7.96851 29.484C7.96851 29.484 7.96851 29.484 7.96851 29.484L7.96851 29.484C7.9685 29.484 7.9685 29.484 7.9685 29.484L7.9685 29.484C7.9685 29.484 7.9685 29.484 7.9685 29.484C7.9685 29.484 7.9685 29.484 7.9685 29.484C7.9685 29.484 7.9685 29.484 7.9685 29.484C7.9685 29.484 7.9685 29.484 7.96849 29.484L7.88582 30.0518ZM7.88593 30.0518C8.65772 30.1642 9.31278 30.4777 9.7499 30.8788C10.1883 31.2812 10.3863 31.7476 10.3226 32.1854L10.8904 32.2681C10.9895 31.587 10.6691 30.9436 10.1379 30.4561C9.60531 29.9673 8.83935 29.6108 7.96861 29.484L7.88593 30.0518ZM14.7146 32.535L10.6478 31.9428L10.5652 32.5107L14.6319 33.1028L14.7146 32.535ZM17.9838 30.9422C17.113 30.8154 16.2772 30.9387 15.6274 31.2553C14.9791 31.5712 14.4886 32.0965 14.3894 32.7775L14.9572 32.8602C15.021 32.4225 15.3437 32.0318 15.8787 31.7712C16.4121 31.5113 17.1293 31.3977 17.9011 31.5101L17.9838 30.9422ZM20.9056 33.7263C21.0047 33.0452 20.6843 32.4018 20.153 31.9143C19.6205 31.4255 18.8545 31.069 17.9838 30.9422L17.9011 31.5101C18.6729 31.6224 19.328 31.9359 19.7651 32.337C20.2035 32.7394 20.4015 33.2058 20.3378 33.6437L20.9056 33.7263ZM24.7297 33.9932L20.663 33.4011L20.5803 33.9689L24.647 34.561L24.7297 33.9932ZM27.9988 32.4004C27.128 32.2737 26.2922 32.397 25.6424 32.7136C24.9942 33.0294 24.5037 33.5547 24.4044 34.2357L24.9722 34.3184C25.036 33.8807 25.3588 33.49 25.8937 33.2294C26.4271 32.9696 27.1443 32.8559 27.9161 32.9683L27.9988 32.4004Z"
                fill="url(#paint5_linear_4501_78317)" mask="url(#path-10-inside-2_4501_78317)" />
        </g>
        <mask id="path-12-inside-3_4501_78317" fill="white">
            <path fill-rule="evenodd" clip-rule="evenodd"
                d="M28.4364 32.9197C27.1174 32.9888 26.1042 34.114 26.1732 35.433L22.9076 35.6041C22.8385 34.2852 21.7132 33.272 20.3942 33.3411C19.0753 33.4103 18.062 34.5355 18.1311 35.8544L14.8655 36.0256C14.7963 34.7066 13.671 33.6935 12.3521 33.7626L10.891 5.8832C12.21 5.81408 13.2232 4.68877 13.1541 3.36977L13.1541 3.36963L16.4197 3.19849L16.4197 3.19861C16.4888 4.51762 17.6141 5.53085 18.9331 5.46172C20.2521 5.39259 21.2654 4.26729 21.1962 2.94828L21.1962 2.94816L24.4618 2.77702L24.4618 2.77715C24.531 4.09615 25.6563 5.10938 26.9753 5.04025L28.4364 32.9197Z" />
        </mask>
        <path fill-rule="evenodd" clip-rule="evenodd"
            d="M28.4364 32.9197C27.1174 32.9888 26.1042 34.114 26.1732 35.433L22.9076 35.6041C22.8385 34.2852 21.7132 33.272 20.3942 33.3411C19.0753 33.4103 18.062 34.5355 18.1311 35.8544L14.8655 36.0256C14.7963 34.7066 13.671 33.6935 12.3521 33.7626L10.891 5.8832C12.21 5.81408 13.2232 4.68877 13.1541 3.36977L13.1541 3.36963L16.4197 3.19849L16.4197 3.19861C16.4888 4.51762 17.6141 5.53085 18.9331 5.46172C20.2521 5.39259 21.2654 4.26729 21.1962 2.94828L21.1962 2.94816L24.4618 2.77702L24.4618 2.77715C24.531 4.09615 25.6563 5.10938 26.9753 5.04025L28.4364 32.9197Z"
            fill="url(#paint6_radial_4501_78317)" />
        <path
            d="M26.1732 35.433L26.1886 35.7254L26.481 35.7101L26.4657 35.4177L26.1732 35.433ZM28.4364 32.9197L28.4517 33.2121L28.7441 33.1968L28.7288 32.9043L28.4364 32.9197ZM22.9076 35.6041L22.6152 35.6195L22.6305 35.9119L22.923 35.8966L22.9076 35.6041ZM18.1311 35.8544L18.1464 36.1469L18.4389 36.1316L18.4235 35.8391L18.1311 35.8544ZM14.8655 36.0256L14.5731 36.0409L14.5884 36.3334L14.8808 36.318L14.8655 36.0256ZM12.3521 33.7626L12.0596 33.7779L12.075 34.0704L12.3674 34.0551L12.3521 33.7626ZM10.891 5.8832L10.8757 5.59076L10.5832 5.60609L10.5985 5.89853L10.891 5.8832ZM13.1541 3.36963L13.1388 3.07719L12.8463 3.09252L12.8616 3.38496L13.1541 3.36963ZM16.4197 3.19849L16.7121 3.18316L16.6968 2.89072L16.4044 2.90605L16.4197 3.19849ZM21.1962 2.94816L21.1809 2.65572L20.8885 2.67105L20.9038 2.96349L21.1962 2.94816ZM24.4618 2.77702L24.7543 2.76169L24.7389 2.46925L24.4465 2.48458L24.4618 2.77702ZM26.9753 5.04025L27.2677 5.02493L27.2524 4.73249L26.9599 4.74781L26.9753 5.04025ZM26.4657 35.4177C26.4051 34.2602 27.2942 33.2728 28.4517 33.2121L28.421 32.6272C26.9406 32.7048 25.8033 33.9678 25.8808 35.4483L26.4657 35.4177ZM22.923 35.8966L26.1886 35.7254L26.1579 35.1405L22.8923 35.3117L22.923 35.8966ZM20.4095 33.6336C21.567 33.5729 22.5545 34.462 22.6152 35.6195L23.2001 35.5888C23.1224 34.1083 21.8594 32.9711 20.3789 33.0487L20.4095 33.6336ZM18.4235 35.8391C18.3629 34.6817 19.2521 33.6942 20.4095 33.6336L20.3789 33.0487C18.8984 33.1263 17.7611 34.3893 17.8387 35.8698L18.4235 35.8391ZM14.8808 36.318L18.1464 36.1469L18.1158 35.562L14.8502 35.7331L14.8808 36.318ZM12.3674 34.0551C13.5249 33.9944 14.5123 34.8835 14.5731 36.0409L15.158 36.0103C15.0803 34.5298 13.8172 33.3926 12.3368 33.4702L12.3674 34.0551ZM10.5985 5.89853L12.0596 33.7779L12.6445 33.7473L11.1834 5.86788L10.5985 5.89853ZM12.8617 3.38509C12.9223 4.54259 12.0332 5.5301 10.8757 5.59076L10.9063 6.17564C12.3868 6.09805 13.5241 4.83496 13.4465 3.35444L12.8617 3.38509ZM12.8616 3.38496L12.8617 3.38509L13.4465 3.35444L13.4465 3.35431L12.8616 3.38496ZM16.4044 2.90605L13.1388 3.07719L13.1694 3.66207L16.435 3.49093L16.4044 2.90605ZM16.7121 3.18329L16.7121 3.18316L16.1272 3.21382L16.1272 3.21394L16.7121 3.18329ZM18.9178 5.16928C17.7603 5.22994 16.7728 4.34078 16.7121 3.18329L16.1272 3.21394C16.2048 4.69445 17.4679 5.83175 18.9485 5.75416L18.9178 5.16928ZM20.9038 2.96361C20.9645 4.1211 20.0753 5.10862 18.9178 5.16928L18.9485 5.75416C20.429 5.67657 21.5663 4.41347 21.4887 2.93296L20.9038 2.96361ZM20.9038 2.96349L20.9038 2.96361L21.4887 2.93296L21.4887 2.93284L20.9038 2.96349ZM24.4465 2.48458L21.1809 2.65572L21.2116 3.2406L24.4772 3.06946L24.4465 2.48458ZM24.7543 2.76182L24.7543 2.76169L24.1694 2.79235L24.1694 2.79247L24.7543 2.76182ZM26.9599 4.74781C25.8024 4.80847 24.8149 3.91931 24.7543 2.76182L24.1694 2.79247C24.247 4.27299 25.5101 5.41029 26.9906 5.33269L26.9599 4.74781ZM28.7288 32.9043L27.2677 5.02493L26.6828 5.05558L28.1439 32.935L28.7288 32.9043Z"
            fill="url(#paint7_linear_4501_78317)" fill-opacity="0.58"
            mask="url(#path-12-inside-3_4501_78317)" />
        <path
            d="M26.1732 35.433L26.1886 35.7254L26.481 35.7101L26.4657 35.4177L26.1732 35.433ZM28.4364 32.9197L28.4517 33.2121L28.7441 33.1968L28.7288 32.9043L28.4364 32.9197ZM22.9076 35.6041L22.6152 35.6195L22.6305 35.9119L22.923 35.8966L22.9076 35.6041ZM18.1311 35.8544L18.1464 36.1469L18.4389 36.1316L18.4235 35.8391L18.1311 35.8544ZM14.8655 36.0256L14.5731 36.0409L14.5884 36.3334L14.8808 36.318L14.8655 36.0256ZM12.3521 33.7626L12.0596 33.7779L12.075 34.0704L12.3674 34.0551L12.3521 33.7626ZM10.891 5.8832L10.8757 5.59076L10.5832 5.60609L10.5985 5.89853L10.891 5.8832ZM13.1541 3.36963L13.1388 3.07719L12.8463 3.09252L12.8616 3.38496L13.1541 3.36963ZM16.4197 3.19849L16.7121 3.18316L16.6968 2.89072L16.4044 2.90605L16.4197 3.19849ZM21.1962 2.94816L21.1809 2.65572L20.8885 2.67105L20.9038 2.96349L21.1962 2.94816ZM24.4618 2.77702L24.7543 2.76169L24.7389 2.46925L24.4465 2.48458L24.4618 2.77702ZM26.9753 5.04025L27.2677 5.02493L27.2524 4.73249L26.9599 4.74781L26.9753 5.04025ZM26.4657 35.4177C26.4051 34.2602 27.2942 33.2728 28.4517 33.2121L28.421 32.6272C26.9406 32.7048 25.8033 33.9678 25.8808 35.4483L26.4657 35.4177ZM22.923 35.8966L26.1886 35.7254L26.1579 35.1405L22.8923 35.3117L22.923 35.8966ZM20.4095 33.6336C21.567 33.5729 22.5545 34.462 22.6152 35.6195L23.2001 35.5888C23.1224 34.1083 21.8594 32.9711 20.3789 33.0487L20.4095 33.6336ZM18.4235 35.8391C18.3629 34.6817 19.2521 33.6942 20.4095 33.6336L20.3789 33.0487C18.8984 33.1263 17.7611 34.3893 17.8387 35.8698L18.4235 35.8391ZM14.8808 36.318L18.1464 36.1469L18.1158 35.562L14.8502 35.7331L14.8808 36.318ZM12.3674 34.0551C13.5249 33.9944 14.5123 34.8835 14.5731 36.0409L15.158 36.0103C15.0803 34.5298 13.8172 33.3926 12.3368 33.4702L12.3674 34.0551ZM10.5985 5.89853L12.0596 33.7779L12.6445 33.7473L11.1834 5.86788L10.5985 5.89853ZM12.8617 3.38509C12.9223 4.54259 12.0332 5.5301 10.8757 5.59076L10.9063 6.17564C12.3868 6.09805 13.5241 4.83496 13.4465 3.35444L12.8617 3.38509ZM12.8616 3.38496L12.8617 3.38509L13.4465 3.35444L13.4465 3.35431L12.8616 3.38496ZM16.4044 2.90605L13.1388 3.07719L13.1694 3.66207L16.435 3.49093L16.4044 2.90605ZM16.7121 3.18329L16.7121 3.18316L16.1272 3.21382L16.1272 3.21394L16.7121 3.18329ZM18.9178 5.16928C17.7603 5.22994 16.7728 4.34078 16.7121 3.18329L16.1272 3.21394C16.2048 4.69445 17.4679 5.83175 18.9485 5.75416L18.9178 5.16928ZM20.9038 2.96361C20.9645 4.1211 20.0753 5.10862 18.9178 5.16928L18.9485 5.75416C20.429 5.67657 21.5663 4.41347 21.4887 2.93296L20.9038 2.96361ZM20.9038 2.96349L20.9038 2.96361L21.4887 2.93296L21.4887 2.93284L20.9038 2.96349ZM24.4465 2.48458L21.1809 2.65572L21.2116 3.2406L24.4772 3.06946L24.4465 2.48458ZM24.7543 2.76182L24.7543 2.76169L24.1694 2.79235L24.1694 2.79247L24.7543 2.76182ZM26.9599 4.74781C25.8024 4.80847 24.8149 3.91931 24.7543 2.76182L24.1694 2.79247C24.247 4.27299 25.5101 5.41029 26.9906 5.33269L26.9599 4.74781ZM28.7288 32.9043L27.2677 5.02493L26.6828 5.05558L28.1439 32.935L28.7288 32.9043Z"
            fill="url(#paint8_linear_4501_78317)" mask="url(#path-12-inside-3_4501_78317)" />
        <g opacity="0.6" filter="url(#filter1_f_4501_78317)">
            <path
                d="M24.9724 18.8609C25.7693 15.7658 24.0388 12.4881 20.9692 11.2902C18.911 10.4868 16.7423 10.7542 15.0569 11.7851C14.966 11.8406 14.9973 11.9782 15.1053 11.9935C15.5872 12.0587 16.0743 12.1668 16.5624 12.3174C18.175 12.8151 19.517 13.6945 20.4257 14.8641C20.9027 14.6254 21.3204 14.2733 21.6082 13.843C21.6689 13.7518 21.8135 13.7964 21.8122 13.9059C21.8024 14.9285 22.3789 15.9797 23.2607 16.5479C23.3547 16.6086 23.3115 16.7486 23.1996 16.7458C22.6222 16.7304 22.0395 16.8899 21.5371 17.1758C21.5371 17.1758 21.5368 17.1767 21.5365 17.1777C21.8005 18.2964 21.7624 19.5512 21.3447 20.9046C21.0644 21.813 20.6692 22.5876 20.1845 23.2341C20.1203 23.319 20.204 23.4378 20.3088 23.411C22.5204 22.8671 24.3679 21.2022 24.9704 18.8602L24.9724 18.8609Z"
                fill="white" />
            <path
                d="M20.426 14.8657C19.9616 15.0988 19.4391 15.2251 18.9205 15.212C18.8645 15.2106 18.826 15.2441 18.8132 15.2857C18.8004 15.3272 18.8133 15.3766 18.8603 15.407C19.7418 15.9761 20.3187 17.0264 20.3088 18.0489C20.3076 18.1585 20.4521 18.2031 20.5128 18.1119C20.7684 17.7298 21.1253 17.4096 21.5367 17.1761C21.3338 16.3195 20.9538 15.5446 20.426 14.8657Z"
                fill="white" />
        </g>
        <path
            d="M24.8133 19.2748C25.8446 16.2498 24.3699 12.8493 21.4009 11.4201C19.4101 10.4617 17.2273 10.5625 15.468 11.4614C15.3732 11.5098 15.3938 11.6494 15.5004 11.673C15.9759 11.7748 16.4533 11.9198 16.9284 12.1073C18.4982 12.7269 19.769 13.7063 20.5856 14.942C21.0795 14.7405 21.5229 14.4214 21.8428 14.0143C21.9103 13.928 22.051 13.9836 22.0413 14.0927C21.9533 15.1115 22.4478 16.2037 23.2836 16.8377C23.3727 16.9055 23.3189 17.0417 23.2075 17.0303C22.6329 16.9708 22.0397 17.0853 21.5169 17.3319C21.5169 17.3319 21.5166 17.3328 21.5162 17.3338C21.694 18.4694 21.56 19.7176 21.04 21.0351C20.691 21.9194 20.2377 22.6615 19.705 23.2691C19.6345 23.3488 19.7089 23.4737 19.8154 23.4549C22.0622 23.0818 24.0316 21.5631 24.8114 19.274L24.8133 19.2748Z"
            fill="white" />
        <path
            d="M20.5859 14.9437C20.105 15.1405 19.5743 15.2265 19.0583 15.1738C19.0026 15.1681 18.9616 15.1986 18.9457 15.239C18.9297 15.2794 18.9388 15.3297 18.9834 15.3636C19.8188 15.9985 20.3136 17.0898 20.2256 18.1086C20.216 18.2177 20.3567 18.2733 20.4241 18.187C20.7082 17.8255 21.0885 17.5336 21.5166 17.3322C21.3798 16.4626 21.0602 15.6609 20.5859 14.9437Z"
            fill="white" />
        <path opacity="0.5" fill-rule="evenodd" clip-rule="evenodd"
            d="M25.1201 30.259L15.372 30.7699C14.5645 30.8122 13.8755 30.1919 13.8332 29.3843L13.6799 26.4599L26.3522 25.7958L26.3524 25.7958L26.5056 28.7202C26.548 29.5277 25.9276 30.2167 25.1201 30.259ZM26.814 25.281L25.9809 9.38516C25.9245 8.30842 25.0059 7.4813 23.9292 7.53773L14.1811 8.0486C13.1044 8.10503 12.2772 9.02364 12.3337 10.1004L13.1668 25.9981L13.1924 26.4855L13.1925 26.4855L13.3458 29.4098C13.4022 30.4866 14.3208 31.3137 15.3976 31.2573L25.1456 30.7464C26.2224 30.69 27.0495 29.7714 26.993 28.6946L26.8397 25.7684L26.8141 25.281L26.814 25.281ZM26.3266 25.3065L25.4935 9.41071C25.4512 8.60315 24.7623 7.98281 23.9547 8.02513L14.2067 8.536C13.3991 8.57833 12.7788 9.26729 12.8211 10.0748L13.6541 25.9707L13.6543 25.9707L26.3266 25.3065Z"
            fill="url(#paint9_linear_4501_78317)" />
        <g filter="url(#filter2_d_4501_78317)">
            <path
                d="M19.7822 26.4523C19.8124 26.341 19.9671 26.3329 20.0088 26.4404V26.4404C20.2649 27.1006 20.8194 27.5999 21.5028 27.7856V27.7856C21.614 27.8158 21.6221 27.9705 21.5146 28.0122V28.0122C20.8545 28.2683 20.3552 28.8228 20.1695 29.5062V29.5062C20.1392 29.6174 19.9845 29.6255 19.9428 29.518V29.518C19.6867 28.8579 19.1322 28.3586 18.4489 28.1729V28.1729C18.3376 28.1426 18.3295 27.9879 18.437 27.9462V27.9462C19.0972 27.6901 19.5964 27.1356 19.7822 26.4523V26.4523Z"
                fill="white" />
        </g>
        <path opacity="0.3"
            d="M16.0701 27.1695C16.0953 27.0768 16.2242 27.0701 16.2589 27.1596C16.4724 27.7098 16.9344 28.1258 17.5039 28.2806C17.5966 28.3058 17.6033 28.4347 17.5138 28.4694C16.9636 28.6829 16.5476 29.145 16.3928 29.7144C16.3676 29.8071 16.2387 29.8138 16.204 29.7243C15.9905 29.1741 15.5284 28.7581 14.959 28.6033C14.8663 28.5781 14.8596 28.4492 14.9491 28.4145C15.4993 28.201 15.9153 27.739 16.0701 27.1695Z"
            fill="white" />
        <path opacity="0.3"
            d="M23.8611 26.7613C23.8863 26.6686 24.0152 26.6619 24.0499 26.7514C24.2634 27.3016 24.7254 27.7176 25.2949 27.8724C25.3876 27.8976 25.3943 28.0265 25.3048 28.0612C24.7546 28.2747 24.3386 28.7368 24.1838 29.3062C24.1586 29.3989 24.0297 29.4056 23.995 29.3161C23.7815 28.7659 23.3195 28.3499 22.75 28.1951C22.6573 28.1699 22.6506 28.041 22.7401 28.0063C23.2903 27.7928 23.7063 27.3308 23.8611 26.7613Z"
            fill="white" />
        <path
            d="M15.0249 17.0213L13.5788 17.4172L13.5452 18.9161L13.1493 17.47L11.6504 17.4364L13.0965 17.0405L13.1301 15.5415L13.526 16.9876L15.0249 17.0213Z"
            fill="url(#paint10_radial_4501_78317)" />
        <path
            d="M21.8838 25.5257L20.4377 25.9215L20.4041 27.4205L20.0082 25.9744L18.5092 25.9407L19.9554 25.5449L19.989 24.0459L20.3849 25.492L21.8838 25.5257Z"
            fill="url(#paint11_radial_4501_78317)" />
        <path
            d="M26.7415 15.6625L26.4826 17.184L27.8668 17.8667L26.3453 17.6078L25.6626 18.992L25.9215 17.4705L24.5373 16.7878L26.0588 17.0467L26.7415 15.6625Z"
            fill="url(#paint12_radial_4501_78317)" />
    </g>
    <defs>
        <filter id="filter0_f_4501_78317" x="-3.97022" y="-7.37207" width="47.2686" height="53.5464"
            filterUnits="userSpaceOnUse" color-interpolation-filters="sRGB">
            <feFlood flood-opacity="0" result="BackgroundImageFix" />
            <feBlend mode="normal" in="SourceGraphic" in2="BackgroundImageFix" result="shape" />
            <feGaussianBlur stdDeviation="5.94873" result="effect1_foregroundBlur_4501_78317" />
        </filter>
        <filter id="filter1_f_4501_78317" x="10.2034" y="6.02031" width="19.7621" height="22.1947"
            filterUnits="userSpaceOnUse" color-interpolation-filters="sRGB">
            <feFlood flood-opacity="0" result="BackgroundImageFix" />
            <feBlend mode="normal" in="SourceGraphic" in2="BackgroundImageFix" result="shape" />
            <feGaussianBlur stdDeviation="2.4" result="effect1_foregroundBlur_4501_78317" />
        </filter>
        <filter id="filter2_d_4501_78317" x="16.4893" y="25.7404" width="6.973" height="6.973"
            filterUnits="userSpaceOnUse" color-interpolation-filters="sRGB">
            <feFlood flood-opacity="0" result="BackgroundImageFix" />
            <feColorMatrix in="SourceAlpha" type="matrix"
                values="0 0 0 0 0 0 0 0 0 0 0 0 0 0 0 0 0 0 127 0" result="hardAlpha" />
            <feOffset dy="1.24767" />
            <feGaussianBlur stdDeviation="0.935755" />
            <feComposite in2="hardAlpha" operator="out" />
            <feColorMatrix type="matrix"
                values="0 0 0 0 0.729167 0 0 0 0 0.04375 0 0 0 0 0 0 0 0 0.44 0" />
            <feBlend mode="normal" in2="BackgroundImageFix" result="effect1_dropShadow_4501_78317" />
            <feBlend mode="normal" in="SourceGraphic" in2="effect1_dropShadow_4501_78317"
                result="shape" />
        </filter>
        <linearGradient id="paint0_linear_4501_78317" x1="16.7948" y1="11.6521" x2="30.5193"
            y2="20.2839" gradientUnits="userSpaceOnUse">
            <stop stop-color="#98290C" />
            <stop offset="1" stop-color="#FF5D02" />
        </linearGradient>
        <linearGradient id="paint1_linear_4501_78317" x1="25.2108" y1="-7.58033" x2="19.0891"
            y2="3.78883" gradientUnits="userSpaceOnUse">
            <stop stop-color="white" />
            <stop offset="1" stop-color="white" stop-opacity="0" />
        </linearGradient>
        <linearGradient id="paint2_linear_4501_78317" x1="45.8702" y1="6.86102" x2="7.37161"
            y2="22.1763" gradientUnits="userSpaceOnUse">
            <stop stop-color="white" stop-opacity="0" />
            <stop offset="0.73465" stop-color="white" />
            <stop offset="1" stop-color="white" stop-opacity="0" />
        </linearGradient>
        <linearGradient id="paint3_linear_4501_78317" x1="6.33027" y1="13.4186" x2="27.0923"
            y2="18.5767" gradientUnits="userSpaceOnUse">
            <stop stop-color="#98290C" />
            <stop offset="1" stop-color="#FF5D02" />
        </linearGradient>
        <linearGradient id="paint4_linear_4501_78317" x1="6.81124" y1="-5.56541" x2="5.13471"
            y2="5.94924" gradientUnits="userSpaceOnUse">
            <stop stop-color="white" />
            <stop offset="1" stop-color="white" stop-opacity="0" />
        </linearGradient>
        <linearGradient id="paint5_linear_4501_78317" x1="0.923817" y1="34.8702" x2="1.83282"
            y2="28.6271" gradientUnits="userSpaceOnUse">
            <stop />
            <stop offset="1" stop-opacity="0" />
        </linearGradient>
        <radialGradient id="paint6_radial_4501_78317" cx="0" cy="0" r="1"
            gradientUnits="userSpaceOnUse"
            gradientTransform="translate(13.5241 41.3972) rotate(-67.2019) scale(44.3119 62.9736)">
            <stop stop-color="#AA160C" />
            <stop offset="0.620539" stop-color="#FF6B00" />
            <stop offset="1" stop-color="#F84B00" />
        </radialGradient>
        <linearGradient id="paint7_linear_4501_78317" x1="8.07925" y1="-1.43895" x2="19.2014"
            y2="19.4936" gradientUnits="userSpaceOnUse">
            <stop stop-color="white" />
            <stop offset="1" stop-color="white" stop-opacity="0" />
        </linearGradient>
        <linearGradient id="paint8_linear_4501_78317" x1="7.7997" y1="41.0878" x2="7.41399"
            y2="33.728" gradientUnits="userSpaceOnUse">
            <stop />
            <stop offset="1" stop-opacity="0" />
        </linearGradient>
        <linearGradient id="paint9_linear_4501_78317" x1="31.7822" y1="-4.88849" x2="24.3063"
            y2="35.5042" gradientUnits="userSpaceOnUse">
            <stop stop-color="white" stop-opacity="0" />
            <stop offset="0.333317" stop-color="white" stop-opacity="0.12" />
            <stop offset="0.423807" stop-color="white" stop-opacity="0.68" />
            <stop offset="0.685061" stop-color="white" stop-opacity="0.27" />
            <stop offset="0.737191" stop-color="white" stop-opacity="0.79" />
            <stop offset="0.805793" stop-color="white" stop-opacity="0.26" />
            <stop offset="1" stop-color="white" stop-opacity="0.17" />
        </linearGradient>
        <radialGradient id="paint10_radial_4501_78317" cx="0" cy="0" r="1"
            gradientUnits="userSpaceOnUse"
            gradientTransform="translate(13.3376 17.2288) rotate(148.023) scale(4.91908)">
            <stop offset="0.0976782" stop-color="white" />
            <stop offset="1" stop-color="white" stop-opacity="0" />
        </radialGradient>
        <radialGradient id="paint11_radial_4501_78317" cx="0" cy="0" r="1"
            gradientUnits="userSpaceOnUse"
            gradientTransform="translate(20.1965 25.7332) rotate(148.023) scale(4.91908)">
            <stop offset="0.0976782" stop-color="white" />
            <stop offset="1" stop-color="white" stop-opacity="0" />
        </radialGradient>
        <radialGradient id="paint12_radial_4501_78317" cx="0" cy="0" r="1"
            gradientUnits="userSpaceOnUse"
            gradientTransform="translate(26.202 17.3272) rotate(82.9876) scale(5.06376)">
            <stop offset="0.0976782" stop-color="white" />
            <stop offset="1" stop-color="white" stop-opacity="0" />
        </radialGradient>
        <clipPath id="clip0_4501_78317">
            <rect width="40" height="40" fill="white" />
        </clipPath>
    </defs>
</svg>
    