<svg width="40" height="40" viewBox="0 0 40 40" fill="none" xmlns="http://www.w3.org/2000/svg">
    <g clip-path="url(#clip0_4501_78394)">
        <g opacity="0.6">
            <mask id="path-1-inside-1_4501_78394" fill="white">
                <path fill-rule="evenodd" clip-rule="evenodd"
                    d="M24.2819 36.1991L37.1797 13.0262C36.0835 12.416 35.6894 11.0326 36.2996 9.93631L36.2997 9.93619L33.5854 8.42543L33.5853 8.42555C32.9751 9.52188 31.5917 9.91596 30.4954 9.30575C29.399 8.69554 29.0049 7.31211 29.6152 6.21578L29.6152 6.21566L26.9009 4.70488C26.2906 5.80109 24.9073 6.1951 23.811 5.58492L23.8109 5.58487L10.913 28.7579C12.0092 29.3681 12.4033 30.7515 11.7931 31.8478L14.5076 33.3587C15.1178 32.2624 16.5012 31.8684 17.5975 32.4786C18.6938 33.0888 19.0879 34.4721 18.4778 35.5684L21.1921 37.0792C21.8023 35.983 23.1856 35.589 24.2819 36.1991Z" />
            </mask>
            <path fill-rule="evenodd" clip-rule="evenodd"
                d="M24.2819 36.1991L37.1797 13.0262C36.0835 12.416 35.6894 11.0326 36.2996 9.93631L36.2997 9.93619L33.5854 8.42543L33.5853 8.42555C32.9751 9.52188 31.5917 9.91596 30.4954 9.30575C29.399 8.69554 29.0049 7.31211 29.6152 6.21578L29.6152 6.21566L26.9009 4.70488C26.2906 5.80109 24.9073 6.1951 23.811 5.58492L23.8109 5.58487L10.913 28.7579C12.0092 29.3681 12.4033 30.7515 11.7931 31.8478L14.5076 33.3587C15.1178 32.2624 16.5012 31.8684 17.5975 32.4786C18.6938 33.0888 19.0879 34.4721 18.4778 35.5684L21.1921 37.0792C21.8023 35.983 23.1856 35.589 24.2819 36.1991Z"
                fill="url(#paint0_linear_4501_78394)" />
            <path
                d="M37.1797 13.0262L37.4228 13.1615L37.5581 12.9185L37.315 12.7832L37.1797 13.0262ZM24.2819 36.1991L24.1466 36.4422L24.3897 36.5774L24.5249 36.3344L24.2819 36.1991ZM36.2996 9.93631L36.0565 9.80102L36.2996 9.93631ZM36.2997 9.93619L36.5428 10.0715L36.678 9.82841L36.435 9.69312L36.2997 9.93619ZM33.5854 8.42543L33.7207 8.18236L33.4776 8.04707L33.3423 8.29014L33.5854 8.42543ZM33.5853 8.42555L33.8284 8.56084L33.5853 8.42555ZM29.6152 6.21578L29.3721 6.08049L29.6152 6.21578ZM29.6152 6.21566L29.8583 6.35096L29.9936 6.10788L29.7505 5.97259L29.6152 6.21566ZM26.9009 4.70488L27.0362 4.46181L26.7931 4.32653L26.6578 4.56957L26.9009 4.70488ZM23.811 5.58492L23.6757 5.82799L23.811 5.58492ZM23.8109 5.58487L23.9462 5.3418L23.7031 5.20651L23.5679 5.44958L23.8109 5.58487ZM10.913 28.7579L10.6699 28.6226L10.5346 28.8656L10.7777 29.0009L10.913 28.7579ZM11.7931 31.8478L11.55 31.7125L11.4147 31.9556L11.6578 32.0909L11.7931 31.8478ZM14.5076 33.3587L14.3723 33.6017L14.6154 33.737L14.7507 33.494L14.5076 33.3587ZM18.4778 35.5684L18.2347 35.4332L18.0994 35.6762L18.3425 35.8115L18.4778 35.5684ZM21.1921 37.0792L21.0568 37.3223L21.2998 37.4576L21.4351 37.2145L21.1921 37.0792ZM36.9366 12.8909L24.0388 36.0638L24.5249 36.3344L37.4228 13.1615L36.9366 12.8909ZM36.0565 9.80102C35.3716 11.0316 35.8139 12.5843 37.0444 13.2693L37.315 12.7832C36.353 12.2476 36.0072 11.0337 36.5427 10.0716L36.0565 9.80102ZM36.0566 9.8009L36.0565 9.80102L36.5427 10.0716L36.5428 10.0715L36.0566 9.8009ZM33.4501 8.6685L36.1644 10.1793L36.435 9.69312L33.7207 8.18236L33.4501 8.6685ZM33.8284 8.56084L33.8285 8.56072L33.3423 8.29014L33.3423 8.29026L33.8284 8.56084ZM30.3601 9.54882C31.5906 10.2338 33.1435 9.79142 33.8284 8.56084L33.3423 8.29026C32.8068 9.25234 31.5927 9.59817 30.6306 9.06268L30.3601 9.54882ZM29.3721 6.08049C28.6872 7.31106 29.1295 8.86389 30.3601 9.54882L30.6306 9.06268C29.6686 8.52719 29.3227 7.31316 29.8582 6.35107L29.3721 6.08049ZM29.3721 6.08037L29.3721 6.08049L29.8582 6.35107L29.8583 6.35096L29.3721 6.08037ZM26.7656 4.94795L29.4799 6.45873L29.7505 5.97259L27.0362 4.46181L26.7656 4.94795ZM23.6757 5.82799C24.9062 6.51289 26.459 6.07063 27.1439 4.84019L26.6578 4.56957C26.1223 5.53155 24.9083 5.87731 23.9463 5.34184L23.6757 5.82799ZM23.6756 5.82794L23.6757 5.82799L23.9463 5.34184L23.9462 5.3418L23.6756 5.82794ZM11.1561 28.8932L24.054 5.72017L23.5679 5.44958L10.6699 28.6226L11.1561 28.8932ZM10.7777 29.0009C11.7397 29.5365 12.0855 30.7504 11.55 31.7125L12.0361 31.9831C12.721 30.7525 12.2788 29.1998 11.0483 28.5148L10.7777 29.0009ZM14.6429 33.1156L11.9284 31.6047L11.6578 32.0909L14.3723 33.6017L14.6429 33.1156ZM17.7328 32.2355C16.5023 31.5506 14.9495 31.9929 14.2645 33.2234L14.7507 33.494C15.2862 32.532 16.5001 32.1862 17.4622 32.7217L17.7328 32.2355ZM18.7208 35.7037C19.4057 34.4732 18.9633 32.9204 17.7328 32.2355L17.4622 32.7217C18.4242 33.2571 18.7701 34.4711 18.2347 35.4332L18.7208 35.7037ZM21.3274 36.8361L18.6131 35.3254L18.3425 35.8115L21.0568 37.3223L21.3274 36.8361ZM24.4172 35.956C23.1866 35.2712 21.634 35.7135 20.949 36.9439L21.4351 37.2145C21.9706 36.2525 23.1846 35.9068 24.1466 36.4422L24.4172 35.956Z"
                fill="url(#paint1_linear_4501_78394)" mask="url(#path-1-inside-1_4501_78394)" />
            <path
                d="M29.0357 22.2302C30.3904 19.4997 29.4229 16.0999 26.7954 14.3761C25.0336 13.2201 22.9574 13.0415 21.1813 13.6705C21.0856 13.7044 21.0876 13.8389 21.1853 13.8746C21.6221 14.0306 22.0552 14.2275 22.4808 14.4644C23.8872 15.2472 24.9657 16.3327 25.5826 17.6034C26.0748 17.4749 26.5341 17.2288 26.8876 16.8841C26.9622 16.811 27.0883 16.8812 27.0655 16.9831C26.8544 17.9352 27.1848 19.0299 27.8954 19.7342C27.9711 19.8094 27.9032 19.9315 27.7993 19.9067C27.2635 19.7783 26.6884 19.8122 26.1632 19.9797C26.1632 19.9797 26.1627 19.9805 26.1622 19.9813C26.1878 21.0773 25.9044 22.2405 25.2475 23.4208C24.8066 24.213 24.2849 24.8577 23.705 25.3652C23.6284 25.4318 23.683 25.5592 23.7861 25.5548C25.957 25.4841 28.0095 24.2954 29.034 22.2292L29.0357 22.2302Z"
                fill="white" />
            <path
                d="M25.5829 17.6046C25.1036 17.7304 24.5911 17.7451 24.1098 17.6305C24.0579 17.6181 24.0153 17.6418 23.9951 17.678C23.975 17.7142 23.9773 17.7629 24.0152 17.8005C24.7252 18.5056 25.0561 19.5994 24.8451 20.5516C24.8222 20.6535 24.9483 20.7237 25.0229 20.6505C25.3369 20.3445 25.733 20.1163 26.1631 19.9796C26.1428 19.1402 25.9413 18.3422 25.5829 17.6046Z"
                fill="white" />
            <path opacity="0.5" fill-rule="evenodd" clip-rule="evenodd"
                d="M25.1361 9.40067L33.2385 13.9104C33.9097 14.284 34.151 15.131 33.7774 15.8022L26.4265 29.0091L15.8934 23.1465L23.2443 9.93956C23.6179 9.26834 24.4649 9.02707 25.1361 9.40067ZM33.464 13.5053L25.3616 8.99555C24.4666 8.49741 23.3373 8.81911 22.8392 9.71408L15.4883 22.921L15.4415 23.0051L15.4413 23.0051L15.2159 23.4102L13.9099 25.7566C13.4117 26.6516 13.7334 27.7809 14.6284 28.279L22.7308 32.7888C23.6257 33.2869 24.7551 32.9652 25.2532 32.0702L26.5592 29.7238L26.606 29.6397L26.6062 29.6397L26.8317 29.2346L34.1825 16.0277C34.6807 15.1327 34.359 14.0034 33.464 13.5053ZM22.9563 32.3837L14.8539 27.8739C14.1826 27.5003 13.9414 26.6533 14.315 25.9821L15.621 23.6357L26.1541 29.4983L24.8481 31.8448C24.4745 32.516 23.6275 32.7573 22.9563 32.3837Z"
                fill="url(#paint2_linear_4501_78394)" />
            <path
                d="M14.9943 26.421C15.0872 26.3172 15.2123 26.1284 15.3061 25.9599L15.513 25.5883C15.6068 25.4197 15.7013 25.2139 15.7405 25.0802L16.3401 25.4139L16.2603 26.062C16.2475 26.1752 16.2395 26.2436 16.2009 26.3851L16.222 26.3969C16.313 26.292 16.3617 26.2539 16.4615 26.1739L16.9721 25.7657L17.5621 26.0941C17.4692 26.1979 17.3421 26.3856 17.2483 26.5542L17.0415 26.9258C16.9477 27.0943 16.8551 27.3012 16.8158 27.4349L16.291 27.1428C16.3839 27.0389 16.511 26.8513 16.6048 26.6827L16.7817 26.3647L16.7588 26.3519L15.9654 26.9615L15.839 26.8912L15.939 25.8957L15.9217 25.8861L15.7448 26.204C15.6509 26.3726 15.5565 26.5784 15.5191 26.7131L14.9943 26.421ZM16.8726 27.4665C16.9962 27.3797 17.1749 27.2208 17.3166 27.0789L17.6556 26.7809C17.7943 26.6398 17.9339 26.4566 18.0039 26.34L18.7853 26.775C18.7229 26.9007 18.6396 27.1179 18.5942 27.3033L18.5195 27.7484C18.4727 27.9406 18.4327 28.1793 18.4222 28.329L17.8973 28.0369C17.937 27.9611 17.9754 27.847 18.0123 27.722L18.0194 27.6733L17.6421 27.4633L17.6052 27.4979C17.5166 27.5941 17.4398 27.6869 17.3993 27.7597L16.8726 27.4665ZM17.7947 27.2973L18.082 27.4572L18.1177 27.2037C18.1357 27.1083 18.1615 27.0349 18.195 26.9431L18.1701 26.9293C18.1047 27.0108 18.0661 27.062 17.9913 27.1333L17.7947 27.2973ZM19.6505 29.0503C19.1947 28.7966 19.7037 28.2922 19.3628 28.1024C19.3398 28.0896 19.2936 28.0689 19.2751 28.0661L19.2314 28.1447C19.1376 28.3132 19.045 28.5201 19.0057 28.6538L18.4809 28.3617C18.5738 28.2578 18.7009 28.0701 18.7947 27.9016L19.0015 27.53C19.0953 27.3614 19.1879 27.1546 19.2272 27.0209L20.0412 27.474C20.3343 27.6371 20.5002 27.8799 20.3733 28.1079C20.2432 28.3416 19.9541 28.3337 19.6668 28.1737L19.6495 28.1642L19.6431 28.1756L19.647 28.1778C19.8117 28.2695 19.7656 28.447 19.9054 28.5248C20.0452 28.6026 20.1719 28.5553 20.2727 28.4734L19.9586 29.0512C19.8828 29.1018 19.7482 29.1047 19.6505 29.0503ZM19.3551 27.9225L19.6021 28.06C19.7017 28.1154 19.7882 28.1134 19.8287 28.0406C19.866 27.9735 19.8244 27.8952 19.7343 27.8451L19.4777 27.7022L19.3551 27.9225ZM21.1622 29.8892C20.6431 29.6003 21.3319 29.0704 20.9737 28.8711C20.9412 28.853 20.891 28.835 20.8694 28.8331L20.7746 29.0036C20.6807 29.1721 20.5863 29.3779 20.5489 29.5127L20.0241 29.2206C20.117 29.1168 20.244 28.9291 20.3379 28.7605L20.5447 28.3889C20.6385 28.2204 20.7311 28.0135 20.7703 27.8798L21.2952 28.1719C21.2065 28.2681 21.0901 28.4366 20.9984 28.6013L20.9569 28.676L21.066 28.7368C21.2231 28.8242 21.3647 28.7726 21.4692 28.5849C21.5183 28.4968 21.5381 28.4025 21.5327 28.3041L22.0249 28.5781C22.0208 28.6711 22.0027 28.7488 21.9408 28.8599C21.7841 29.1415 21.5951 29.1115 21.2177 28.9015L21.1028 28.8375L21.0911 28.8586L21.1141 28.8714C21.3592 29.0079 21.2905 29.2305 21.4725 29.3318C21.5989 29.4022 21.6841 29.3844 21.7825 29.3112L21.4707 29.8803C21.3966 29.9369 21.258 29.9425 21.1622 29.8892ZM21.5317 30.0597C21.6227 29.9548 21.7517 29.7682 21.8455 29.5996L22.0523 29.2281C22.1461 29.0595 22.2368 28.8516 22.278 28.7189L23.4042 29.3458L23.1975 29.8705C23.1731 29.8017 23.0954 29.7384 22.9077 29.6339L22.517 29.4164L22.4295 29.5735L22.7379 29.7451C22.8279 29.7952 22.9152 29.8413 22.9778 29.8686L22.868 30.0659C22.8129 30.0252 22.7288 29.9734 22.6388 29.9233L22.3304 29.7516L22.2494 29.8972L22.5865 30.0848C22.8891 30.2533 22.9928 30.2608 23.0588 30.2549L22.7116 30.7164L21.5317 30.0597ZM23.2753 31.0302C23.3682 30.9263 23.4952 30.7387 23.589 30.5701L23.8204 30.1545L23.6423 30.0553C23.5446 30.0009 23.4556 29.9715 23.3485 29.9746L23.7017 29.5113L24.8547 30.1531L24.6471 30.6974C24.5978 30.6148 24.5157 30.5414 24.4237 30.4903L24.2571 30.3975L24.0258 30.8132C23.9319 30.9817 23.8394 31.1886 23.8001 31.3223L23.2753 31.0302Z"
                fill="white" />
            <path fill-rule="evenodd" clip-rule="evenodd"
                d="M24.2819 36.1991L37.1797 13.0262C36.0834 12.416 35.6894 11.0326 36.2996 9.93631L36.2997 9.93617L33.5851 8.42529L33.5851 8.42542C32.9748 9.52175 31.5914 9.91583 30.4951 9.30562C29.3988 8.69541 29.0047 7.31198 29.6149 6.21565L29.615 6.21552L26.9009 4.70488C26.2906 5.80109 24.9073 6.1951 23.811 5.58492L23.8109 5.58487L10.9129 28.758C10.9129 28.758 10.9129 28.758 10.913 28.7581C12.0093 29.3682 12.4033 30.7516 11.7933 31.8479L14.5076 33.3587C15.1178 32.2624 16.5012 31.8684 17.5974 32.4786C18.6937 33.0888 19.0878 34.4721 18.4777 35.5684L21.192 37.0792C21.8023 35.983 23.1856 35.589 24.2819 36.1991Z"
                fill="#0D0D0D" fill-opacity="0.71" />
        </g>
        <mask id="mask0_4501_78394" style="mask-type:alpha" maskUnits="userSpaceOnUse" x="9" y="5"
            width="30" height="31">
            <path fill-rule="evenodd" clip-rule="evenodd"
                d="M20.0958 35.3868L38.8278 16.6132C37.9397 15.727 37.9381 14.2886 38.8243 13.4004L38.8245 13.4003L36.6254 11.2062L36.6253 11.2063C35.7391 12.0945 34.3006 12.0961 33.4124 11.2098C32.5242 10.3236 32.5226 8.88515 33.4089 7.99695L33.409 7.99683L31.21 5.8027L31.2099 5.80282C30.3236 6.69102 28.8852 6.69262 27.997 5.80639L27.9969 5.80632L9.26493 24.5799C9.26494 24.58 9.26496 24.58 9.26498 24.58C10.1531 25.4662 10.1548 26.9045 9.26867 27.7927L11.4677 29.9869C12.3539 29.0988 13.7923 29.0973 14.6804 29.9834C15.5686 30.8696 15.5702 32.308 14.6841 33.1962L16.8831 35.3903C17.7694 34.5023 19.2077 34.5007 20.0958 35.3868Z"
                fill="#0D0D0D" />
        </mask>
        <g mask="url(#mask0_4501_78394)">
            <rect x="20.9673" y="-2.13184" width="19.0337" height="35.2341"
                transform="rotate(30.7825 20.9673 -2.13184)" fill="#150101" fill-opacity="0.31" />
        </g>
        <g filter="url(#filter0_f_4501_78394)">
            <mask id="path-10-inside-2_4501_78394" fill="white">
                <path fill-rule="evenodd" clip-rule="evenodd"
                    d="M27.9574 32.6844L31.4008 9.03487C29.7582 8.79569 28.5588 7.69479 28.7217 6.57593L28.7217 6.57576L24.655 5.98364L24.6549 5.98383C24.492 7.10271 23.0284 7.81587 21.3858 7.5767C19.7432 7.33754 18.5436 6.23663 18.7065 5.11774L18.7066 5.11756L14.6398 4.52544L14.6398 4.52562C14.4769 5.64451 13.0132 6.35766 11.3706 6.1185L11.3705 6.11848L7.92716 29.7679C7.92719 29.7679 7.92723 29.7679 7.92727 29.7679C9.5698 30.0071 10.7693 31.1079 10.6065 32.2268L14.6733 32.8189C14.8363 31.7001 16.2999 30.987 17.9424 31.2261C19.585 31.4653 20.7845 32.5661 20.6217 33.685L24.6883 34.2771C24.8514 33.1583 26.3149 32.4452 27.9574 32.6844Z" />
            </mask>
            <path fill-rule="evenodd" clip-rule="evenodd"
                d="M27.9574 32.6844L31.4008 9.03487C29.7582 8.79569 28.5588 7.69479 28.7217 6.57593L28.7217 6.57576L24.655 5.98364L24.6549 5.98383C24.492 7.10271 23.0284 7.81587 21.3858 7.5767C19.7432 7.33754 18.5436 6.23663 18.7065 5.11774L18.7066 5.11756L14.6398 4.52544L14.6398 4.52562C14.4769 5.64451 13.0132 6.35766 11.3706 6.1185L11.3705 6.11848L7.92716 29.7679C7.92719 29.7679 7.92723 29.7679 7.92727 29.7679C9.5698 30.0071 10.7693 31.1079 10.6065 32.2268L14.6733 32.8189C14.8363 31.7001 16.2999 30.987 17.9424 31.2261C19.585 31.4653 20.7845 32.5661 20.6217 33.685L24.6883 34.2771C24.8514 33.1583 26.3149 32.4452 27.9574 32.6844Z"
                fill="url(#paint3_linear_4501_78394)" />
            <path
                d="M31.4008 9.03487L31.6847 9.07621L31.7261 8.7923L31.4421 8.75096L31.4008 9.03487ZM27.9574 32.6844L27.9161 32.9683L28.2 33.0096L28.2414 32.7257L27.9574 32.6844ZM28.7217 6.57576L29.0056 6.6171L29.0469 6.33318L28.763 6.29185L28.7217 6.57576ZM24.655 5.98364L24.6963 5.69973L24.4124 5.65839L24.371 5.94231L24.655 5.98364ZM24.6549 5.98383L24.9388 6.02517L24.6549 5.98383ZM18.7066 5.11756L18.9905 5.1589L19.0318 4.87498L18.7479 4.83365L18.7066 5.11756ZM14.6398 4.52544L14.6812 4.24153L14.3973 4.20019L14.3559 4.4841L14.6398 4.52544ZM14.6398 4.52562L14.3559 4.48429L14.6398 4.52562ZM11.3706 6.1185L11.412 5.83459L11.3706 6.1185ZM11.3705 6.11848L11.4119 5.83457L11.1279 5.79323L11.0866 6.07714L11.3705 6.11848ZM7.92716 29.7679L7.64324 29.7266L7.60191 30.0105L7.88582 30.0518L7.92716 29.7679ZM10.6065 32.2268L10.3226 32.1854L10.2813 32.4693L10.5652 32.5107L10.6065 32.2268ZM14.6733 32.8189L14.6319 33.1028L14.9158 33.1441L14.9572 32.8602L14.6733 32.8189ZM20.6217 33.685L20.3378 33.6437L20.2965 33.9275L20.5803 33.9689L20.6217 33.685ZM24.6883 34.2771L24.647 34.561L24.9309 34.6023L24.9722 34.3184L24.6883 34.2771ZM31.1169 8.99354L27.6735 32.643L28.2414 32.7257L31.6847 9.07621L31.1169 8.99354ZM28.4378 6.53459C28.3386 7.21564 28.6589 7.85907 29.1902 8.34665C29.7227 8.83544 30.4887 9.19199 31.3595 9.31879L31.4421 8.75096C30.6703 8.63857 30.0153 8.32507 29.5782 7.9239C29.1398 7.52153 28.9418 7.05508 29.0056 6.61726L28.4378 6.53459ZM28.4378 6.53442L28.4378 6.53459L29.0056 6.61726L29.0056 6.6171L28.4378 6.53442ZM24.6136 6.26756L28.6804 6.85967L28.763 6.29185L24.6963 5.69973L24.6136 6.26756ZM24.9388 6.02517L24.9389 6.02498L24.371 5.94231L24.371 5.94249L24.9388 6.02517ZM21.3444 7.86062C22.2152 7.9874 23.0511 7.86408 23.7009 7.54745C24.3491 7.2316 24.8397 6.70623 24.9388 6.02517L24.371 5.94249C24.3073 6.38031 23.9845 6.77096 23.4496 7.03161C22.9162 7.29149 22.1989 7.40517 21.4271 7.29279L21.3444 7.86062ZM18.4226 5.0764C18.3235 5.75747 18.6438 6.40091 19.1751 6.88849C19.7077 7.37729 20.4736 7.73383 21.3444 7.86062L21.4271 7.29279C20.6553 7.18041 20.0002 6.86692 19.5631 6.46574C19.1247 6.06336 18.9267 5.5969 18.9905 5.15908L18.4226 5.0764ZM18.4227 5.07622L18.4226 5.0764L18.9905 5.15908L18.9905 5.1589L18.4227 5.07622ZM14.5985 4.80936L18.6652 5.40147L18.7479 4.83365L14.6812 4.24153L14.5985 4.80936ZM14.9237 4.56696L14.9238 4.56678L14.3559 4.4841L14.3559 4.48429L14.9237 4.56696ZM11.3293 6.40241C12.2001 6.5292 13.0359 6.40588 13.6858 6.08925C14.334 5.7734 14.8246 5.24802 14.9237 4.56696L14.3559 4.48429C14.2922 4.92211 13.9694 5.31275 13.4344 5.57341C12.9011 5.83328 12.1838 5.94696 11.412 5.83459L11.3293 6.40241ZM11.3292 6.40239L11.3293 6.40241L11.412 5.83459L11.4119 5.83457L11.3292 6.40239ZM8.21107 29.8093L11.6544 6.15982L11.0866 6.07714L7.64324 29.7266L8.21107 29.8093ZM7.88582 30.0518C7.88584 30.0518 7.88586 30.0518 7.88588 30.0518C7.88589 30.0518 7.88591 30.0518 7.88593 30.0518L7.96861 29.484C7.96859 29.484 7.96857 29.484 7.96855 29.484C7.96853 29.484 7.96851 29.484 7.96849 29.484L7.88582 30.0518ZM7.88593 30.0518C8.65772 30.1642 9.31278 30.4777 9.7499 30.8788C10.1883 31.2812 10.3863 31.7476 10.3226 32.1854L10.8904 32.2681C10.9895 31.587 10.6691 30.9436 10.1379 30.4561C9.60531 29.9673 8.83935 29.6108 7.96861 29.484L7.88593 30.0518ZM14.7146 32.535L10.6478 31.9428L10.5652 32.5107L14.6319 33.1028L14.7146 32.535ZM17.9838 30.9422C17.113 30.8154 16.2772 30.9387 15.6274 31.2553C14.9791 31.5712 14.4886 32.0965 14.3894 32.7775L14.9572 32.8602C15.021 32.4225 15.3437 32.0318 15.8787 31.7712C16.4121 31.5113 17.1293 31.3977 17.9011 31.5101L17.9838 30.9422ZM20.9056 33.7263C21.0047 33.0452 20.6843 32.4018 20.153 31.9143C19.6205 31.4255 18.8545 31.069 17.9838 30.9422L17.9011 31.5101C18.6729 31.6224 19.328 31.9359 19.7651 32.337C20.2035 32.7394 20.4015 33.2058 20.3378 33.6437L20.9056 33.7263ZM24.7297 33.9932L20.663 33.4011L20.5803 33.9689L24.647 34.561L24.7297 33.9932ZM27.9988 32.4004C27.128 32.2737 26.2922 32.397 25.6424 32.7136C24.9942 33.0294 24.5037 33.5547 24.4044 34.2357L24.9722 34.3184C25.036 33.8807 25.3588 33.49 25.8937 33.2294C26.4271 32.9696 27.1443 32.8559 27.9161 32.9683L27.9988 32.4004Z"
                fill="url(#paint4_linear_4501_78394)" mask="url(#path-10-inside-2_4501_78394)" />
            <path
                d="M31.4008 9.03487L31.6847 9.07621L31.7261 8.7923L31.4421 8.75096L31.4008 9.03487ZM27.9574 32.6844L27.9161 32.9683L28.2 33.0096L28.2414 32.7257L27.9574 32.6844ZM28.7217 6.57576L29.0056 6.6171L29.0469 6.33318L28.763 6.29185L28.7217 6.57576ZM24.655 5.98364L24.6963 5.69973L24.4124 5.65839L24.371 5.94231L24.655 5.98364ZM24.6549 5.98383L24.9388 6.02517L24.6549 5.98383ZM18.7066 5.11756L18.9905 5.1589L19.0318 4.87498L18.7479 4.83365L18.7066 5.11756ZM14.6398 4.52544L14.6812 4.24153L14.3973 4.20019L14.3559 4.4841L14.6398 4.52544ZM14.6398 4.52562L14.3559 4.48429L14.6398 4.52562ZM11.3706 6.1185L11.412 5.83459L11.3706 6.1185ZM11.3705 6.11848L11.4119 5.83457L11.1279 5.79323L11.0866 6.07714L11.3705 6.11848ZM7.92716 29.7679L7.64324 29.7266L7.60191 30.0105L7.88582 30.0518L7.92716 29.7679ZM10.6065 32.2268L10.3226 32.1854L10.2813 32.4693L10.5652 32.5107L10.6065 32.2268ZM14.6733 32.8189L14.6319 33.1028L14.9158 33.1441L14.9572 32.8602L14.6733 32.8189ZM20.6217 33.685L20.3378 33.6437L20.2965 33.9275L20.5803 33.9689L20.6217 33.685ZM24.6883 34.2771L24.647 34.561L24.9309 34.6023L24.9722 34.3184L24.6883 34.2771ZM31.1169 8.99354L27.6735 32.643L28.2414 32.7257L31.6847 9.07621L31.1169 8.99354ZM28.4378 6.53459C28.3386 7.21564 28.6589 7.85907 29.1902 8.34665C29.7227 8.83544 30.4887 9.19199 31.3595 9.31879L31.4421 8.75096C30.6703 8.63857 30.0153 8.32507 29.5782 7.9239C29.1398 7.52153 28.9418 7.05508 29.0056 6.61726L28.4378 6.53459ZM28.4378 6.53442L28.4378 6.53459L29.0056 6.61726L29.0056 6.6171L28.4378 6.53442ZM24.6136 6.26756L28.6804 6.85967L28.763 6.29185L24.6963 5.69973L24.6136 6.26756ZM24.9388 6.02517L24.9389 6.02498L24.371 5.94231L24.371 5.94249L24.9388 6.02517ZM21.3444 7.86062C22.2152 7.9874 23.0511 7.86408 23.7009 7.54745C24.3491 7.2316 24.8397 6.70623 24.9388 6.02517L24.371 5.94249C24.3073 6.38031 23.9845 6.77096 23.4496 7.03161C22.9162 7.29149 22.1989 7.40517 21.4271 7.29279L21.3444 7.86062ZM18.4226 5.0764C18.3235 5.75747 18.6438 6.40091 19.1751 6.88849C19.7077 7.37729 20.4736 7.73383 21.3444 7.86062L21.4271 7.29279C20.6553 7.18041 20.0002 6.86692 19.5631 6.46574C19.1247 6.06336 18.9267 5.5969 18.9905 5.15908L18.4226 5.0764ZM18.4227 5.07622L18.4226 5.0764L18.9905 5.15908L18.9905 5.1589L18.4227 5.07622ZM14.5985 4.80936L18.6652 5.40147L18.7479 4.83365L14.6812 4.24153L14.5985 4.80936ZM14.9237 4.56696L14.9238 4.56678L14.3559 4.4841L14.3559 4.48429L14.9237 4.56696ZM11.3293 6.40241C12.2001 6.5292 13.0359 6.40588 13.6858 6.08925C14.334 5.7734 14.8246 5.24802 14.9237 4.56696L14.3559 4.48429C14.2922 4.92211 13.9694 5.31275 13.4344 5.57341C12.9011 5.83328 12.1838 5.94696 11.412 5.83459L11.3293 6.40241ZM11.3292 6.40239L11.3293 6.40241L11.412 5.83459L11.4119 5.83457L11.3292 6.40239ZM8.21107 29.8093L11.6544 6.15982L11.0866 6.07714L7.64324 29.7266L8.21107 29.8093ZM7.88582 30.0518C7.88584 30.0518 7.88586 30.0518 7.88588 30.0518C7.88589 30.0518 7.88591 30.0518 7.88593 30.0518L7.96861 29.484C7.96859 29.484 7.96857 29.484 7.96855 29.484C7.96853 29.484 7.96851 29.484 7.96849 29.484L7.88582 30.0518ZM7.88593 30.0518C8.65772 30.1642 9.31278 30.4777 9.7499 30.8788C10.1883 31.2812 10.3863 31.7476 10.3226 32.1854L10.8904 32.2681C10.9895 31.587 10.6691 30.9436 10.1379 30.4561C9.60531 29.9673 8.83935 29.6108 7.96861 29.484L7.88593 30.0518ZM14.7146 32.535L10.6478 31.9428L10.5652 32.5107L14.6319 33.1028L14.7146 32.535ZM17.9838 30.9422C17.113 30.8154 16.2772 30.9387 15.6274 31.2553C14.9791 31.5712 14.4886 32.0965 14.3894 32.7775L14.9572 32.8602C15.021 32.4225 15.3437 32.0318 15.8787 31.7712C16.4121 31.5113 17.1293 31.3977 17.9011 31.5101L17.9838 30.9422ZM20.9056 33.7263C21.0047 33.0452 20.6843 32.4018 20.153 31.9143C19.6205 31.4255 18.8545 31.069 17.9838 30.9422L17.9011 31.5101C18.6729 31.6224 19.328 31.9359 19.7651 32.337C20.2035 32.7394 20.4015 33.2058 20.3378 33.6437L20.9056 33.7263ZM24.7297 33.9932L20.663 33.4011L20.5803 33.9689L24.647 34.561L24.7297 33.9932ZM27.9988 32.4004C27.128 32.2737 26.2922 32.397 25.6424 32.7136C24.9942 33.0294 24.5037 33.5547 24.4044 34.2357L24.9722 34.3184C25.036 33.8807 25.3588 33.49 25.8937 33.2294C26.4271 32.9696 27.1443 32.8559 27.9161 32.9683L27.9988 32.4004Z"
                fill="url(#paint5_linear_4501_78394)" mask="url(#path-10-inside-2_4501_78394)" />
        </g>
        <mask id="path-12-inside-3_4501_78394" fill="white">
            <path fill-rule="evenodd" clip-rule="evenodd"
                d="M28.4368 32.9197C27.1179 32.9888 26.1047 34.114 26.1737 35.433L22.9081 35.6041C22.839 34.2852 21.7137 33.272 20.3947 33.3411C19.0757 33.4103 18.0625 34.5355 18.1316 35.8544L14.866 36.0256C14.7968 34.7066 13.6715 33.6935 12.3526 33.7626L10.8915 5.8832C12.2105 5.81408 13.2237 4.68877 13.1546 3.36977L13.1546 3.36963L16.4202 3.19849L16.4202 3.19861C16.4893 4.51762 17.6146 5.53085 18.9336 5.46172C20.2526 5.39259 21.2658 4.26729 21.1967 2.94828L21.1967 2.94816L24.4623 2.77702L24.4623 2.77715C24.5314 4.09615 25.6567 5.10938 26.9758 5.04025L28.4368 32.9197Z" />
        </mask>
        <path fill-rule="evenodd" clip-rule="evenodd"
            d="M28.4368 32.9197C27.1179 32.9888 26.1047 34.114 26.1737 35.433L22.9081 35.6041C22.839 34.2852 21.7137 33.272 20.3947 33.3411C19.0757 33.4103 18.0625 34.5355 18.1316 35.8544L14.866 36.0256C14.7968 34.7066 13.6715 33.6935 12.3526 33.7626L10.8915 5.8832C12.2105 5.81408 13.2237 4.68877 13.1546 3.36977L13.1546 3.36963L16.4202 3.19849L16.4202 3.19861C16.4893 4.51762 17.6146 5.53085 18.9336 5.46172C20.2526 5.39259 21.2658 4.26729 21.1967 2.94828L21.1967 2.94816L24.4623 2.77702L24.4623 2.77715C24.5314 4.09615 25.6567 5.10938 26.9758 5.04025L28.4368 32.9197Z"
            fill="url(#paint6_radial_4501_78394)" />
        <path
            d="M26.1737 35.433L26.1891 35.7254L26.4815 35.7101L26.4662 35.4177L26.1737 35.433ZM28.4368 32.9197L28.4522 33.2121L28.7446 33.1968L28.7293 32.9043L28.4368 32.9197ZM22.9081 35.6041L22.6157 35.6195L22.631 35.9119L22.9235 35.8966L22.9081 35.6041ZM18.1316 35.8544L18.1469 36.1469L18.4393 36.1316L18.424 35.8391L18.1316 35.8544ZM14.866 36.0256L14.5736 36.0409L14.5889 36.3334L14.8813 36.318L14.866 36.0256ZM12.3526 33.7626L12.0601 33.7779L12.0755 34.0704L12.3679 34.0551L12.3526 33.7626ZM10.8915 5.8832L10.8762 5.59076L10.5837 5.60609L10.599 5.89853L10.8915 5.8832ZM13.1546 3.36963L13.1393 3.07719L12.8468 3.09252L12.8621 3.38496L13.1546 3.36963ZM16.4202 3.19849L16.7126 3.18316L16.6973 2.89072L16.4048 2.90605L16.4202 3.19849ZM21.1967 2.94816L21.1814 2.65572L20.8889 2.67105L20.9043 2.96349L21.1967 2.94816ZM24.4623 2.77702L24.7548 2.76169L24.7394 2.46925L24.447 2.48458L24.4623 2.77702ZM24.4623 2.77715L24.7548 2.76182L24.4623 2.77715ZM26.9758 5.04025L27.2682 5.02493L27.2529 4.73249L26.9604 4.74781L26.9758 5.04025ZM26.4662 35.4177C26.4056 34.2602 27.2947 33.2728 28.4522 33.2121L28.4215 32.6272C26.941 32.7048 25.8038 33.9678 25.8813 35.4483L26.4662 35.4177ZM22.9235 35.8966L26.1891 35.7254L26.1584 35.1405L22.8928 35.3117L22.9235 35.8966ZM20.41 33.6336C21.5675 33.5729 22.555 34.462 22.6157 35.6195L23.2006 35.5888C23.1229 34.1083 21.8599 32.9711 20.3794 33.0487L20.41 33.6336ZM18.424 35.8391C18.3634 34.6817 19.2526 33.6942 20.41 33.6336L20.3794 33.0487C18.8989 33.1263 17.7616 34.3893 17.8392 35.8698L18.424 35.8391ZM14.8813 36.318L18.1469 36.1469L18.1163 35.562L14.8507 35.7331L14.8813 36.318ZM12.3679 34.0551C13.5254 33.9944 14.5128 34.8835 14.5736 36.0409L15.1584 36.0103C15.0808 34.5298 13.8177 33.3926 12.3372 33.4702L12.3679 34.0551ZM10.599 5.89853L12.0601 33.7779L12.645 33.7473L11.1839 5.86788L10.599 5.89853ZM12.8621 3.38509C12.9228 4.54259 12.0336 5.5301 10.8762 5.59076L10.9068 6.17564C12.3873 6.09805 13.5246 4.83496 13.447 3.35444L12.8621 3.38509ZM12.8621 3.38496L12.8621 3.38509L13.447 3.35444L13.447 3.35431L12.8621 3.38496ZM16.4048 2.90605L13.1393 3.07719L13.1699 3.66207L16.4355 3.49093L16.4048 2.90605ZM16.7126 3.18329L16.7126 3.18316L16.1277 3.21382L16.1277 3.21394L16.7126 3.18329ZM18.9183 5.16928C17.7608 5.22994 16.7733 4.34078 16.7126 3.18329L16.1277 3.21394C16.2053 4.69445 17.4684 5.83175 18.9489 5.75416L18.9183 5.16928ZM20.9043 2.96361C20.9649 4.1211 20.0758 5.10862 18.9183 5.16928L18.9489 5.75416C20.4295 5.67657 21.5668 4.41347 21.4892 2.93296L20.9043 2.96361ZM20.9043 2.96349L20.9043 2.96361L21.4892 2.93296L21.4892 2.93284L20.9043 2.96349ZM24.447 2.48458L21.1814 2.65572L21.212 3.2406L24.4776 3.06946L24.447 2.48458ZM24.7548 2.76182L24.7548 2.76169L24.1699 2.79235L24.1699 2.79247L24.7548 2.76182ZM26.9604 4.74781C25.8029 4.80847 24.8154 3.91931 24.7548 2.76182L24.1699 2.79247C24.2475 4.27299 25.5106 5.41029 26.9911 5.33269L26.9604 4.74781ZM28.7293 32.9043L27.2682 5.02493L26.6833 5.05558L28.1444 32.935L28.7293 32.9043Z"
            fill="url(#paint7_linear_4501_78394)" fill-opacity="0.58"
            mask="url(#path-12-inside-3_4501_78394)" />
        <path
            d="M26.1737 35.433L26.1891 35.7254L26.4815 35.7101L26.4662 35.4177L26.1737 35.433ZM28.4368 32.9197L28.4522 33.2121L28.7446 33.1968L28.7293 32.9043L28.4368 32.9197ZM22.9081 35.6041L22.6157 35.6195L22.631 35.9119L22.9235 35.8966L22.9081 35.6041ZM18.1316 35.8544L18.1469 36.1469L18.4393 36.1316L18.424 35.8391L18.1316 35.8544ZM14.866 36.0256L14.5736 36.0409L14.5889 36.3334L14.8813 36.318L14.866 36.0256ZM12.3526 33.7626L12.0601 33.7779L12.0755 34.0704L12.3679 34.0551L12.3526 33.7626ZM10.8915 5.8832L10.8762 5.59076L10.5837 5.60609L10.599 5.89853L10.8915 5.8832ZM13.1546 3.36963L13.1393 3.07719L12.8468 3.09252L12.8621 3.38496L13.1546 3.36963ZM16.4202 3.19849L16.7126 3.18316L16.6973 2.89072L16.4048 2.90605L16.4202 3.19849ZM21.1967 2.94816L21.1814 2.65572L20.8889 2.67105L20.9043 2.96349L21.1967 2.94816ZM24.4623 2.77702L24.7548 2.76169L24.7394 2.46925L24.447 2.48458L24.4623 2.77702ZM24.4623 2.77715L24.7548 2.76182L24.4623 2.77715ZM26.9758 5.04025L27.2682 5.02493L27.2529 4.73249L26.9604 4.74781L26.9758 5.04025ZM26.4662 35.4177C26.4056 34.2602 27.2947 33.2728 28.4522 33.2121L28.4215 32.6272C26.941 32.7048 25.8038 33.9678 25.8813 35.4483L26.4662 35.4177ZM22.9235 35.8966L26.1891 35.7254L26.1584 35.1405L22.8928 35.3117L22.9235 35.8966ZM20.41 33.6336C21.5675 33.5729 22.555 34.462 22.6157 35.6195L23.2006 35.5888C23.1229 34.1083 21.8599 32.9711 20.3794 33.0487L20.41 33.6336ZM18.424 35.8391C18.3634 34.6817 19.2526 33.6942 20.41 33.6336L20.3794 33.0487C18.8989 33.1263 17.7616 34.3893 17.8392 35.8698L18.424 35.8391ZM14.8813 36.318L18.1469 36.1469L18.1163 35.562L14.8507 35.7331L14.8813 36.318ZM12.3679 34.0551C13.5254 33.9944 14.5128 34.8835 14.5736 36.0409L15.1584 36.0103C15.0808 34.5298 13.8177 33.3926 12.3372 33.4702L12.3679 34.0551ZM10.599 5.89853L12.0601 33.7779L12.645 33.7473L11.1839 5.86788L10.599 5.89853ZM12.8621 3.38509C12.9228 4.54259 12.0336 5.5301 10.8762 5.59076L10.9068 6.17564C12.3873 6.09805 13.5246 4.83496 13.447 3.35444L12.8621 3.38509ZM12.8621 3.38496L12.8621 3.38509L13.447 3.35444L13.447 3.35431L12.8621 3.38496ZM16.4048 2.90605L13.1393 3.07719L13.1699 3.66207L16.4355 3.49093L16.4048 2.90605ZM16.7126 3.18329L16.7126 3.18316L16.1277 3.21382L16.1277 3.21394L16.7126 3.18329ZM18.9183 5.16928C17.7608 5.22994 16.7733 4.34078 16.7126 3.18329L16.1277 3.21394C16.2053 4.69445 17.4684 5.83175 18.9489 5.75416L18.9183 5.16928ZM20.9043 2.96361C20.9649 4.1211 20.0758 5.10862 18.9183 5.16928L18.9489 5.75416C20.4295 5.67657 21.5668 4.41347 21.4892 2.93296L20.9043 2.96361ZM20.9043 2.96349L20.9043 2.96361L21.4892 2.93296L21.4892 2.93284L20.9043 2.96349ZM24.447 2.48458L21.1814 2.65572L21.212 3.2406L24.4776 3.06946L24.447 2.48458ZM24.7548 2.76182L24.7548 2.76169L24.1699 2.79235L24.1699 2.79247L24.7548 2.76182ZM26.9604 4.74781C25.8029 4.80847 24.8154 3.91931 24.7548 2.76182L24.1699 2.79247C24.2475 4.27299 25.5106 5.41029 26.9911 5.33269L26.9604 4.74781ZM28.7293 32.9043L27.2682 5.02493L26.6833 5.05558L28.1444 32.935L28.7293 32.9043Z"
            fill="url(#paint8_linear_4501_78394)" mask="url(#path-12-inside-3_4501_78394)" />
        <g opacity="0.6" filter="url(#filter1_f_4501_78394)">
            <path
                d="M24.4654 19.9606C25.8884 17.0989 24.8772 13.533 22.1238 11.7231C20.2775 10.5093 18.1006 10.32 16.2377 10.9779C16.1373 11.0133 16.1393 11.1544 16.2418 11.1919C16.6996 11.3558 17.1536 11.5628 17.5996 11.8116C19.0736 12.6337 20.2034 13.7729 20.849 15.1059C21.3653 14.9716 21.847 14.714 22.2181 14.353C22.2964 14.2763 22.4285 14.35 22.4045 14.4569C22.1823 15.4551 22.5277 16.6032 23.272 17.3423C23.3514 17.4213 23.28 17.5492 23.1712 17.5232C22.6095 17.3881 22.0064 17.423 21.4555 17.5981C21.4555 17.5981 21.455 17.599 21.4545 17.5999C21.4803 18.749 21.182 19.9685 20.4921 21.2055C20.029 22.0357 19.4814 22.7112 18.8729 23.2428C18.7925 23.3125 18.8496 23.4462 18.9577 23.4417C21.2341 23.3696 23.3874 22.1252 24.4636 19.9596L24.4654 19.9606Z"
                fill="white" />
            <path
                d="M20.8491 15.1074C20.3464 15.2388 19.809 15.2537 19.3044 15.1331C19.25 15.1201 19.2053 15.1449 19.1842 15.1828C19.163 15.2208 19.1654 15.2718 19.205 15.3113C19.9489 16.0513 20.2948 17.1986 20.0726 18.1967C20.0486 18.3036 20.1807 18.3773 20.259 18.3007C20.5885 17.9801 21.0041 17.7411 21.4552 17.5982C21.4348 16.7181 21.2242 15.8811 20.8491 15.1074Z"
                fill="white" />
        </g>
        <path
            d="M24.2233 20.3323C25.861 17.5879 25.1255 13.9551 22.5186 11.9399C20.7705 10.5885 18.6145 10.2332 16.7067 10.7468C16.6039 10.7744 16.5951 10.9152 16.6944 10.9604C17.1383 11.1589 17.5752 11.4 18.0009 11.6821C19.4076 12.6146 20.447 13.8368 20.9888 15.2153C21.5138 15.1209 22.0139 14.9009 22.4114 14.5693C22.4954 14.4989 22.6215 14.5824 22.5893 14.6872C22.2914 15.6654 22.548 16.8366 23.2337 17.6305C23.3068 17.7153 23.2258 17.8374 23.1193 17.8031C22.5696 17.6254 21.9656 17.6141 21.4029 17.7466C21.4029 17.7466 21.4024 17.7474 21.4018 17.7483C21.3396 18.896 20.949 20.0891 20.1665 21.2697C19.6412 22.0621 19.0436 22.6937 18.3962 23.1773C18.3107 23.2406 18.3574 23.3782 18.4655 23.382C20.7408 23.4842 22.9829 22.4081 24.2216 20.3312L24.2233 20.3323Z"
            fill="white" />
        <path
            d="M20.989 15.2166C20.4777 15.3092 19.9407 15.283 19.4469 15.1241C19.3936 15.107 19.3471 15.1283 19.3231 15.1645C19.2991 15.2007 19.2976 15.2518 19.3341 15.2942C20.0193 16.0889 20.2764 17.2593 19.9785 18.2375C19.9464 18.3423 20.0725 18.4258 20.1564 18.3554C20.5094 18.061 20.9421 17.8545 21.4028 17.7465C21.4497 16.8674 21.3038 16.0168 20.989 15.2166Z"
            fill="white" />
        <path opacity="0.5" fill-rule="evenodd" clip-rule="evenodd"
            d="M25.1206 30.2585L15.3725 30.7694C14.565 30.8117 13.876 30.1914 13.8337 29.3838L13.6804 26.4594L26.3527 25.7953L26.3529 25.7953L26.5061 28.7197C26.5485 29.5272 25.9281 30.2162 25.1206 30.2585ZM26.8145 25.2805L25.9814 9.38468C25.925 8.30794 25.0064 7.48081 23.9296 7.53724L14.1816 8.04811C13.1049 8.10454 12.2777 9.02316 12.3342 10.0999L13.1673 25.9976L13.1929 26.485L13.193 26.485L13.3463 29.4094C13.4027 30.4861 14.3213 31.3132 15.3981 31.2568L25.1461 30.7459C26.2228 30.6895 27.05 29.7709 26.9935 28.6941L26.8402 25.7679L26.8146 25.2805L26.8145 25.2805ZM26.3271 25.306L25.494 9.41022C25.4517 8.60266 24.7627 7.98232 23.9552 8.02464L14.2071 8.53552C13.3996 8.57784 12.7792 9.2668 12.8216 10.0744L13.6546 25.9702L13.6548 25.9702L26.3271 25.306Z"
            fill="url(#paint9_linear_4501_78394)" />
        <g filter="url(#filter2_d_4501_78394)">
            <path
                d="M19.9948 26.6828C20.0227 26.5802 20.1655 26.5727 20.204 26.6719V26.6719C20.4403 27.2811 20.9521 27.7419 21.5827 27.9133V27.9133C21.6854 27.9412 21.6928 28.084 21.5937 28.1225V28.1225C20.9844 28.3588 20.5236 28.8706 20.3522 29.5012V29.5012C20.3243 29.6038 20.1816 29.6113 20.1431 29.5121V29.5121C19.9067 28.9029 19.395 28.4421 18.7644 28.2707V28.2707C18.6617 28.2428 18.6542 28.1001 18.7534 28.0616V28.0616C19.3627 27.8252 19.8234 27.3135 19.9948 26.6828V26.6828Z"
                fill="white" />
        </g>
        <path opacity="0.3"
            d="M16.0701 27.1695C16.0953 27.0768 16.2242 27.0701 16.2589 27.1596C16.4724 27.7098 16.9344 28.1258 17.5039 28.2806C17.5966 28.3058 17.6033 28.4347 17.5138 28.4694C16.9636 28.6829 16.5476 29.145 16.3928 29.7144C16.3676 29.8071 16.2387 29.8138 16.204 29.7243C15.9905 29.1741 15.5284 28.7581 14.959 28.6033C14.8663 28.5781 14.8596 28.4492 14.9491 28.4145C15.4993 28.201 15.9153 27.739 16.0701 27.1695Z"
            fill="white" />
        <path opacity="0.3"
            d="M23.8616 26.7613C23.8868 26.6686 24.0157 26.6619 24.0504 26.7514C24.2639 27.3016 24.7259 27.7176 25.2954 27.8724C25.3881 27.8976 25.3948 28.0265 25.3053 28.0612C24.7551 28.2747 24.3391 28.7368 24.1843 29.3062C24.1591 29.3989 24.0302 29.4056 23.9955 29.3161C23.782 28.7659 23.32 28.3499 22.7505 28.1951C22.6578 28.1699 22.6511 28.041 22.7406 28.0063C23.2908 27.7928 23.7068 27.3308 23.8616 26.7613Z"
            fill="white" />
        <path
            d="M14.725 15.2436L13.0499 15.2006L12.5303 16.7937L12.5732 15.1185L10.9801 14.5989L12.6553 14.6419L13.1749 13.0488L13.1319 14.7239L14.725 15.2436Z"
            fill="url(#paint10_radial_4501_78394)" />
        <path
            d="M18.817 26.2466L17.3373 26.0046L16.6829 27.3536L16.9248 25.8739L15.5759 25.2194L17.0555 25.4614L17.71 24.1124L17.4681 25.5921L18.817 26.2466Z"
            fill="url(#paint11_radial_4501_78394)" />
        <path
            d="M26.2658 15.5083L26.0809 16.5952L27.0696 17.0828L25.9828 16.8979L25.4952 17.8866L25.6801 16.7998L24.6914 16.3122L25.7782 16.4971L26.2658 15.5083Z"
            fill="url(#paint12_radial_4501_78394)" />
    </g>
    <defs>
        <filter id="filter0_f_4501_78394" x="-3.97022" y="-7.37207" width="47.2686" height="53.5464"
            filterUnits="userSpaceOnUse" color-interpolation-filters="sRGB">
            <feFlood flood-opacity="0" result="BackgroundImageFix" />
            <feBlend mode="normal" in="SourceGraphic" in2="BackgroundImageFix" result="shape" />
            <feGaussianBlur stdDeviation="5.94873" result="effect1_foregroundBlur_4501_78394" />
        </filter>
        <filter id="filter1_f_4501_78394" x="11.3636" y="5.80449" width="18.5443" height="22.4374"
            filterUnits="userSpaceOnUse" color-interpolation-filters="sRGB">
            <feFlood flood-opacity="0" result="BackgroundImageFix" />
            <feBlend mode="normal" in="SourceGraphic" in2="BackgroundImageFix" result="shape" />
            <feGaussianBlur stdDeviation="2.4" result="effect1_foregroundBlur_4501_78394" />
        </filter>
        <filter id="filter2_d_4501_78394" x="16.8116" y="25.9777" width="6.72398" height="6.72398"
            filterUnits="userSpaceOnUse" color-interpolation-filters="sRGB">
            <feFlood flood-opacity="0" result="BackgroundImageFix" />
            <feColorMatrix in="SourceAlpha" type="matrix"
                values="0 0 0 0 0 0 0 0 0 0 0 0 0 0 0 0 0 0 127 0" result="hardAlpha" />
            <feOffset dy="1.24767" />
            <feGaussianBlur stdDeviation="0.935755" />
            <feComposite in2="hardAlpha" operator="out" />
            <feColorMatrix type="matrix"
                values="0 0 0 0 0.729167 0 0 0 0 0.04375 0 0 0 0 0 0 0 0 0.44 0" />
            <feBlend mode="normal" in2="BackgroundImageFix" result="effect1_dropShadow_4501_78394" />
            <feBlend mode="normal" in="SourceGraphic" in2="effect1_dropShadow_4501_78394"
                result="shape" />
        </filter>
        <linearGradient id="paint0_linear_4501_78394" x1="16.9206" y1="11.847" x2="30.5232"
            y2="20.6697" gradientUnits="userSpaceOnUse">
            <stop stop-color="#98290C" />
            <stop offset="1" stop-color="#FF5D02" />
        </linearGradient>
        <linearGradient id="paint1_linear_4501_78394" x1="25.6043" y1="-7.266" x2="19.3245"
            y2="4.01658" gradientUnits="userSpaceOnUse">
            <stop stop-color="white" />
            <stop offset="1" stop-color="white" stop-opacity="0" />
        </linearGradient>
        <linearGradient id="paint2_linear_4501_78394" x1="46.0601" y1="7.46281" x2="7.35135"
            y2="22.2391" gradientUnits="userSpaceOnUse">
            <stop stop-color="white" stop-opacity="0" />
            <stop offset="0.73465" stop-color="white" />
            <stop offset="1" stop-color="white" stop-opacity="0" />
        </linearGradient>
        <linearGradient id="paint3_linear_4501_78394" x1="6.33027" y1="13.4186" x2="27.0923"
            y2="18.5767" gradientUnits="userSpaceOnUse">
            <stop stop-color="#98290C" />
            <stop offset="1" stop-color="#FF5D02" />
        </linearGradient>
        <linearGradient id="paint4_linear_4501_78394" x1="6.81124" y1="-5.56541" x2="5.13471"
            y2="5.94924" gradientUnits="userSpaceOnUse">
            <stop stop-color="white" />
            <stop offset="1" stop-color="white" stop-opacity="0" />
        </linearGradient>
        <linearGradient id="paint5_linear_4501_78394" x1="0.923817" y1="34.8702" x2="1.83282"
            y2="28.6271" gradientUnits="userSpaceOnUse">
            <stop />
            <stop offset="1" stop-opacity="0" />
        </linearGradient>
        <radialGradient id="paint6_radial_4501_78394" cx="0" cy="0" r="1"
            gradientUnits="userSpaceOnUse"
            gradientTransform="translate(13.5246 41.3972) rotate(-67.2019) scale(44.3119 62.9736)">
            <stop stop-color="#AA160C" />
            <stop offset="0.620539" stop-color="#FF6B00" />
            <stop offset="1" stop-color="#F84B00" />
        </radialGradient>
        <linearGradient id="paint7_linear_4501_78394" x1="8.07974" y1="-1.43895" x2="19.2019"
            y2="19.4936" gradientUnits="userSpaceOnUse">
            <stop stop-color="white" />
            <stop offset="1" stop-color="white" stop-opacity="0" />
        </linearGradient>
        <linearGradient id="paint8_linear_4501_78394" x1="7.80019" y1="41.0878" x2="7.41448"
            y2="33.728" gradientUnits="userSpaceOnUse">
            <stop />
            <stop offset="1" stop-opacity="0" />
        </linearGradient>
        <linearGradient id="paint9_linear_4501_78394" x1="31.7827" y1="-4.88898" x2="24.3068"
            y2="35.5037" gradientUnits="userSpaceOnUse">
            <stop stop-color="white" stop-opacity="0" />
            <stop offset="0.333317" stop-color="white" stop-opacity="0.12" />
            <stop offset="0.423807" stop-color="white" stop-opacity="0.68" />
            <stop offset="0.685061" stop-color="white" stop-opacity="0.27" />
            <stop offset="0.737191" stop-color="white" stop-opacity="0.79" />
            <stop offset="0.805793" stop-color="white" stop-opacity="0.26" />
            <stop offset="1" stop-color="white" stop-opacity="0.17" />
        </linearGradient>
        <radialGradient id="paint10_radial_4501_78394" cx="0" cy="0" r="1"
            gradientUnits="userSpaceOnUse"
            gradientTransform="translate(12.8526 14.9212) rotate(164.802) scale(5.49779)">
            <stop offset="0.0976782" stop-color="white" />
            <stop offset="1" stop-color="white" stop-opacity="0" />
        </radialGradient>
        <radialGradient id="paint11_radial_4501_78394" cx="0" cy="0" r="1"
            gradientUnits="userSpaceOnUse"
            gradientTransform="translate(17.1964 25.733) rotate(172.618) scale(4.91908)">
            <stop offset="0.0976782" stop-color="white" />
            <stop offset="1" stop-color="white" stop-opacity="0" />
        </radialGradient>
        <radialGradient id="paint12_radial_4501_78394" cx="0" cy="0" r="1"
            gradientUnits="userSpaceOnUse"
            gradientTransform="translate(25.8805 16.6975) rotate(82.9876) scale(3.61697)">
            <stop offset="0.0976782" stop-color="white" />
            <stop offset="1" stop-color="white" stop-opacity="0" />
        </radialGradient>
        <clipPath id="clip0_4501_78394">
            <rect width="40" height="40" fill="white" />
        </clipPath>
    </defs>
</svg>
    