<svg width="40" height="40" viewBox="-0.5 0.5 40 40" fill="none" xmlns="http://www.w3.org/2000/svg">
    <g clip-path="url(#clip0_4501_78009)">
        <g opacity="0.6">
            <mask id="path-1-inside-1_4501_78009" fill="white">
                <path fill-rule="evenodd" clip-rule="evenodd"
                    d="M23.6654 37.5081L36.7578 14.4446C35.6667 13.8251 35.2843 12.4385 35.9037 11.3474L35.9038 11.3473L33.2023 9.81372L33.2022 9.81383C32.5828 10.905 31.1961 11.2874 30.105 10.668C29.0138 10.0486 28.6314 8.6619 29.2508 7.57074L29.2509 7.57062L26.5494 6.03707L26.5493 6.03719C25.9299 7.12835 24.5432 7.51077 23.452 6.89136L23.4519 6.8913L10.3595 29.9548C10.3596 29.9548 10.3596 29.9548 10.3596 29.9549C11.4507 30.5742 11.8332 31.9609 11.2139 33.052L13.9154 34.5855C14.5348 33.4945 15.9215 33.1121 17.0126 33.7315C18.1037 34.3509 18.4861 35.7375 17.8668 36.8286L20.5683 38.3622C21.1877 37.2712 22.5743 36.8888 23.6654 37.5081Z" />
            </mask>
            <path fill-rule="evenodd" clip-rule="evenodd"
                d="M23.6654 37.5081L36.7578 14.4446C35.6667 13.8251 35.2843 12.4385 35.9037 11.3474L35.9038 11.3473L33.2023 9.81372L33.2022 9.81383C32.5828 10.905 31.1961 11.2874 30.105 10.668C29.0138 10.0486 28.6314 8.6619 29.2508 7.57074L29.2509 7.57062L26.5494 6.03707L26.5493 6.03719C25.9299 7.12835 24.5432 7.51077 23.452 6.89136L23.4519 6.8913L10.3595 29.9548C10.3596 29.9548 10.3596 29.9548 10.3596 29.9549C11.4507 30.5742 11.8332 31.9609 11.2139 33.052L13.9154 34.5855C14.5348 33.4945 15.9215 33.1121 17.0126 33.7315C18.1037 34.3509 18.4861 35.7375 17.8668 36.8286L20.5683 38.3622C21.1877 37.2712 22.5743 36.8888 23.6654 37.5081Z"
                fill="url(#paint0_linear_4501_78009)" />
            <path
                d="M36.7578 14.4446L36.9997 14.5819L37.137 14.34L36.8951 14.2027L36.7578 14.4446ZM23.6654 37.5081L23.5281 37.75L23.77 37.8873L23.9073 37.6454L23.6654 37.5081ZM35.9038 11.3473L36.1457 11.4846L36.283 11.2427L36.0411 11.1053L35.9038 11.3473ZM33.2023 9.81372L33.3396 9.57179L33.0977 9.43446L32.9604 9.67639L33.2023 9.81372ZM29.2508 7.57074L29.0089 7.4334L29.2508 7.57074ZM29.2509 7.57062L29.4928 7.70795L29.6301 7.46603L29.3882 7.3287L29.2509 7.57062ZM26.5494 6.03707L26.6867 5.79515L26.4448 5.65781L26.3074 5.89974L26.5494 6.03707ZM26.5493 6.03719L26.3074 5.89986L26.5493 6.03719ZM23.452 6.89136L23.3147 7.13328L23.452 6.89136ZM23.4519 6.8913L23.5892 6.64937L23.3473 6.51204L23.21 6.75396L23.4519 6.8913ZM10.3595 29.9548L10.1176 29.8175L9.98028 30.0594L10.2222 30.1967L10.3595 29.9548ZM11.2139 33.052L10.9719 32.9147L10.8346 33.1566L11.0765 33.2939L11.2139 33.052ZM13.9154 34.5855L13.778 34.8275L14.0199 34.9648L14.1573 34.7229L13.9154 34.5855ZM17.8668 36.8286L17.6249 36.6913L17.4876 36.9332L17.7295 37.0706L17.8668 36.8286ZM20.5683 38.3622L20.431 38.6041L20.6729 38.7414L20.8102 38.4995L20.5683 38.3622ZM36.5159 14.3073L23.4235 37.3708L23.9073 37.6454L36.9997 14.5819L36.5159 14.3073ZM35.6618 11.2101C34.9665 12.4348 35.3957 13.9912 36.6204 14.6865L36.8951 14.2027C35.9376 13.6591 35.6021 12.4422 36.1456 11.4847L35.6618 11.2101ZM35.6619 11.2099L35.6618 11.2101L36.1456 11.4847L36.1457 11.4846L35.6619 11.2099ZM33.065 10.0556L35.7664 11.5892L36.0411 11.1053L33.3396 9.57179L33.065 10.0556ZM33.4442 9.95117L33.4442 9.95105L32.9604 9.67639L32.9603 9.6765L33.4442 9.95117ZM29.9676 10.9099C31.1924 11.6052 32.7489 11.1759 33.4442 9.95117L32.9603 9.6765C32.4167 10.6341 31.1998 10.9696 30.2423 10.4261L29.9676 10.9099ZM29.0089 7.4334C28.3136 8.65818 28.7429 10.2147 29.9676 10.9099L30.2423 10.4261C29.2847 9.88251 28.9491 8.66562 29.4927 7.70807L29.0089 7.4334ZM29.0089 7.43329L29.0089 7.4334L29.4927 7.70807L29.4928 7.70795L29.0089 7.43329ZM26.412 6.279L29.1135 7.81255L29.3882 7.3287L26.6867 5.79515L26.412 6.279ZM26.7912 6.17452L26.7913 6.1744L26.3074 5.89974L26.3074 5.89986L26.7912 6.17452ZM23.3147 7.13328C24.5395 7.82854 26.096 7.39929 26.7912 6.17452L26.3074 5.89986C25.7638 6.8574 24.5469 7.193 23.5894 6.64943L23.3147 7.13328ZM23.3146 7.13322L23.3147 7.13328L23.5894 6.64943L23.5892 6.64937L23.3146 7.13322ZM10.6015 30.0921L23.6938 7.02863L23.21 6.75396L10.1176 29.8175L10.6015 30.0921ZM10.2222 30.1967L10.2222 30.1967C10.2222 30.1967 10.2222 30.1967 10.2222 30.1967C10.2222 30.1967 10.2222 30.1967 10.2222 30.1967C10.2222 30.1967 10.2222 30.1967 10.2222 30.1967C10.2222 30.1967 10.2222 30.1967 10.2222 30.1967C10.2222 30.1967 10.2222 30.1967 10.2222 30.1967L10.2222 30.1967L10.2222 30.1967L10.2222 30.1967C10.2222 30.1967 10.2222 30.1967 10.2222 30.1967C10.2222 30.1967 10.2222 30.1967 10.2222 30.1967C10.2222 30.1967 10.2222 30.1967 10.2222 30.1967C10.2222 30.1967 10.2222 30.1967 10.2222 30.1967L10.2222 30.1967L10.2222 30.1967C10.2222 30.1967 10.2222 30.1967 10.2222 30.1967C10.2222 30.1967 10.2222 30.1967 10.2222 30.1967C10.2222 30.1967 10.2222 30.1967 10.2222 30.1967C10.2222 30.1967 10.2222 30.1967 10.2222 30.1967L10.2222 30.1967L10.2222 30.1967C10.2222 30.1967 10.2222 30.1967 10.2222 30.1967C10.2222 30.1967 10.2222 30.1967 10.2222 30.1967C10.2222 30.1967 10.2222 30.1967 10.2222 30.1967C10.2222 30.1967 10.2222 30.1967 10.2222 30.1967L10.2222 30.1967L10.2222 30.1967C10.2222 30.1967 10.2222 30.1967 10.2222 30.1967C10.2222 30.1967 10.2222 30.1967 10.2222 30.1967C10.2222 30.1967 10.2222 30.1967 10.2222 30.1967C10.2222 30.1967 10.2222 30.1967 10.2222 30.1967L10.2222 30.1967L10.2222 30.1967C10.2222 30.1967 10.2222 30.1967 10.2222 30.1967C10.2222 30.1967 10.2222 30.1967 10.2222 30.1967C10.2222 30.1967 10.2222 30.1967 10.2222 30.1968L10.2222 30.1968L10.2222 30.1968C10.2222 30.1968 10.2222 30.1968 10.2222 30.1968C10.2222 30.1968 10.2222 30.1968 10.2222 30.1968C10.2222 30.1968 10.2222 30.1968 10.2222 30.1968C10.2222 30.1968 10.2222 30.1968 10.2222 30.1968L10.2222 30.1968C10.2222 30.1968 10.2222 30.1968 10.2222 30.1968C10.2222 30.1968 10.2222 30.1968 10.2222 30.1968C10.2222 30.1968 10.2222 30.1968 10.2222 30.1968C10.2222 30.1968 10.2222 30.1968 10.2222 30.1968L10.2222 30.1968L10.2222 30.1968C10.2223 30.1968 10.2223 30.1968 10.2223 30.1968C10.2223 30.1968 10.2223 30.1968 10.2223 30.1968C10.2223 30.1968 10.2223 30.1968 10.2223 30.1968L10.2223 30.1968L10.2223 30.1968C10.2223 30.1968 10.2223 30.1968 10.2223 30.1968C10.2223 30.1968 10.2223 30.1968 10.2223 30.1968C10.2223 30.1968 10.2223 30.1968 10.2223 30.1968L10.2223 30.1968L10.2223 30.1968C10.2223 30.1968 10.2223 30.1968 10.2223 30.1968C10.2223 30.1968 10.2223 30.1968 10.2223 30.1968C10.2223 30.1968 10.2223 30.1968 10.2223 30.1968C10.2223 30.1968 10.2223 30.1968 10.2223 30.1968L10.2223 30.1968C10.2223 30.1968 10.2223 30.1968 10.2223 30.1968C10.2223 30.1968 10.2223 30.1968 10.2223 30.1968C10.2223 30.1968 10.2223 30.1968 10.2223 30.1968C10.2223 30.1968 10.2223 30.1968 10.2223 30.1968L10.2223 30.1968L10.2223 30.1968C10.2223 30.1968 10.2223 30.1968 10.2223 30.1968C10.2223 30.1968 10.2223 30.1968 10.2223 30.1968C10.2223 30.1968 10.2223 30.1968 10.2223 30.1968L10.2223 30.1968L10.2223 30.1968C10.2223 30.1968 10.2223 30.1968 10.2223 30.1968C10.2223 30.1968 10.2223 30.1968 10.2223 30.1968C10.2223 30.1968 10.2223 30.1968 10.2223 30.1968C10.2223 30.1968 10.2223 30.1968 10.2223 30.1968L10.2223 30.1968L10.2223 30.1968C10.2223 30.1968 10.2223 30.1968 10.2223 30.1968C10.2223 30.1968 10.2223 30.1968 10.2223 30.1968C10.2223 30.1968 10.2223 30.1968 10.2223 30.1968C10.2223 30.1968 10.2223 30.1968 10.2223 30.1968L10.2223 30.1968L10.2223 30.1968C10.2223 30.1968 10.2223 30.1968 10.2223 30.1968C10.2223 30.1968 10.2223 30.1968 10.2223 30.1968C10.2223 30.1968 10.2223 30.1968 10.2223 30.1968C10.2223 30.1968 10.2223 30.1968 10.2223 30.1968L10.2223 30.1968L10.2223 30.1968C10.2223 30.1968 10.2223 30.1968 10.2223 30.1968C10.2223 30.1968 10.2223 30.1968 10.2223 30.1968C10.2223 30.1968 10.2223 30.1968 10.2223 30.1968C10.2223 30.1968 10.2223 30.1968 10.2223 30.1968L10.2223 30.1968L10.2223 30.1968L10.2223 30.1968C10.2223 30.1968 10.2223 30.1968 10.2223 30.1968C10.2223 30.1968 10.2223 30.1968 10.2223 30.1968C10.2223 30.1968 10.2223 30.1968 10.2223 30.1968C10.2223 30.1968 10.2223 30.1968 10.2223 30.1968C10.2223 30.1968 10.2223 30.1968 10.2223 30.1968L10.2223 30.1968L10.497 29.7129L10.497 29.7129C10.497 29.7129 10.497 29.7129 10.497 29.7129C10.497 29.7129 10.497 29.7129 10.497 29.7129C10.497 29.7129 10.497 29.7129 10.497 29.7129C10.497 29.7129 10.497 29.7129 10.497 29.7129C10.497 29.7129 10.497 29.7129 10.497 29.7129L10.497 29.7129L10.497 29.7129L10.497 29.7129C10.497 29.7129 10.497 29.7129 10.497 29.7129C10.497 29.7129 10.497 29.7129 10.497 29.7129C10.497 29.7129 10.497 29.7129 10.497 29.7129C10.497 29.7129 10.497 29.7129 10.497 29.7129L10.497 29.7129L10.4969 29.7129C10.4969 29.7129 10.4969 29.7129 10.4969 29.7129C10.4969 29.7129 10.4969 29.7129 10.4969 29.7129C10.4969 29.7129 10.4969 29.7129 10.4969 29.7129C10.4969 29.7129 10.4969 29.7129 10.4969 29.7129L10.4969 29.7129L10.4969 29.7129C10.4969 29.7129 10.4969 29.7129 10.4969 29.7129C10.4969 29.7129 10.4969 29.7129 10.4969 29.7129C10.4969 29.7129 10.4969 29.7129 10.4969 29.7129C10.4969 29.7129 10.4969 29.7129 10.4969 29.7129L10.4969 29.7129L10.4969 29.7129C10.4969 29.7129 10.4969 29.7129 10.4969 29.7129C10.4969 29.7129 10.4969 29.7129 10.4969 29.7129C10.4969 29.7129 10.4969 29.7129 10.4969 29.7129C10.4969 29.7129 10.4969 29.7129 10.4969 29.7129L10.4969 29.7129L10.4969 29.7129C10.4969 29.7129 10.4969 29.7129 10.4969 29.7129C10.4969 29.7129 10.4969 29.7129 10.4969 29.7129C10.4969 29.7129 10.4969 29.7129 10.4969 29.7129L10.4969 29.7129L10.4969 29.7129C10.4969 29.7129 10.4969 29.7129 10.4969 29.7129C10.4969 29.7129 10.4969 29.7129 10.4969 29.7129C10.4969 29.7129 10.4969 29.7129 10.4969 29.7129C10.4969 29.7129 10.4969 29.7129 10.4969 29.7129L10.4969 29.7129C10.4969 29.7129 10.4969 29.7129 10.4969 29.7129C10.4969 29.7129 10.4969 29.7129 10.4969 29.7129C10.4969 29.7129 10.4969 29.7129 10.4969 29.7129C10.4969 29.7129 10.4969 29.7129 10.4969 29.7129L10.4969 29.7129L10.4969 29.7129C10.4969 29.7129 10.4969 29.7129 10.4969 29.7129C10.4969 29.7129 10.4969 29.7129 10.4969 29.7129C10.4969 29.7129 10.4969 29.7129 10.4969 29.7129L10.4969 29.7129L10.4969 29.7129C10.4969 29.7129 10.4969 29.7129 10.4969 29.7129C10.4969 29.7129 10.4969 29.7129 10.4969 29.7129C10.4969 29.7129 10.4969 29.7129 10.4969 29.7129L10.4969 29.7129L10.4969 29.7129C10.4969 29.7129 10.4969 29.7129 10.4969 29.7129C10.4969 29.7129 10.4969 29.7129 10.4969 29.7129C10.4969 29.7129 10.4969 29.7129 10.4969 29.7129C10.4969 29.7129 10.4969 29.7129 10.4969 29.7129L10.4969 29.7129C10.4969 29.7129 10.4969 29.7129 10.4969 29.7129C10.4969 29.7129 10.4969 29.7129 10.4969 29.7129C10.4969 29.7129 10.4969 29.7129 10.4969 29.7129C10.4969 29.7129 10.4969 29.7129 10.4969 29.7129L10.4969 29.7129L10.4969 29.7129C10.4969 29.7129 10.4969 29.7129 10.4969 29.7129C10.4969 29.7129 10.4969 29.7129 10.4969 29.7129C10.4969 29.7129 10.4969 29.7129 10.4969 29.7129L10.4969 29.7129L10.4969 29.7129C10.4969 29.7129 10.4969 29.7129 10.4969 29.7129C10.4969 29.7129 10.4969 29.7129 10.4969 29.7129C10.4969 29.7129 10.4969 29.7129 10.4969 29.7129C10.4969 29.7129 10.4969 29.7129 10.4969 29.7129L10.4969 29.7129L10.4969 29.7129C10.4969 29.7129 10.4969 29.7129 10.4969 29.7129C10.4969 29.7129 10.4969 29.7129 10.4969 29.7129C10.4969 29.7129 10.4969 29.7129 10.4969 29.7129C10.4969 29.7129 10.4969 29.7129 10.4969 29.7129L10.4969 29.7129L10.4969 29.7129C10.4969 29.7129 10.4969 29.7129 10.4969 29.7129C10.4969 29.7129 10.4969 29.7129 10.4969 29.7129C10.4969 29.7129 10.4969 29.7129 10.4969 29.7129C10.4969 29.7129 10.4969 29.7129 10.4969 29.7129L10.4969 29.7129L10.4969 29.7129C10.4969 29.7129 10.4969 29.7129 10.4969 29.7129C10.4969 29.7129 10.4969 29.7129 10.4969 29.7129C10.4969 29.7129 10.4969 29.7129 10.4969 29.7129C10.4969 29.7129 10.4969 29.7129 10.4969 29.7129L10.4969 29.7129L10.4969 29.7129L10.4969 29.7129C10.4969 29.7129 10.4969 29.7129 10.4969 29.7129C10.4969 29.7129 10.4969 29.7129 10.4969 29.7129C10.4969 29.7129 10.4969 29.7129 10.4969 29.7129C10.4969 29.7129 10.4969 29.7129 10.4969 29.7129C10.4969 29.7129 10.4969 29.7129 10.4969 29.7129L10.4969 29.7129L10.2222 30.1967ZM10.2223 30.1968C11.1798 30.7403 11.5154 31.9571 10.9719 32.9147L11.4558 33.1893C12.151 31.9646 11.7217 30.4082 10.497 29.7129L10.2223 30.1968ZM14.0527 34.3436L11.3512 32.8101L11.0765 33.2939L13.778 34.8275L14.0527 34.3436ZM17.1499 33.4896C15.9252 32.7943 14.3688 33.2235 13.6735 34.4482L14.1573 34.7229C14.7009 33.7654 15.9177 33.4299 16.8752 33.9734L17.1499 33.4896ZM18.1087 36.966C18.8039 35.7412 18.3746 34.1848 17.1499 33.4896L16.8752 33.9734C17.8327 34.517 18.1684 35.7338 17.6249 36.6913L18.1087 36.966ZM20.7056 38.1203L18.0041 36.5867L17.7295 37.0706L20.431 38.6041L20.7056 38.1203ZM23.8027 37.2662C22.578 36.571 21.0217 37.0002 20.3264 38.2248L20.8102 38.4995C21.3538 37.5421 22.5706 37.2066 23.5281 37.75L23.8027 37.2662Z"
                fill="url(#paint1_linear_4501_78009)" mask="url(#path-1-inside-1_4501_78009)" />
            <path
                d="M28.537 23.5794C29.9146 20.8604 28.9758 17.4525 26.3629 15.7067C24.6109 14.536 22.5362 14.3399 20.7549 14.9539C20.6589 14.987 20.6598 15.1215 20.7572 15.158C21.1926 15.3177 21.6241 15.5183 22.0477 15.7587C23.4475 16.5533 24.5168 17.6478 25.123 18.9237C25.6163 18.7993 26.0776 18.5571 26.434 18.2154C26.5092 18.1429 26.6347 18.2141 26.611 18.3159C26.3919 19.2662 26.7131 20.3637 27.4177 21.0738C27.4928 21.1497 27.4238 21.2712 27.3202 21.2456C26.7855 21.1127 26.2101 21.1417 25.6835 21.3047C25.6835 21.3047 25.683 21.3056 25.6826 21.3064C25.6989 22.4025 25.4057 23.5634 24.7389 24.7381C24.2913 25.5265 23.7642 26.1668 23.1801 26.6695C23.1029 26.7353 23.1565 26.8632 23.2596 26.8597C25.431 26.8072 27.4934 25.6359 28.5353 23.5784L28.537 23.5794Z"
                fill="white" />
            <path
                d="M25.1232 18.9246C24.6429 19.0463 24.1302 19.0567 23.65 18.938C23.5981 18.9252 23.5554 18.9486 23.5349 18.9846C23.5144 19.0206 23.5163 19.0693 23.5539 19.1073C24.258 19.8183 24.5797 20.9149 24.3606 21.8652C24.3369 21.967 24.4624 22.0382 24.5376 21.9657C24.8541 21.6623 25.2522 21.4374 25.6834 21.3044C25.6702 20.4649 25.4754 19.6652 25.1232 18.9246Z"
                fill="white" />
            <path opacity="0.5" fill-rule="evenodd" clip-rule="evenodd"
                d="M24.7455 10.7175L32.8096 15.2953C33.4777 15.6745 33.7118 16.5235 33.3326 17.1916L25.8709 30.3361L15.3875 24.3851L22.8492 11.2405C23.2284 10.5724 24.0774 10.3383 24.7455 10.7175ZM33.0385 14.8921L24.9744 10.3143C24.0836 9.80867 22.9516 10.1209 22.446 11.0116L14.9843 24.1562L14.9367 24.2399L14.9366 24.2399L14.7077 24.6431L13.382 26.9784C12.8764 27.8692 13.1885 29.0012 14.0793 29.5068L22.1434 34.0846C23.0342 34.5902 24.1662 34.278 24.6718 33.3873L25.9975 31.0519L26.0451 30.9682L26.0452 30.9682L26.2741 30.565L33.7358 17.4204C34.2415 16.5297 33.9293 15.3977 33.0385 14.8921ZM22.3723 33.6814L14.3082 29.1036C13.6401 28.7244 13.406 27.8754 13.7852 27.2073L15.1109 24.872L25.5943 30.823L24.2686 33.1584C23.8894 33.8265 23.0404 34.0606 22.3723 33.6814Z"
                fill="url(#paint2_linear_4501_78009)" />
            <path
                d="M14.4607 27.6516C14.5545 27.5485 14.6812 27.3608 14.7764 27.1931L14.9864 26.8233C15.0816 26.6555 15.1778 26.4505 15.2182 26.3171L15.8149 26.6559L15.7297 27.3032C15.7159 27.4164 15.7074 27.4846 15.6676 27.6259L15.6885 27.6378C15.7804 27.5336 15.8295 27.496 15.9299 27.4168L16.444 27.013L17.0312 27.3463C16.9374 27.4493 16.8088 27.6359 16.7135 27.8037L16.5036 28.1735C16.4084 28.3413 16.314 28.5474 16.2736 28.6807L15.7513 28.3842C15.8451 28.2812 15.9737 28.0946 16.0689 27.9268L16.2486 27.6103L16.2257 27.5974L15.4272 28.2003L15.3014 28.1288L15.4098 27.1342L15.3926 27.1245L15.213 27.4409C15.1177 27.6087 15.0215 27.8137 14.983 27.9481L14.4607 27.6516ZM16.3301 28.7128C16.4544 28.6271 16.6345 28.4697 16.7774 28.329L17.1189 28.0338C17.2588 27.8939 17.3999 27.7119 17.4709 27.5959L18.2487 28.0374C18.1851 28.1627 18.1001 28.3791 18.053 28.5641L17.9746 29.0086C17.9262 29.2004 17.8842 29.4387 17.8724 29.5883L17.3501 29.2918C17.3904 29.2164 17.4297 29.1026 17.4677 28.978L17.4752 28.9293L17.0996 28.7161L17.0625 28.7504C16.973 28.8459 16.8955 28.938 16.8544 29.0104L16.3301 28.7128ZM17.2536 28.5514L17.5396 28.7137L17.5774 28.4605C17.5962 28.3653 17.6226 28.2921 17.6569 28.2006L17.6321 28.1865C17.566 28.2675 17.527 28.3184 17.4516 28.3891L17.2536 28.5514ZM19.0947 30.32C18.641 30.0624 19.1542 29.5623 18.8149 29.3697C18.792 29.3567 18.746 29.3356 18.7275 29.3327L18.6832 29.4108C18.5879 29.5786 18.4936 29.7847 18.4532 29.918L17.9309 29.6215C18.0247 29.5185 18.1533 29.3318 18.2485 29.1641L18.4585 28.7942C18.5537 28.6265 18.648 28.4204 18.6884 28.287L19.4986 28.747C19.7903 28.9125 19.9541 29.1568 19.8253 29.3836C19.6933 29.6162 19.4042 29.6059 19.1183 29.4436L19.1011 29.4338L19.0946 29.4453L19.0985 29.4474C19.2624 29.5405 19.2148 29.7176 19.3539 29.7966C19.4931 29.8756 19.6202 29.8293 19.7217 29.7483L19.4028 30.3234C19.3265 30.3734 19.1919 30.3752 19.0947 30.32ZM18.8087 29.1897L19.0546 29.3293C19.1537 29.3855 19.2402 29.3842 19.2813 29.3118C19.3192 29.2451 19.2782 29.1663 19.1886 29.1155L18.9331 28.9704L18.8087 29.1897ZM20.5992 31.1715C20.0826 30.8783 20.7758 30.3542 20.4193 30.1519C20.3869 30.1335 20.3369 30.1151 20.3154 30.113L20.2191 30.2827C20.1238 30.4504 20.0276 30.6555 19.9891 30.7899L19.4668 30.4934C19.5605 30.3903 19.6892 30.2037 19.7844 30.0359L19.9943 29.6661C20.0896 29.4984 20.1839 29.2923 20.2243 29.1589L20.7466 29.4554C20.6572 29.5508 20.5394 29.7184 20.4463 29.8823L20.4041 29.9567L20.5128 30.0184C20.6691 30.1071 20.8111 30.0567 20.9172 29.8699C20.967 29.7822 20.9877 29.688 20.983 29.5896L21.473 29.8677C21.4681 29.9607 21.4492 30.0383 21.3865 30.1489C21.2274 30.4291 21.0386 30.3975 20.6631 30.1844L20.5487 30.1194L20.5368 30.1404L20.5596 30.1534C20.8037 30.2919 20.7331 30.514 20.9142 30.6168C21.04 30.6882 21.1253 30.6711 21.2243 30.5988L20.9078 31.1652C20.8332 31.2212 20.6946 31.2256 20.5992 31.1715ZM20.9673 31.3452C21.0592 31.241 21.1897 31.0555 21.2849 30.8877L21.4949 30.5179C21.5901 30.3501 21.6825 30.143 21.7248 30.0107L22.8458 30.647L22.6346 31.1699C22.6108 31.101 22.5336 31.037 22.3468 30.9309L21.9579 30.7102L21.8692 30.8665L22.1761 31.0407C22.2657 31.0916 22.3526 31.1384 22.4149 31.1662L22.3034 31.3626C22.2487 31.3214 22.1651 31.2689 22.0755 31.218L21.7685 31.0438L21.6863 31.1887L22.0218 31.3791C22.323 31.5501 22.4266 31.5585 22.4927 31.5532L22.1416 32.0118L20.9673 31.3452ZM22.7026 32.3303C22.7964 32.2272 22.925 32.0406 23.0203 31.8728L23.2551 31.4591L23.0778 31.3585C22.9806 31.3033 22.8918 31.2731 22.7847 31.2753L23.1418 30.8151L24.2894 31.4665L24.0772 32.009C24.0286 31.926 23.9471 31.852 23.8556 31.8L23.6897 31.7059L23.4549 32.1196C23.3597 32.2873 23.2654 32.4934 23.225 32.6268L22.7026 32.3303Z"
                fill="white" />
            <path fill-rule="evenodd" clip-rule="evenodd"
                d="M23.6654 37.5081L36.7578 14.4446C35.6667 13.8252 35.2843 12.4385 35.9037 11.3474L35.9037 11.3472L33.2022 9.81369L33.2022 9.81383C32.5828 10.905 31.1961 11.2874 30.1049 10.668C29.0137 10.0486 28.6313 8.66189 29.2507 7.57073L29.2508 7.5706L26.5493 6.03705L26.5492 6.03718C25.9298 7.12834 24.5431 7.51077 23.452 6.89136L23.4519 6.89131L10.3595 29.9548C10.3596 29.9548 10.3596 29.9548 10.3596 29.9549C11.4507 30.5742 11.8331 31.9608 11.2138 33.052L13.9153 34.5855C14.5348 33.4945 15.9214 33.1121 17.0125 33.7315C18.1036 34.3509 18.4861 35.7375 17.8668 36.8286L20.5683 38.3622C21.1877 37.2711 22.5743 36.8888 23.6654 37.5081Z"
                fill="#0D0D0D" fill-opacity="0.71" />
        </g>
        <mask id="mask0_4501_78009" style="mask-type:alpha" maskUnits="userSpaceOnUse" x="10" y="6"
            width="27" height="33">
            <path fill-rule="evenodd" clip-rule="evenodd"
                d="M23.6654 37.5081L36.7578 14.4446C35.6667 13.8252 35.2843 12.4385 35.9037 11.3474L35.9038 11.3472L33.2023 9.8137L33.2022 9.81385C32.5828 10.905 31.1961 11.2874 30.1049 10.668C29.0137 10.0486 28.6313 8.66191 29.2507 7.57075L29.2508 7.5706L26.5493 6.03705L26.5492 6.0372C25.9298 7.12836 24.5431 7.51079 23.452 6.89137L23.4519 6.89133L10.3595 29.9548C10.3595 29.9549 10.3596 29.9549 10.3596 29.9549C11.4507 30.5743 11.8331 31.9608 11.2139 33.052L13.9153 34.5855C14.5348 33.4945 15.9214 33.1121 17.0125 33.7315C18.1036 34.3509 18.4861 35.7375 17.8668 36.8286L20.5683 38.3622C21.1877 37.2712 22.5743 36.8888 23.6654 37.5081Z"
                fill="#0D0D0D" />
        </mask>
        <g mask="url(#mask0_4501_78009)">
            <rect x="11.8184" y="1.94385" width="22.225" height="35.2341"
                transform="rotate(7.17916 11.8184 1.94385)" fill="#150101" fill-opacity="0.6" />
        </g>
        <g filter="url(#filter0_f_4501_78009)">
            <mask id="path-10-inside-2_4501_78009" fill="white">
                <path fill-rule="evenodd" clip-rule="evenodd"
                    d="M30.0998 30.6838L27.3049 6.94893C25.6564 7.14301 24.2128 6.39008 24.0806 5.26718L24.0806 5.26701L19.9992 5.74762L19.9992 5.7478C20.1314 6.87072 18.9022 7.9384 17.2537 8.13252C15.6052 8.32665 14.1616 7.57371 14.0293 6.45079L14.0293 6.4506L9.9479 6.93121L9.94792 6.93139C10.0801 8.05431 8.85094 9.12199 7.20241 9.31611L7.20228 9.31613L9.99718 33.0509C9.99722 33.0509 9.99725 33.0509 9.99729 33.0509C11.6458 32.8568 13.0893 33.6097 13.2216 34.7325L17.3031 34.2519C17.171 33.129 18.4001 32.0614 20.0486 31.8673C21.6971 31.6732 23.1406 32.4261 23.2729 33.5489L27.3543 33.0683C27.2222 31.9455 28.4513 30.8779 30.0998 30.6838Z" />
            </mask>
            <path fill-rule="evenodd" clip-rule="evenodd"
                d="M30.0998 30.6838L27.3049 6.94893C25.6564 7.14301 24.2128 6.39008 24.0806 5.26718L24.0806 5.26701L19.9992 5.74762L19.9992 5.7478C20.1314 6.87072 18.9022 7.9384 17.2537 8.13252C15.6052 8.32665 14.1616 7.57371 14.0293 6.45079L14.0293 6.4506L9.9479 6.93121L9.94792 6.93139C10.0801 8.05431 8.85094 9.12199 7.20241 9.31611L7.20228 9.31613L9.99718 33.0509C9.99722 33.0509 9.99725 33.0509 9.99729 33.0509C11.6458 32.8568 13.0893 33.6097 13.2216 34.7325L17.3031 34.2519C17.171 33.129 18.4001 32.0614 20.0486 31.8673C21.6971 31.6732 23.1406 32.4261 23.2729 33.5489L27.3543 33.0683C27.2222 31.9455 28.4513 30.8779 30.0998 30.6838Z"
                fill="url(#paint3_linear_4501_78009)" />
            <path
                d="M27.3049 6.94893L27.5898 6.91537L27.5563 6.63044L27.2713 6.66399L27.3049 6.94893ZM30.0998 30.6838L30.1333 30.9687L30.4183 30.9352L30.3847 30.6502L30.0998 30.6838ZM24.0806 5.26701L24.3655 5.23346L24.332 4.94852L24.047 4.98207L24.0806 5.26701ZM19.9992 5.74762L19.9656 5.46268L19.6807 5.49623L19.7142 5.78117L19.9992 5.74762ZM14.0293 6.4506L14.3142 6.41705L14.2807 6.13211L13.9958 6.16566L14.0293 6.4506ZM9.9479 6.93121L9.91434 6.64627L9.62941 6.67982L9.66296 6.96476L9.9479 6.93121ZM9.94792 6.93139L10.2329 6.89784L9.94792 6.93139ZM7.20228 9.31613L7.16873 9.03119L6.88379 9.06474L6.91734 9.34968L7.20228 9.31613ZM9.99718 33.0509L9.71224 33.0845L9.74579 33.3694L10.0307 33.3359L9.99718 33.0509ZM13.2216 34.7325L12.9367 34.7661L12.9703 35.051L13.2552 35.0175L13.2216 34.7325ZM17.3031 34.2519L17.3366 34.5368L17.6216 34.5033L17.588 34.2184L17.3031 34.2519ZM23.2729 33.5489L22.988 33.5825L23.0216 33.8674L23.3065 33.8339L23.2729 33.5489ZM27.3543 33.0683L27.3878 33.3533L27.6727 33.3197L27.6392 33.0348L27.3543 33.0683ZM27.0199 6.98248L29.8148 30.7173L30.3847 30.6502L27.5898 6.91537L27.0199 6.98248ZM23.7957 5.30073C23.8762 5.98424 24.3521 6.52283 24.9915 6.85631C25.6324 7.1906 26.4645 7.33675 27.3384 7.23386L27.2713 6.66399C26.4967 6.75518 25.7829 6.62191 25.2568 6.34754C24.7292 6.07234 24.4173 5.67302 24.3655 5.23362L23.7957 5.30073ZM23.7956 5.30056L23.7957 5.30073L24.3655 5.23362L24.3655 5.23346L23.7956 5.30056ZM20.0327 6.03255L24.1141 5.55195L24.047 4.98207L19.9656 5.46268L20.0327 6.03255ZM20.2841 5.71425L20.2841 5.71406L19.7142 5.78117L19.7143 5.78136L20.2841 5.71425ZM17.2872 8.41746C18.1612 8.31455 18.9366 7.97911 19.4824 7.50507C20.0268 7.0322 20.3646 6.39777 20.2841 5.71425L19.7143 5.78136C19.766 6.22076 19.5554 6.68162 19.1061 7.07186C18.6582 7.46092 17.9947 7.75637 17.2201 7.84759L17.2872 8.41746ZM13.7444 6.48434C13.8249 7.16786 14.3009 7.70646 14.9402 8.03993C15.5812 8.37423 16.4133 8.52037 17.2872 8.41746L17.2201 7.84759C16.4455 7.9388 15.7316 7.80554 15.2056 7.53116C14.6779 7.25596 14.366 6.85663 14.3143 6.41723L13.7444 6.48434ZM13.7444 6.48415L13.7444 6.48434L14.3143 6.41723L14.3142 6.41705L13.7444 6.48415ZM9.98145 7.21614L14.0629 6.73554L13.9958 6.16566L9.91434 6.64627L9.98145 7.21614ZM10.2329 6.89784L10.2328 6.89765L9.66296 6.96476L9.66298 6.96494L10.2329 6.89784ZM7.23597 9.60105C8.10989 9.49814 8.88534 9.16269 9.43109 8.68866C9.9755 8.21579 10.3133 7.58136 10.2329 6.89784L9.66298 6.96494C9.71472 7.40434 9.50408 7.86521 9.05481 8.25544C8.60689 8.64451 7.94347 8.93996 7.16886 9.03117L7.23597 9.60105ZM7.23583 9.60106L7.23597 9.60105L7.16886 9.03117L7.16873 9.03119L7.23583 9.60106ZM10.2821 33.0174L7.48722 9.28257L6.91734 9.34968L9.71224 33.0845L10.2821 33.0174ZM10.0307 33.3359C10.0308 33.3359 10.0308 33.3359 10.0308 33.3359C10.0308 33.3359 10.0308 33.3359 10.0308 33.3359L9.96374 32.766C9.96372 32.766 9.9637 32.766 9.96368 32.766C9.96366 32.766 9.96364 32.766 9.96363 32.766L10.0307 33.3359ZM10.0308 33.3359C10.8054 33.2446 11.5193 33.3779 12.0453 33.6522C12.573 33.9274 12.8849 34.3267 12.9367 34.7661L13.5066 34.6989C13.426 34.0155 12.95 33.4769 12.3107 33.1435C11.6698 32.8092 10.8376 32.6631 9.96374 32.766L10.0308 33.3359ZM17.2695 33.967L13.1881 34.4476L13.2552 35.0175L17.3366 34.5368L17.2695 33.967ZM20.0151 31.5824C19.1412 31.6853 18.3657 32.0207 17.82 32.4947C17.2756 32.9676 16.9377 33.6019 17.0181 34.2854L17.588 34.2184C17.5363 33.779 17.747 33.3182 18.1963 32.9279C18.6442 32.5389 19.3076 32.2435 20.0822 32.1523L20.0151 31.5824ZM23.5579 33.5153C23.4773 32.8319 23.0013 32.2933 22.362 31.9599C21.7211 31.6256 20.8889 31.4795 20.0151 31.5824L20.0822 32.1523C20.8567 32.061 21.5706 32.1943 22.0967 32.4686C22.6243 32.7438 22.9362 33.1431 22.988 33.5825L23.5579 33.5153ZM27.3207 32.7834L23.2394 33.264L23.3065 33.8339L27.3878 33.3533L27.3207 32.7834ZM30.0662 30.3988C29.1923 30.5018 28.4169 30.8372 27.8712 31.3112C27.3268 31.784 26.9889 32.4184 27.0693 33.1018L27.6392 33.0348C27.5875 32.5954 27.7982 32.1346 28.2475 31.7444C28.6954 31.3554 29.3588 31.0599 30.1333 30.9687L30.0662 30.3988Z"
                fill="url(#paint4_linear_4501_78009)" mask="url(#path-10-inside-2_4501_78009)" />
            <path
                d="M27.3049 6.94893L27.5898 6.91537L27.5563 6.63044L27.2713 6.66399L27.3049 6.94893ZM30.0998 30.6838L30.1333 30.9687L30.4183 30.9352L30.3847 30.6502L30.0998 30.6838ZM24.0806 5.26701L24.3655 5.23346L24.332 4.94852L24.047 4.98207L24.0806 5.26701ZM19.9992 5.74762L19.9656 5.46268L19.6807 5.49623L19.7142 5.78117L19.9992 5.74762ZM14.0293 6.4506L14.3142 6.41705L14.2807 6.13211L13.9958 6.16566L14.0293 6.4506ZM9.9479 6.93121L9.91434 6.64627L9.62941 6.67982L9.66296 6.96476L9.9479 6.93121ZM9.94792 6.93139L10.2329 6.89784L9.94792 6.93139ZM7.20228 9.31613L7.16873 9.03119L6.88379 9.06474L6.91734 9.34968L7.20228 9.31613ZM9.99718 33.0509L9.71224 33.0845L9.74579 33.3694L10.0307 33.3359L9.99718 33.0509ZM13.2216 34.7325L12.9367 34.7661L12.9703 35.051L13.2552 35.0175L13.2216 34.7325ZM17.3031 34.2519L17.3366 34.5368L17.6216 34.5033L17.588 34.2184L17.3031 34.2519ZM23.2729 33.5489L22.988 33.5825L23.0216 33.8674L23.3065 33.8339L23.2729 33.5489ZM27.3543 33.0683L27.3878 33.3533L27.6727 33.3197L27.6392 33.0348L27.3543 33.0683ZM27.0199 6.98248L29.8148 30.7173L30.3847 30.6502L27.5898 6.91537L27.0199 6.98248ZM23.7957 5.30073C23.8762 5.98424 24.3521 6.52283 24.9915 6.85631C25.6324 7.1906 26.4645 7.33675 27.3384 7.23386L27.2713 6.66399C26.4967 6.75518 25.7829 6.62191 25.2568 6.34754C24.7292 6.07234 24.4173 5.67302 24.3655 5.23362L23.7957 5.30073ZM23.7956 5.30056L23.7957 5.30073L24.3655 5.23362L24.3655 5.23346L23.7956 5.30056ZM20.0327 6.03255L24.1141 5.55195L24.047 4.98207L19.9656 5.46268L20.0327 6.03255ZM20.2841 5.71425L20.2841 5.71406L19.7142 5.78117L19.7143 5.78136L20.2841 5.71425ZM17.2872 8.41746C18.1612 8.31455 18.9366 7.97911 19.4824 7.50507C20.0268 7.0322 20.3646 6.39777 20.2841 5.71425L19.7143 5.78136C19.766 6.22076 19.5554 6.68162 19.1061 7.07186C18.6582 7.46092 17.9947 7.75637 17.2201 7.84759L17.2872 8.41746ZM13.7444 6.48434C13.8249 7.16786 14.3009 7.70646 14.9402 8.03993C15.5812 8.37423 16.4133 8.52037 17.2872 8.41746L17.2201 7.84759C16.4455 7.9388 15.7316 7.80554 15.2056 7.53116C14.6779 7.25596 14.366 6.85663 14.3143 6.41723L13.7444 6.48434ZM13.7444 6.48415L13.7444 6.48434L14.3143 6.41723L14.3142 6.41705L13.7444 6.48415ZM9.98145 7.21614L14.0629 6.73554L13.9958 6.16566L9.91434 6.64627L9.98145 7.21614ZM10.2329 6.89784L10.2328 6.89765L9.66296 6.96476L9.66298 6.96494L10.2329 6.89784ZM7.23597 9.60105C8.10989 9.49814 8.88534 9.16269 9.43109 8.68866C9.9755 8.21579 10.3133 7.58136 10.2329 6.89784L9.66298 6.96494C9.71472 7.40434 9.50408 7.86521 9.05481 8.25544C8.60689 8.64451 7.94347 8.93996 7.16886 9.03117L7.23597 9.60105ZM7.23583 9.60106L7.23597 9.60105L7.16886 9.03117L7.16873 9.03119L7.23583 9.60106ZM10.2821 33.0174L7.48722 9.28257L6.91734 9.34968L9.71224 33.0845L10.2821 33.0174ZM10.0307 33.3359C10.0308 33.3359 10.0308 33.3359 10.0308 33.3359C10.0308 33.3359 10.0308 33.3359 10.0308 33.3359L9.96374 32.766C9.96372 32.766 9.9637 32.766 9.96368 32.766C9.96366 32.766 9.96364 32.766 9.96363 32.766L10.0307 33.3359ZM10.0308 33.3359C10.8054 33.2446 11.5193 33.3779 12.0453 33.6522C12.573 33.9274 12.8849 34.3267 12.9367 34.7661L13.5066 34.6989C13.426 34.0155 12.95 33.4769 12.3107 33.1435C11.6698 32.8092 10.8376 32.6631 9.96374 32.766L10.0308 33.3359ZM17.2695 33.967L13.1881 34.4476L13.2552 35.0175L17.3366 34.5368L17.2695 33.967ZM20.0151 31.5824C19.1412 31.6853 18.3657 32.0207 17.82 32.4947C17.2756 32.9676 16.9377 33.6019 17.0181 34.2854L17.588 34.2184C17.5363 33.779 17.747 33.3182 18.1963 32.9279C18.6442 32.5389 19.3076 32.2435 20.0822 32.1523L20.0151 31.5824ZM23.5579 33.5153C23.4773 32.8319 23.0013 32.2933 22.362 31.9599C21.7211 31.6256 20.8889 31.4795 20.0151 31.5824L20.0822 32.1523C20.8567 32.061 21.5706 32.1943 22.0967 32.4686C22.6243 32.7438 22.9362 33.1431 22.988 33.5825L23.5579 33.5153ZM27.3207 32.7834L23.2394 33.264L23.3065 33.8339L27.3878 33.3533L27.3207 32.7834ZM30.0662 30.3988C29.1923 30.5018 28.4169 30.8372 27.8712 31.3112C27.3268 31.784 26.9889 32.4184 27.0693 33.1018L27.6392 33.0348C27.5875 32.5954 27.7982 32.1346 28.2475 31.7444C28.6954 31.3554 29.3588 31.0599 30.1333 30.9687L30.0662 30.3988Z"
                fill="url(#paint5_linear_4501_78009)" mask="url(#path-10-inside-2_4501_78009)" />
        </g>
        <mask id="path-12-inside-3_4501_78009" fill="white">
            <path fill-rule="evenodd" clip-rule="evenodd"
                d="M28.2804 32.9212C26.9687 33.0757 26.0306 34.2642 26.185 35.5759L22.9373 35.9583C22.7828 34.6466 21.5942 33.7085 20.2825 33.863C18.9708 34.0174 18.0326 35.206 18.187 36.5177L14.9394 36.9001C14.7849 35.5884 13.5963 34.6503 12.2846 34.8048L9.01971 7.07869C10.3315 6.92423 11.2696 5.73562 11.1152 4.42387L11.1151 4.42373L14.3628 4.04131L14.3628 4.04143C14.5173 5.35318 15.7059 6.29135 17.0176 6.13688C18.3294 5.98241 19.2675 4.79381 19.1131 3.48206L19.1131 3.48194L22.3607 3.09951L22.3607 3.09963C22.5152 4.41139 23.7038 5.34955 25.0155 5.19509L28.2804 32.9212Z" />
        </mask>
        <path fill-rule="evenodd" clip-rule="evenodd"
            d="M28.2804 32.9212C26.9687 33.0757 26.0306 34.2642 26.185 35.5759L22.9373 35.9583C22.7828 34.6466 21.5942 33.7085 20.2825 33.863C18.9708 34.0174 18.0326 35.206 18.187 36.5177L14.9394 36.9001C14.7849 35.5884 13.5963 34.6503 12.2846 34.8048L9.01971 7.07869C10.3315 6.92423 11.2696 5.73562 11.1152 4.42387L11.1151 4.42373L14.3628 4.04131L14.3628 4.04143C14.5173 5.35318 15.7059 6.29135 17.0176 6.13688C18.3294 5.98241 19.2675 4.79381 19.1131 3.48206L19.1131 3.48194L22.3607 3.09951L22.3607 3.09963C22.5152 4.41139 23.7038 5.34955 25.0155 5.19509L28.2804 32.9212Z"
            fill="url(#paint6_radial_4501_78009)" />
        <path
            d="M26.185 35.5759L26.2192 35.8667L26.51 35.8325L26.4758 35.5417L26.185 35.5759ZM28.2804 32.9212L28.3147 33.212L28.6055 33.1778L28.5713 32.887L28.2804 32.9212ZM22.9373 35.9583L22.6465 35.9926L22.6808 36.2834L22.9716 36.2492L22.9373 35.9583ZM18.187 36.5177L18.2213 36.8085L18.5121 36.7743L18.4779 36.4835L18.187 36.5177ZM14.9394 36.9001L14.6486 36.9344L14.6828 37.2252L14.9737 37.191L14.9394 36.9001ZM12.2846 34.8048L11.9938 34.839L12.028 35.1299L12.3188 35.0956L12.2846 34.8048ZM9.01971 7.07869L8.98546 6.78786L8.69463 6.82211L8.72887 7.11294L9.01971 7.07869ZM11.1151 4.42373L11.0809 4.1329L10.7901 4.16715L10.8243 4.45798L11.1151 4.42373ZM14.3628 4.04131L14.6536 4.00706L14.6194 3.71623L14.3285 3.75047L14.3628 4.04131ZM19.1131 3.48194L19.0788 3.1911L18.788 3.22535L18.8222 3.51618L19.1131 3.48194ZM22.3607 3.09951L22.6515 3.06526L22.6173 2.77443L22.3265 2.80868L22.3607 3.09951ZM25.0155 5.19509L25.3064 5.16084L25.2721 4.87001L24.9813 4.90426L25.0155 5.19509ZM26.4758 35.5417C26.3403 34.3906 27.1636 33.3476 28.3147 33.212L28.2462 32.6304C26.7738 32.8037 25.7208 34.1378 25.8941 35.6101L26.4758 35.5417ZM22.9716 36.2492L26.2192 35.8667L26.1507 35.2851L22.9031 35.6675L22.9716 36.2492ZM20.3168 34.1538C21.4679 34.0183 22.5109 34.8415 22.6465 35.9926L23.2282 35.9241C23.0547 34.4518 21.7206 33.3988 20.2483 33.5722L20.3168 34.1538ZM18.4779 36.4835C18.3424 35.3324 19.1657 34.2894 20.3168 34.1538L20.2483 33.5722C18.7759 33.7455 17.7229 35.0796 17.8962 36.5519L18.4779 36.4835ZM14.9737 37.191L18.2213 36.8085L18.1528 36.2269L14.9052 36.6093L14.9737 37.191ZM12.3188 35.0956C13.4699 34.9601 14.513 35.7833 14.6486 36.9344L15.2302 36.8659C15.0568 35.3936 13.7227 34.3406 12.2504 34.514L12.3188 35.0956ZM8.72887 7.11294L11.9938 34.839L12.5754 34.7706L9.31054 7.04444L8.72887 7.11294ZM10.8243 4.45812C10.9599 5.60925 10.1366 6.65231 8.98546 6.78786L9.05395 7.36952C10.5263 7.19614 11.5794 5.862 11.406 4.38962L10.8243 4.45812ZM10.8243 4.45798L10.8243 4.45812L11.406 4.38962L11.406 4.38949L10.8243 4.45798ZM14.3285 3.75047L11.0809 4.1329L11.1494 4.71457L14.397 4.33214L14.3285 3.75047ZM14.6536 4.00718L14.6536 4.00706L14.0719 4.07555L14.072 4.07567L14.6536 4.00718ZM16.9834 5.84605C15.8322 5.9816 14.7892 5.15831 14.6536 4.00718L14.072 4.07567C14.2453 5.54805 15.5795 6.60109 17.0519 6.42771L16.9834 5.84605ZM18.8222 3.5163C18.9578 4.66743 18.1345 5.7105 16.9834 5.84605L17.0519 6.42771C18.5242 6.25433 19.5773 4.92019 19.4039 3.44781L18.8222 3.5163ZM18.8222 3.51618L18.8222 3.5163L19.4039 3.44781L19.4039 3.44769L18.8222 3.51618ZM22.3265 2.80868L19.0788 3.1911L19.1473 3.77277L22.3949 3.39034L22.3265 2.80868ZM22.6515 3.06539L22.6515 3.06526L22.0699 3.13376L22.0699 3.13388L22.6515 3.06539ZM24.9813 4.90426C23.8302 5.03981 22.7871 4.21652 22.6515 3.06539L22.0699 3.13388C22.2433 4.60626 23.5774 5.6593 25.0498 5.48592L24.9813 4.90426ZM28.5713 32.887L25.3064 5.16084L24.7247 5.22934L27.9896 32.9554L28.5713 32.887Z"
            fill="url(#paint7_linear_4501_78009)" fill-opacity="0.58"
            mask="url(#path-12-inside-3_4501_78009)" />
        <path
            d="M26.185 35.5759L26.2192 35.8667L26.51 35.8325L26.4758 35.5417L26.185 35.5759ZM28.2804 32.9212L28.3147 33.212L28.6055 33.1778L28.5713 32.887L28.2804 32.9212ZM22.9373 35.9583L22.6465 35.9926L22.6808 36.2834L22.9716 36.2492L22.9373 35.9583ZM18.187 36.5177L18.2213 36.8085L18.5121 36.7743L18.4779 36.4835L18.187 36.5177ZM14.9394 36.9001L14.6486 36.9344L14.6828 37.2252L14.9737 37.191L14.9394 36.9001ZM12.2846 34.8048L11.9938 34.839L12.028 35.1299L12.3188 35.0956L12.2846 34.8048ZM9.01971 7.07869L8.98546 6.78786L8.69463 6.82211L8.72887 7.11294L9.01971 7.07869ZM11.1151 4.42373L11.0809 4.1329L10.7901 4.16715L10.8243 4.45798L11.1151 4.42373ZM14.3628 4.04131L14.6536 4.00706L14.6194 3.71623L14.3285 3.75047L14.3628 4.04131ZM19.1131 3.48194L19.0788 3.1911L18.788 3.22535L18.8222 3.51618L19.1131 3.48194ZM22.3607 3.09951L22.6515 3.06526L22.6173 2.77443L22.3265 2.80868L22.3607 3.09951ZM25.0155 5.19509L25.3064 5.16084L25.2721 4.87001L24.9813 4.90426L25.0155 5.19509ZM26.4758 35.5417C26.3403 34.3906 27.1636 33.3476 28.3147 33.212L28.2462 32.6304C26.7738 32.8037 25.7208 34.1378 25.8941 35.6101L26.4758 35.5417ZM22.9716 36.2492L26.2192 35.8667L26.1507 35.2851L22.9031 35.6675L22.9716 36.2492ZM20.3168 34.1538C21.4679 34.0183 22.5109 34.8415 22.6465 35.9926L23.2282 35.9241C23.0547 34.4518 21.7206 33.3988 20.2483 33.5722L20.3168 34.1538ZM18.4779 36.4835C18.3424 35.3324 19.1657 34.2894 20.3168 34.1538L20.2483 33.5722C18.7759 33.7455 17.7229 35.0796 17.8962 36.5519L18.4779 36.4835ZM14.9737 37.191L18.2213 36.8085L18.1528 36.2269L14.9052 36.6093L14.9737 37.191ZM12.3188 35.0956C13.4699 34.9601 14.513 35.7833 14.6486 36.9344L15.2302 36.8659C15.0568 35.3936 13.7227 34.3406 12.2504 34.514L12.3188 35.0956ZM8.72887 7.11294L11.9938 34.839L12.5754 34.7706L9.31054 7.04444L8.72887 7.11294ZM10.8243 4.45812C10.9599 5.60925 10.1366 6.65231 8.98546 6.78786L9.05395 7.36952C10.5263 7.19614 11.5794 5.862 11.406 4.38962L10.8243 4.45812ZM10.8243 4.45798L10.8243 4.45812L11.406 4.38962L11.406 4.38949L10.8243 4.45798ZM14.3285 3.75047L11.0809 4.1329L11.1494 4.71457L14.397 4.33214L14.3285 3.75047ZM14.6536 4.00718L14.6536 4.00706L14.0719 4.07555L14.072 4.07567L14.6536 4.00718ZM16.9834 5.84605C15.8322 5.9816 14.7892 5.15831 14.6536 4.00718L14.072 4.07567C14.2453 5.54805 15.5795 6.60109 17.0519 6.42771L16.9834 5.84605ZM18.8222 3.5163C18.9578 4.66743 18.1345 5.7105 16.9834 5.84605L17.0519 6.42771C18.5242 6.25433 19.5773 4.92019 19.4039 3.44781L18.8222 3.5163ZM18.8222 3.51618L18.8222 3.5163L19.4039 3.44781L19.4039 3.44769L18.8222 3.51618ZM22.3265 2.80868L19.0788 3.1911L19.1473 3.77277L22.3949 3.39034L22.3265 2.80868ZM22.6515 3.06539L22.6515 3.06526L22.0699 3.13376L22.0699 3.13388L22.6515 3.06539ZM24.9813 4.90426C23.8302 5.03981 22.7871 4.21652 22.6515 3.06539L22.0699 3.13388C22.2433 4.60626 23.5774 5.6593 25.0498 5.48592L24.9813 4.90426ZM28.5713 32.887L25.3064 5.16084L24.7247 5.22934L27.9896 32.9554L28.5713 32.887Z"
            fill="url(#paint8_linear_4501_78009)" mask="url(#path-12-inside-3_4501_78009)" />
        <g opacity="0.6" filter="url(#filter1_f_4501_78009)">
            <path
                d="M23.0041 21.0161C24.6816 18.2957 23.999 14.6527 21.4216 12.5997C19.6934 11.223 17.5428 10.8365 15.6278 11.3222C15.5246 11.3483 15.5137 11.489 15.6123 11.5356C16.0533 11.7406 16.4866 11.988 16.9082 12.2763C18.3012 13.2291 19.3227 14.4664 19.8444 15.8526C20.3707 15.7658 20.8739 15.5531 21.2763 15.2273C21.3612 15.1581 21.4861 15.2435 21.4524 15.3478C21.1403 16.3216 21.3799 17.4964 22.0539 18.3001C22.1258 18.386 22.0431 18.5069 21.937 18.4711C21.39 18.2854 20.7862 18.2653 20.2217 18.3896C20.2217 18.3896 20.2211 18.3904 20.2205 18.3913C20.1416 19.538 19.7337 20.7253 18.9341 21.8944C18.3974 22.679 17.7906 23.3019 17.1362 23.776C17.0498 23.838 17.0945 23.9763 17.2026 23.9817C19.4761 24.117 21.7337 23.0736 23.0024 21.015L23.0041 21.0161Z"
                fill="white" />
            <path
                d="M19.8446 15.8539C19.332 15.939 18.7955 15.9049 18.3041 15.7389C18.251 15.721 18.2043 15.7416 18.1797 15.7775C18.1552 15.8134 18.1529 15.8644 18.1888 15.9073C18.8623 16.7119 19.1024 17.8859 18.7903 18.8597C18.7567 18.964 18.8815 19.0494 18.9665 18.9802C19.3238 18.6909 19.7594 18.4907 20.2216 18.3895C20.2813 17.5112 20.1478 16.6585 19.8446 15.8539Z"
                fill="white" />
        </g>
        <path
            d="M21.9631 22.1129C24.2875 19.9193 24.571 16.2237 22.6128 13.5737C21.2998 11.7966 19.3226 10.8666 17.3471 10.8401C17.2406 10.8386 17.1937 10.9717 17.2769 11.0423C17.6498 11.3544 18.0043 11.7055 18.3369 12.0931C19.4359 13.374 20.1023 14.8335 20.2475 16.3075C20.7783 16.3599 21.3194 16.2846 21.7924 16.0741C21.8924 16.0293 21.9908 16.1441 21.9313 16.2361C21.3779 17.0959 21.3052 18.2927 21.7482 19.2435C21.7954 19.345 21.6842 19.4404 21.591 19.3784C21.1107 19.0574 20.5327 18.8817 19.9552 18.8557C19.9552 18.8557 19.9545 18.8563 19.9537 18.857C19.5807 19.9442 18.8794 20.9855 17.8044 21.9078C17.0829 22.5268 16.3356 22.9714 15.5808 23.2599C15.4813 23.2975 15.4887 23.4427 15.5917 23.4759C17.7527 24.1949 20.2034 23.7715 21.9618 22.1113L21.9631 22.1129Z"
            fill="white" />
        <path
            d="M20.2471 16.3091C19.7299 16.2586 19.2205 16.0868 18.7888 15.7993C18.7422 15.7683 18.6917 15.7761 18.6587 15.8044C18.6257 15.8327 18.6103 15.8814 18.6339 15.9322C19.0762 16.8837 19.0042 18.0798 18.4508 18.9396C18.3913 19.0316 18.4898 19.1464 18.5897 19.1016C19.0097 18.9146 19.4823 18.834 19.9549 18.8558C20.24 18.0229 20.3317 17.1648 20.2471 16.3091Z"
            fill="white" />
        <path opacity="0.5" fill-rule="evenodd" clip-rule="evenodd"
            d="M24.7986 30.4804L15.1042 31.622C14.3011 31.7166 13.5733 31.1422 13.4788 30.3391L13.1363 27.4307L25.7389 25.9467L25.7391 25.9467L26.0815 28.855C26.1761 29.6581 25.6017 30.3858 24.7986 30.4804ZM26.1664 25.4031L24.3048 9.59467C24.1787 8.52385 23.2084 7.758 22.1376 7.88409L12.4432 9.02566C11.3724 9.15176 10.6065 10.122 10.7326 11.1929L12.5944 27.0031L12.6514 27.4878L12.6516 27.4878L12.994 30.3961C13.1201 31.467 14.0904 32.2328 15.1612 32.1067L24.8557 30.9651C25.9265 30.839 26.6924 29.8688 26.5663 28.7979L26.2236 25.8878L26.1665 25.4031L26.1664 25.4031ZM25.6816 25.4602L23.8201 9.65175C23.7255 8.84863 22.9978 8.27424 22.1947 8.36882L12.5003 9.51039C11.6972 9.60496 11.1228 10.3327 11.2173 11.1358L13.0789 26.9442L13.079 26.9442L25.6816 25.4602Z"
            fill="url(#paint9_linear_4501_78009)" />
        <g filter="url(#filter2_d_4501_78009)">
            <path
                d="M19.4634 27.483C19.4823 27.3896 19.6095 27.3746 19.6496 27.461L19.661 27.4855C19.9076 28.0162 20.3916 28.3983 20.9651 28.5148L20.9915 28.5202C21.0849 28.5392 21.0999 28.6663 21.0135 28.7065L20.989 28.7178C20.4583 28.9644 20.0762 29.4485 19.9597 30.022L19.9543 30.0484C19.9353 30.1417 19.8082 30.1567 19.768 30.0703L19.7567 30.0459C19.5101 29.5151 19.026 29.1331 18.4525 29.0165L18.4261 29.0112C18.3328 28.9922 18.3178 28.865 18.4042 28.8249L18.4286 28.8135C18.9594 28.5669 19.3414 28.0829 19.458 27.5094L19.4634 27.483Z"
                fill="white" />
        </g>
        <path opacity="0.3"
            d="M15.5669 27.9845C15.586 27.8903 15.7142 27.8752 15.7547 27.9624C16.0033 28.4975 16.4914 28.8827 17.0697 29.0003C17.1638 29.0194 17.1789 29.1476 17.0918 29.1881C16.5566 29.4367 16.1714 29.9248 16.0539 30.503C16.0347 30.5972 15.9065 30.6123 15.8661 30.5252C15.6174 29.99 15.1294 29.6048 14.5511 29.4873C14.457 29.4681 14.4419 29.3399 14.529 29.2994C15.0641 29.0508 15.4494 28.5627 15.5669 27.9845Z"
            fill="white" />
        <path opacity="0.3"
            d="M23.3154 27.0719C23.3346 26.9777 23.4628 26.9626 23.5032 27.0498C23.7519 27.5849 24.2399 27.9701 24.8182 28.0877C24.9123 28.1068 24.9274 28.235 24.8403 28.2755C24.3052 28.5241 23.92 29.0122 23.8024 29.5905C23.7833 29.6846 23.6551 29.6997 23.6146 29.6126C23.366 29.0774 22.8779 28.6922 22.2996 28.5747C22.2055 28.5555 22.1904 28.4273 22.2775 28.3868C22.8127 28.1382 23.1979 27.6501 23.3154 27.0719Z"
            fill="white" />
        <path
            d="M13.5449 13.6415L11.4338 12.988L10.2046 14.8244L10.8581 12.7134L9.02168 11.4841L11.1327 12.1377L12.3619 10.3012L11.7084 12.4122L13.5449 13.6415Z"
            fill="url(#paint10_radial_4501_78009)" />
        <path
            d="M14.7367 27.9247L13.2265 27.3236L12.2192 28.5993L12.8202 27.0891L11.5446 26.0817L13.0548 26.6828L14.0621 25.4071L13.4611 26.9173L14.7367 27.9247Z"
            fill="url(#paint11_radial_4501_78009)" />
        <path
            d="M26.1717 19.6274L25.4264 20.216L25.7776 21.0983L25.189 20.353L24.3066 20.7042L25.0519 20.1156L24.7007 19.2332L25.2893 19.9786L26.1717 19.6274Z"
            fill="url(#paint12_radial_4501_78009)" />
    </g>
    <defs>
        <filter id="filter0_f_4501_78009" x="-4.69531" y="-6.63037" width="46.6924" height="53.2603"
            filterUnits="userSpaceOnUse" color-interpolation-filters="sRGB">
            <feFlood flood-opacity="0" result="BackgroundImageFix" />
            <feBlend mode="normal" in="SourceGraphic" in2="BackgroundImageFix" result="shape" />
            <feGaussianBlur stdDeviation="5.94873" result="effect1_foregroundBlur_4501_78009" />
        </filter>
        <filter id="filter1_f_4501_78009" x="10.7439" y="6.32207" width="17.9765" height="22.4711"
            filterUnits="userSpaceOnUse" color-interpolation-filters="sRGB">
            <feFlood flood-opacity="0" result="BackgroundImageFix" />
            <feBlend mode="normal" in="SourceGraphic" in2="BackgroundImageFix" result="shape" />
            <feGaussianBlur stdDeviation="2.4" result="effect1_foregroundBlur_4501_78009" />
        </filter>
        <filter id="filter2_d_4501_78009" x="17.0638" y="26.976" width="5.29032" height="5.29032"
            filterUnits="userSpaceOnUse" color-interpolation-filters="sRGB">
            <feFlood flood-opacity="0" result="BackgroundImageFix" />
            <feColorMatrix in="SourceAlpha" type="matrix"
                values="0 0 0 0 0 0 0 0 0 0 0 0 0 0 0 0 0 0 127 0" result="hardAlpha" />
            <feOffset dy="0.855562" />
            <feGaussianBlur stdDeviation="0.641671" />
            <feComposite in2="hardAlpha" operator="out" />
            <feColorMatrix type="matrix"
                values="0 0 0 0 0.729167 0 0 0 0 0.04375 0 0 0 0 0 0 0 0 0.44 0" />
            <feBlend mode="normal" in2="BackgroundImageFix" result="effect1_dropShadow_4501_78009" />
            <feBlend mode="normal" in="SourceGraphic" in2="effect1_dropShadow_4501_78009"
                result="shape" />
        </filter>
        <linearGradient id="paint0_linear_4501_78009" x1="16.5093" y1="13.095" x2="30.0372"
            y2="22.0318" gradientUnits="userSpaceOnUse">
            <stop stop-color="#98290C" />
            <stop offset="1" stop-color="#FF5D02" />
        </linearGradient>
        <linearGradient id="paint1_linear_4501_78009" x1="25.3535" y1="-5.94431" x2="18.979"
            y2="5.28503" gradientUnits="userSpaceOnUse">
            <stop stop-color="white" />
            <stop offset="1" stop-color="white" stop-opacity="0" />
        </linearGradient>
        <linearGradient id="paint2_linear_4501_78009" x1="45.685" y1="8.95579" x2="6.85333"
            y2="23.4058" gradientUnits="userSpaceOnUse">
            <stop stop-color="white" stop-opacity="0" />
            <stop offset="0.73465" stop-color="white" />
            <stop offset="1" stop-color="white" stop-opacity="0" />
        </linearGradient>
        <linearGradient id="paint3_linear_4501_78009" x1="4.22319" y1="17.672" x2="25.6128"
            y2="17.2807" gradientUnits="userSpaceOnUse">
            <stop stop-color="#98290C" />
            <stop offset="1" stop-color="#FF5D02" />
        </linearGradient>
        <linearGradient id="paint4_linear_4501_78009" x1="-0.225648" y1="-0.789614" x2="1.13516"
            y2="10.7666" gradientUnits="userSpaceOnUse">
            <stop stop-color="white" />
            <stop offset="1" stop-color="white" stop-opacity="0" />
        </linearGradient>
        <linearGradient id="paint5_linear_4501_78009" x1="4.55305" y1="39.792" x2="3.81523"
            y2="33.5263" gradientUnits="userSpaceOnUse">
            <stop />
            <stop offset="1" stop-opacity="0" />
        </linearGradient>
        <radialGradient id="paint6_radial_4501_78009" cx="0" cy="0" r="1"
            gradientUnits="userSpaceOnUse"
            gradientTransform="translate(13.9489 42.3474) rotate(-70.9179) scale(44.3119 62.9736)">
            <stop stop-color="#AA160C" />
            <stop offset="0.620539" stop-color="#FF6B00" />
            <stop offset="1" stop-color="#F84B00" />
        </radialGradient>
        <linearGradient id="paint7_linear_4501_78009" x1="5.73933" y1="-0.0458361" x2="18.1947"
            y2="20.1218" gradientUnits="userSpaceOnUse">
            <stop stop-color="white" />
            <stop offset="1" stop-color="white" stop-opacity="0" />
        </linearGradient>
        <linearGradient id="paint8_linear_4501_78009" x1="8.21654" y1="42.4096" x2="7.35465"
            y2="35.0903" gradientUnits="userSpaceOnUse">
            <stop />
            <stop offset="1" stop-opacity="0" />
        </linearGradient>
        <linearGradient id="paint9_linear_4501_78009" x1="29.1688" y1="-5.02496" x2="24.3265"
            y2="35.7673" gradientUnits="userSpaceOnUse">
            <stop stop-color="white" stop-opacity="0" />
            <stop offset="0.165838" stop-color="white" stop-opacity="0.12" />
            <stop offset="0.281885" stop-color="white" stop-opacity="0.68" />
            <stop offset="0.447583" stop-color="white" stop-opacity="0.27" />
            <stop offset="0.818694" stop-color="white" stop-opacity="0.79" />
            <stop offset="0.891948" stop-color="white" stop-opacity="0.26" />
            <stop offset="0.971632" stop-color="white" stop-opacity="0.17" />
        </linearGradient>
        <radialGradient id="paint10_radial_4501_78009" cx="0" cy="0" r="1"
            gradientUnits="userSpaceOnUse"
            gradientTransform="translate(11.2833 12.5628) rotate(-179.466) scale(7.25032)">
            <stop offset="0.0976782" stop-color="white" />
            <stop offset="1" stop-color="white" stop-opacity="0" />
        </radialGradient>
        <radialGradient id="paint11_radial_4501_78009" cx="0" cy="0" r="1"
            gradientUnits="userSpaceOnUse"
            gradientTransform="translate(13.1406 27.0032) rotate(-174.965) scale(5.3328)">
            <stop offset="0.0976782" stop-color="white" />
            <stop offset="1" stop-color="white" stop-opacity="0" />
        </radialGradient>
        <radialGradient id="paint12_radial_4501_78009" cx="0" cy="0" r="1"
            gradientUnits="userSpaceOnUse"
            gradientTransform="translate(25.2392 20.1658) rotate(125.035) scale(3.11587)">
            <stop offset="0.0976782" stop-color="white" />
            <stop offset="1" stop-color="white" stop-opacity="0" />
        </radialGradient>
        <clipPath id="clip0_4501_78009">
            <rect width="40" height="40" fill="white" />
        </clipPath>
    </defs>
</svg>
    